<?xml version="1.0" encoding="iso-8859-1"?>
<!-- Generator: Adobe Illustrator 19.0.0, SVG Export Plug-In . SVG Version: 6.00 Build 0)  -->
<svg version="1.1" id="Capa_1" xmlns="http://www.w3.org/2000/svg" xmlns:xlink="http://www.w3.org/1999/xlink" x="0px" y="0px"
	 viewBox="0 0 455.111 455.111" style="enable-background:new 0 0 455.111 455.111;" xml:space="preserve">
<ellipse style="fill:#E24C4B;" cx="227.556" cy="227.556" rx="227.556" ry="227.556"/>
<path style="fill:#FFFFFF;" d="M227.523,412.441c-102.4,0-184.889-82.489-184.889-184.889S125.123,42.663,227.523,42.663
	s184.889,82.489,184.889,184.889S329.923,412.441,227.523,412.441z"/>
<path style="fill:#3F4448;" d="M341.301,189.152c-4.267-1.422-7.111-4.267-9.956-5.689c2.844,2.844,5.689,5.689,7.111,8.533
	c2.844,5.689,4.267,8.533,8.533,11.378c4.267,2.844,4.267,8.533,1.422,8.533c-2.844,0-7.111-2.844-8.533-5.689
	c-2.844-2.844-2.844-2.844-2.844-2.844s-2.844,2.844-8.533-1.422c-5.689-4.267-5.689-7.111-8.533-8.533
	c-2.844-1.422-5.689,0-8.533,2.844c-15.644,14.222-15.644,29.867-27.022,55.467c-7.111,15.644-8.533,32.711-7.111,41.244
	c1.422,8.533,2.844,8.533,0,11.378c0,0,0,15.644,4.267,19.911c4.267,4.267,5.689,0,9.956,2.844c4.267,2.844,4.267,5.689,4.267,7.111
	c-1.422,1.422-18.489,1.422-18.489,1.422s-2.844-2.844-2.844-5.689c-5.689-1.422-12.8-66.844-12.8-72.533
	c-7.111,4.267-4.267,31.289-2.844,39.822c0,0,1.422,1.422,0,8.533c-1.422,5.689,2.844,18.489,5.689,21.333
	c4.267,2.844,5.689,7.111,5.689,9.956h-18.489c0,0-2.844-4.267-2.844-11.378s-4.267-8.533-5.689-31.289
	c-1.422-21.333-2.844-31.289-5.689-36.978c0,0-31.289-4.267-42.667-9.956c-9.956-5.689-14.222-4.267-14.222-4.267
	c4.267,28.444-32.711,46.933-31.289,65.422c1.422,9.956,4.267,18.489,7.111,19.911c2.844,2.844,9.956,0,9.956,8.533h-17.067
	c0,0-2.844-1.422-1.422-5.689c0,0-8.533-19.911-11.378-25.6c-2.844-5.689-4.267-8.533-1.422-12.8
	c2.844-4.267,9.956-9.956,12.8-17.067c-7.111,4.267-14.222,11.378-18.489,19.911c-2.844,8.533-7.111,29.867,0,34.133
	c1.422,1.422,7.111,1.422,7.111,7.111h-18.489c0,0-2.844-1.422-2.844-9.956c0-8.533-2.844-22.756-2.844-27.022
	c-1.422-4.267-1.422-7.111,2.844-11.378c14.222-17.067,12.8-24.178,14.222-46.933c0,0-7.111,25.6-27.022,35.556
	s-18.489,7.111-22.756,14.222c0,0-5.689-8.533,4.267-17.067c64-25.6,5.689-102.4,137.956-86.756
	c7.111,1.422,14.222-5.689,29.867-4.267c19.911-12.8,48.356-31.289,48.356-31.289s5.689-9.956,11.378-18.489
	c5.689-7.111,8.533-12.8,11.378-14.222c2.844-2.844,2.844-1.422,2.844,4.267c0,5.689,1.422,11.378,0,14.222
	c0,0,1.422-2.844,1.422-4.267c0,0,2.844-4.267,5.689-7.111c2.844-2.844,4.267-7.111,2.844-1.422
	c-2.844,5.689-5.689,17.067-7.111,21.333c0,5.689,8.533,9.956,9.956,17.067c0,2.844,0,5.689,8.533,11.378
	c7.111,5.689,14.222,11.378,11.378,14.222C356.946,190.574,349.835,191.996,341.301,189.152z"/>
<polygon style="fill:#E24C4B;" points="382.546,352.707 352.679,382.574 71.079,102.396 102.368,71.107 "/>
<g>
</g>
<g>
</g>
<g>
</g>
<g>
</g>
<g>
</g>
<g>
</g>
<g>
</g>
<g>
</g>
<g>
</g>
<g>
</g>
<g>
</g>
<g>
</g>
<g>
</g>
<g>
</g>
<g>
</g>
</svg>
