<?xml version="1.0" encoding="iso-8859-1"?>
<!-- Generator: Adobe Illustrator 19.0.0, SVG Export Plug-In . SVG Version: 6.00 Build 0)  -->
<svg version="1.1" id="Capa_1" xmlns="http://www.w3.org/2000/svg" xmlns:xlink="http://www.w3.org/1999/xlink" x="0px" y="0px"
	 viewBox="0 0 455.1 455.1" style="enable-background:new 0 0 455.1 455.1;" xml:space="preserve">
<path style="fill:#E24C4B;" d="M33.002,418.305h389.689c25.6,0,41.244-28.444,27.022-49.778L254.869,52.794
	c-12.8-21.333-42.667-21.333-55.467,0L4.558,368.528C-8.242,389.861,7.402,418.305,33.002,418.305z"/>
<polygon style="fill:#FFFFFF;" points="407.047,375.639 227.847,86.928 48.647,375.639 "/>
<path style="fill:#3F4448;" d="M296.113,260.439c-2.844-1.422-4.267-2.844-5.689-2.844c1.422,1.422,2.844,4.267,4.267,5.689
	c1.422,4.267,2.844,5.689,5.689,7.111c2.844,1.422,2.844,5.689,1.422,5.689c-1.422,0-4.267-1.422-5.689-4.267
	c-1.422-2.844-1.422-2.844-1.422-2.844s-1.422,1.422-5.689-1.422s-4.267-4.267-5.689-5.689c-1.422-1.422-4.267,0-5.689,1.422
	c-9.956,8.533-9.956,19.911-17.067,35.556c-4.267,9.956-5.689,21.333-4.267,27.022c0,5.689,1.422,5.689,0,7.111
	c0,0,0,9.956,2.844,12.8c2.844,2.844,4.267,0,5.689,2.844c2.844,1.422,2.844,2.844,2.844,4.267
	c-1.422,1.422-11.378,1.422-11.378,1.422s-2.844-1.422-1.422-4.267c-2.844,0-8.533-44.089-8.533-48.356
	c-4.267,2.844-2.844,19.911-1.422,25.6c0,0,0,1.422,0,5.689c-1.422,4.267,1.422,12.8,4.267,14.222
	c2.844,1.422,4.267,5.689,4.267,5.689h-12.8c0,0-1.422-2.844-1.422-7.111s-2.844-5.689-4.267-19.911
	c0-14.222-1.422-21.333-4.267-24.178c0,0-21.333-2.844-28.444-7.111s-9.956-2.844-9.956-2.844
	c2.844,18.489-21.333,31.289-19.911,42.667c1.422,5.689,2.844,11.378,5.689,12.8c1.422,1.422,7.111,0,7.111,5.689h-11.378
	c0,0-1.422-1.422-1.422-4.267c0,0-5.689-12.8-7.111-17.067c-2.844-4.267-2.844-5.689-1.422-8.533
	c1.422-2.844,7.111-7.111,8.533-11.378c-4.267,2.844-9.956,7.111-11.378,12.8c-2.844,5.689-4.267,19.911,0,22.756
	c1.422,1.422,4.267,0,4.267,5.689h-11.378c0,0-1.422,0-1.422-5.689c0-5.689-1.422-14.222-1.422-18.489
	c-1.422-2.844-1.422-4.267,1.422-7.111c9.956-11.378,8.533-15.644,9.956-29.867c0,0-4.267,17.067-17.067,24.178
	c-12.8,7.111-12.8,4.267-15.644,9.956c0,0-4.267-5.689,2.844-11.378c42.667-17.067,2.844-66.844,91.022-56.889
	c5.689,0,9.956-4.267,19.911-2.844c12.8-8.533,31.289-21.333,31.289-21.333s2.844-7.111,7.111-11.378
	c4.267-4.267,5.689-8.533,7.111-9.956s1.422-1.422,1.422,2.844c0,2.844,1.422,7.111,0,8.533c0,0,1.422-1.422,1.422-2.844
	c0,0,1.422-2.844,4.267-4.267c1.422-1.422,2.844-4.267,1.422-1.422c-1.422,4.267-4.267,11.378-4.267,14.222
	c0,4.267,5.689,5.689,7.111,11.378c0,2.844,0,2.844,5.689,7.111c4.267,4.267,8.533,7.111,8.533,9.956
	C306.069,260.439,300.38,261.861,296.113,260.439z"/>
<g>
</g>
<g>
</g>
<g>
</g>
<g>
</g>
<g>
</g>
<g>
</g>
<g>
</g>
<g>
</g>
<g>
</g>
<g>
</g>
<g>
</g>
<g>
</g>
<g>
</g>
<g>
</g>
<g>
</g>
</svg>
