<?xml version="1.0" encoding="iso-8859-1"?>
<!-- Generator: Adobe Illustrator 19.0.0, SVG Export Plug-In . SVG Version: 6.00 Build 0)  -->
<svg version="1.1" id="Capa_1" xmlns="http://www.w3.org/2000/svg" xmlns:xlink="http://www.w3.org/1999/xlink" x="0px" y="0px"
	 viewBox="0 0 455.1 455.1" style="enable-background:new 0 0 455.1 455.1;" xml:space="preserve">
<path style="fill:#E24C4B;" d="M33.002,418.305h389.689c25.6,0,41.244-28.444,27.022-49.778L254.869,52.794
	c-12.8-21.333-42.667-21.333-55.467,0L4.558,368.528C-8.242,389.861,7.402,418.305,33.002,418.305z"/>
<polygon style="fill:#FFFFFF;" points="407.047,375.639 227.847,86.928 48.647,375.639 "/>
<g>
	<path style="fill:#3F4448;" d="M267.669,375.639v-21.333c11.378-9.956,19.911-18.489,38.4-39.822
		c4.267-4.267,2.844-11.378-1.422-15.644c-4.267-4.267-11.378-4.267-15.644,0l-11.378,14.222V241.95
		c0-4.267-4.267-8.533-8.533-8.533c-4.267,0-8.533,4.267-8.533,8.533v45.511c0,1.422-1.422,2.844-2.844,2.844
		c-1.422,0-2.844-1.422-2.844-2.844v-56.889c0-4.267-4.267-8.533-8.533-8.533c-4.267,0-8.533,2.844-8.533,8.533v56.889
		c0,1.422-1.422,2.844-2.844,2.844l0,0c-1.422,0-2.844-1.422-2.844-2.844V241.95c0-4.267-4.267-8.533-8.533-8.533
		c-5.689,0-8.533,4.267-8.533,8.533v45.511c0,1.422-1.422,2.844-2.844,2.844c-1.422,0-2.844-1.422-2.844-2.844v-31.289
		c0-4.267-4.267-8.533-8.533-8.533c-4.267,0-8.533,4.267-8.533,8.533v38.4c7.111,2.844,21.333,9.956,27.022,11.378
		c0,4.267,0,9.956,0,14.222c2.844,1.422,11.378,4.267,12.8,5.689c0,1.422,0,7.111,0,8.533l11.378,9.956
		c-2.844-1.422-14.222-7.111-15.644-7.111c0-1.422-1.422-5.689-1.422-7.111c-4.267-1.422-12.8-2.844-15.644-4.267
		c0-4.267-1.422-7.111-1.422-12.8l-17.067-4.267v22.756c0,9.956,2.844,18.489,9.956,25.6v18.489L267.669,375.639L267.669,375.639z"
		/>
	<path style="fill:#3F4448;" d="M175.224,301.683l1.422-1.422c1.422,2.844,4.267,5.689,7.111,11.378c0,0,0,0,1.422,0l0,0
		c0,0,0,0,0-1.422c-2.844-5.689-4.267-8.533-7.111-11.378l0,0c2.844,2.844,5.689,7.111,8.533,12.8l0,0l0,0c0,0,0,0,0-1.422
		c-2.844-7.111-5.689-11.378-8.533-14.222l0,0c2.844,2.844,7.111,5.689,14.222,9.956l0,0l0,0v-1.422
		c-7.111-4.267-11.378-8.533-14.222-9.956l0,0c2.844,1.422,7.111,4.267,12.8,7.111l0,0l0,0c0,0,0,0,0-1.422
		c-5.689-1.422-9.956-4.267-11.378-5.689l0,0c2.844,1.422,5.689,2.844,9.956,4.267l0,0l0,0v-1.422c-2.844,0-5.689-1.422-8.533-2.844
		l1.422-1.422c-14.222-14.222-9.956-54.044-17.067-106.667l-8.533,17.067C162.424,251.905,156.736,284.617,175.224,301.683z"/>
</g>
<g>
</g>
<g>
</g>
<g>
</g>
<g>
</g>
<g>
</g>
<g>
</g>
<g>
</g>
<g>
</g>
<g>
</g>
<g>
</g>
<g>
</g>
<g>
</g>
<g>
</g>
<g>
</g>
<g>
</g>
</svg>
