<?xml version="1.0" encoding="iso-8859-1"?>
<!-- Generator: Adobe Illustrator 19.0.0, SVG Export Plug-In . SVG Version: 6.00 Build 0)  -->
<svg version="1.1" id="Capa_1" xmlns="http://www.w3.org/2000/svg" xmlns:xlink="http://www.w3.org/1999/xlink" x="0px" y="0px"
	 viewBox="0 0 455.1 455.1" style="enable-background:new 0 0 455.1 455.1;" xml:space="preserve">
<path style="fill:#E24C4B;" d="M33.002,418.305h389.689c25.6,0,41.244-28.444,27.022-49.778L254.869,52.794
	c-12.8-21.333-42.667-21.333-55.467,0L4.558,368.528C-8.242,389.861,7.402,418.305,33.002,418.305z"/>
<polygon style="fill:#FFFFFF;" points="407.047,375.639 227.847,86.928 48.647,375.639 "/>
<path style="fill:#3F4448;" d="M301.802,254.75h-2.844v-2.844c0-2.844-1.422-4.267-4.267-4.267h-7.111l-12.8-7.111
	c-1.422-1.422-4.267,0-4.267,2.844v4.267h-99.556c-1.422,2.844-2.844,5.689-4.267,7.111c-1.422,0-1.422,0-2.844,0
	c-2.844-2.844-12.8-9.956-12.8-5.689c0,0,0,1.422,1.422,1.422c2.844,2.844,5.689,5.689,7.111,7.111c0,0-1.422,1.422,0,4.267
	c-2.844,1.422-4.267,2.844-7.111,4.267v12.8c0,2.844,1.422,4.267,4.267,4.267h7.111l-9.956,61.156c0,2.844,1.422,5.689,4.267,5.689
	h24.178c1.422,0,2.844-1.422,4.267-2.844c1.422-2.844,4.267-4.267,5.689-8.533c1.422-7.111-2.844-7.111,0-14.222
	c1.422-7.111,5.689-5.689,7.111-12.8l0,0c1.422,0,2.844,1.422,5.689,1.422c8.533,1.422,18.489,0,24.178-5.689
	c2.844-2.844,7.111-8.533,4.267-18.489c0-1.422-1.422-2.844-1.422-4.267h64c2.844,0,4.267-1.422,4.267-4.267v-5.689h1.422
	c1.422,0,2.844-1.422,2.844-2.844v-14.222C303.224,254.75,303.224,254.75,301.802,254.75z M227.847,288.883
	c1.422,5.689,0,11.378-2.844,14.222c-4.267,4.267-11.378,5.689-19.911,4.267c-1.422,0-4.267-1.422-7.111-1.422
	c0-2.844-1.422-4.267,0-8.533c1.422-4.267,4.267-5.689,5.689-8.533c2.844,4.267,5.689,9.956,12.8,12.8c1.422,0,2.844,0,2.844-1.422
	c0-1.422,0-2.844-1.422-2.844c-5.689-2.844-9.956-8.533-11.378-12.8h19.911C226.424,284.617,227.847,287.461,227.847,288.883z"/>
<g>
</g>
<g>
</g>
<g>
</g>
<g>
</g>
<g>
</g>
<g>
</g>
<g>
</g>
<g>
</g>
<g>
</g>
<g>
</g>
<g>
</g>
<g>
</g>
<g>
</g>
<g>
</g>
<g>
</g>
</svg>
