<?xml version="1.0" encoding="iso-8859-1"?>
<!-- Generator: Adobe Illustrator 19.0.0, SVG Export Plug-In . SVG Version: 6.00 Build 0)  -->
<svg version="1.1" id="Capa_1" xmlns="http://www.w3.org/2000/svg" xmlns:xlink="http://www.w3.org/1999/xlink" x="0px" y="0px"
	 viewBox="0 0 455.1 455.1" style="enable-background:new 0 0 455.1 455.1;" xml:space="preserve">
<path style="fill:#E24C4B;" d="M33.002,418.305h389.689c25.6,0,41.244-28.444,27.022-49.778L254.869,52.794
	c-12.8-21.333-42.667-21.333-55.467,0L4.558,368.528C-8.242,389.861,7.402,418.305,33.002,418.305z"/>
<polygon style="fill:#FFFFFF;" points="407.047,375.639 227.847,86.928 48.647,375.639 "/>
<g>
	<path style="fill:#3F4448;" d="M260.558,347.194l-8.533-17.067l-25.6-4.267c1.422,14.222-2.844,38.4-5.689,45.511
		c-1.422,4.267-5.689,7.111-9.956,5.689c-4.267-1.422-5.689-5.689-5.689-9.956c0,0,5.689-17.067,5.689-31.289
		c0-2.844,0-5.689-1.422-11.378l0,0l-9.956-34.133l-2.844,2.844c0,9.956,2.844,22.756-7.111,21.333
		c-8.533-1.422-7.111-14.222-7.111-24.178c0-1.422,0-4.267,1.422-5.689l18.489-18.489c11.378-8.533,18.489-4.267,39.822-2.844
		l9.956-8.533c2.844-2.844,8.533-2.844,11.378,0c7.111,7.111-4.267,15.644-11.378,22.756c-4.267,4.267-11.378,1.422-17.067,1.422
		l12.8,34.133c22.756,2.844,17.067-1.422,31.289,27.022C279.047,348.617,264.824,355.728,260.558,347.194z"/>
	<path style="fill:#3F4448;" d="M182.336,239.105c1.422-9.956,9.956-17.067,19.911-15.644c9.956,1.422,17.067,9.956,17.067,19.911
		c-1.422,9.956-9.956,17.067-19.911,17.067C188.024,257.594,180.913,249.061,182.336,239.105z"/>
	<polygon style="fill:#3F4448;" points="203.669,189.328 229.269,189.328 222.158,227.728 257.713,172.261 230.691,172.261 
		240.647,129.594 	"/>
</g>
<g>
</g>
<g>
</g>
<g>
</g>
<g>
</g>
<g>
</g>
<g>
</g>
<g>
</g>
<g>
</g>
<g>
</g>
<g>
</g>
<g>
</g>
<g>
</g>
<g>
</g>
<g>
</g>
<g>
</g>
</svg>
