<?xml version="1.0" encoding="iso-8859-1"?>
<!-- Generator: Adobe Illustrator 19.0.0, SVG Export Plug-In . SVG Version: 6.00 Build 0)  -->
<svg version="1.1" id="Capa_1" xmlns="http://www.w3.org/2000/svg" xmlns:xlink="http://www.w3.org/1999/xlink" x="0px" y="0px"
	 viewBox="0 0 455.111 455.111" style="enable-background:new 0 0 455.111 455.111;" xml:space="preserve">
<circle style="fill:#E24C4B;" cx="227.556" cy="227.556" r="227.556"/>
<path id="SVGCleanerId_0" style="fill:#FFFFFF;" d="M412.444,227.556c0,102.4-82.489,184.889-184.889,184.889
	S42.667,329.956,42.667,227.556S125.156,42.667,227.556,42.667S412.444,125.156,412.444,227.556z"/>
<g>
	<path id="SVGCleanerId_0_1_" style="fill:#FFFFFF;" d="M412.444,227.556c0,102.4-82.489,184.889-184.889,184.889
		S42.667,329.956,42.667,227.556S125.156,42.667,227.556,42.667S412.444,125.156,412.444,227.556z"/>
</g>
<path style="fill:#3F4448;" d="M253.156,372.622c0-1.422,0-2.844,0-2.844c0-1.422-1.422-1.422-2.844-2.844l-46.933-15.644
	l7.111-19.911c0-1.422,0-2.844,0-2.844c0-1.422-1.422-1.422-2.844-2.844l-46.933-15.644l7.111-19.911c0-1.422,0-2.844,0-2.844
	c0-1.422-1.422-1.422-2.844-2.844L118.044,268.8l7.111-19.911c0-1.422,0-2.844,0-2.844c0-1.422-1.422-1.422-2.844-2.844
	l-46.933-15.644l7.111-19.911c0-1.422,0-2.844,0-2.844c0-1.422-1.422-1.422-2.844-2.844l-32.711-11.378
	c-2.844,12.8-4.267,24.178-4.267,36.978c0,102.4,82.489,184.889,184.889,184.889c18.489,0,36.978-2.844,54.044-8.533l0,0
	l-34.133-11.378L253.156,372.622z"/>
<g>
	<path style="fill:#3F4448;" d="M162.133,150.756c1.422-12.8,12.8-21.333,25.6-19.911c12.8,1.422,21.333,12.8,19.911,25.6
		s-12.8,21.333-25.6,19.911S160.711,163.556,162.133,150.756z"/>
	<path style="fill:#3F4448;" d="M273.067,292.978c-4.267,2.844-11.378,0-12.8-4.267l-11.378-21.333l-31.289-5.689
		c0,4.267,1.422,8.533,1.422,11.378c-1.422,21.333-8.533,44.089-8.533,45.511c-1.422,5.689-8.533,7.111-12.8,5.689
		c-5.689-1.422-8.533-7.111-5.689-12.8c0,0,7.111-21.333,7.111-39.822c0-2.844,0-7.111-1.422-14.222l-14.222-42.667l-4.267,4.267
		l1.422,17.067c0,5.689-4.267,9.956-9.956,9.956h-1.422c-4.267,0-8.533-4.267-8.533-9.956l-1.422-21.333
		c0-2.844,1.422-5.689,2.844-7.111l21.333-22.756c0,0,0,0,1.422,0c0,0,0-1.422,1.422-1.422c2.844-2.844,5.689-4.267,9.956-5.689
		c2.844,0,5.689,0,8.533,0l29.867,2.844l11.378-11.378c4.267-4.267,9.956-2.844,14.222,0c4.267,4.267,2.844,9.956,0,14.222
		l-15.644,14.222c-1.422,1.422-4.267,2.844-7.111,2.844l-14.222-1.422l14.222,44.089L256,246.044c2.844,0,5.689,2.844,7.111,5.689
		l12.8,25.6C280.178,284.444,278.756,290.133,273.067,292.978z"/>
</g>
<g>
</g>
<g>
</g>
<g>
</g>
<g>
</g>
<g>
</g>
<g>
</g>
<g>
</g>
<g>
</g>
<g>
</g>
<g>
</g>
<g>
</g>
<g>
</g>
<g>
</g>
<g>
</g>
<g>
</g>
</svg>
