<?xml version="1.0" encoding="iso-8859-1"?>
<!-- Generator: Adobe Illustrator 19.0.0, SVG Export Plug-In . SVG Version: 6.00 Build 0)  -->
<svg version="1.1" id="Capa_1" xmlns="http://www.w3.org/2000/svg" xmlns:xlink="http://www.w3.org/1999/xlink" x="0px" y="0px"
	 viewBox="0 0 455.1 455.1" style="enable-background:new 0 0 455.1 455.1;" xml:space="preserve">
<path style="fill:#E24C4B;" d="M33.002,418.305h389.689c25.6,0,41.244-28.444,27.022-49.778L254.869,52.794
	c-12.8-21.333-42.667-21.333-55.467,0L4.558,368.528C-8.242,389.861,7.402,418.305,33.002,418.305z"/>
<polygon style="fill:#FFFFFF;" points="407.047,375.639 227.847,86.928 48.647,375.639 "/>
<path style="fill:#3F4448;" d="M331.669,331.55h-46.933v-93.867c0-1.422-1.422-4.267-4.267-4.267c-1.422,0-4.267,1.422-4.267,4.267
	v75.378h-5.689v-8.533c0-1.422-1.422-4.267-4.267-4.267h-7.111l-19.911-68.267c0-1.422-1.422-2.844-4.267-2.844h-64
	c-1.422,0-4.267,1.422-4.267,4.267c0,1.422,1.422,4.267,4.267,4.267h5.689v56.889H159.58c-1.422,0-4.267,1.422-4.267,4.267v38.4
	c0,1.422,1.422,4.267,4.267,4.267h8.533c1.422,7.111,8.533,12.8,15.644,12.8s14.222-5.689,15.644-12.8h29.867
	c1.422,7.111,8.533,12.8,15.644,12.8s14.222-5.689,15.644-12.8h7.111c1.422,0,4.267-1.422,4.267-4.267v-15.644h5.689v14.222
	c0,1.422,1.422,4.267,4.267,4.267h49.778c1.422,0,4.267-1.422,4.267-4.267C334.513,332.972,333.091,331.55,331.669,331.55z
	 M182.336,342.928c-4.267,0-7.111-2.844-7.111-7.111s2.844-7.111,7.111-7.111c4.267,0,7.111,2.844,7.111,7.111
	S186.602,342.928,182.336,342.928z M243.491,342.928c-4.267,0-7.111-2.844-7.111-7.111s2.844-7.111,7.111-7.111
	c4.267,0,7.111,2.844,7.111,7.111S247.758,342.928,243.491,342.928z M247.758,301.683c-1.422,0-1.422,0-2.844,1.422l-8.533,8.533
	h-17.067l-5.689-14.222c0-1.422-1.422-1.422-2.844-1.422h-27.022v-56.889h49.778l18.489,64h-4.267V301.683z"/>
<g>
</g>
<g>
</g>
<g>
</g>
<g>
</g>
<g>
</g>
<g>
</g>
<g>
</g>
<g>
</g>
<g>
</g>
<g>
</g>
<g>
</g>
<g>
</g>
<g>
</g>
<g>
</g>
<g>
</g>
</svg>
