<?xml version="1.0" encoding="iso-8859-1"?>
<!-- Generator: Adobe Illustrator 19.0.0, SVG Export Plug-In . SVG Version: 6.00 Build 0)  -->
<svg version="1.1" id="Capa_1" xmlns="http://www.w3.org/2000/svg" xmlns:xlink="http://www.w3.org/1999/xlink" x="0px" y="0px"
	 viewBox="0 0 455.1 455.1" style="enable-background:new 0 0 455.1 455.1;" xml:space="preserve">
<path style="fill:#E24C4B;" d="M33.002,418.305h389.689c25.6,0,41.244-28.444,27.022-49.778L254.869,52.794
	c-12.8-21.333-42.667-21.333-55.467,0L4.558,368.528C-8.242,389.861,7.402,418.305,33.002,418.305z"/>
<polygon style="fill:#FFFFFF;" points="407.047,375.639 227.847,86.928 48.647,375.639 "/>
<g>
	<polygon style="fill:#3F4448;" points="205.091,375.639 205.091,300.261 95.58,300.261 48.647,375.639 	"/>
	<path style="fill:#3F4448;" d="M185.18,375.639h221.867l-22.756-36.978c-11.378,1.422-22.756,8.533-34.133,8.533
		c-11.378,0-24.178-8.533-36.978-8.533s-24.178,8.533-36.978,8.533s-25.6-8.533-36.978-8.533c-14.222,0-25.6,8.533-36.978,8.533
		c-7.111,0-12.8-1.422-18.489-1.422v29.867H185.18z"/>
	<path style="fill:#3F4448;" d="M261.98,206.394l-15.644,12.8c-1.422,1.422-2.844,1.422-4.267,1.422l-14.222-1.422l5.689,36.978
		l14.222,5.689c1.422,0,1.422,1.422,2.844,1.422l17.067,22.756c1.422,2.844,1.422,7.111-1.422,8.533s-5.689,1.422-8.533-1.422
		l-15.644-19.911c-15.644-7.111-24.178-9.956-28.444-11.378l2.844,17.067c0,1.422,0,2.844-1.422,4.267l-14.222,22.756
		c-1.422,2.844-5.689,4.267-8.533,1.422c-2.844-1.422-4.267-5.689-1.422-8.533l12.8-21.333c-1.422-4.267-7.111-42.667-8.533-48.356
		l-7.111,5.689v14.222c0,2.844-2.844,5.689-7.111,5.689c-2.844,0-4.267-2.844-4.267-5.689v-17.067c0-1.422,1.422-2.844,2.844-4.267
		c24.178-19.911,25.6-22.756,34.133-22.756c1.422,0,27.022,2.844,27.022,2.844l12.8-11.378c2.844-2.844,5.689-1.422,8.533,0
		C264.824,200.705,264.824,204.972,261.98,206.394z"/>
	<path style="fill:#3F4448;" d="M193.713,190.75c-1.422-7.111,4.267-14.222,11.378-14.222c7.111-1.422,14.222,4.267,14.222,11.378
		c1.422,7.111-4.267,14.222-11.378,14.222C202.247,202.128,195.136,196.439,193.713,190.75z"/>
</g>
<g>
</g>
<g>
</g>
<g>
</g>
<g>
</g>
<g>
</g>
<g>
</g>
<g>
</g>
<g>
</g>
<g>
</g>
<g>
</g>
<g>
</g>
<g>
</g>
<g>
</g>
<g>
</g>
<g>
</g>
</svg>
