<?xml version="1.0" encoding="iso-8859-1"?>
<!-- Generator: Adobe Illustrator 19.0.0, SVG Export Plug-In . SVG Version: 6.00 Build 0)  -->
<svg version="1.1" id="Capa_1" xmlns="http://www.w3.org/2000/svg" xmlns:xlink="http://www.w3.org/1999/xlink" x="0px" y="0px"
	 viewBox="0 0 455.1 455.1" style="enable-background:new 0 0 455.1 455.1;" xml:space="preserve">
<path style="fill:#E24C4B;" d="M33.002,418.305h389.689c25.6,0,41.244-28.444,27.022-49.778L254.869,52.794
	c-12.8-21.333-42.667-21.333-55.467,0L4.558,368.528C-8.242,389.861,7.402,418.305,33.002,418.305z"/>
<polygon style="fill:#FFFFFF;" points="407.047,375.639 227.847,86.928 48.647,375.639 "/>
<g>
	<path style="fill:#3F4448;" d="M254.869,249.061l-18.489,4.267c-1.422,0-2.844,0-4.267-1.422l-11.378-7.111l-11.378,34.133
		l9.956,11.378c0,1.422,1.422,1.422,1.422,2.844l4.267,27.022c0,2.844-1.422,5.689-5.689,5.689c-2.844,0-5.689-1.422-5.689-4.267
		l-4.267-25.6c-9.956-12.8-15.644-18.489-18.489-22.756l-5.689,15.644c0,1.422-1.422,2.844-2.844,2.844l-21.333,12.8
		c-2.844,1.422-5.689,1.422-7.111-1.422c-1.422-2.844,0-5.689,2.844-7.111l19.911-11.378c1.422-4.267,12.8-38.4,14.222-44.089
		l-9.956,1.422l-7.111,11.378c-1.422,2.844-5.689,4.267-8.533,1.422c-1.422-1.422-2.844-4.267-1.422-7.111l8.533-14.222
		c1.422-1.422,2.844-2.844,4.267-2.844c28.444-5.689,31.289-7.111,38.4-4.267c1.422,0,21.333,14.222,21.333,14.222l15.644-2.844
		c2.844-1.422,5.689,1.422,7.111,4.267C259.136,246.217,257.713,249.061,254.869,249.061z"/>
	<path style="fill:#3F4448;" d="M210.78,207.817c2.844-7.111,8.533-9.956,15.644-7.111c5.689,2.844,9.956,9.956,7.111,15.644
		c-2.844,5.689-8.533,9.956-15.644,7.111C212.202,220.617,209.358,213.505,210.78,207.817z"/>
	<path style="fill:#3F4448;" d="M178.069,304.528v71.111H48.647l48.356-76.8h73.956
		C175.224,298.839,178.069,301.683,178.069,304.528z"/>
	<path style="fill:#3F4448;" d="M407.047,375.639H259.136v-71.111c0-4.267,2.844-5.689,7.111-5.689h92.444L407.047,375.639z"/>
</g>
<g>
</g>
<g>
</g>
<g>
</g>
<g>
</g>
<g>
</g>
<g>
</g>
<g>
</g>
<g>
</g>
<g>
</g>
<g>
</g>
<g>
</g>
<g>
</g>
<g>
</g>
<g>
</g>
<g>
</g>
</svg>
