<?xml version="1.0" encoding="iso-8859-1"?>
<!-- Generator: Adobe Illustrator 19.0.0, SVG Export Plug-In . SVG Version: 6.00 Build 0)  -->
<svg version="1.1" id="Capa_1" xmlns="http://www.w3.org/2000/svg" xmlns:xlink="http://www.w3.org/1999/xlink" x="0px" y="0px"
	 viewBox="0 0 455.1 455.1" style="enable-background:new 0 0 455.1 455.1;" xml:space="preserve">
<path style="fill:#E24C4B;" d="M33.002,418.305h389.689c25.6,0,41.244-28.444,27.022-49.778L254.869,52.794
	c-12.8-21.333-42.667-21.333-55.467,0L4.558,368.528C-8.242,389.861,7.402,418.305,33.002,418.305z"/>
<polygon style="fill:#FFFFFF;" points="407.047,375.639 227.847,86.928 48.647,375.639 "/>
<g>
	<ellipse style="fill:#3F4448;" cx="314.602" cy="348.617" rx="46.933" ry="19.911"/>
	<path style="fill:#3F4448;" d="M213.624,219.194c8.533,0,17.067-7.111,17.067-15.644s-7.111-17.067-15.644-17.067
		s-17.067,7.111-17.067,15.644C196.558,210.661,203.669,219.194,213.624,219.194z"/>
	<path style="fill:#3F4448;" d="M200.824,297.417c5.689,4.267,14.222,9.956,32.711,22.756l14.222,31.289
		c1.422,4.267,5.689,5.689,9.956,4.267c4.267-1.422,5.689-5.689,4.267-9.956l-15.644-32.711c0-1.422-1.422-2.844-2.844-2.844
		l-15.644-14.222l2.844-48.356l17.067,5.689c1.422,1.422,4.267,0,5.689,0l22.756-12.8c4.267-2.844,4.267-7.111,2.844-9.956
		c-2.844-4.267-7.111-5.689-9.956-2.844l-19.911,9.956c-1.422,0-32.711-11.378-34.133-11.378l0,0
		c-9.956-2.844-14.222,1.422-49.778,19.911c-1.422,1.422-2.844,2.844-4.267,5.689l-4.267,21.333
		c-1.422,4.267,1.422,7.111,4.267,8.533c5.689,1.422,9.956-1.422,9.956-5.689l4.267-17.067l11.378-5.689
		c0,7.111-1.422,56.889-1.422,62.578l-21.333,22.756c-2.844,2.844-2.844,8.533,0,11.378s8.533,2.844,11.378,0l22.756-25.6
		c1.422-1.422,2.844-2.844,2.844-5.689V297.417z"/>
</g>
<g>
</g>
<g>
</g>
<g>
</g>
<g>
</g>
<g>
</g>
<g>
</g>
<g>
</g>
<g>
</g>
<g>
</g>
<g>
</g>
<g>
</g>
<g>
</g>
<g>
</g>
<g>
</g>
<g>
</g>
</svg>
