<?xml version="1.0" encoding="iso-8859-1"?>
<!-- Generator: Adobe Illustrator 19.0.0, SVG Export Plug-In . SVG Version: 6.00 Build 0)  -->
<svg version="1.1" id="Capa_1" xmlns="http://www.w3.org/2000/svg" xmlns:xlink="http://www.w3.org/1999/xlink" x="0px" y="0px"
	 viewBox="0 0 455.1 455.1" style="enable-background:new 0 0 455.1 455.1;" xml:space="preserve">
<path style="fill:#E24C4B;" d="M33.002,418.305h389.689c25.6,0,41.244-28.444,27.022-49.778L254.869,52.794
	c-12.8-21.333-42.667-21.333-55.467,0L4.558,368.528C-8.242,389.861,7.402,418.305,33.002,418.305z"/>
<polygon style="fill:#FFFFFF;" points="407.047,375.639 227.847,86.928 48.647,375.639 "/>
<g>
	<polygon style="fill:#3F4448;" points="60.024,359.994 48.647,375.639 407.047,375.639 395.669,359.994 	"/>
	<path style="fill:#3F4448;" d="M205.091,224.883c8.533-2.844,14.222-11.378,11.378-21.333
		c-2.844-8.533-11.378-14.222-21.333-11.378c-8.533,2.844-14.222,11.378-11.378,21.333
		C186.602,222.039,195.136,227.728,205.091,224.883z"/>
	<path style="fill:#3F4448;" d="M300.38,334.394c0-1.422-1.422-1.422-2.844,0c-11.378,7.111-29.867,4.267-29.867,4.267
		c-1.422,0-2.844,0-2.844,1.422c0,1.422,0,2.844,1.422,2.844c11.378,0,22.756,2.844,32.711-4.267
		C300.38,335.817,300.38,334.394,300.38,334.394z"/>
	<path style="fill:#3F4448;" d="M293.269,350.039c-15.644,0-25.6-5.689-25.6-5.689c-1.422,0-1.422,0-2.844,1.422
		c0,1.422,0,2.844,1.422,2.844c4.267,1.422,14.222,5.689,28.444,5.689c1.422,0,1.422-1.422,1.422-1.422
		C294.691,351.461,293.269,350.039,293.269,350.039z"/>
	<path style="fill:#3F4448;" d="M222.158,300.261c5.689,1.422,17.067,4.267,38.4,9.956l18.489,19.911
		c2.844,2.844,7.111,2.844,11.378,0c2.844-2.844,2.844-7.111,0-11.378l-19.911-19.911c-1.422-1.422-2.844-1.422-4.267-2.844
		l-19.911-5.689l-14.222-46.933h18.489c2.844,0,4.267-1.422,5.689-2.844l19.911-22.756c2.844-2.844,2.844-8.533-1.422-11.378
		c-2.844-2.844-8.533-2.844-11.378,1.422l-17.067,19.911c-1.422,0-34.133,1.422-35.556,1.422l0,0
		c-9.956,1.422-12.8,7.111-39.822,35.556c-1.422,1.422-2.844,4.267-1.422,5.689l2.844,21.333c0,4.267,2.844,7.111,7.111,7.111
		c5.689,0,8.533-4.267,8.533-8.533l-1.422-18.489l8.533-8.533c2.844,7.111,17.067,51.2,18.489,56.889l-14.222,29.867
		c-1.422,4.267,0,8.533,4.267,9.956c4.267,1.422,8.533,0,9.956-4.267l14.222-32.711c1.422-1.422,1.422-4.267,0-5.689
		L222.158,300.261z"/>
</g>
<g>
</g>
<g>
</g>
<g>
</g>
<g>
</g>
<g>
</g>
<g>
</g>
<g>
</g>
<g>
</g>
<g>
</g>
<g>
</g>
<g>
</g>
<g>
</g>
<g>
</g>
<g>
</g>
<g>
</g>
</svg>
