<?xml version="1.0" encoding="iso-8859-1"?>
<!-- Generator: Adobe Illustrator 19.0.0, SVG Export Plug-In . SVG Version: 6.00 Build 0)  -->
<svg version="1.1" id="Capa_1" xmlns="http://www.w3.org/2000/svg" xmlns:xlink="http://www.w3.org/1999/xlink" x="0px" y="0px"
	 viewBox="0 0 455.111 455.111" style="enable-background:new 0 0 455.111 455.111;" xml:space="preserve">
<path style="fill:#E24C4B;" d="M227.556,0C102.4,0,0,102.4,0,227.556s102.4,227.556,227.556,227.556s227.556-102.4,227.556-227.556
	S352.711,0,227.556,0z"/>
<path style="fill:#FFFFFF;" d="M227.556,412.444c-102.4,0-184.889-82.489-184.889-184.889S125.156,42.667,227.556,42.667
	s184.889,82.489,184.889,184.889S329.956,412.444,227.556,412.444z"/>
<path style="fill:#3F4448;" d="M359.822,139.378l-62.578-35.556c-5.689-2.844-12.8,1.422-12.8,8.533v19.911H173.511
	c-38.4,0-69.689,31.289-69.689,69.689v163.556c9.956,8.533,19.911,17.067,32.711,24.178V200.533c0-21.333,17.067-36.978,38.4-36.978
	H204.8V307.2h-19.911c-7.111,0-11.378,7.111-7.111,12.8l35.556,62.578c2.844,5.689,12.8,5.689,15.644,0L264.533,320
	c2.844-5.689-1.422-12.8-8.533-12.8h-19.911V163.556h48.356v19.911c0,7.111,7.111,11.378,12.8,7.111l62.578-35.556
	C365.511,150.756,365.511,142.222,359.822,139.378z"/>
<polygon style="fill:#E24C4B;" points="58.311,91.022 88.178,61.156 392.533,362.667 361.244,392.533 "/>
<g>
</g>
<g>
</g>
<g>
</g>
<g>
</g>
<g>
</g>
<g>
</g>
<g>
</g>
<g>
</g>
<g>
</g>
<g>
</g>
<g>
</g>
<g>
</g>
<g>
</g>
<g>
</g>
<g>
</g>
</svg>
