<?xml version="1.0" encoding="iso-8859-1"?>
<!-- Generator: Adobe Illustrator 19.0.0, SVG Export Plug-In . SVG Version: 6.00 Build 0)  -->
<svg version="1.1" id="Capa_1" xmlns="http://www.w3.org/2000/svg" xmlns:xlink="http://www.w3.org/1999/xlink" x="0px" y="0px"
	 viewBox="0 0 455.1 455.1" style="enable-background:new 0 0 455.1 455.1;" xml:space="preserve">
<path style="fill:#E24C4B;" d="M422.098,418.305H32.409c-25.6,0-41.244-28.444-27.022-49.778L200.231,52.794
	c12.8-21.333,42.667-21.333,55.467,0l194.844,315.733C463.342,389.861,447.697,418.305,422.098,418.305z"/>
<g>
	<polygon style="fill:#FFFFFF;" points="48.053,375.639 227.253,86.928 406.453,375.639 	"/>
	<polygon style="fill:#FFFFFF;" points="48.053,375.639 227.253,86.928 406.453,375.639 	"/>
</g>
<path style="fill:#3F4448;" d="M312.586,257.594c-4.267-5.689-14.222-9.956-25.6-8.533s-35.556,4.267-59.733,2.844
	c-22.756-2.844-22.756-1.422-28.444,0s-15.644,0-21.333,0c-2.844,0-4.267-1.422-5.689-2.844c0,0,1.422,0,1.422-1.422
	c2.844-2.844,4.267-7.111,5.689-11.378c-2.844,2.844-5.689,5.689-8.533,7.111c0,0-1.422,0-1.422,1.422c-2.844-2.844-7.111,0-7.111,0
	l0,0c0,0,0,0,0-1.422c-1.422-2.844-2.844-7.111-2.844-11.378c-2.844,4.267-2.844,8.533-2.844,12.8c0,1.422,0,1.422,1.422,2.844
	c-1.422,1.422-1.422,2.844-2.844,4.267c-2.844,7.111-5.689,4.267-5.689,8.533c0,4.267,2.844,4.267,1.422,8.533
	c-2.844,1.422-8.533,5.689-8.533,9.956c-1.422,4.267-1.422,7.111,2.844,7.111c2.844,0,7.111-1.422,9.956-1.422
	c2.844,1.422,9.956,1.422,15.644-1.422c0,0,4.267,2.844,12.8,17.067c8.533,14.222,15.644,21.333,24.178,18.489
	c0,0,0,15.644,1.422,19.911c1.422,4.267-1.422,8.533-4.267,12.8c-2.844,4.267-5.689,7.111-5.689,7.111s8.533,2.844,12.8-1.422
	c1.422-1.422,1.422-1.422,1.422-2.844c2.844,0,7.111,0,8.533-2.844c2.844-4.267,1.422-5.689,1.422-5.689
	c0-1.422,1.422,1.422,1.422,0c0,0,0-4.267-1.422-8.533c-1.422-5.689,0-18.489,1.422-24.178c0-1.422,0-2.844,0-4.267
	c8.533,0,27.022,0,39.822,0c0,2.844,0,8.533,1.422,8.533c2.844,0,2.844-5.689,2.844-5.689c1.422,0,1.422,0,2.844,1.422
	c0,0,0,4.267,1.422,7.111c1.422,1.422,4.267-1.422,2.844-7.111c0,0,0,1.422,2.844,2.844c0,1.422,0,2.844,0,2.844
	c1.422,5.689-1.422,17.067-2.844,19.911c-2.844,2.844-5.689,9.956-5.689,9.956s7.111,2.844,11.378-2.844
	c0,0,1.422,1.422,1.422-1.422s-1.422-9.956,1.422-14.222c1.422-2.844,4.267-8.533,5.689-12.8c0,1.422,0,2.844,1.422,4.267
	c2.844,5.689,1.422,17.067,0,19.911c-1.422,2.844-4.267,11.378-4.267,11.378s7.111,2.844,11.378-5.689c0,0,1.422,1.422,1.422-1.422
	c0-2.844-1.422-8.533,0-14.222c1.422-5.689,4.267-14.222,2.844-17.067c-1.422-4.267-1.422-11.378,1.422-19.911
	C308.32,287.461,316.853,264.705,312.586,257.594z M215.875,345.772v-1.422c0-2.844,0-8.533,1.422-14.222
	c0,1.422,0,2.844,1.422,2.844C220.142,337.239,218.72,341.505,215.875,345.772z"/>
<g>
</g>
<g>
</g>
<g>
</g>
<g>
</g>
<g>
</g>
<g>
</g>
<g>
</g>
<g>
</g>
<g>
</g>
<g>
</g>
<g>
</g>
<g>
</g>
<g>
</g>
<g>
</g>
<g>
</g>
</svg>
