<?xml version="1.0" encoding="iso-8859-1"?>
<!-- Generator: Adobe Illustrator 19.0.0, SVG Export Plug-In . SVG Version: 6.00 Build 0)  -->
<svg version="1.1" id="Capa_1" xmlns="http://www.w3.org/2000/svg" xmlns:xlink="http://www.w3.org/1999/xlink" x="0px" y="0px"
	 viewBox="0 0 455.1 455.1" style="enable-background:new 0 0 455.1 455.1;" xml:space="preserve">
<path style="fill:#E24C4B;" d="M422.098,418.305H32.409c-25.6,0-41.244-28.444-27.022-49.778L200.231,52.794
	c12.8-21.333,42.667-21.333,55.467,0l194.844,315.733C463.342,389.861,447.697,418.305,422.098,418.305z"/>
<g>
	<polygon style="fill:#FFFFFF;" points="48.053,375.639 227.253,86.928 406.453,375.639 	"/>
	<polygon style="fill:#FFFFFF;" points="48.053,375.639 227.253,86.928 406.453,375.639 	"/>
</g>
<path style="fill:#3F4448;" d="M286.986,359.994c-1.422-8.533-7.111-12.8-8.533-18.489c-2.844-7.111,5.689-12.8,5.689-12.8
	c7.111-2.844,9.956-7.111,11.378-11.378c2.844-2.844,4.267-5.689,5.689-11.378c1.422-8.533-9.956-21.333-24.178-28.444
	c-12.8-7.111-36.978-24.178-48.356-27.022c-9.956-2.844-17.067-17.067-17.067-22.756c0-5.689,1.422-9.956-4.267-14.222l0,0
	c1.422,0,2.844-1.422,7.111-2.844c7.111-1.422,12.8-2.844,15.644-8.533c2.844-5.689,0-12.8-2.844-15.644
	c0,1.422,1.422,8.533,1.422,11.378c0,0-2.844-2.844-4.267-8.533c-1.422-4.267,0-8.533,0-8.533s-2.844,4.267-2.844,8.533
	c0,4.267,4.267,8.533,4.267,8.533s-2.844,0-5.689-1.422c0,0,1.422,2.844,4.267,4.267c0,0-2.844,5.689-9.956,5.689
	c-7.111,1.422-9.956-4.267-11.378-4.267c0,0,0,0-1.422-1.422c0-1.422-1.422-7.111,1.422-8.533c-1.422,0-4.267,2.844-4.267,8.533
	c0,0-2.844-1.422-2.844-4.267c-1.422-4.267,1.422-8.533,1.422-8.533s-5.689,8.533,0,15.644c4.267,5.689,0,7.111-2.844,8.533h-1.422
	c-5.689,0-15.644,2.844-18.489,4.267c-2.844,0-2.844,4.267,0,5.689c0,0-1.422,0,0,1.422s9.956,4.267,12.8,7.111
	c2.844,2.844,2.844,2.844,2.844,7.111c0,4.267,0,15.644,4.267,22.756c2.844,5.689,1.422,12.8,2.844,18.489
	c-19.911,5.689-14.222,4.267-31.289,25.6v8.533c7.111,0,5.689-5.689,5.689-5.689c1.422,0,1.422-1.422,1.422-1.422
	c7.111-9.956,11.378-21.333,21.333-17.067c2.844,1.422,7.111,1.422,9.956,1.422c-4.267,7.111-9.956,18.489-8.533,22.756
	c1.422,4.267,4.267,22.756,4.267,22.756l5.689,5.689c4.267-4.267,0-7.111,0-7.111c1.422,0,0-1.422,0-1.422
	s-2.844-11.378-4.267-15.644c-1.422-4.267-1.422-8.533,5.689-12.8c4.267-2.844,8.533-5.689,11.378-8.533
	c14.222,7.111,12.8,14.222,27.022,17.067c4.267,0,4.267,0,7.111,1.422c1.422,2.844,2.844,5.689,4.267,11.378
	c1.422,7.111,4.267,12.8,7.111,17.067c-1.422,11.378-1.422,25.6-1.422,34.133h5.689c0-8.533,2.844-18.489,4.267-24.178
	c2.844,2.844,4.267,4.267,4.267,5.689c1.422,9.956,0,14.222,1.422,18.489h5.689C286.986,372.794,288.409,365.683,286.986,359.994z"
	/>
<g>
</g>
<g>
</g>
<g>
</g>
<g>
</g>
<g>
</g>
<g>
</g>
<g>
</g>
<g>
</g>
<g>
</g>
<g>
</g>
<g>
</g>
<g>
</g>
<g>
</g>
<g>
</g>
<g>
</g>
</svg>
