<?xml version="1.0" encoding="iso-8859-1"?>
<!-- Generator: Adobe Illustrator 19.0.0, SVG Export Plug-In . SVG Version: 6.00 Build 0)  -->
<svg version="1.1" id="Capa_1" xmlns="http://www.w3.org/2000/svg" xmlns:xlink="http://www.w3.org/1999/xlink" x="0px" y="0px"
	 viewBox="0 0 455.1 455.1" style="enable-background:new 0 0 455.1 455.1;" xml:space="preserve">
<path style="fill:#E24C4B;" d="M422.098,418.305H32.409c-25.6,0-41.244-28.444-27.022-49.778L200.231,52.794
	c12.8-21.333,42.667-21.333,55.467,0l194.844,315.733C463.342,389.861,447.697,418.305,422.098,418.305z"/>
<polygon style="fill:#FFFFFF;" points="48.053,375.639 227.253,86.928 406.453,375.639 "/>
<g>
	<path style="fill:#3F4448;" d="M149.031,307.372l-2.844,18.489l-19.911,36.978c-2.844,4.267-1.422,9.956,4.267,12.8
		c4.267,2.844,9.956,1.422,12.8-4.267l21.333-38.4c0-1.422,1.422-1.422,1.422-2.844l1.422-8.533
		c-4.267-2.844-7.111-7.111-8.533-7.111C154.72,313.061,151.875,310.217,149.031,307.372z"/>
	<path style="fill:#3F4448;" d="M292.675,357.15l-59.733-46.933c0-1.422,1.422-1.422,1.422-2.844l5.689-25.6
		c0-1.422,0-4.267,0-5.689l-22.756-52.622c-1.422-2.844-4.267-4.267-7.111-5.689l-36.978-8.533c-2.844-1.422-7.111,0-8.533,2.844
		l-27.022,28.444c-4.267,4.267-2.844,9.956,1.422,14.222l19.911,15.644l-7.111,11.378c-7.111,9.956,1.422,19.911,9.956,27.022
		l28.444,25.6v32.711c0,5.689,4.267,9.956,9.956,9.956c5.689,0,9.956-4.267,9.956-9.956v-36.978c0-2.844-1.422-5.689-2.844-7.111
		l-24.178-21.333l0,0l5.689-8.533l96.711,75.378c2.844,2.844,8.533,2.844,9.956-1.422
		C296.942,364.261,296.942,359.994,292.675,357.15z M167.52,257.594l-11.378-8.533l19.911-19.911l8.533,2.844L167.52,257.594z
		 M218.72,297.417l-22.756-17.067l15.644-24.178l11.378,25.6L218.72,297.417z"/>
	<circle style="fill:#3F4448;" cx="230.097" cy="197.861" r="21.333"/>
	<path style="fill:#3F4448;" d="M406.453,375.639l-56.889-91.022v1.422c0,4.267-1.422,7.111,0,11.378
		c-8.533,2.844-14.222,9.956-17.067,19.911c-1.422,5.689,0,11.378,2.844,17.067c-7.111,0-12.8,4.267-15.644,11.378
		c-1.422,0-2.844-1.422-5.689-1.422c-14.222-2.844-28.444,7.111-31.289,21.333c-1.422-1.422-4.267-1.422-7.111-2.844
		c-9.956-1.422-19.911,4.267-24.178,14.222h155.022V375.639z"/>
</g>
<g>
</g>
<g>
</g>
<g>
</g>
<g>
</g>
<g>
</g>
<g>
</g>
<g>
</g>
<g>
</g>
<g>
</g>
<g>
</g>
<g>
</g>
<g>
</g>
<g>
</g>
<g>
</g>
<g>
</g>
</svg>
