<?xml version="1.0" encoding="iso-8859-1"?>
<!-- Generator: Adobe Illustrator 19.0.0, SVG Export Plug-In . SVG Version: 6.00 Build 0)  -->
<svg version="1.1" id="Capa_1" xmlns="http://www.w3.org/2000/svg" xmlns:xlink="http://www.w3.org/1999/xlink" x="0px" y="0px"
	 viewBox="0 0 455.1 455.1" style="enable-background:new 0 0 455.1 455.1;" xml:space="preserve">
<path style="fill:#E24C4B;" d="M422.098,418.305H32.409c-25.6,0-41.244-28.444-27.022-49.778L200.231,52.794
	c12.8-21.333,42.667-21.333,55.467,0l194.844,315.733C463.342,389.861,447.697,418.305,422.098,418.305z"/>
<polygon style="fill:#FFFFFF;" points="48.053,375.639 227.253,86.928 406.453,375.639 "/>
<g>
	<path style="fill:#3F4448;" d="M222.986,267.55h-14.222v81.067c0,4.267-2.844,7.111-7.111,7.111h-25.6
		c-4.267,0-7.111-2.844-7.111-7.111V267.55H154.72c-5.689,0-8.533-7.111-5.689-11.378l34.133-41.244
		c2.844-2.844,7.111-2.844,9.956,0l34.133,41.244C231.52,260.439,228.675,267.55,222.986,267.55z"/>
	<path style="fill:#3F4448;" d="M304.053,308.794l-34.133,39.822c-2.844,2.844-7.111,2.844-9.956,0l-32.711-39.822
		c-4.267-4.267,0-11.378,5.689-11.378h14.222V216.35c0-4.267,2.844-7.111,7.111-7.111h25.6c4.267,0,7.111,2.844,7.111,7.111v81.067
		h14.222C304.053,297.417,306.897,304.528,304.053,308.794z"/>
</g>
<g>
</g>
<g>
</g>
<g>
</g>
<g>
</g>
<g>
</g>
<g>
</g>
<g>
</g>
<g>
</g>
<g>
</g>
<g>
</g>
<g>
</g>
<g>
</g>
<g>
</g>
<g>
</g>
<g>
</g>
</svg>
