<?xml version="1.0" encoding="iso-8859-1"?>
<!-- Generator: Adobe Illustrator 19.0.0, SVG Export Plug-In . SVG Version: 6.00 Build 0)  -->
<svg version="1.1" id="Capa_1" xmlns="http://www.w3.org/2000/svg" xmlns:xlink="http://www.w3.org/1999/xlink" x="0px" y="0px"
	 viewBox="0 0 455.1 455.1" style="enable-background:new 0 0 455.1 455.1;" xml:space="preserve">
<path style="fill:#E24C4B;" d="M422.098,418.305H32.409c-25.6,0-41.244-28.444-27.022-49.778L200.231,52.794
	c12.8-21.333,42.667-21.333,55.467,0l194.844,315.733C463.342,389.861,447.697,418.305,422.098,418.305z"/>
<polygon style="fill:#FFFFFF;" points="48.053,375.639 227.253,86.928 406.453,375.639 "/>
<g>
	<path style="fill:#3F4448;" d="M247.164,328.705c0,11.378-8.533,19.911-19.911,19.911c-11.378,0-19.911-8.533-19.911-19.911
		c0-11.378,8.533-19.911,19.911-19.911C238.631,307.372,247.164,317.328,247.164,328.705z"/>
	<path style="fill:#3F4448;" d="M245.742,276.083l9.956-71.111c2.844-17.067-11.378-32.711-28.444-32.711l0,0
		c-17.067,0-31.289,15.644-28.444,32.711l9.956,71.111c1.422,8.533,8.533,15.644,18.489,15.644l0,0
		C237.209,293.15,244.32,286.039,245.742,276.083z"/>
</g>
<g>
</g>
<g>
</g>
<g>
</g>
<g>
</g>
<g>
</g>
<g>
</g>
<g>
</g>
<g>
</g>
<g>
</g>
<g>
</g>
<g>
</g>
<g>
</g>
<g>
</g>
<g>
</g>
<g>
</g>
</svg>
