<?xml version="1.0" encoding="iso-8859-1"?>
<!-- Generator: Adobe Illustrator 19.0.0, SVG Export Plug-In . SVG Version: 6.00 Build 0)  -->
<svg version="1.1" id="Capa_1" xmlns="http://www.w3.org/2000/svg" xmlns:xlink="http://www.w3.org/1999/xlink" x="0px" y="0px"
	 viewBox="0 0 455.1 455.1" style="enable-background:new 0 0 455.1 455.1;" xml:space="preserve">
<path style="fill:#E24C4B;" d="M422.098,418.305H32.409c-25.6,0-41.244-28.444-27.022-49.778L200.231,52.794
	c12.8-21.333,42.667-21.333,55.467,0l194.844,315.733C463.342,389.861,447.697,418.305,422.098,418.305z"/>
<polygon style="fill:#FFFFFF;" points="48.053,375.639 227.253,86.928 406.453,375.639 "/>
<path style="fill:#3F4448;" d="M271.342,189.328v186.311h-86.756V189.328c0-8.533,7.111-15.644,15.644-15.644h56.889
	C264.231,175.105,271.342,180.794,271.342,189.328z"/>
<path style="fill:#8DC640;" d="M251.431,216.35c0,12.8-9.956,24.178-24.178,24.178c-12.8,0-24.178-9.956-24.178-24.178
	c0-12.8,9.956-24.178,24.178-24.178C240.053,192.172,251.431,203.55,251.431,216.35z"/>
<path style="fill:#E24C4B;" d="M251.431,277.505c0,12.8-9.956,24.178-24.178,24.178c-12.8,0-24.178-9.956-24.178-24.178
	c0-12.8,9.956-24.178,24.178-24.178C240.053,253.328,251.431,264.705,251.431,277.505z"/>
<path style="fill:#FED93D;" d="M251.431,338.661c0,12.8-9.956,24.178-24.178,24.178c-12.8,0-24.178-9.956-24.178-24.178
	c0-12.8,9.956-24.178,24.178-24.178C240.053,314.483,251.431,324.439,251.431,338.661z"/>
<g>
</g>
<g>
</g>
<g>
</g>
<g>
</g>
<g>
</g>
<g>
</g>
<g>
</g>
<g>
</g>
<g>
</g>
<g>
</g>
<g>
</g>
<g>
</g>
<g>
</g>
<g>
</g>
<g>
</g>
</svg>
