<?xml version="1.0" encoding="iso-8859-1"?>
<!-- Generator: Adobe Illustrator 19.0.0, SVG Export Plug-In . SVG Version: 6.00 Build 0)  -->
<svg version="1.1" id="Capa_1" xmlns="http://www.w3.org/2000/svg" xmlns:xlink="http://www.w3.org/1999/xlink" x="0px" y="0px"
	 viewBox="0 0 455.1 455.1" style="enable-background:new 0 0 455.1 455.1;" xml:space="preserve">
<path style="fill:#E24C4B;" d="M33.002,418.305h389.689c25.6,0,41.244-28.444,27.022-49.778L254.869,52.794
	c-12.8-21.333-42.667-21.333-55.467,0L4.558,368.528C-8.242,389.861,7.402,418.305,33.002,418.305z"/>
<polygon style="fill:#FFFFFF;" points="407.047,375.639 227.847,86.928 48.647,375.639 "/>
<g>
	<path style="fill:#3F4448;" d="M236.38,351.461c4.267,0,7.111-2.844,7.111-7.111v-19.911c4.267-7.111,22.756-38.4,29.867-49.778
		c2.844-2.844,1.422-7.111-1.422-9.956c-2.844-1.422-7.111-1.422-9.956,1.422c-9.956,12.8-31.289,49.778-31.289,52.622
		c0,1.422-1.422,2.844-1.422,4.267v22.756C229.269,348.617,233.536,351.461,236.38,351.461z"/>
	<path style="fill:#3F4448;" d="M232.113,293.15c-2.844,0-4.267,0-7.111,0l25.6-32.711c4.267-5.689,12.8-7.111,19.911-4.267
		c7.111,4.267,8.533,14.222,4.267,21.333l-22.756,31.289C247.758,300.261,242.069,294.572,232.113,293.15z"/>
	<path style="fill:#3F4448;" d="M203.669,313.061l11.378-11.378l29.867,5.689c4.267,0,7.111-1.422,7.111-5.689
		s-1.422-7.111-5.689-7.111l-32.711-7.111c-2.844,0-4.267,0-5.689,1.422l-14.222,14.222c-2.844,2.844-2.844,7.111,0,9.956
		C196.558,315.905,200.824,315.905,203.669,313.061z"/>
	<circle style="fill:#3F4448;" cx="283.313" cy="241.95" r="15.644"/>
	<path style="fill:#3F4448;" d="M234.958,261.861c0,0,1.422,0,1.422,1.422l24.178,5.689c4.267,1.422,7.111-1.422,8.533-5.689
		c1.422-4.267-1.422-7.111-5.689-8.533l-21.333-5.689l-5.689-9.956c-1.422-2.844-5.689-4.267-8.533-2.844
		c-2.844,1.422-4.267,5.689-2.844,8.533l7.111,12.8C232.113,259.017,233.536,260.439,234.958,261.861z"/>
	<path style="fill:#3F4448;" d="M269.091,304.528c4.267,2.844,8.533,0,9.956-2.844l5.689-12.8c0-1.422,0-4.267,0-5.689
		l-8.533-19.911c-1.422-2.844-5.689-4.267-8.533-2.844c-2.844,1.422-4.267,5.689-2.844,8.533l8.533,17.067l-4.267,11.378
		C266.247,300.261,267.669,303.105,269.091,304.528z"/>
	<path style="fill:#3F4448;" d="M203.669,315.905c0-7.111-5.689-12.8-12.8-12.8H94.158l-45.511,72.533h155.022V315.905z"/>
</g>
<g>
</g>
<g>
</g>
<g>
</g>
<g>
</g>
<g>
</g>
<g>
</g>
<g>
</g>
<g>
</g>
<g>
</g>
<g>
</g>
<g>
</g>
<g>
</g>
<g>
</g>
<g>
</g>
<g>
</g>
</svg>
