<?xml version="1.0" encoding="iso-8859-1"?>
<!-- Generator: Adobe Illustrator 19.0.0, SVG Export Plug-In . SVG Version: 6.00 Build 0)  -->
<svg version="1.1" id="Capa_1" xmlns="http://www.w3.org/2000/svg" xmlns:xlink="http://www.w3.org/1999/xlink" x="0px" y="0px"
	 viewBox="0 0 455.1 455.1" style="enable-background:new 0 0 455.1 455.1;" xml:space="preserve">
<path style="fill:#E24C4B;" d="M33.002,418.305h389.689c25.6,0,41.244-28.444,27.022-49.778L254.869,52.794
	c-12.8-21.333-42.667-21.333-55.467,0L4.558,368.528C-8.242,389.861,7.402,418.305,33.002,418.305z"/>
<polygon style="fill:#FFFFFF;" points="407.047,375.639 227.847,86.928 48.647,375.639 "/>
<g>
	<path style="fill:#3F4448;" d="M183.758,327.283c-4.267-2.844-4.267-7.111-2.844-11.378l12.8-21.333c0-9.956,1.422-52.622,0-69.689
		c0-4.267,2.844-8.533,7.111-8.533c4.267,0,8.533,2.844,8.533,7.111c1.422,19.911,0,71.111,0,73.956c0,1.422,0,2.844-1.422,4.267
		l-14.222,22.756C193.713,328.705,188.024,330.128,183.758,327.283z"/>
	<path style="fill:#3F4448;" d="M226.424,270.394c2.844,1.422,5.689,2.844,7.111,4.267l-5.689-48.356
		c-1.422-8.533-8.533-15.644-17.067-15.644c-9.956,0-18.489,8.533-17.067,18.489l4.267,45.511
		C205.091,268.972,215.047,267.55,226.424,270.394z"/>
	<path style="fill:#3F4448;" d="M242.069,310.217l-4.267-19.911l-34.133-14.222c-4.267-1.422-7.111-5.689-4.267-9.956
		c1.422-4.267,7.111-5.689,9.956-4.267l38.4,15.644c2.844,1.422,4.267,2.844,4.267,5.689l5.689,24.178
		c1.422,4.267-1.422,8.533-5.689,9.956C247.758,317.328,243.491,314.483,242.069,310.217z"/>
	<circle style="fill:#3F4448;" cx="206.513" cy="186.483" r="19.911"/>
	<path style="fill:#3F4448;" d="M243.491,236.261c-1.422,0-1.422,0-2.844,0l-28.444-9.956c-4.267-1.422-7.111-5.689-5.689-9.956
		c1.422-4.267,5.689-7.111,9.956-5.689l24.178,8.533l11.378-7.111c4.267-2.844,8.533-1.422,11.378,2.844
		c2.844,4.267,1.422,8.533-2.844,11.378l-15.644,8.533C246.336,236.261,244.913,236.261,243.491,236.261z"/>
	<path style="fill:#3F4448;" d="M178.069,259.017c-4.267-1.422-7.111-5.689-7.111-9.956l2.844-17.067
		c0-2.844,1.422-4.267,4.267-5.689l21.333-14.222c4.267-2.844,8.533-1.422,11.378,2.844c2.844,4.267,1.422,8.533-2.844,11.378
		l-18.489,11.378l-2.844,14.222C186.602,257.594,182.336,260.439,178.069,259.017z"/>
	<path style="fill:#3F4448;" d="M207.936,327.283c0-5.689-4.267-8.533-9.956-8.533H85.624l-35.556,58.311h157.867V327.283z"/>
</g>
<g>
</g>
<g>
</g>
<g>
</g>
<g>
</g>
<g>
</g>
<g>
</g>
<g>
</g>
<g>
</g>
<g>
</g>
<g>
</g>
<g>
</g>
<g>
</g>
<g>
</g>
<g>
</g>
<g>
</g>
</svg>
