<?xml version="1.0" encoding="iso-8859-1"?>
<!-- Generator: Adobe Illustrator 19.0.0, SVG Export Plug-In . SVG Version: 6.00 Build 0)  -->
<svg version="1.1" id="Capa_1" xmlns="http://www.w3.org/2000/svg" xmlns:xlink="http://www.w3.org/1999/xlink" x="0px" y="0px"
	 viewBox="0 0 455.1 455.1" style="enable-background:new 0 0 455.1 455.1;" xml:space="preserve">
<path style="fill:#E24C4B;" d="M33.002,418.305h389.689c25.6,0,41.244-28.444,27.022-49.778L254.869,52.794
	c-12.8-21.333-42.667-21.333-55.467,0L4.558,368.528C-8.242,389.861,7.402,418.305,33.002,418.305z"/>
<polygon style="fill:#FFFFFF;" points="407.047,375.639 227.847,86.928 48.647,375.639 "/>
<path style="fill:#3F4448;" d="M266.247,314.483c-2.844,14.222-14.222,27.022-29.867,29.867c-25.6,5.689-46.933-14.222-46.933-38.4
	c0-14.222,7.111-27.022,19.911-34.133v-83.911c0-11.378,8.533-19.911,19.911-19.911l0,0c11.378,0,19.911,8.533,19.911,19.911v83.911
	C260.558,280.35,269.091,295.994,266.247,314.483z"/>
<path style="fill:#FFFFFF;" d="M252.024,305.95c0,14.222-11.378,24.178-24.178,24.178c-12.8,0-24.178-11.378-24.178-24.178
	c0-11.378,8.533-21.333,19.911-24.178v-61.156c0-7.111,9.956-7.111,9.956,0v61.156C243.491,284.617,252.024,294.572,252.024,305.95z
	"/>
<g>
</g>
<g>
</g>
<g>
</g>
<g>
</g>
<g>
</g>
<g>
</g>
<g>
</g>
<g>
</g>
<g>
</g>
<g>
</g>
<g>
</g>
<g>
</g>
<g>
</g>
<g>
</g>
<g>
</g>
</svg>
