<?xml version="1.0" encoding="iso-8859-1"?>
<!-- Generator: Adobe Illustrator 19.0.0, SVG Export Plug-In . SVG Version: 6.00 Build 0)  -->
<svg version="1.1" id="Capa_1" xmlns="http://www.w3.org/2000/svg" xmlns:xlink="http://www.w3.org/1999/xlink" x="0px" y="0px"
	 viewBox="0 0 455.111 455.111" style="enable-background:new 0 0 455.111 455.111;" xml:space="preserve">
<path style="fill:#E24C4B;" d="M227.556,0C102.4,0,0,102.4,0,227.556s102.4,227.556,227.556,227.556s227.556-102.4,227.556-227.556
	S352.711,0,227.556,0z"/>
<path id="SVGCleanerId_0" style="fill:#FFFFFF;" d="M42.667,227.556c0-102.4,82.489-184.889,184.889-184.889
	s184.889,82.489,184.889,184.889s-82.489,184.889-184.889,184.889S42.667,329.956,42.667,227.556z"/>
<g>
	<path id="SVGCleanerId_0_1_" style="fill:#FFFFFF;" d="M42.667,227.556c0-102.4,82.489-184.889,184.889-184.889
		s184.889,82.489,184.889,184.889s-82.489,184.889-184.889,184.889S42.667,329.956,42.667,227.556z"/>
</g>
<g>
	<path style="fill:#3F4448;" d="M139.378,139.378l-32.711,93.867c-1.422,5.689,1.422,11.378,5.689,12.8l18.489,7.111
		c-1.422,11.378,4.267,22.756,15.644,27.022s24.178-1.422,29.867-11.378L256,297.244c-1.422,11.378,4.267,22.756,15.644,27.022
		s24.178-1.422,29.867-11.378l9.956,2.844c2.844,1.422,7.111,0,7.111-4.267l2.844-7.111c1.422-2.844,0-5.689-2.844-7.111
		l8.533-22.756c0,0,0,0,0-1.422l-1.422-45.511c0-2.844-1.422-4.267-4.267-5.689l-42.667-15.644l0,0l7.111-19.911
		c1.422-5.689-1.422-11.378-5.689-12.8L153.6,129.422C147.911,132.267,142.222,135.111,139.378,139.378z M270.222,297.244
		c1.422-5.689,8.533-8.533,14.222-7.111c5.689,1.422,8.533,8.533,7.111,14.222c-1.422,5.689-8.533,8.533-14.222,7.111
		C271.644,310.044,268.8,302.933,270.222,297.244z M288.711,226.133l24.178,8.533l1.422,31.289l-35.556-12.8L288.711,226.133z
		 M145.067,254.578c1.422-5.689,8.533-8.533,14.222-7.111c5.689,1.422,8.533,8.533,7.111,14.222
		c-1.422,5.689-8.533,8.533-14.222,7.111C146.489,265.956,143.644,260.267,145.067,254.578z"/>
	<path style="fill:#3F4448;" d="M44.089,244.622c7.111,93.867,86.756,167.822,183.467,167.822
		c52.622,0,99.556-21.333,133.689-56.889L44.089,244.622z"/>
</g>
<g>
</g>
<g>
</g>
<g>
</g>
<g>
</g>
<g>
</g>
<g>
</g>
<g>
</g>
<g>
</g>
<g>
</g>
<g>
</g>
<g>
</g>
<g>
</g>
<g>
</g>
<g>
</g>
<g>
</g>
</svg>
