<?xml version="1.0" encoding="iso-8859-1"?>
<!-- Generator: Adobe Illustrator 19.0.0, SVG Export Plug-In . SVG Version: 6.00 Build 0)  -->
<svg version="1.1" id="Capa_1" xmlns="http://www.w3.org/2000/svg" xmlns:xlink="http://www.w3.org/1999/xlink" x="0px" y="0px"
	 viewBox="0 0 455.111 455.111" style="enable-background:new 0 0 455.111 455.111;" xml:space="preserve">
<ellipse style="fill:#E24C4B;" cx="227.556" cy="227.556" rx="227.556" ry="227.556"/>
<path style="fill:#FFFFFF;" d="M227.511,412.555c-102.4,0-184.889-82.489-184.889-184.889S125.111,42.777,227.511,42.777
	S412.4,125.266,412.4,227.666S329.911,412.555,227.511,412.555z"/>
<g>
	<path style="fill:#3F4448;" d="M321.378,254.688H150.711v51.2h170.667c7.111,0,11.378-5.689,11.378-11.378v-28.444
		C332.756,260.377,328.489,254.688,321.378,254.688z"/>
	<path style="fill:#3F4448;" d="M142.178,254.688H98.089c-7.111,0-11.378,5.689-11.378,11.378v28.444
		c0,5.689,5.689,11.378,11.378,11.378h44.089V254.688z"/>
	<path style="fill:#3F4448;" d="M314.267,234.777c0-28.444-35.556-27.022-65.422-81.067c-11.378-19.911-14.222-32.711-17.067-46.933
		c14.222,31.289,9.956,22.756,22.756,44.089c24.178,35.556,36.978,42.667,54.044,61.156
		C315.689,221.977,315.689,227.666,314.267,234.777z"/>
	<path style="fill:#3F4448;" d="M322.8,239.043c15.644-18.489-5.689-36.978-24.178-56.889
		c-19.911-22.756-19.911-52.622-15.644-68.267c0,28.444,7.111,48.356,21.333,64c12.8,14.222,36.978,35.556,22.756,56.889
		C324.222,239.043,322.8,239.043,322.8,239.043z"/>
	<path style="fill:#3F4448;" d="M338.445,236.199c8.533-9.956,11.378-21.333,8.533-32.711c-2.844-14.222-18.489-34.133-14.222-51.2
		c4.267,21.333,17.067,29.867,21.333,49.778C355.511,217.71,348.4,231.932,338.445,236.199z"/>
</g>
<polygon style="fill:#E24C4B;" points="382.533,352.821 352.667,382.688 71.067,102.51 102.356,71.221 "/>
<g>
</g>
<g>
</g>
<g>
</g>
<g>
</g>
<g>
</g>
<g>
</g>
<g>
</g>
<g>
</g>
<g>
</g>
<g>
</g>
<g>
</g>
<g>
</g>
<g>
</g>
<g>
</g>
<g>
</g>
</svg>
