<?xml version="1.0" encoding="iso-8859-1"?>
<!-- Generator: Adobe Illustrator 19.0.0, SVG Export Plug-In . SVG Version: 6.00 Build 0)  -->
<svg version="1.1" id="Capa_1" xmlns="http://www.w3.org/2000/svg" xmlns:xlink="http://www.w3.org/1999/xlink" x="0px" y="0px"
	 viewBox="0 0 455.111 455.111" style="enable-background:new 0 0 455.111 455.111;" xml:space="preserve">
<ellipse style="fill:#E24C4B;" cx="227.556" cy="227.556" rx="227.556" ry="227.556"/>
<path style="fill:#FFFFFF;" d="M227.523,412.441c-102.4,0-184.889-82.489-184.889-184.889S125.123,42.663,227.523,42.663
	s184.889,82.489,184.889,184.889S329.923,412.441,227.523,412.441z"/>
<path style="fill:#3F4448;" d="M335.612,169.241v169.244c0,7.111-5.689,12.8-12.8,12.8H133.657c-7.111,0-12.8-5.689-12.8-12.8
	V169.241c0-7.111,5.689-12.8,12.8-12.8h189.156C328.501,156.441,335.612,162.13,335.612,169.241z"/>
<g>
	<path style="fill:#FFFFFF;" d="M216.146,248.885v34.133c0,2.844-2.844,5.689-5.689,5.689c-2.844,0-5.689-2.844-5.689-5.689v-32.711
		c0-2.844-4.267-2.844-4.267,0v75.378c0,2.844-2.844,5.689-5.689,5.689h-1.422c-2.844,0-5.689-2.844-5.689-5.689v-36.978h-5.689
		v36.978c0,2.844-2.844,5.689-5.689,5.689h-1.422c-2.844,0-5.689-2.844-5.689-5.689v-75.378c0-2.844-4.267-2.844-4.267,0v32.711
		c0,2.844-2.844,5.689-5.689,5.689c-2.844,0-5.689-2.844-5.689-5.689v-34.133c0-17.067,14.222-31.289,31.289-31.289
		C201.923,217.596,216.146,231.819,216.146,248.885z"/>
	<path style="fill:#FFFFFF;" d="M167.79,196.263c0-9.956,7.111-17.067,17.067-17.067c8.533,0,17.067,7.111,17.067,17.067
		c0,8.533-7.111,17.067-17.067,17.067C176.323,211.907,167.79,204.796,167.79,196.263z"/>
	<path style="fill:#FFFFFF;" d="M253.123,196.263c0-9.956,7.111-17.067,17.067-17.067c8.533,0,17.067,7.111,17.067,17.067
		c0,8.533-7.111,17.067-17.067,17.067C261.657,211.907,253.123,204.796,253.123,196.263z"/>
	<path style="fill:#FFFFFF;" d="M301.479,248.885v34.133c0,2.844-2.844,5.689-5.689,5.689s-5.689-2.844-5.689-5.689v-32.711
		c0-2.844-4.267-2.844-4.267,0v75.378c0,2.844-2.844,5.689-5.689,5.689h-1.422c-2.844,0-5.689-2.844-5.689-5.689v-36.978h-5.689
		v36.978c0,2.844-2.844,5.689-5.689,5.689h-1.422c-2.844,0-5.689-2.844-5.689-5.689v-75.378c0-2.844-4.267-2.844-4.267,0v32.711
		c0,2.844-2.844,5.689-5.689,5.689c-2.844,0-5.689-2.844-5.689-5.689v-34.133c0-17.067,14.222-31.289,31.289-31.289
		C287.257,217.596,301.479,231.819,301.479,248.885z"/>
</g>
<g>
	<path style="fill:#3F4448;" d="M189.123,109.507v31.289h19.911v-31.289h8.533c2.844,0,4.267-2.844,2.844-5.689l-18.489-29.867
		c-1.422-2.844-4.267-2.844-5.689,0l-18.489,29.867c-1.422,2.844,0,5.689,2.844,5.689H189.123z"/>
	<path style="fill:#3F4448;" d="M267.346,103.819V72.53h-19.911v31.289h-8.533c-2.844,0-4.267,2.844-2.844,5.689l18.489,29.867
		c1.422,2.844,4.267,2.844,5.689,0l18.489-29.867c1.422-2.844,0-5.689-2.844-5.689L267.346,103.819L267.346,103.819z"/>
</g>
<polygon style="fill:#E24C4B;" points="382.546,352.707 352.679,382.574 71.079,102.396 102.368,71.107 "/>
<g>
</g>
<g>
</g>
<g>
</g>
<g>
</g>
<g>
</g>
<g>
</g>
<g>
</g>
<g>
</g>
<g>
</g>
<g>
</g>
<g>
</g>
<g>
</g>
<g>
</g>
<g>
</g>
<g>
</g>
</svg>
