<?xml version="1.0" encoding="iso-8859-1"?>
<!-- Generator: Adobe Illustrator 19.0.0, SVG Export Plug-In . SVG Version: 6.00 Build 0)  -->
<svg version="1.1" id="Capa_1" xmlns="http://www.w3.org/2000/svg" xmlns:xlink="http://www.w3.org/1999/xlink" x="0px" y="0px"
	 viewBox="0 0 455.111 455.111" style="enable-background:new 0 0 455.111 455.111;" xml:space="preserve">
<ellipse style="fill:#E24C4B;" cx="227.556" cy="227.556" rx="227.556" ry="227.556"/>
<path style="fill:#FFFFFF;" d="M227.523,412.441c-102.4,0-184.889-82.489-184.889-184.889S125.123,42.663,227.523,42.663
	s184.889,82.489,184.889,184.889S329.923,412.441,227.523,412.441z"/>
<g>
	<path style="fill:#3F4448;" d="M354.101,223.285h-18.489v-81.067h4.267c2.844,0,5.689-2.844,5.689-5.689s-2.844-5.689-5.689-5.689
		h-96.711c-2.844,0-4.267,1.422-5.689,4.267l-27.022,99.556h-31.289c-2.844,0-5.689,2.844-5.689,5.689v24.178h-5.689v-99.556
		c0-2.844-2.844-5.689-5.689-5.689c-2.844,0-5.689,2.844-5.689,5.689v119.467h-54.044c-2.844,0-5.689,2.844-5.689,5.689
		c0,2.844,2.844,5.689,5.689,5.689h55.467v2.844c0,2.844,2.844,5.689,5.689,5.689c2.844,0,5.689-2.844,5.689-5.689V277.33h5.689
		v9.956c0,2.844,2.844,5.689,5.689,5.689h15.644c2.844,9.956,11.378,18.489,21.333,18.489c11.378,0,19.911-8.533,21.333-18.489h51.2
		c2.844,9.956,11.378,18.489,22.756,18.489s19.911-8.533,21.333-18.489h14.222c4.267,0,8.533-4.267,8.533-8.533L354.101,223.285z
		 M217.568,295.819c-4.267,0-8.533-4.267-8.533-8.533c0-4.267,4.267-8.533,8.533-8.533c4.267,0,8.533,4.267,8.533,8.533
		C226.101,292.974,221.835,295.819,217.568,295.819z M281.568,223.285v2.844c-7.111,2.844-14.222,9.956-15.644,18.489h-4.267
		l11.378-25.6h14.222C284.412,219.019,281.568,220.441,281.568,223.285z M312.857,295.819c-4.267,0-8.533-4.267-8.533-8.533
		c0-4.267,4.267-8.533,8.533-8.533s8.533,4.267,8.533,8.533C321.39,292.974,317.123,295.819,312.857,295.819z M324.235,223.285
		h-7.111l0,0c0-2.844-1.422-4.267-4.267-4.267h-9.956v-34.133c0-8.533-5.689-14.222-14.222-14.222c-5.689,0-9.956,2.844-12.8,8.533
		l-4.267,8.533l-15.644,5.689c-4.267,1.422-4.267,9.956,0,8.533l19.911-5.689l5.689-8.533v17.067l-14.222,4.267
		c-2.844,1.422-5.689,5.689-5.689,8.533l-8.533,27.022h-31.289v-4.267l25.6-98.133h76.8L324.235,223.285L324.235,223.285z"/>
	<path style="fill:#3F4448;" d="M291.523,169.241c5.689,0,9.956-4.267,9.956-9.956c0-5.689-4.267-9.956-9.956-9.956
		s-9.956,4.267-9.956,9.956C281.568,164.974,285.835,169.241,291.523,169.241z"/>
</g>
<polygon style="fill:#E24C4B;" points="382.546,352.707 352.679,382.574 71.079,102.396 102.368,71.107 "/>
<g>
</g>
<g>
</g>
<g>
</g>
<g>
</g>
<g>
</g>
<g>
</g>
<g>
</g>
<g>
</g>
<g>
</g>
<g>
</g>
<g>
</g>
<g>
</g>
<g>
</g>
<g>
</g>
<g>
</g>
</svg>
