<?xml version="1.0" encoding="iso-8859-1"?>
<!-- Generator: Adobe Illustrator 19.0.0, SVG Export Plug-In . SVG Version: 6.00 Build 0)  -->
<svg version="1.1" id="Capa_1" xmlns="http://www.w3.org/2000/svg" xmlns:xlink="http://www.w3.org/1999/xlink" x="0px" y="0px"
	 viewBox="0 0 455.111 455.111" style="enable-background:new 0 0 455.111 455.111;" xml:space="preserve">
<ellipse style="fill:#E24C4B;" cx="227.556" cy="227.556" rx="227.556" ry="227.556"/>
<path style="fill:#FFFFFF;" d="M227.523,412.441c-102.4,0-184.889-82.489-184.889-184.889S125.123,42.663,227.523,42.663
	s184.889,82.489,184.889,184.889S329.923,412.441,227.523,412.441z"/>
<path style="fill:#3F4448;" d="M204.768,347.019c-4.267,19.911-22.756,35.556-45.511,35.556c-38.4,0-56.889-44.089-44.089-81.067
	c1.422,5.689,4.267,11.378,5.689,17.067c-1.422-12.8,8.533-21.333,5.689-39.822c5.689,2.844,8.533,17.067,12.8,15.644
	c-2.844-4.267-1.422-9.956,2.844-14.222c2.844-4.267,8.533-7.111,11.378-9.956c9.956-9.956,7.111-29.867,1.422-41.244
	c14.222,7.111,22.756,25.6,21.333,41.244c-1.422,8.533-5.689,18.489,2.844,21.333c-4.267-8.533,14.222-18.489,7.111-27.022
	c11.378,12.8,0,31.289,4.267,48.356l8.533-9.956C193.39,325.685,206.19,327.107,204.768,347.019z"/>
<path style="fill:#FFFFFF;" d="M139.346,369.774c-4.267-8.533-5.689-18.489-4.267-27.022c0,4.267,4.267,8.533,8.533,8.533
	c-4.267-9.956-4.267-22.756,0-32.711c2.844,4.267,5.689,8.533,5.689,14.222c5.689-7.111-7.111-25.6,9.956-41.244
	c-2.844,9.956-1.422,19.911,4.267,28.444c1.422,2.844,4.267,5.689,7.111,9.956c1.422,2.844,1.422,8.533-1.422,9.956
	c2.844-2.844,5.689-4.267,7.111-7.111c0,5.689,1.422,9.956,1.422,15.644c0,4.267,0,9.956-2.844,14.222
	c2.844-2.844,5.689-5.689,7.111-8.533C184.857,374.041,154.99,398.219,139.346,369.774z"/>
<path style="fill:#DAE5EE;" d="M257.39,160.707c-15.644,5.689-32.711,12.8-41.244,27.022c-7.111,11.378-8.533,24.178-8.533,36.978
	c0,9.956,2.844,21.333-1.422,22.756c-7.111,2.844-4.267-11.378-1.422-29.867c0-1.422,0-4.267-2.844-5.689
	c-1.422,0-4.267,1.422-4.267,2.844s0,4.267,0,5.689s0,4.267-1.422,5.689c-2.844,1.422-5.689,0-8.533,0
	c-2.844,0-5.689,4.267-7.111,7.111c-1.422,2.844-1.422,7.111-4.267,8.533c-1.422,2.844-5.689,4.267-8.533,1.422
	c-2.844-2.844-1.422-7.111,0-11.378c4.267-11.378,9.956-22.756,14.222-34.133c-4.267,4.267-9.956,8.533-14.222,14.222
	c-8.533,8.533-18.489,21.333-24.178,15.644c-1.422-2.844-1.422-5.689,0-8.533c1.422-2.844,4.267-4.267,5.689-7.111
	c5.689-7.111,5.689-17.067,2.844-24.178c-4.267,4.267-7.111,8.533-9.956,5.689c-1.422-2.844,0-5.689,1.422-7.111
	c1.422-1.422,4.267-2.844,5.689-5.689c9.956-7.111,15.644-19.911,24.178-29.867c12.8-14.222,31.289-21.333,49.778-18.489
	c18.489,2.844,35.556,14.222,44.089,29.867"/>
<polygon style="fill:#E24C4B;" points="382.546,352.707 352.679,382.574 71.079,102.396 102.368,71.107 "/>
<path style="fill:#3F4448;" d="M287.257,72.53c2.844,1.422,4.267,4.267,2.844,7.111v1.422l68.267,49.778
	c4.267,2.844,4.267,7.111,2.844,11.378l-22.756,52.622c-1.422,4.267-5.689,5.689-9.956,5.689l-82.489-14.222v1.422
	c-1.422,2.844-4.267,4.267-7.111,2.844s-4.267-4.267-2.844-7.111l45.511-106.667C281.568,72.53,284.412,71.107,287.257,72.53z"/>
<g>
</g>
<g>
</g>
<g>
</g>
<g>
</g>
<g>
</g>
<g>
</g>
<g>
</g>
<g>
</g>
<g>
</g>
<g>
</g>
<g>
</g>
<g>
</g>
<g>
</g>
<g>
</g>
<g>
</g>
</svg>
