<?xml version="1.0" encoding="iso-8859-1"?>
<!-- Generator: Adobe Illustrator 19.0.0, SVG Export Plug-In . SVG Version: 6.00 Build 0)  -->
<svg version="1.1" id="Capa_1" xmlns="http://www.w3.org/2000/svg" xmlns:xlink="http://www.w3.org/1999/xlink" x="0px" y="0px"
	 viewBox="0 0 455.111 455.111" style="enable-background:new 0 0 455.111 455.111;" xml:space="preserve">
<ellipse style="fill:#E24C4B;" cx="227.556" cy="227.556" rx="227.556" ry="227.556"/>
<path style="fill:#FFFFFF;" d="M227.523,412.441c-102.4,0-184.889-82.489-184.889-184.889S125.123,42.663,227.523,42.663
	s184.889,82.489,184.889,184.889S329.923,412.441,227.523,412.441z"/>
<g>
	<path style="fill:#3F4448;" d="M354.101,157.863H112.323c-7.111,0-14.222,5.689-14.222,12.8l-11.378,62.578
		c0,1.422,0,2.844,0,2.844v25.6c-1.422,4.267,2.844,8.533,7.111,8.533h21.333c0-11.378,7.111-22.756,21.333-22.756
		c14.222,0,21.333,11.378,21.333,22.756h130.844c0-11.378,7.111-22.756,21.333-22.756c14.222,0,21.333,11.378,21.333,22.756h29.867
		c4.267,0,8.533-4.267,8.533-8.533v-89.6C369.746,164.974,362.635,157.863,354.101,157.863z M169.212,213.33H103.79l7.111-38.4
		h58.311V213.33z M224.679,213.33H180.59v-38.4h44.089V213.33z M280.146,213.33h-44.089v-38.4h44.089V213.33z M335.612,213.33
		h-44.089v-38.4h44.089V213.33z"/>
	<path style="fill:#3F4448;" d="M135.079,243.196c-15.644,0-27.022,12.8-27.022,27.022c0,15.644,12.8,27.022,27.022,27.022
		c14.222,0,27.022-12.8,27.022-27.022C163.523,254.574,150.723,243.196,135.079,243.196z M135.079,281.596
		c-7.111,0-12.8-5.689-12.8-12.8s5.689-12.8,12.8-12.8c7.111,0,12.8,5.689,12.8,12.8C147.879,277.33,142.19,281.596,135.079,281.596
		z"/>
	<path style="fill:#3F4448;" d="M308.59,243.196c-15.644,0-27.022,12.8-27.022,27.022c0,15.644,12.8,27.022,27.022,27.022
		c15.644,0,27.022-12.8,27.022-27.022C335.612,254.574,322.812,243.196,308.59,243.196z M308.59,281.596
		c-7.111,0-12.8-5.689-12.8-12.8s5.689-12.8,12.8-12.8s12.8,5.689,12.8,12.8C319.968,277.33,314.279,281.596,308.59,281.596z"/>
</g>
<polygon style="fill:#E24C4B;" points="382.546,352.707 352.679,382.574 71.079,102.396 102.368,71.107 "/>
<g>
</g>
<g>
</g>
<g>
</g>
<g>
</g>
<g>
</g>
<g>
</g>
<g>
</g>
<g>
</g>
<g>
</g>
<g>
</g>
<g>
</g>
<g>
</g>
<g>
</g>
<g>
</g>
<g>
</g>
</svg>
