<?xml version="1.0" encoding="iso-8859-1"?>
<!-- Generator: Adobe Illustrator 19.0.0, SVG Export Plug-In . SVG Version: 6.00 Build 0)  -->
<svg version="1.1" id="Capa_1" xmlns="http://www.w3.org/2000/svg" xmlns:xlink="http://www.w3.org/1999/xlink" x="0px" y="0px"
	 viewBox="0 0 455.111 455.111" style="enable-background:new 0 0 455.111 455.111;" xml:space="preserve">
<ellipse style="fill:#E24C4B;" cx="227.556" cy="227.556" rx="227.556" ry="227.556"/>
<path style="fill:#FFFFFF;" d="M227.523,412.441c-102.4,0-184.889-82.489-184.889-184.889S125.123,42.663,227.523,42.663
	s184.889,82.489,184.889,184.889S329.923,412.441,227.523,412.441z"/>
<g>
	<path style="fill:#3F4448;" d="M275.879,127.996c-31.289-11.378-65.422-11.378-96.711,0c-11.378,4.267-18.489,14.222-18.489,25.6
		v184.889c0,11.378,7.111,22.756,18.489,25.6c31.289,11.378,65.422,11.378,96.711,0c11.378-4.267,18.489-14.222,18.489-25.6V153.596
		C294.368,142.219,287.257,132.263,275.879,127.996z M210.457,143.641h34.133c2.844,0,4.267,1.422,4.267,4.267
		c0,2.844-1.422,4.267-4.267,4.267h-34.133c-2.844,0-4.267-1.422-4.267-4.267S207.612,143.641,210.457,143.641z M280.146,339.907
		c0,5.689-2.844,11.378-8.533,12.8c-14.222,5.689-28.444,7.111-44.089,7.111c-14.222,0-29.867-2.844-44.089-7.111
		c-5.689-1.422-8.533-7.111-8.533-12.8v-92.444c35.556,7.111,69.689,5.689,103.822,0v92.444H280.146z M280.146,228.974
		c-35.556,8.533-69.689,8.533-103.822,0v-46.933h103.822V228.974z"/>
	<path style="fill:#3F4448;" d="M173.479,265.952v9.956c18.489,4.267,36.978,5.689,55.467,5.689c18.489,0,36.978-2.844,55.467-5.689
		v-9.956C247.435,274.485,209.035,274.485,173.479,265.952z"/>
	<path style="fill:#3F4448;" d="M173.479,295.819v9.956c18.489,2.844,36.978,5.689,55.467,5.689c18.489,0,36.978-2.844,55.467-5.689
		v-9.956C247.435,302.93,209.035,302.93,173.479,295.819z"/>
	<path style="fill:#3F4448;" d="M173.479,325.685v9.956c18.489,2.844,36.978,4.267,55.467,4.267c18.489,0,36.978-1.422,55.467-4.267
		v-9.956C247.435,331.374,209.035,331.374,173.479,325.685z"/>
	<rect x="204.768" y="237.507" style="fill:#3F4448;" width="9.956" height="126.578"/>
	<rect x="241.746" y="237.507" style="fill:#3F4448;" width="9.956" height="126.578"/>
	<path style="fill:#3F4448;" d="M280.146,149.33V88.174c0-4.267-4.267-8.533-8.533-8.533s-8.533,2.844-8.533,8.533v61.156H280.146z"
		/>
</g>
<polygon style="fill:#E24C4B;" points="382.546,352.707 352.679,382.574 71.079,102.396 102.368,71.107 "/>
<g>
</g>
<g>
</g>
<g>
</g>
<g>
</g>
<g>
</g>
<g>
</g>
<g>
</g>
<g>
</g>
<g>
</g>
<g>
</g>
<g>
</g>
<g>
</g>
<g>
</g>
<g>
</g>
<g>
</g>
</svg>
