<?xml version="1.0" encoding="iso-8859-1"?>
<!-- Generator: Adobe Illustrator 19.0.0, SVG Export Plug-In . SVG Version: 6.00 Build 0)  -->
<svg version="1.1" id="Capa_1" xmlns="http://www.w3.org/2000/svg" xmlns:xlink="http://www.w3.org/1999/xlink" x="0px" y="0px"
	 viewBox="0 0 455.111 455.111" style="enable-background:new 0 0 455.111 455.111;" xml:space="preserve">
<ellipse style="fill:#E24C4B;" cx="227.556" cy="227.556" rx="227.556" ry="227.556"/>
<path style="fill:#FFFFFF;" d="M227.523,412.441c-102.4,0-184.889-82.489-184.889-184.889S125.123,42.663,227.523,42.663
	s184.889,82.489,184.889,184.889S329.923,412.441,227.523,412.441z"/>
<path style="fill:#3F4448;" d="M317.123,152.174v167.822c0,17.067-15.644,31.289-34.133,28.444c-31.289-5.689-61.156-5.689-89.6,0
	c-11.378,1.422-25.6-2.844-31.289-15.644c-21.333-49.778-7.111-22.756-62.578-116.622c-5.689-9.956-2.844-21.333,7.111-27.022
	c9.956-5.689,21.333-2.844,27.022,7.111l24.178,41.244V132.263c0-8.533,5.689-15.644,14.222-17.067
	c9.956-1.422,17.067,7.111,17.067,15.644v83.911c0,2.844,2.844,4.267,5.689,4.267s4.267-1.422,4.267-4.267V109.507
	c0-8.533,5.689-15.644,14.222-17.067c9.956-1.422,17.067,7.111,17.067,15.644V213.33c0,2.844,2.844,4.267,4.267,4.267
	c1.422,0,5.689-1.422,5.689-4.267v-83.911c0-8.533,5.689-15.644,14.222-17.067c9.956-1.422,17.067,7.111,17.067,15.644v83.911
	c0,2.844,1.422,4.267,4.267,4.267c2.844,0,5.689-1.422,5.689-4.267V149.33c0-8.533,5.689-15.644,14.222-17.067
	C308.59,135.107,317.123,142.219,317.123,152.174z"/>
<g>
</g>
<g>
</g>
<g>
</g>
<g>
</g>
<g>
</g>
<g>
</g>
<g>
</g>
<g>
</g>
<g>
</g>
<g>
</g>
<g>
</g>
<g>
</g>
<g>
</g>
<g>
</g>
<g>
</g>
</svg>
