<?xml version="1.0" encoding="iso-8859-1"?>
<!-- Generator: Adobe Illustrator 19.0.0, SVG Export Plug-In . SVG Version: 6.00 Build 0)  -->
<svg version="1.1" id="Capa_1" xmlns="http://www.w3.org/2000/svg" xmlns:xlink="http://www.w3.org/1999/xlink" x="0px" y="0px"
	 viewBox="0 0 455.1 455.1" style="enable-background:new 0 0 455.1 455.1;" xml:space="preserve">
<path style="fill:#E24C4B;" d="M422.098,418.305H32.409c-25.6,0-41.244-28.444-27.022-49.778L200.231,52.794
	c12.8-21.333,42.667-21.333,55.467,0l194.844,315.733C463.342,389.861,447.697,418.305,422.098,418.305z"/>
<polygon style="fill:#FFFFFF;" points="48.053,375.639 227.253,86.928 406.453,375.639 "/>
<g>
	<path style="fill:#3F4448;" d="M333.92,341.505h-4.267v-28.444c0-9.956-8.533-17.067-17.067-17.067H295.52v-14.222
		c0-1.422-1.422-2.844-2.844-2.844h-1.422v-12.8h-7.111v12.8h-1.422c-1.422,0-2.844,1.422-2.844,2.844v14.222h-46.933v-32.711h4.267
		c2.844,0,7.111-2.844,7.111-7.111s-2.844-7.111-7.111-7.111h-89.6c-4.267,0-7.111,2.844-7.111,7.111s2.844,7.111,7.111,7.111h4.267
		v78.222h-5.689c-2.844,0-5.689,2.844-5.689,5.689c0,2.844,2.844,5.689,5.689,5.689h9.956c0,0,0,0,0,1.422
		c0,12.8,9.956,22.756,22.756,22.756c9.956,0,18.489-7.111,21.333-17.067h17.067c2.844,9.956,11.378,17.067,21.333,17.067
		s18.489-7.111,21.333-17.067h17.067c2.844,9.956,11.378,17.067,21.333,17.067c12.8,0,22.756-9.956,22.756-22.756v-1.422h12.8
		c2.844,0,5.689-2.844,5.689-5.689S336.764,341.505,333.92,341.505z M180.32,359.994h9.956c-1.422,4.267-5.689,7.111-9.956,7.111
		c-7.111,0-11.378-5.689-11.378-11.378c0-7.111,5.689-11.378,11.378-11.378c4.267,0,8.533,2.844,9.956,7.111h-9.956
		c-2.844,0-5.689,2.844-5.689,5.689C174.631,357.15,177.475,359.994,180.32,359.994z M218.72,301.683h-45.511v-29.867h45.511
		V301.683z M240.053,365.683c-4.267,0-8.533-2.844-9.956-7.111h21.333C248.586,362.839,244.32,365.683,240.053,365.683z
		 M228.675,348.617c1.422-4.267,5.689-7.111,9.956-7.111c4.267,0,8.533,2.844,9.956,7.111H228.675z M299.786,365.683
		c-4.267,0-8.533-2.844-9.956-7.111h11.378c2.844,0,5.689-2.844,5.689-5.689c0-2.844-2.844-5.689-5.689-5.689h-11.378
		c1.422-4.267,5.689-7.111,9.956-7.111c7.111,0,11.378,5.689,11.378,11.378C311.164,359.994,305.475,365.683,299.786,365.683z"/>
	<path style="fill:#3F4448;" d="M261.386,249.061c1.422,4.267,8.533,5.689,11.378,1.422c0,4.267,4.267,5.689,5.689,4.267
		c1.422,2.844,2.844,4.267,5.689,4.267c2.844,0,5.689-2.844,5.689-5.689c0-4.267-5.689-7.111-7.111-5.689
		c1.422-2.844,0-7.111-2.844-8.533l0,0c1.422-5.689-5.689-12.8-12.8-9.956c-4.267-5.689-14.222-2.844-14.222,4.267
		c-4.267,0-8.533,4.267-8.533,9.956C245.742,249.061,254.275,254.75,261.386,249.061z"/>
</g>
<g>
</g>
<g>
</g>
<g>
</g>
<g>
</g>
<g>
</g>
<g>
</g>
<g>
</g>
<g>
</g>
<g>
</g>
<g>
</g>
<g>
</g>
<g>
</g>
<g>
</g>
<g>
</g>
<g>
</g>
</svg>
