<?xml version="1.0" encoding="iso-8859-1"?>
<!-- Generator: Adobe Illustrator 19.0.0, SVG Export Plug-In . SVG Version: 6.00 Build 0)  -->
<svg version="1.1" id="Capa_1" xmlns="http://www.w3.org/2000/svg" xmlns:xlink="http://www.w3.org/1999/xlink" x="0px" y="0px"
	 viewBox="0 0 455.1 455.1" style="enable-background:new 0 0 455.1 455.1;" xml:space="preserve">
<path style="fill:#E24C4B;" d="M422.098,418.305H32.409c-25.6,0-41.244-28.444-27.022-49.778L200.231,52.794
	c12.8-21.333,42.667-21.333,55.467,0l194.844,315.733C463.342,389.861,447.697,418.305,422.098,418.305z"/>
<polygon style="fill:#FFFFFF;" points="48.053,375.639 227.253,86.928 406.453,375.639 "/>
<g>
	<polygon style="fill:#3F4448;" points="176.053,375.639 134.809,375.639 203.075,226.305 211.609,226.305 	"/>
	<polygon style="fill:#3F4448;" points="319.697,375.639 278.453,375.639 242.897,226.305 251.431,226.305 	"/>
	<polygon style="fill:#3F4448;" points="285.564,334.394 168.942,334.394 178.897,308.794 275.609,308.794 	"/>
	<polygon style="fill:#3F4448;" points="267.075,283.194 187.431,283.194 191.697,271.817 262.809,271.817 	"/>
	<polygon style="fill:#3F4448;" points="258.542,257.594 195.964,257.594 198.809,251.905 255.697,251.905 	"/>
	<polygon style="fill:#3F4448;" points="252.853,243.372 201.653,243.372 203.075,239.105 251.431,239.105 	"/>
	<polygon style="fill:#3F4448;" points="248.586,233.417 205.92,233.417 205.92,229.15 248.586,229.15 	"/>
</g>
<g>
</g>
<g>
</g>
<g>
</g>
<g>
</g>
<g>
</g>
<g>
</g>
<g>
</g>
<g>
</g>
<g>
</g>
<g>
</g>
<g>
</g>
<g>
</g>
<g>
</g>
<g>
</g>
<g>
</g>
</svg>
