<?xml version="1.0" encoding="iso-8859-1"?>
<!-- Generator: Adobe Illustrator 19.0.0, SVG Export Plug-In . SVG Version: 6.00 Build 0)  -->
<svg version="1.1" id="Capa_1" xmlns="http://www.w3.org/2000/svg" xmlns:xlink="http://www.w3.org/1999/xlink" x="0px" y="0px"
	 viewBox="0 0 455.1 455.1" style="enable-background:new 0 0 455.1 455.1;" xml:space="preserve">
<path style="fill:#E24C4B;" d="M422.098,418.305H32.409c-25.6,0-41.244-28.444-27.022-49.778L200.231,52.794
	c12.8-21.333,42.667-21.333,55.467,0l194.844,315.733C463.342,389.861,447.697,418.305,422.098,418.305z"/>
<polygon style="fill:#FFFFFF;" points="48.053,375.639 227.253,86.928 406.453,375.639 "/>
<g>
	<path style="fill:#3F4448;" d="M275.609,231.994c0-1.422-1.422-4.267-2.844-5.689c-1.422-1.422-2.844-2.844-4.267-5.689
		c-1.422-4.267-5.689-12.8-9.956-19.911c-2.844-2.844-5.689-5.689-9.956-5.689c-15.644-1.422-29.867-1.422-44.089,0
		c-4.267,0-7.111,2.844-9.956,5.689c-4.267,5.689-8.533,15.644-9.956,19.911c-1.422,2.844-2.844,4.267-4.267,5.689
		c-1.422,1.422-2.844,2.844-2.844,5.689c-1.422,8.533-2.844,17.067-2.844,27.022c0,1.422,1.422,1.422,1.422,2.844
		c1.422,0,2.844,0,4.267,0v5.689c0,1.422,1.422,2.844,2.844,2.844h11.378c1.422,0,2.844-1.422,2.844-2.844v-4.267
		c19.911,1.422,38.4,1.422,58.311,0v4.267c0,1.422,1.422,2.844,2.844,2.844h11.378c1.422,0,2.844-1.422,2.844-2.844v-5.689
		c1.422,0,2.844,0,4.267,0s1.422-1.422,1.422-2.844C278.453,249.061,277.031,240.528,275.609,231.994z M251.431,199.283
		c1.422,0,4.267,1.422,5.689,2.844l0,0c2.844,4.267,5.689,11.378,8.533,15.644v1.422c0,2.844-34.133,2.844-56.889,1.422
		l21.333-21.333C237.209,199.283,244.32,199.283,251.431,199.283z M197.386,220.617l21.333-21.333c1.422,0,2.844,0,4.267,0
		l-21.333,21.333C198.809,220.617,197.386,220.617,197.386,220.617z M190.275,217.772c1.422-4.267,5.689-11.378,8.533-15.644
		c0,0,0-1.422,1.422-1.422c1.422-1.422,2.844-1.422,4.267-1.422c4.267,0,7.111,0,11.378,0l-21.333,21.333
		C190.275,219.194,188.853,219.194,190.275,217.772C188.853,219.194,190.275,217.772,190.275,217.772z M184.586,241.95l-1.422-1.422
		c0-1.422,0-4.267,1.422-5.689c0-1.422,1.422-1.422,2.844-1.422c4.267,1.422,9.956,4.267,14.222,5.689c0,0,0,0,1.422,0
		C208.764,249.061,188.853,243.372,184.586,241.95z M245.742,250.483l-1.422,1.422c-11.378,0-21.333,0-32.711,0
		c-1.422,0-1.422,0-1.422-1.422c-1.422-2.844-2.844-5.689-2.844-8.533c0-1.422,1.422-2.844,2.844-2.844c12.8,0,24.178,0,36.978,0
		c1.422,0,2.844,1.422,2.844,2.844C248.586,244.794,248.586,247.639,245.742,250.483z M254.275,240.528L254.275,240.528
		c5.689-2.844,9.956-5.689,14.222-7.111c1.422,0,1.422,0,2.844,1.422c1.422,1.422,1.422,4.267,1.422,5.689s0,1.422-1.422,1.422
		C265.653,243.372,245.742,249.061,254.275,240.528z"/>
	<path style="fill:#3F4448;" d="M153.297,375.639h42.667c1.422-1.422,1.422-2.844,2.844-4.267
		c5.689-8.533,11.378-21.333,9.956-34.133c-2.844-24.178-18.489-21.333-21.333-51.2c-1.422-8.533,0-18.489,0-24.178h-2.844
		c0,0-4.267,9.956-5.689,25.6c0,8.533,0,17.067,4.267,27.022c2.844,9.956,8.533,12.8,7.111,24.178
		C187.431,354.305,168.942,368.528,153.297,375.639z"/>
	<path style="fill:#3F4448;" d="M235.786,375.639h41.244c7.111-11.378,12.8-24.178,11.378-36.978
		c-2.844-22.756-17.067-21.333-21.333-51.2c-1.422-8.533,0-17.067,0-24.178l-2.844-1.422c0,0-4.267,9.956-5.689,25.6
		c-1.422,25.6,5.689,25.6,9.956,39.822c1.422,2.844,1.422,7.111,1.422,11.378C268.497,352.883,250.009,368.528,235.786,375.639z"/>
</g>
<g>
</g>
<g>
</g>
<g>
</g>
<g>
</g>
<g>
</g>
<g>
</g>
<g>
</g>
<g>
</g>
<g>
</g>
<g>
</g>
<g>
</g>
<g>
</g>
<g>
</g>
<g>
</g>
<g>
</g>
</svg>
