<?xml version="1.0" encoding="iso-8859-1"?>
<!-- Generator: Adobe Illustrator 19.0.0, SVG Export Plug-In . SVG Version: 6.00 Build 0)  -->
<svg version="1.1" id="Capa_1" xmlns="http://www.w3.org/2000/svg" xmlns:xlink="http://www.w3.org/1999/xlink" x="0px" y="0px"
	 viewBox="0 0 455.1 455.1" style="enable-background:new 0 0 455.1 455.1;" xml:space="preserve">
<path style="fill:#E24C4B;" d="M422.098,418.305H32.409c-25.6,0-41.244-28.444-27.022-49.778L200.231,52.794
	c12.8-21.333,42.667-21.333,55.467,0l194.844,315.733C463.342,389.861,447.697,418.305,422.098,418.305z"/>
<polygon style="fill:#FFFFFF;" points="48.053,375.639 227.253,86.928 406.453,375.639 "/>
<g>
	<path style="fill:#3F4448;" d="M305.475,287.461c0-2.844-1.422-5.689-2.844-8.533c-1.422-1.422-2.844-4.267-4.267-8.533
		c-2.844-5.689-7.111-21.333-12.8-31.289c-2.844-5.689-8.533-8.533-14.222-9.956c-22.756-2.844-45.511-5.689-68.267-5.689
		c-5.689,0-11.378,2.844-15.644,7.111c-7.111,8.533-15.644,22.756-18.489,28.444c-2.844,4.267-4.267,5.689-5.689,7.111
		c-2.844,1.422-4.267,4.267-4.267,7.111c-4.267,12.8-7.111,25.6-8.533,39.822c0,1.422,1.422,2.844,2.844,4.267
		c51.2,8.533,100.978,12.8,150.756,14.222c1.422,0,2.844-1.422,2.844-2.844C306.897,314.483,305.475,301.683,305.475,287.461z
		 M176.053,254.75c4.267-5.689,8.533-15.644,14.222-21.333l1.422-1.422c1.422-1.422,4.267-2.844,7.111-2.844
		c24.178,0,48.356,2.844,72.533,7.111c2.844,0,5.689,1.422,7.111,4.267l0,0c4.267,7.111,8.533,17.067,9.956,24.178v1.422
		c0,4.267-116.622-5.689-115.2-9.956C174.631,256.172,174.631,256.172,176.053,254.75z M163.253,291.728
		c-1.422,0-1.422-1.422-1.422-2.844c0-2.844,1.422-5.689,2.844-8.533c1.422-1.422,2.844-1.422,4.267-1.422
		c7.111,2.844,14.222,7.111,19.911,11.378c0,0,0,1.422,1.422,1.422C200.231,304.528,170.364,294.572,163.253,291.728z
		 M257.12,311.639c-1.422,1.422-1.422,1.422-2.844,1.422c-17.067-1.422-32.711-2.844-48.356-4.267c-1.422,0-2.844-1.422-2.844-1.422
		c-2.844-4.267-4.267-8.533-4.267-12.8c0-1.422,1.422-2.844,4.267-2.844c18.489,1.422,36.978,2.844,56.889,5.689
		c1.422,0,2.844,1.422,2.844,4.267C261.386,304.528,259.964,308.794,257.12,311.639z M296.942,301.683
		c0,1.422-1.422,1.422-2.844,2.844c-8.533,1.422-38.4,7.111-25.6-4.267l1.422-1.422c7.111-2.844,14.222-5.689,21.333-7.111
		c1.422,0,2.844,0,2.844,1.422C296.942,294.572,298.364,298.839,296.942,301.683z"/>
	<path style="fill:#3F4448;" d="M183.164,314.483l-1.422,14.222c0,1.422-1.422,2.844-4.267,2.844l-17.067-1.422
		c-1.422,0-2.844-1.422-2.844-4.267l1.422-14.222L183.164,314.483z"/>
	<path style="fill:#3F4448;" d="M296.942,324.439l-1.422,14.222c0,1.422-1.422,2.844-4.267,2.844h-18.489
		c-1.422,0-2.844-1.422-2.844-4.267l1.422-14.222L296.942,324.439z"/>
	<path style="fill:#3F4448;" d="M274.186,244.794c-1.422-1.422-2.844-2.844-4.267-2.844c-11.378-1.422-22.756-2.844-34.133-4.267
		l-24.178,19.911c25.6,2.844,56.889,5.689,69.689,4.267C279.875,256.172,277.031,249.061,274.186,244.794z"/>
	<path style="fill:#3F4448;" d="M222.986,236.261l-22.756,19.911c1.422,0,2.844,0,2.844,0l22.756-19.911
		C225.831,237.683,224.409,237.683,222.986,236.261z"/>
	<path style="fill:#3F4448;" d="M218.72,236.261c-7.111,0-12.8-1.422-19.911-1.422c0,0-1.422,0-2.844,1.422c0,0,0,0-1.422,1.422
		c-4.267,4.267-7.111,11.378-11.378,15.644c2.844,0,7.111,1.422,11.378,1.422L218.72,236.261z"/>
	<polygon style="fill:#3F4448;" points="67.964,344.35 248.586,344.35 248.586,331.55 76.497,331.55 	"/>
	<rect x="248.586" y="337.239" style="fill:#3F4448;" width="8.533" height="8.533"/>
	<rect x="251.431" y="341.505" style="fill:#3F4448;" width="8.533" height="8.533"/>
	<rect x="321.12" y="359.994" style="fill:#3F4448;" width="8.533" height="8.533"/>
	<rect x="259.964" y="335.817" style="fill:#3F4448;" width="8.533" height="8.533"/>
	<rect x="299.786" y="358.572" style="fill:#3F4448;" width="8.533" height="8.533"/>
	<rect x="265.653" y="342.928" style="fill:#3F4448;" width="8.533" height="8.533"/>
	<rect x="272.764" y="350.039" style="fill:#3F4448;" width="7.111" height="7.111"/>
	<rect x="314.009" y="351.461" style="fill:#3F4448;" width="7.111" height="7.111"/>
	<rect x="282.72" y="340.083" style="fill:#3F4448;" width="5.689" height="5.689"/>
	<rect x="311.164" y="364.261" style="fill:#3F4448;" width="5.689" height="5.689"/>
	<rect x="331.075" y="351.461" style="fill:#3F4448;" width="5.689" height="5.689"/>
	<rect x="286.986" y="351.461" style="fill:#3F4448;" width="5.689" height="5.689"/>
	<rect x="291.253" y="344.35" style="fill:#3F4448;" width="15.644" height="9.956"/>
	<rect x="333.92" y="365.683" style="fill:#3F4448;" width="12.8" height="8.533"/>
</g>
<g>
</g>
<g>
</g>
<g>
</g>
<g>
</g>
<g>
</g>
<g>
</g>
<g>
</g>
<g>
</g>
<g>
</g>
<g>
</g>
<g>
</g>
<g>
</g>
<g>
</g>
<g>
</g>
<g>
</g>
</svg>
