<?xml version="1.0" encoding="iso-8859-1"?>
<!-- Generator: Adobe Illustrator 19.0.0, SVG Export Plug-In . SVG Version: 6.00 Build 0)  -->
<svg version="1.1" id="Capa_1" xmlns="http://www.w3.org/2000/svg" xmlns:xlink="http://www.w3.org/1999/xlink" x="0px" y="0px"
	 viewBox="0 0 455.1 455.1" style="enable-background:new 0 0 455.1 455.1;" xml:space="preserve">
<path style="fill:#E24C4B;" d="M422.098,418.305H32.409c-25.6,0-41.244-28.444-27.022-49.778L200.231,52.794
	c12.8-21.333,42.667-21.333,55.467,0l194.844,315.733C463.342,389.861,447.697,418.305,422.098,418.305z"/>
<polygon style="fill:#FFFFFF;" points="48.053,375.639 227.253,86.928 406.453,375.639 "/>
<g>
	<path style="fill:#3F4448;" d="M184.586,375.639V230.572c0-4.267-2.844-7.111-7.111-7.111c-4.267,0-7.111,2.844-7.111,7.111
		v145.067L184.586,375.639L184.586,375.639z"/>
	<path style="fill:#3F4448;" d="M295.52,267.55l-29.867-7.111c8.533,21.333,8.533,44.089,0,66.844l29.867-7.111
		C302.631,301.683,304.053,284.617,295.52,267.55z"/>
	<path style="fill:#3F4448;" d="M251.431,256.172l-35.556-8.533c-2.844-1.422-5.689,2.844-4.267,5.689
		c11.378,24.178,11.378,51.2,0,81.067c-1.422,2.844,1.422,7.111,4.267,5.689l35.556-8.533
		C262.809,304.528,262.809,280.35,251.431,256.172z"/>
	<path style="fill:#3F4448;" d="M336.764,281.772c-1.422-2.844-4.267-5.689-7.111-7.111l-19.911-4.267
		c4.267,14.222,4.267,29.867,0,45.511l19.911-4.267c2.844-1.422,5.689-2.844,7.111-5.689
		C338.186,297.417,338.186,288.883,336.764,281.772z"/>
	<path style="fill:#3F4448;" d="M218.72,331.55l-42.667-35.556c-1.422,0-1.422-1.422-1.422-2.844s0-1.422,1.422-2.844l42.667-35.556
		c1.422-1.422,2.844-1.422,4.267,0c1.422,1.422,1.422,2.844,0,4.267l-39.822,32.711l39.822,32.711c1.422,1.422,1.422,2.844,0,4.267
		C221.564,332.972,220.142,332.972,218.72,331.55z"/>
</g>
<g>
</g>
<g>
</g>
<g>
</g>
<g>
</g>
<g>
</g>
<g>
</g>
<g>
</g>
<g>
</g>
<g>
</g>
<g>
</g>
<g>
</g>
<g>
</g>
<g>
</g>
<g>
</g>
<g>
</g>
</svg>
