<?xml version="1.0" encoding="iso-8859-1"?>
<!-- Generator: Adobe Illustrator 19.0.0, SVG Export Plug-In . SVG Version: 6.00 Build 0)  -->
<svg version="1.1" id="Capa_1" xmlns="http://www.w3.org/2000/svg" xmlns:xlink="http://www.w3.org/1999/xlink" x="0px" y="0px"
	 viewBox="0 0 455.1 455.1" style="enable-background:new 0 0 455.1 455.1;" xml:space="preserve">
<path style="fill:#E24C4B;" d="M422.098,418.305H32.409c-25.6,0-41.244-28.444-27.022-49.778L200.231,52.794
	c12.8-21.333,42.667-21.333,55.467,0l194.844,315.733C463.342,389.861,447.697,418.305,422.098,418.305z"/>
<polygon style="fill:#FFFFFF;" points="48.053,375.639 227.253,86.928 406.453,375.639 "/>
<path style="fill:#3F4448;" d="M319.697,362.839c-5.689,5.689-14.222,5.689-18.489,0l-28.444-28.444
	c-1.422,0-81.067,15.644-82.489,15.644c-5.689,0-11.378-4.267-12.8-11.378c-1.422-7.111,2.844-14.222,9.956-15.644l62.578-12.8
	l-55.467-54.044l-32.711,2.844h-1.422c-7.111,0-12.8-5.689-12.8-11.378c-1.422-7.111,4.267-14.222,11.378-14.222l28.444-2.844
	l2.844-28.444c1.422-7.111,7.111-12.8,14.222-11.378s12.8,7.111,11.378,14.222l-2.844,32.711l55.467,54.044l12.8-62.578
	c1.422-7.111,8.533-11.378,15.644-9.956c7.111,1.422,11.378,8.533,9.956,15.644l-15.644,79.644l28.444,28.444
	C323.964,348.617,323.964,357.15,319.697,362.839z"/>
<g>
</g>
<g>
</g>
<g>
</g>
<g>
</g>
<g>
</g>
<g>
</g>
<g>
</g>
<g>
</g>
<g>
</g>
<g>
</g>
<g>
</g>
<g>
</g>
<g>
</g>
<g>
</g>
<g>
</g>
</svg>
