<?xml version="1.0" encoding="iso-8859-1"?>
<!-- Generator: Adobe Illustrator 19.0.0, SVG Export Plug-In . SVG Version: 6.00 Build 0)  -->
<svg version="1.1" id="Capa_1" xmlns="http://www.w3.org/2000/svg" xmlns:xlink="http://www.w3.org/1999/xlink" x="0px" y="0px"
	 viewBox="0 0 455.1 455.1" style="enable-background:new 0 0 455.1 455.1;" xml:space="preserve">
<path style="fill:#E24C4B;" d="M422.098,418.305H32.409c-25.6,0-41.244-28.444-27.022-49.778L200.231,52.794
	c12.8-21.333,42.667-21.333,55.467,0l194.844,315.733C463.342,389.861,447.697,418.305,422.098,418.305z"/>
<polygon style="fill:#FFFFFF;" points="48.053,375.639 227.253,86.928 406.453,375.639 "/>
<g>
	<path style="fill:#3F4448;" d="M241.475,342.928L241.475,342.928c0,7.111-5.689,12.8-11.378,12.8
		c-27.022,0-52.622-14.222-66.844-38.4l-12.8,7.111c-2.844,1.422-7.111,0-7.111-4.267l1.422-49.778c0-4.267,4.267-5.689,7.111-4.267
		l44.089,24.178c2.844,1.422,2.844,7.111,0,8.533l-12.8,7.111c9.956,17.067,28.444,27.022,45.511,27.022
		C235.786,331.55,241.475,337.239,241.475,342.928z"/>
	<path style="fill:#3F4448;" d="M161.831,240.528c12.8-24.178,38.4-39.822,66.844-39.822v-14.222c0-4.267,4.267-7.111,7.111-4.267
		l42.667,25.6c2.844,1.422,2.844,7.111,0,8.533l-42.667,25.6c-2.844,1.422-7.111,0-7.111-4.267v-14.222
		c-19.911,0-36.978,11.378-46.933,27.022c-2.844,5.689-9.956,7.111-15.644,4.267c0,0-1.422,0-1.422-1.422
		C161.831,251.905,158.986,244.794,161.831,240.528z"/>
	<path style="fill:#3F4448;" d="M309.742,332.972l-44.089,24.178c-2.844,1.422-7.111,0-7.111-4.267l-2.844-49.778
		c0-4.267,4.267-7.111,8.533-4.267l11.378,7.111c9.956-17.067,8.533-38.4,0-54.044c-2.844-5.689-1.422-12.8,4.267-15.644
		c5.689-2.844,12.8-1.422,15.644,4.267c12.8,22.756,15.644,51.2,0,78.222l12.8,7.111
		C312.586,325.861,312.586,331.55,309.742,332.972z"/>
</g>
<g>
</g>
<g>
</g>
<g>
</g>
<g>
</g>
<g>
</g>
<g>
</g>
<g>
</g>
<g>
</g>
<g>
</g>
<g>
</g>
<g>
</g>
<g>
</g>
<g>
</g>
<g>
</g>
<g>
</g>
</svg>
