<?xml version="1.0" encoding="iso-8859-1"?>
<!-- Generator: Adobe Illustrator 19.0.0, SVG Export Plug-In . SVG Version: 6.00 Build 0)  -->
<svg version="1.1" id="Capa_1" xmlns="http://www.w3.org/2000/svg" xmlns:xlink="http://www.w3.org/1999/xlink" x="0px" y="0px"
	 viewBox="0 0 455.111 455.111" style="enable-background:new 0 0 455.111 455.111;" xml:space="preserve">
<g>
	<circle style="fill:#3F4448;" cx="260.267" cy="83.911" r="32.711"/>
	<path style="fill:#3F4448;" d="M304.356,274.489c-1.422-4.267-4.267-7.111-7.111-8.533l-1.422-1.422l-49.778-29.867
		c-1.422-14.222,0-29.867,1.422-44.089l12.8,14.222c2.844,2.844,5.689,4.267,9.956,4.267l48.356,4.267
		c8.533,1.422,15.644-5.689,17.067-12.8c1.422-8.533-5.689-15.644-12.8-17.067l-42.667-4.267l-22.756-24.178
		c0-15.644-8.533-29.867-24.178-35.556c-14.222-4.267-28.444-1.422-38.4,8.533l-44.089,19.911c-4.267,1.422-7.111,5.689-8.533,9.956
		l-18.489,62.578c-2.844,8.533,2.844,17.067,9.956,18.489c8.533,2.844,17.067-2.844,18.489-9.956l17.067-55.467l8.533-4.267
		c-4.267,21.333-8.533,52.622-2.844,82.489c0,1.422,0,4.267,1.422,5.689l22.756,66.844l-41.244,31.289
		c-7.111,5.689-8.533,17.067-1.422,24.178c5.689,7.111,17.067,8.533,24.178,1.422l46.933-39.822
		c4.267-4.267,7.111-9.956,5.689-15.644v-1.422l-7.111-45.511l46.933,15.644l22.756,64c2.844,8.533,12.8,14.222,22.756,11.378
		c8.533-2.844,14.222-12.8,11.378-22.756L304.356,274.489z"/>
</g>
<path style="fill:#D1403F;" d="M227.556,455.111C102.4,455.111,0,352.711,0,227.556S102.4,0,227.556,0
	s227.556,102.4,227.556,227.556S352.711,455.111,227.556,455.111z M39.822,227.556c0,103.822,83.911,187.733,187.733,187.733
	c59.733,0,96.711-27.022,119.467-41.244L81.067,108.089C68.267,126.578,39.822,164.978,39.822,227.556z M227.556,39.822
	c-59.733,0-96.711,27.022-119.467,41.244l265.956,265.956c12.8-19.911,41.244-56.889,41.244-119.467
	C415.289,123.733,331.378,39.822,227.556,39.822z"/>
<g>
</g>
<g>
</g>
<g>
</g>
<g>
</g>
<g>
</g>
<g>
</g>
<g>
</g>
<g>
</g>
<g>
</g>
<g>
</g>
<g>
</g>
<g>
</g>
<g>
</g>
<g>
</g>
<g>
</g>
</svg>
