<?xml version="1.0" encoding="iso-8859-1"?>
<!-- Generator: Adobe Illustrator 19.0.0, SVG Export Plug-In . SVG Version: 6.00 Build 0)  -->
<svg version="1.1" id="Capa_1" xmlns="http://www.w3.org/2000/svg" xmlns:xlink="http://www.w3.org/1999/xlink" x="0px" y="0px"
	 viewBox="0 0 455.111 455.111" style="enable-background:new 0 0 455.111 455.111;" xml:space="preserve">
<path style="fill:#E24C4B;" d="M227.556,455.111c125.156,0,227.556-102.4,227.556-227.556S352.711,0,227.556,0S0,102.4,0,227.556
	S102.4,455.111,227.556,455.111z"/>
<path style="fill:#FFFFFF;" d="M227.556,412.444c102.4,0,184.889-82.489,184.889-184.889S329.956,42.667,227.556,42.667
	S42.667,125.156,42.667,227.556S125.156,412.444,227.556,412.444z"/>
<g>
	<path style="fill:#3F4448;" d="M351.289,204.8H103.822c14.222-55.467,64-96.711,123.733-96.711
		C287.289,108.089,338.489,149.333,351.289,204.8z"/>
	<path style="fill:#3F4448;" d="M183.467,347.022h88.178c18.489,0,35.556-7.111,46.933-19.911
		c7.111-7.111,14.222-15.644,19.911-25.6H116.622c5.689,9.956,11.378,18.489,19.911,25.6
		C149.333,339.911,166.4,347.022,183.467,347.022z"/>
	<path style="fill:#3F4448;" d="M110.933,278.756h233.244c12.8,0,24.178-9.956,25.6-21.333l0,0
		c2.844-15.644-9.956-29.867-25.6-29.867H110.933c-15.644,0-28.444,14.222-25.6,29.867l0,0
		C86.756,270.222,98.133,278.756,110.933,278.756z"/>
</g>
<polygon style="fill:#E24C4B;" points="362.667,392.533 392.533,362.667 92.444,62.578 62.578,92.444 "/>
<g>
</g>
<g>
</g>
<g>
</g>
<g>
</g>
<g>
</g>
<g>
</g>
<g>
</g>
<g>
</g>
<g>
</g>
<g>
</g>
<g>
</g>
<g>
</g>
<g>
</g>
<g>
</g>
<g>
</g>
</svg>
