<?xml version="1.0" encoding="iso-8859-1"?>
<!-- Generator: Adobe Illustrator 19.0.0, SVG Export Plug-In . SVG Version: 6.00 Build 0)  -->
<svg version="1.1" id="Capa_1" xmlns="http://www.w3.org/2000/svg" xmlns:xlink="http://www.w3.org/1999/xlink" x="0px" y="0px"
	 viewBox="0 0 455.111 455.111" style="enable-background:new 0 0 455.111 455.111;" xml:space="preserve">
<path style="fill:#E24C4B;" d="M455.111,227.556C455.111,102.4,352.711,0,227.556,0S0,102.4,0,227.556
	s102.4,227.556,227.556,227.556S455.111,352.711,455.111,227.556z"/>
<path style="fill:#FFFFFF;" d="M227.556,412.444c102.4,0,184.889-82.489,184.889-184.889S329.956,42.667,227.556,42.667
	S42.667,125.156,42.667,227.556S125.156,412.444,227.556,412.444z"/>
<g>
	<path style="fill:#3F4448;" d="M314.311,187.733c-1.422-5.689-7.111-8.533-12.8-5.689l-157.867,51.2
		c-5.689,1.422-8.533,7.111-5.689,12.8c1.422,5.689,7.111,8.533,12.8,7.111l5.689-1.422l109.511,129.422
		c8.533,9.956,24.178,4.267,24.178-8.533l12.8-169.244l4.267-1.422C312.889,197.689,315.733,192,314.311,187.733z"/>
	<path style="fill:#3F4448;" d="M210.489,184.889c1.422,4.267,2.844,7.111,5.689,11.378l82.489-27.022
		c0-4.267-1.422-8.533-1.422-11.378c-7.111-24.178-32.711-36.978-56.889-28.444C216.178,136.533,203.378,160.711,210.489,184.889z"
		/>
	<path style="fill:#3F4448;" d="M155.022,142.222c1.422,0,2.844-1.422,4.267-1.422c15.644-4.267,29.867-2.844,44.089,2.844
		c7.111-12.8,18.489-22.756,32.711-28.444c1.422,0,2.844-1.422,4.267-1.422c0-1.422,0-2.844-1.422-4.267
		c-7.111-22.756-32.711-36.978-56.889-28.444c-24.178,7.111-36.978,32.711-28.444,56.889
		C155.022,140.8,155.022,142.222,155.022,142.222z"/>
	<path style="fill:#3F4448;" d="M140.8,220.444l64-21.333c-1.422-2.844-4.267-7.111-5.689-11.378
		c-2.844-11.378-4.267-21.333-1.422-32.711c-9.956-5.689-22.756-7.111-35.556-2.844c-24.178,7.111-36.978,32.711-28.444,56.889
		C136.533,213.333,137.956,217.6,140.8,220.444L140.8,220.444z"/>
</g>
<polygon style="fill:#E24C4B;" points="92.444,392.533 62.578,362.667 362.667,62.578 392.533,92.444 "/>
<g>
</g>
<g>
</g>
<g>
</g>
<g>
</g>
<g>
</g>
<g>
</g>
<g>
</g>
<g>
</g>
<g>
</g>
<g>
</g>
<g>
</g>
<g>
</g>
<g>
</g>
<g>
</g>
<g>
</g>
</svg>
