<?xml version="1.0" encoding="iso-8859-1"?>
<!-- Generator: Adobe Illustrator 19.0.0, SVG Export Plug-In . SVG Version: 6.00 Build 0)  -->
<svg version="1.1" id="Capa_1" xmlns="http://www.w3.org/2000/svg" xmlns:xlink="http://www.w3.org/1999/xlink" x="0px" y="0px"
	 viewBox="0 0 455.111 455.111" style="enable-background:new 0 0 455.111 455.111;" xml:space="preserve">
<path style="fill:#E24C4B;" d="M455.111,227.556C455.111,102.4,352.711,0,227.556,0S0,102.4,0,227.556
	s102.4,227.556,227.556,227.556S455.111,352.711,455.111,227.556z"/>
<path style="fill:#FFFFFF;" d="M227.556,412.444c102.4,0,184.889-82.489,184.889-184.889S329.956,42.667,227.556,42.667
	S42.667,125.156,42.667,227.556S125.156,412.444,227.556,412.444z"/>
<path style="fill:#3F4448;" d="M334.222,256c-32.711,38.4-46.933,52.622-68.267,69.689v38.4H157.867V332.8
	c-9.956-12.8-17.067-28.444-17.067-44.089V152.178c0-4.267,1.422-7.111,4.267-9.956c2.844-2.844,5.689-4.267,9.956-4.267
	c8.533,0,14.222,7.111,14.222,14.222v56.889c0,2.844,1.422,4.267,4.267,4.267c1.422,0,4.267-1.422,4.267-4.267V128
	c0-4.267,1.422-7.111,4.267-9.956s5.689-4.267,9.956-4.267c8.533,0,14.222,7.111,14.222,14.222v81.067
	c0,2.844,1.422,4.267,4.267,4.267l0,0c1.422,0,4.267-1.422,4.267-4.267v-102.4c0-4.267,1.422-7.111,4.267-9.956
	c2.844-2.844,7.111-4.267,9.956-4.267c8.533,0,14.222,7.111,14.222,14.222v100.978c0,2.844,1.422,4.267,4.267,4.267
	c1.422,0,4.267-1.422,4.267-4.267v-81.067c0-4.267,1.422-7.111,4.267-9.956c2.844-2.844,7.111-4.267,9.956-4.267
	c8.533,0,15.644,7.111,15.644,14.222v125.156l21.333-22.756c2.844-4.267,8.533-5.689,14.222-5.689c4.267,0,9.956,1.422,12.8,5.689
	C339.911,236.089,341.333,247.467,334.222,256z"/>
<polygon style="fill:#E24C4B;" points="92.444,392.533 62.578,362.667 362.667,62.578 392.533,92.444 "/>
<g>
</g>
<g>
</g>
<g>
</g>
<g>
</g>
<g>
</g>
<g>
</g>
<g>
</g>
<g>
</g>
<g>
</g>
<g>
</g>
<g>
</g>
<g>
</g>
<g>
</g>
<g>
</g>
<g>
</g>
</svg>
