<?xml version="1.0" encoding="iso-8859-1"?>
<!-- Generator: Adobe Illustrator 19.0.0, SVG Export Plug-In . SVG Version: 6.00 Build 0)  -->
<svg version="1.1" id="Capa_1" xmlns="http://www.w3.org/2000/svg" xmlns:xlink="http://www.w3.org/1999/xlink" x="0px" y="0px"
	 viewBox="0 0 455.111 455.111" style="enable-background:new 0 0 455.111 455.111;" xml:space="preserve">
<path style="fill:#E24C4B;" d="M455.111,227.556C455.111,102.4,352.711,0,227.556,0S0,102.4,0,227.556
	s102.4,227.556,227.556,227.556S455.111,352.711,455.111,227.556z"/>
<path style="fill:#FFFFFF;" d="M227.556,412.444c102.4,0,184.889-82.489,184.889-184.889S329.956,42.667,227.556,42.667
	S42.667,125.156,42.667,227.556S125.156,412.444,227.556,412.444z"/>
<g>
	<path style="fill:#3F4448;" d="M227.556,110.933h-91.022c-8.533,0-15.644,7.111-15.644,15.644v203.378
		c0,8.533,7.111,15.644,15.644,15.644h91.022c8.533,0,15.644-7.111,15.644-15.644V126.578
		C241.778,118.044,234.667,110.933,227.556,110.933z M182.044,284.444c-5.689,0-11.378-4.267-11.378-11.378
		c0-5.689,4.267-11.378,11.378-11.378s11.378,5.689,11.378,11.378C192,280.178,187.733,284.444,182.044,284.444z M182.044,223.289
		c-22.756,0-42.667-18.489-42.667-42.667c0-22.756,18.489-42.667,42.667-42.667c22.756,0,42.667,18.489,42.667,42.667
		C223.289,204.8,204.8,223.289,182.044,223.289z M194.844,179.2c-12.8,0-17.067-11.378-15.644-21.333
		c-12.8,1.422-21.333,11.378-21.333,24.178s11.378,24.178,24.178,24.178c12.8,0,24.178-11.378,24.178-24.178
		c0-1.422,0-4.267-1.422-5.689C201.956,177.778,199.111,179.2,194.844,179.2z"/>
	<path style="fill:#3F4448;" d="M204.8,182.044c0,12.8-9.956,24.178-24.178,24.178c-14.222,0-24.178-11.378-24.178-24.178
		s9.956-22.756,21.333-24.178c-1.422,9.956,2.844,21.333,15.644,21.333c4.267,0,7.111-1.422,9.956-2.844
		C204.8,177.778,204.8,179.2,204.8,182.044z"/>
	<path style="fill:#3F4448;" d="M361.244,209.067v75.378c0,5.689-4.267,11.378-11.378,11.378h-79.644
		c-5.689,0-11.378-4.267-11.378-11.378v-21.333h-24.178V230.4h24.178v-21.333c0-5.689,5.689-11.378,11.378-11.378h79.644
		C356.978,197.689,361.244,201.956,361.244,209.067z"/>
</g>
<polygon style="fill:#E24C4B;" points="92.444,392.533 62.578,362.667 362.667,62.578 392.533,92.444 "/>
<g>
</g>
<g>
</g>
<g>
</g>
<g>
</g>
<g>
</g>
<g>
</g>
<g>
</g>
<g>
</g>
<g>
</g>
<g>
</g>
<g>
</g>
<g>
</g>
<g>
</g>
<g>
</g>
<g>
</g>
</svg>
