<?xml version="1.0" encoding="iso-8859-1"?>
<!-- Generator: Adobe Illustrator 19.0.0, SVG Export Plug-In . SVG Version: 6.00 Build 0)  -->
<svg version="1.1" id="Capa_1" xmlns="http://www.w3.org/2000/svg" xmlns:xlink="http://www.w3.org/1999/xlink" x="0px" y="0px"
	 viewBox="0 0 455.111 455.111" style="enable-background:new 0 0 455.111 455.111;" xml:space="preserve">
<ellipse style="fill:#E24C4B;" cx="227.556" cy="227.556" rx="227.556" ry="227.556"/>
<path style="fill:#FFFFFF;" d="M227.559,412.448c102.4,0,184.889-82.489,184.889-184.889S329.959,42.67,227.559,42.67
	S42.67,125.159,42.67,227.559S125.159,412.448,227.559,412.448z"/>
<g>
	<path style="fill:#3F4448;" d="M187.737,227.559c7.111-17.067,9.956-35.556,9.956-54.044c-4.267,9.956-7.111,21.333-11.378,31.289
		c-5.689-24.178-1.422-49.778,11.378-71.111c-7.111,5.689-12.8,11.378-19.911,17.067c4.267-17.067,0-36.978-9.956-51.2
		c4.267,22.756-4.267,48.356-21.333,64c0-5.689-1.422-11.378-1.422-17.067c-8.533,11.378-12.8,27.022-11.378,41.244
		c-4.267-2.844-7.111-4.267-11.378-7.111c1.422,12.8,2.844,25.6,4.267,39.822c-2.844-4.267-5.689-8.533-7.111-12.8
		c-2.844,28.444-1.422,58.311,5.689,85.333c4.267,18.489,17.067,31.289,32.711,41.244l1.422-9.956
		c5.689-9.956,11.378-19.911,17.067-29.867c14.222-24.178,28.444-49.778,29.867-78.222
		C199.115,219.026,193.426,223.293,187.737,227.559z"/>
	<polygon style="fill:#3F4448;" points="352.715,204.804 361.248,217.604 162.137,339.915 155.026,327.115 	"/>
	<path style="fill:#3F4448;" d="M196.27,310.048c5.689,8.533-15.644,31.289-25.6,38.4c-9.956,7.111-22.756,5.689-28.444-2.844
		c-5.689-8.533-1.422-19.911,9.956-27.022C160.715,310.048,190.581,301.515,196.27,310.048z"/>
</g>
<path style="fill:#FFFFFF;" d="M164.981,265.959c-2.844,5.689-5.689,9.956-9.956,15.644c-5.689,5.689-8.533,0-11.378-5.689
	c-5.689-11.378-9.956-24.178-9.956-36.978c2.844,5.689,5.689,9.956,11.378,12.8c-7.111-14.222-9.956-29.867-8.533-45.511
	c4.267,5.689,7.111,9.956,11.378,15.644c-4.267-17.067,1.422-36.978,15.644-48.356c-1.422,14.222-4.267,28.444-8.533,41.244
	c4.267-4.267,8.533-8.533,12.8-11.378c-1.422,14.222-1.422,27.022-2.844,41.244c2.844,0,7.111-1.422,9.956-2.844
	C172.093,248.893,169.248,257.426,164.981,265.959z"/>
<rect x="206.792" y="14.02" transform="matrix(0.7071 -0.7071 0.7071 0.7071 -94.4481 228.1064)" style="fill:#E24C4B;" width="42.666" height="428.085"/>
<g>
</g>
<g>
</g>
<g>
</g>
<g>
</g>
<g>
</g>
<g>
</g>
<g>
</g>
<g>
</g>
<g>
</g>
<g>
</g>
<g>
</g>
<g>
</g>
<g>
</g>
<g>
</g>
<g>
</g>
</svg>
