<?xml version="1.0" encoding="iso-8859-1"?>
<!-- Generator: Adobe Illustrator 19.0.0, SVG Export Plug-In . SVG Version: 6.00 Build 0)  -->
<svg version="1.1" id="Capa_1" xmlns="http://www.w3.org/2000/svg" xmlns:xlink="http://www.w3.org/1999/xlink" x="0px" y="0px"
	 viewBox="0 0 455.111 455.111" style="enable-background:new 0 0 455.111 455.111;" xml:space="preserve">
<ellipse style="fill:#E24C4B;" cx="227.556" cy="227.556" rx="227.556" ry="227.556"/>
<path style="fill:#FFFFFF;" d="M227.523,412.441c-102.4,0-184.889-82.489-184.889-184.889S125.123,42.663,227.523,42.663
	s184.889,82.489,184.889,184.889S329.923,412.441,227.523,412.441z"/>
<g>
	<path style="fill:#3F4448;" d="M176.323,371.196h-15.644v-56.889c-5.689,5.689-11.378,8.533-19.911,11.378v-14.222
		c4.267-1.422,8.533-4.267,12.8-7.111c4.267-4.267,7.111-7.111,9.956-12.8h12.8L176.323,371.196L176.323,371.196z"/>
	<path style="fill:#3F4448;" d="M224.679,291.552c21.333,0,25.6,19.911,25.6,39.822c0,21.333-4.267,39.822-25.6,39.822
		s-25.6-19.911-25.6-39.822C199.079,311.463,203.346,291.552,224.679,291.552z M224.679,304.352c-4.267,0-7.111,2.844-8.533,8.533
		c-2.844,8.533-1.422,31.289,0,38.4c1.422,4.267,2.844,8.533,8.533,8.533c4.267,0,7.111-2.844,8.533-8.533
		c2.844-8.533,1.422-31.289,0-38.4C231.79,307.196,228.946,304.352,224.679,304.352z"/>
	<path style="fill:#3F4448;" d="M263.079,371.196v-52.622h15.644l9.956,35.556l9.956-35.556h14.222v52.622h-9.956v-41.244
		l-9.956,41.244h-9.956l-9.956-41.244v41.244H263.079z"/>
	<path style="fill:#3F4448;" d="M345.568,118.041h-153.6c-5.689,0-11.378,5.689-11.378,11.378v24.178l0,0h-51.2
		c-2.844,0-5.689,1.422-5.689,4.267l-18.489,48.356c0,0,0,0,0,1.422v27.022c-4.267,0-5.689,2.844-5.689,7.111v8.533
		c0,4.267,2.844,7.111,7.111,7.111h11.378c2.844,12.8,14.222,22.756,27.022,22.756c14.222,0,25.6-9.956,27.022-22.756h95.289
		c1.422,12.8,14.222,22.756,27.022,22.756c14.222,0,25.6-9.956,27.022-22.756h22.756c5.689,0,11.378-5.689,11.378-11.378V132.263
		C356.946,123.73,351.257,118.041,345.568,118.041z M145.035,263.107c-7.111,0-12.8-5.689-12.8-12.8c0-7.111,5.689-12.8,12.8-12.8
		c7.111,0,12.8,5.689,12.8,12.8C156.412,257.419,150.723,263.107,145.035,263.107z M164.946,200.53h-42.667l14.222-32.711h29.867
		v32.711H164.946z M295.79,263.107c-7.111,0-12.8-5.689-12.8-12.8c0-7.111,5.689-12.8,12.8-12.8c7.111,0,12.8,5.689,12.8,12.8
		C307.168,257.419,301.479,263.107,295.79,263.107z"/>
</g>
<g>
</g>
<g>
</g>
<g>
</g>
<g>
</g>
<g>
</g>
<g>
</g>
<g>
</g>
<g>
</g>
<g>
</g>
<g>
</g>
<g>
</g>
<g>
</g>
<g>
</g>
<g>
</g>
<g>
</g>
</svg>
