<?xml version="1.0" encoding="iso-8859-1"?>
<!-- Generator: Adobe Illustrator 19.0.0, SVG Export Plug-In . SVG Version: 6.00 Build 0)  -->
<svg version="1.1" id="Capa_1" xmlns="http://www.w3.org/2000/svg" xmlns:xlink="http://www.w3.org/1999/xlink" x="0px" y="0px"
	 viewBox="0 0 455.111 455.111" style="enable-background:new 0 0 455.111 455.111;" xml:space="preserve">
<ellipse style="fill:#E24C4B;" cx="227.556" cy="227.556" rx="227.556" ry="227.556"/>
<path style="fill:#FFFFFF;" d="M227.523,412.441c-102.4,0-184.889-82.489-184.889-184.889S125.123,42.663,227.523,42.663
	s184.889,82.489,184.889,184.889S329.923,412.441,227.523,412.441z"/>
<g>
	<path style="fill:#3F4448;" d="M42.635,227.552c0,18.489,2.844,36.978,8.533,54.044h137.956V173.507H51.168
		C45.479,189.152,42.635,207.641,42.635,227.552z"/>
	<path style="fill:#3F4448;" d="M66.812,318.574h9.956c0-12.8,5.689-22.756,14.222-31.289h-38.4
		C56.857,298.663,61.123,308.619,66.812,318.574z"/>
	<path style="fill:#3F4448;" d="M142.19,287.285c8.533,7.111,14.222,18.489,14.222,31.289h31.289v-31.289H142.19z"/>
	<path style="fill:#3F4448;" d="M116.59,290.13c-15.644,0-28.444,12.8-28.444,28.444s12.8,28.444,28.444,28.444
		s28.444-12.8,28.444-28.444S132.235,290.13,116.59,290.13z M116.59,331.374c-7.111,0-12.8-5.689-12.8-12.8s5.689-12.8,12.8-12.8
		c7.111,0,12.8,5.689,12.8,12.8C129.39,325.685,123.701,331.374,116.59,331.374z"/>
	<path style="fill:#3F4448;" d="M345.568,190.574v19.911l0,0h-51.2c-2.844,0-4.267,1.422-5.689,4.267l-18.489,56.889v1.422v27.022
		c-4.267,0-5.689,2.844-5.689,7.111v8.533c0,4.267,2.844,7.111,7.111,7.111h11.378c1.422,12.8,14.222,22.756,27.022,22.756
		c14.222,0,25.6-9.956,27.022-22.756h48.356c17.067-28.444,27.022-61.156,27.022-95.289c0-17.067-2.844-34.133-7.111-51.2H359.79
		C352.679,176.352,345.568,183.463,345.568,190.574z M310.012,331.374c-7.111,0-12.8-5.689-12.8-12.8s5.689-12.8,12.8-12.8
		s12.8,5.689,12.8,12.8C321.39,325.685,315.701,331.374,310.012,331.374z M329.923,268.796h-42.667l14.222-44.089h28.444V268.796z"
		/>
	<path style="fill:#3F4448;" d="M147.879,95.285V81.063h52.622v11.378c-14.222,14.222-27.022,44.089-27.022,68.267h-14.222
		c0-22.756,9.956-46.933,24.178-65.422L147.879,95.285L147.879,95.285z"/>
	<path style="fill:#3F4448;" d="M236.057,79.641c21.333,0,25.6,19.911,25.6,41.244s-5.689,41.244-25.6,41.244
		c-21.333,0-25.6-19.911-25.6-41.244C210.457,99.552,214.723,79.641,236.057,79.641z M236.057,92.441
		c-4.267,0-7.111,2.844-8.533,8.533c-2.844,8.533-1.422,32.711,0,39.822c1.422,4.267,2.844,8.533,8.533,8.533
		c4.267,0,7.111-2.844,8.533-8.533c2.844-8.533,1.422-32.711,0-39.822C243.168,95.285,241.746,92.441,236.057,92.441z"/>
	<path style="fill:#3F4448;" d="M275.879,160.707v-52.622h15.644l9.956,35.556l9.956-35.556h15.644v52.622h-9.956v-41.244
		l-9.956,41.244h-9.956l-9.956-41.244v41.244L275.879,160.707L275.879,160.707z"/>
</g>
<g>
</g>
<g>
</g>
<g>
</g>
<g>
</g>
<g>
</g>
<g>
</g>
<g>
</g>
<g>
</g>
<g>
</g>
<g>
</g>
<g>
</g>
<g>
</g>
<g>
</g>
<g>
</g>
<g>
</g>
</svg>
