<?xml version="1.0" encoding="iso-8859-1"?>
<!-- Generator: Adobe Illustrator 19.0.0, SVG Export Plug-In . SVG Version: 6.00 Build 0)  -->
<svg version="1.1" id="Capa_1" xmlns="http://www.w3.org/2000/svg" xmlns:xlink="http://www.w3.org/1999/xlink" x="0px" y="0px"
	 viewBox="0 0 455.111 455.111" style="enable-background:new 0 0 455.111 455.111;" xml:space="preserve">
<ellipse style="fill:#E24C4B;" cx="227.556" cy="227.556" rx="227.556" ry="227.556"/>
<path style="fill:#FFFFFF;" d="M227.523,412.441c-102.4,0-184.889-82.489-184.889-184.889S125.123,42.663,227.523,42.663
	s184.889,82.489,184.889,184.889S329.923,412.441,227.523,412.441z"/>
<path style="fill:#3F4448;" d="M172.057,321.419V140.796c42.667,0,88.178-1.422,102.4,2.844
	c18.489,4.267,36.978,21.333,36.978,52.622c0,65.422-64,56.889-102.4,56.889v68.267L172.057,321.419L172.057,321.419z
	 M209.035,170.663v51.2h19.911c14.222,0,44.089,1.422,44.089-25.6C274.457,166.396,241.746,170.663,209.035,170.663z"/>
<g>
</g>
<g>
</g>
<g>
</g>
<g>
</g>
<g>
</g>
<g>
</g>
<g>
</g>
<g>
</g>
<g>
</g>
<g>
</g>
<g>
</g>
<g>
</g>
<g>
</g>
<g>
</g>
<g>
</g>
</svg>
