<?xml version="1.0" encoding="iso-8859-1"?>
<!-- Generator: Adobe Illustrator 19.0.0, SVG Export Plug-In . SVG Version: 6.00 Build 0)  -->
<svg version="1.1" id="Capa_1" xmlns="http://www.w3.org/2000/svg" xmlns:xlink="http://www.w3.org/1999/xlink" x="0px" y="0px"
	 viewBox="0 0 455.111 455.111" style="enable-background:new 0 0 455.111 455.111;" xml:space="preserve">
<ellipse style="fill:#E24C4B;" cx="227.556" cy="227.556" rx="227.556" ry="227.556"/>
<path style="fill:#FFFFFF;" d="M227.523,412.441c-102.4,0-184.889-82.489-184.889-184.889S125.123,42.663,227.523,42.663
	s184.889,82.489,184.889,184.889S329.923,412.441,227.523,412.441z"/>
<g>
	<path style="fill:#3F4448;" d="M220.412,136.53v8.533c-36.978,1.422-45.511,32.711-54.044,62.578
		c-4.267,15.644-7.111,29.867-15.644,38.4l-7.111-5.689c7.111-7.111,9.956-21.333,14.222-35.556
		C166.368,174.93,176.323,137.952,220.412,136.53z"/>
	<path style="fill:#3F4448;" d="M227.523,139.374l83.911,24.178l0,0c0,0-15.644-27.022-79.644-41.244L227.523,139.374z"/>
	<path style="fill:#3F4448;" d="M233.212,157.863c-32.711-2.844-61.156,22.756-61.156,55.467v128
		c0,5.689,5.689,11.378,11.378,11.378h88.178c5.689,0,11.378-5.689,11.378-11.378V216.174
		C282.99,186.307,261.657,160.707,233.212,157.863z M261.657,291.552H193.39v-45.511h68.267V291.552z"/>
	<rect x="216.146" y="136.53" style="fill:#3F4448;" width="21.333" height="44.089"/>
</g>
<path style="fill:#5B6064;" d="M302.901,86.752c-12.8,27.022-64,35.556-64,35.556v19.911h-21.333V123.73
	c0-7.111,4.267-12.8,11.378-15.644L302.901,86.752z"/>
<path style="fill:#DAE5EE;" d="M230.368,126.574c0,1.422-1.422,2.844-2.844,2.844c-1.422,0-2.844-1.422-2.844-2.844
	c0-1.422,1.422-2.844,2.844-2.844C228.946,123.73,230.368,125.152,230.368,126.574z"/>
<g>
</g>
<g>
</g>
<g>
</g>
<g>
</g>
<g>
</g>
<g>
</g>
<g>
</g>
<g>
</g>
<g>
</g>
<g>
</g>
<g>
</g>
<g>
</g>
<g>
</g>
<g>
</g>
<g>
</g>
</svg>
