<?xml version="1.0" encoding="iso-8859-1"?>
<!-- Generator: Adobe Illustrator 19.0.0, SVG Export Plug-In . SVG Version: 6.00 Build 0)  -->
<svg version="1.1" id="Capa_1" xmlns="http://www.w3.org/2000/svg" xmlns:xlink="http://www.w3.org/1999/xlink" x="0px" y="0px"
	 viewBox="0 0 455.111 455.111" style="enable-background:new 0 0 455.111 455.111;" xml:space="preserve">
<ellipse style="fill:#E24C4B;" cx="227.556" cy="227.556" rx="227.556" ry="227.556"/>
<path style="fill:#FFFFFF;" d="M227.523,412.441c-102.4,0-184.889-82.489-184.889-184.889S125.123,42.663,227.523,42.663
	s184.889,82.489,184.889,184.889S329.923,412.441,227.523,412.441z"/>
<g>
	<path style="fill:#DFE4E9;" d="M137.923,337.063c4.267,9.956,15.644,12.8,24.178,9.956c9.956-4.267,12.8-15.644,9.956-24.178l0,0
		l152.178-68.267l0,0c4.267,9.956,15.644,12.8,24.178,9.956c9.956-4.267,12.8-15.644,9.956-24.178
		c-2.844-5.689-8.533-9.956-15.644-11.378c4.267-5.689,4.267-12.8,1.422-18.489c-4.267-9.956-15.644-12.8-24.178-9.956
		c-9.956,4.267-12.8,15.644-9.956,24.178l0,0l-152.178,68.267l0,0c-4.267-9.956-15.644-12.8-24.178-9.956
		c-9.956,4.267-12.8,15.644-9.956,24.178c2.844,5.689,8.533,9.956,15.644,11.378C136.501,322.841,135.079,329.952,137.923,337.063z"
		/>
	<path style="fill:#DFE4E9;" d="M317.123,337.063c-4.267,9.956-15.644,12.8-24.178,9.956c-9.956-4.267-12.8-15.644-9.956-24.178l0,0
		l-152.178-68.267l0,0c-4.267,9.956-15.644,12.8-24.178,9.956c-9.956-4.267-12.8-15.644-9.956-24.178
		c2.844-5.689,8.533-9.956,15.644-11.378c-4.267-5.689-4.267-12.8-1.422-18.489c4.267-9.956,15.644-12.8,24.178-9.956
		c9.956,4.267,12.8,15.644,9.956,24.178l0,0l152.178,68.267l0,0c4.267-9.956,15.644-12.8,24.178-9.956
		c9.956,4.267,12.8,15.644,9.956,24.178c-2.844,5.689-8.533,9.956-15.644,11.378C318.546,322.841,319.968,329.952,317.123,337.063z"
		/>
</g>
<path style="fill:#3F4448;" d="M164.946,251.73c8.533,8.533,7.111,29.867,7.111,29.867c0,21.333,24.178,32.711,55.467,32.711
	s55.467-11.378,55.467-32.711c0,0-1.422-21.333,7.111-29.867l0,0l0,0c-2.844,1.422-5.689,2.844-9.956,2.844
	c0,0-14.222,1.422-19.911,9.956c-2.844,4.267-8.533,7.111-14.222,7.111h-34.133c-5.689,0-11.378-2.844-14.222-7.111
	c-7.111-8.533-19.911-9.956-19.911-9.956C170.635,253.152,167.79,253.152,164.946,251.73L164.946,251.73z"/>
<g>
	<path style="fill:#FFFFFF;" d="M227.523,315.73c-35.556,0-58.311-14.222-58.311-35.556c0,0,0-19.911-7.111-28.444l0,0
		c-1.422-1.422-1.422-2.844,0-4.267c1.422-1.422,2.844-1.422,2.844,0c2.844,1.422,5.689,1.422,8.533,1.422
		c1.422,0,15.644,1.422,22.756,11.378c2.844,2.844,7.111,5.689,12.8,5.689h34.133c5.689,0,9.956-1.422,12.8-5.689
		c7.111-9.956,21.333-11.378,22.756-11.378c4.267,0,7.111-1.422,8.533-1.422s2.844,0,2.844,0c1.422,1.422,1.422,2.844,0,4.267l0,0
		l0,0c-5.689,7.111-7.111,22.756-7.111,28.444C285.835,302.93,263.079,315.73,227.523,315.73z M170.635,255.996
		c4.267,9.956,4.267,24.178,4.267,25.6c0,21.333,28.444,29.867,52.622,29.867s52.622-7.111,52.622-29.867c0,0,0-15.644,4.267-25.6
		c-1.422,0-2.844,0-4.267,0c0,0-12.8,1.422-18.489,8.533c-4.267,4.267-9.956,7.111-17.067,7.111h-34.133
		c-7.111,0-12.8-2.844-17.067-7.111c-5.689-7.111-18.489-8.533-18.489-8.533C173.479,255.996,172.057,255.996,170.635,255.996z"/>
	<path style="fill:#FFFFFF;" d="M264.501,264.53c-1.422,5.689-1.422,11.378-1.422,11.378c0,8.533-5.689,17.067-35.556,17.067
		s-35.556-8.533-35.556-17.067c0,0,0-5.689-1.422-11.378l-1.422-7.111l4.267,5.689c0,0,0,0,1.422,1.422
		c2.844,4.267,8.533,7.111,15.644,7.111h34.133c5.689,0,11.378-2.844,15.644-7.111c0,0,0,0,1.422-1.422l4.267-5.689L264.501,264.53z
		"/>
</g>
<g>
	<path style="fill:#3F4448;" d="M227.523,96.707c-49.778,0-91.022,22.756-91.022,62.578c0,22.756,12.8,42.667,32.711,55.467v-55.467
		h119.467v54.044c18.489-12.8,29.867-32.711,29.867-54.044C318.546,119.463,277.301,96.707,227.523,96.707z"/>
	<path style="fill:#3F4448;" d="M298.635,189.152c5.689-11.378,7.111-24.178,4.267-36.978l0,0H152.146l0,0
		c-2.844,12.8-1.422,25.6,4.267,36.978c4.267,7.111,7.111,17.067,4.267,28.444c0,0-15.644,35.556,14.222,35.556
		c0,0,14.222,1.422,19.911,9.956c2.844,4.267,8.533,7.111,14.222,7.111h34.133c5.689,0,11.378-2.844,14.222-7.111
		c7.111-8.533,19.911-9.956,19.911-9.956c29.867-1.422,14.222-35.556,14.222-35.556
		C291.523,206.219,294.368,196.263,298.635,189.152z M206.19,190.574c-7.111,7.111-18.489,7.111-24.178,0
		c-7.111-7.111-7.111-18.489,0-24.178c7.111-7.111,25.6-5.689,31.289,1.422C218.99,173.507,213.301,184.885,206.19,190.574z
		 M226.101,237.507c0,5.689-4.267,8.533-5.689,8.533c-7.111,0-9.956-5.689-8.533-14.222c1.422-7.111,8.533-19.911,14.222-22.756
		V237.507z M234.635,244.619c-1.422,0-5.689-1.422-5.689-8.533v-28.444c7.111,2.844,12.8,15.644,14.222,22.756
		C246.012,238.93,241.746,244.619,234.635,244.619z M273.035,190.574c-7.111,7.111-18.489,7.111-24.178,0
		c-7.111-7.111-15.644-17.067-9.956-22.756s28.444-8.533,34.133-1.422C280.146,173.507,280.146,184.885,273.035,190.574z"/>
</g>
<g>
	<path style="fill:#FFFFFF;" d="M234.635,244.619c-1.422,0-5.689-1.422-5.689-8.533v-28.444c7.111,2.844,12.8,15.644,14.222,22.756
		C246.012,238.93,241.746,244.619,234.635,244.619z"/>
	<path style="fill:#FFFFFF;" d="M301.479,153.596c8.533,31.289-14.222,41.244-7.111,62.578l0,0c1.422,4.267,2.844,8.533,4.267,12.8
		c4.267,31.289-21.333,21.333-34.133,31.289c-4.267,2.844-2.844,5.689-9.956,8.533c-7.111,4.267-45.511,4.267-52.622,0
		c-11.378-5.689-4.267-9.956-21.333-12.8c-4.267-1.422-7.111,0-12.8-2.844c-14.222-5.689-12.8-22.756-7.111-36.978l0,0
		c8.533-21.333-15.644-31.289-7.111-62.578c-7.111,32.711,18.489,41.244,9.956,64c-4.267,11.378-5.689,27.022,5.689,29.867
		c2.844,1.422,8.533,1.422,12.8,2.844c8.533,1.422,12.8,5.689,17.067,9.956c1.422,1.422,2.844,2.844,4.267,2.844
		c4.267,2.844,31.289,1.422,36.978,1.422c5.689,0,11.378,0,15.644-4.267c1.422-1.422,2.844-4.267,5.689-4.267
		c4.267-2.844,8.533-4.267,12.8-5.689s8.533,0,12.8-1.422c11.378-4.267,9.956-19.911,5.689-31.289
		C282.99,193.419,308.59,184.885,301.479,153.596z"/>
</g>
<g>
</g>
<g>
</g>
<g>
</g>
<g>
</g>
<g>
</g>
<g>
</g>
<g>
</g>
<g>
</g>
<g>
</g>
<g>
</g>
<g>
</g>
<g>
</g>
<g>
</g>
<g>
</g>
<g>
</g>
</svg>
