<?xml version="1.0" encoding="iso-8859-1"?>
<!-- Generator: Adobe Illustrator 19.0.0, SVG Export Plug-In . SVG Version: 6.00 Build 0)  -->
<svg version="1.1" id="Capa_1" xmlns="http://www.w3.org/2000/svg" xmlns:xlink="http://www.w3.org/1999/xlink" x="0px" y="0px"
	 viewBox="0 0 455.1 455.1" style="enable-background:new 0 0 455.1 455.1;" xml:space="preserve">
<path style="fill:#E24C4B;" d="M33.002,418.305h389.689c25.6,0,41.244-28.444,27.022-49.778L254.869,52.794
	c-12.8-21.333-42.667-21.333-55.467,0L4.558,368.528C-8.242,389.861,7.402,418.305,33.002,418.305z"/>
<polygon style="fill:#FFFFFF;" points="407.047,375.639 227.847,86.928 48.647,375.639 "/>
<g>
	<path style="fill:#3F4448;" d="M310.336,308.794h-14.222v-62.578h2.844c2.844,0,4.267-1.422,4.267-4.267
		c0-2.844-1.422-4.267-4.267-4.267H223.58c-1.422,0-4.267,1.422-4.267,2.844l-19.911,78.222h-24.178
		c-2.844,0-4.267,1.422-4.267,4.267v18.489h-4.267v-76.8c0-2.844-1.422-4.267-4.267-4.267s-4.267,1.422-4.267,4.267v92.444h-44.089
		c-2.844,0-4.267,1.422-4.267,4.267c0,2.844,1.422,4.267,4.267,4.267h44.089v1.422c0,2.844,1.422,4.267,4.267,4.267
		s4.267-1.422,4.267-4.267v-17.067h4.267v8.533c0,2.844,1.422,4.267,4.267,4.267h11.378c1.422,8.533,8.533,14.222,17.067,14.222
		s15.644-5.689,17.067-14.222h39.822c1.422,8.533,8.533,14.222,17.067,14.222c8.533,0,15.644-5.689,17.067-14.222h11.378
		c4.267,0,7.111-2.844,7.111-7.111L310.336,308.794z M203.669,365.683c-4.267,0-7.111-2.844-7.111-7.111s2.844-7.111,7.111-7.111
		c4.267,0,7.111,2.844,7.111,7.111S207.936,365.683,203.669,365.683z M254.869,308.794v2.844c-5.689,2.844-11.378,7.111-12.8,14.222
		h-4.267l8.533-19.911h9.956C256.291,304.528,254.869,305.95,254.869,308.794z M279.047,365.683c-4.267,0-7.111-2.844-7.111-7.111
		s2.844-7.111,7.111-7.111s7.111,2.844,7.111,7.111S281.891,365.683,279.047,365.683z M287.58,308.794h-5.689l0,0
		c0-1.422-1.422-4.267-4.267-4.267h-7.111v-25.6c0-5.689-4.267-11.378-11.378-11.378c-4.267,0-8.533,2.844-9.956,5.689l-2.844,7.111
		l-11.378,4.267c-4.267,1.422-2.844,7.111,0,5.689l15.644-4.267l4.267-5.689v12.8l-11.378,2.844
		c-2.844,1.422-4.267,4.267-4.267,7.111l-7.111,21.333h-24.178v-2.844l19.911-76.8h59.733V308.794z"/>
	<path style="fill:#3F4448;" d="M257.713,263.283c4.267,0,7.111-2.844,7.111-7.111c0-4.267-2.844-7.111-7.111-7.111
		c-4.267,0-7.111,2.844-7.111,7.111C250.602,260.439,253.447,263.283,257.713,263.283z"/>
</g>
<g>
</g>
<g>
</g>
<g>
</g>
<g>
</g>
<g>
</g>
<g>
</g>
<g>
</g>
<g>
</g>
<g>
</g>
<g>
</g>
<g>
</g>
<g>
</g>
<g>
</g>
<g>
</g>
<g>
</g>
</svg>
