<?xml version="1.0" encoding="iso-8859-1"?>
<!-- Generator: Adobe Illustrator 19.0.0, SVG Export Plug-In . SVG Version: 6.00 Build 0)  -->
<svg version="1.1" id="Capa_1" xmlns="http://www.w3.org/2000/svg" xmlns:xlink="http://www.w3.org/1999/xlink" x="0px" y="0px"
	 viewBox="0 0 455.1 455.1" style="enable-background:new 0 0 455.1 455.1;" xml:space="preserve">
<path style="fill:#E24C4B;" d="M33.002,418.305h389.689c25.6,0,41.244-28.444,27.022-49.778L254.869,52.794
	c-12.8-21.333-42.667-21.333-55.467,0L4.558,368.528C-8.242,389.861,7.402,418.305,33.002,418.305z"/>
<polygon style="fill:#FFFFFF;" points="407.047,375.639 227.847,86.928 48.647,375.639 "/>
<g>
	<path style="fill:#3F4448;" d="M260.558,219.194c-1.422,5.689-5.689,11.378-9.956,15.644
		c-21.333,18.489-52.622,2.844-49.778-22.756c1.422,22.756,29.867,32.711,44.089,15.644c4.267-5.689,5.689-9.956,5.689-15.644
		c-1.422-4.267,0-2.844-2.844-8.533c-4.267-7.111-11.378-11.378-18.489-11.378l0,0h-5.689c-1.422,0-4.267-1.422-4.267-4.267V101.15
		l8.533-14.222l8.533,14.222v75.378C252.024,182.217,264.824,197.861,260.558,219.194z"/>
	<path style="fill:#3F4448;" d="M348.736,304.528l1.422,15.644c0,8.533-5.689,15.644-12.8,15.644l-199.111,15.644
		c-8.533,0-15.644-5.689-15.644-12.8l-1.422-15.644c0-8.533,5.689-15.644,12.8-15.644l199.111-15.644
		C341.624,290.305,348.736,295.994,348.736,304.528z"/>
	<path style="fill:#3F4448;" d="M132.558,320.172c-1.422,0-1.422,0-2.844-1.422c-1.422-1.422-1.422-4.267,0-5.689l91.022-83.911
		c4.267-4.267,11.378-4.267,15.644-1.422l100.978,68.267c1.422,1.422,1.422,2.844,1.422,4.267c-1.422,1.422-2.844,1.422-4.267,1.422
		l-100.978-68.267c-2.844-1.422-5.689-1.422-7.111,0l-91.022,83.911C133.98,320.172,132.558,320.172,132.558,320.172z"/>
</g>
<g>
</g>
<g>
</g>
<g>
</g>
<g>
</g>
<g>
</g>
<g>
</g>
<g>
</g>
<g>
</g>
<g>
</g>
<g>
</g>
<g>
</g>
<g>
</g>
<g>
</g>
<g>
</g>
<g>
</g>
</svg>
