<?xml version="1.0" encoding="iso-8859-1"?>
<!-- Generator: Adobe Illustrator 19.0.0, SVG Export Plug-In . SVG Version: 6.00 Build 0)  -->
<svg version="1.1" id="Capa_1" xmlns="http://www.w3.org/2000/svg" xmlns:xlink="http://www.w3.org/1999/xlink" x="0px" y="0px"
	 viewBox="0 0 455.1 455.1" style="enable-background:new 0 0 455.1 455.1;" xml:space="preserve">
<path style="fill:#E24C4B;" d="M33.002,418.305h389.689c25.6,0,41.244-28.444,27.022-49.778L254.869,52.794
	c-12.8-21.333-42.667-21.333-55.467,0L4.558,368.528C-8.242,389.861,7.402,418.305,33.002,418.305z"/>
<polygon style="fill:#FFFFFF;" points="48.647,375.639 227.847,86.928 407.047,375.639 "/>
<g>
	<circle style="fill:#3F4448;" cx="229.269" cy="209.239" r="19.911"/>
	<path style="fill:#3F4448;" d="M283.313,273.239l-19.911-35.556l27.022-8.533c4.267-1.422,7.111-5.689,5.689-9.956
		c-1.422-4.267-5.689-7.111-9.956-5.689l-42.667,14.222c-2.844,0-4.267,2.844-4.267,4.267l-12.8,24.178l-15.644-7.111
		c-4.267-1.422-8.533,0-11.378,4.267c-1.422,4.267,0,8.533,4.267,11.378l22.756,11.378c1.422,0,2.844,1.422,2.844,1.422
		c2.844,0,5.689-1.422,7.111-4.267l2.844-7.111l17.067,31.289l-21.333,24.178c-1.422,1.422-1.422,2.844-1.422,2.844l-7.111,31.289
		c-1.422,4.267,1.422,8.533,5.689,9.956c4.267,1.422,8.533-1.422,9.956-5.689l8.533-32.711l31.289-34.133
		C286.158,287.461,286.158,278.928,283.313,273.239z"/>
	<path style="fill:#3F4448;" d="M152.469,264.705c7.111,0,14.222-5.689,14.222-14.222c0-7.111-5.689-14.222-14.222-14.222
		s-14.222,5.689-14.222,14.222C138.247,259.017,145.358,264.705,152.469,264.705z"/>
	<path style="fill:#3F4448;" d="M215.047,342.928l-12.8-8.533l-9.956-17.067c-1.422,1.422-4.267,5.689-8.533,9.956l8.533,14.222
		c0,1.422,1.422,1.422,1.422,1.422l14.222,8.533c2.844,1.422,5.689,1.422,8.533-1.422
		C219.313,348.617,217.891,345.772,215.047,342.928z"/>
	<path style="fill:#3F4448;" d="M192.291,297.417l-15.644-28.444c2.844-1.422,4.267-2.844,7.111-4.267
		c1.422-1.422,1.422-1.422,2.844-2.844l5.689-17.067c1.422-2.844,0-7.111-4.267-7.111c-2.844-1.422-7.111,0-7.111,4.267
		l-4.267,14.222c-11.378,7.111-19.911,17.067-24.178,28.444l-1.422,2.844l-17.067-2.844c-2.844,0-5.689,1.422-7.111,4.267
		c0,2.844,1.422,5.689,4.267,7.111l21.333,4.267h1.422c2.844,0,4.267-1.422,5.689-2.844l2.844-5.689l11.378,22.756l-15.644,17.067
		c0,1.422-1.422,1.422-1.422,2.844l-5.689,25.6c-1.422,2.844,1.422,7.111,4.267,7.111c2.844,1.422,5.689-1.422,7.111-4.267
		l5.689-24.178l22.756-25.6C193.713,308.794,195.136,303.105,192.291,297.417z"/>
	<path style="fill:#3F4448;" d="M328.824,300.261c-1.422-4.267-5.689-5.689-9.956-4.267l-22.756,9.956l-9.956-7.111
		c-1.422,2.844-5.689,5.689-9.956,12.8l11.378,9.956c1.422,1.422,2.844,1.422,5.689,1.422c1.422,0,1.422,0,2.844,0l28.444-11.378
		C328.824,310.217,330.247,304.528,328.824,300.261z"/>
</g>
<g>
</g>
<g>
</g>
<g>
</g>
<g>
</g>
<g>
</g>
<g>
</g>
<g>
</g>
<g>
</g>
<g>
</g>
<g>
</g>
<g>
</g>
<g>
</g>
<g>
</g>
<g>
</g>
<g>
</g>
</svg>
