<?xml version="1.0" encoding="iso-8859-1"?>
<!-- Generator: Adobe Illustrator 19.0.0, SVG Export Plug-In . SVG Version: 6.00 Build 0)  -->
<svg version="1.1" id="Capa_1" xmlns="http://www.w3.org/2000/svg" xmlns:xlink="http://www.w3.org/1999/xlink" x="0px" y="0px"
	 viewBox="0 0 455.1 455.1" style="enable-background:new 0 0 455.1 455.1;" xml:space="preserve">
<path style="fill:#E24C4B;" d="M422.098,418.305H32.409c-25.6,0-41.244-28.444-27.022-49.778L200.231,52.794
	c12.8-21.333,42.667-21.333,55.467,0l194.844,315.733C463.342,389.861,447.697,418.305,422.098,418.305z"/>
<polygon style="fill:#FFFFFF;" points="48.053,375.639 227.253,86.928 406.453,375.639 "/>
<g>
	<path style="fill:#3F4448;" d="M305.475,281.772l-19.911-15.644l-9.956-32.711c0-1.422-1.422-1.422-1.422-1.422l-38.4-21.333
		c-1.422,0-1.422,0-2.844,0l-36.978,8.533l-7.111-5.689c-7.111-2.844-14.222-1.422-18.489,4.267l-7.111,9.956
		c-1.422,2.844-1.422,5.689,1.422,7.111l12.8,7.111c5.689-9.956,17.067-12.8,27.022-8.533c9.956,5.689,12.8,17.067,8.533,27.022
		l39.822,21.333c5.689-9.956,17.067-12.8,27.022-8.533c9.956,5.689,12.8,17.067,8.533,27.022l11.378,5.689
		c2.844,1.422,5.689,0,7.111-1.422l2.844-5.689C312.586,293.15,311.164,286.039,305.475,281.772z M234.364,239.105l-29.867-15.644
		l27.022-5.689l11.378,5.689L234.364,239.105z M240.053,241.95l8.533-15.644l19.911,11.378l7.111,25.6L240.053,241.95z"/>
	<path style="fill:#3F4448;" d="M278.453,280.35c-7.111-4.267-15.644-1.422-19.911,5.689c-4.267,7.111-1.422,15.644,5.689,19.911
		s15.644,1.422,19.911-5.689S285.564,283.194,278.453,280.35z M268.497,297.417c-2.844-1.422-4.267-5.689-2.844-8.533
		c1.422-2.844,5.689-4.267,8.533-2.844c2.844,1.422,4.267,5.689,2.844,8.533C275.609,297.417,271.342,300.261,268.497,297.417z"/>
	<path style="fill:#3F4448;" d="M203.075,239.105c-7.111-4.267-15.644-1.422-19.911,5.689c-4.267,7.111-1.422,15.644,5.689,19.911
		c7.111,4.267,15.644,1.422,19.911-5.689C213.031,251.905,210.186,243.372,203.075,239.105z M193.12,257.594
		c-2.844-1.422-4.267-5.689-2.844-8.533s5.689-4.267,8.533-2.844c2.844,1.422,4.267,5.689,2.844,8.533
		C198.809,257.594,195.964,259.017,193.12,257.594z"/>
	<polygon style="fill:#3F4448;" points="200.231,268.972 114.897,268.972 48.053,375.639 200.231,375.639 	"/>
	<path style="fill:#3F4448;" d="M406.453,375.639l-22.756-35.556h-1.422c-22.756,0-22.756,8.533-44.089,8.533
		c-22.756,0-22.756-8.533-44.089-8.533s-21.333,8.533-44.089,8.533s-22.756-8.533-44.089-8.533c-7.111,0-12.8,1.422-17.067,2.844
		v34.133h217.6V375.639z"/>
</g>
<g>
</g>
<g>
</g>
<g>
</g>
<g>
</g>
<g>
</g>
<g>
</g>
<g>
</g>
<g>
</g>
<g>
</g>
<g>
</g>
<g>
</g>
<g>
</g>
<g>
</g>
<g>
</g>
<g>
</g>
</svg>
