<?xml version="1.0" encoding="iso-8859-1"?>
<!-- Generator: Adobe Illustrator 19.0.0, SVG Export Plug-In . SVG Version: 6.00 Build 0)  -->
<svg version="1.1" id="Capa_1" xmlns="http://www.w3.org/2000/svg" xmlns:xlink="http://www.w3.org/1999/xlink" x="0px" y="0px"
	 viewBox="0 0 455.111 455.111" style="enable-background:new 0 0 455.111 455.111;" xml:space="preserve">
<path style="fill:#E24C4B;" d="M227.556,0C102.4,0,0,102.4,0,227.556s102.4,227.556,227.556,227.556s227.556-102.4,227.556-227.556
	S352.711,0,227.556,0z"/>
<path style="fill:#FFFFFF;" d="M227.556,412.444c-102.4,0-184.889-82.489-184.889-184.889S125.156,42.667,227.556,42.667
	s184.889,82.489,184.889,184.889S329.956,412.444,227.556,412.444z"/>
<g>
	<path style="fill:#3F4448;" d="M75.378,201.956c22.756,0,42.667-4.267,42.667,25.6c0,28.444-21.333,25.6-42.667,25.6V201.956z
		 M85.333,210.489v34.133c14.222,0,21.333,1.422,21.333-17.067c0-4.267,0-7.111-1.422-8.533
		C103.822,209.067,95.289,210.489,85.333,210.489z"/>
	<path style="fill:#3F4448;" d="M173.511,253.156h-11.378l-4.267-11.378h-19.911l-4.267,11.378h-11.378l19.911-51.2H153.6
		L173.511,253.156z M153.6,233.244l-7.111-18.489l-7.111,18.489H153.6z"/>
	<path style="fill:#3F4448;" d="M179.2,253.156v-51.2h9.956l21.333,34.133v-34.133h9.956v51.2h-9.956l-21.333-32.711v32.711H179.2z"
		/>
	<path style="fill:#3F4448;" d="M254.578,234.667v-8.533h22.756v19.911c-14.222,12.8-48.356,11.378-48.356-18.489
		c0-32.711,42.667-35.556,46.933-11.378l-9.956,1.422c-4.267-14.222-25.6-11.378-25.6,8.533c0,18.489,14.222,22.756,27.022,14.222
		v-7.111h-12.8V234.667z"/>
	<path style="fill:#3F4448;" d="M285.867,253.156v-51.2h38.4v8.533h-27.022v11.378h25.6v8.533h-25.6v14.222h28.444v8.533H285.867z"
		/>
	<path style="fill:#3F4448;" d="M334.222,253.156v-51.2c21.333,0,41.244-4.267,41.244,14.222c0,7.111-4.267,12.8-14.222,14.222
		c7.111,4.267,12.8,14.222,17.067,22.756h-12.8c-12.8-18.489-11.378-21.333-22.756-21.333v21.333H334.222z M344.178,223.289
		c8.533,0,21.333,1.422,21.333-7.111s-12.8-5.689-21.333-5.689V223.289z"/>
</g>
<g>
</g>
<g>
</g>
<g>
</g>
<g>
</g>
<g>
</g>
<g>
</g>
<g>
</g>
<g>
</g>
<g>
</g>
<g>
</g>
<g>
</g>
<g>
</g>
<g>
</g>
<g>
</g>
<g>
</g>
</svg>
