<?xml version="1.0" encoding="iso-8859-1"?>
<!-- Generator: Adobe Illustrator 19.0.0, SVG Export Plug-In . SVG Version: 6.00 Build 0)  -->
<svg version="1.1" id="Capa_1" xmlns="http://www.w3.org/2000/svg" xmlns:xlink="http://www.w3.org/1999/xlink" x="0px" y="0px"
	 viewBox="0 0 455.111 455.111" style="enable-background:new 0 0 455.111 455.111;" xml:space="preserve">
<path style="fill:#E24C4B;" d="M227.556,0C102.4,0,0,102.4,0,227.556s102.4,227.556,227.556,227.556s227.556-102.4,227.556-227.556
	S352.711,0,227.556,0z"/>
<path style="fill:#FFFFFF;" d="M227.556,412.444c-102.4,0-184.889-82.489-184.889-184.889S125.156,42.667,227.556,42.667
	s184.889,82.489,184.889,184.889S329.956,412.444,227.556,412.444z"/>
<g>
	<path style="fill:#3F4448;" d="M122.311,179.2c-7.111,0-11.378,5.689-11.378,11.378v45.511c1.422,0,4.267,0,7.111,0
		c21.333,0,31.289,18.489,29.867,35.556h89.6c-1.422-18.489,9.956-38.4,34.133-38.4c18.489,0,28.444,11.378,32.711,24.178v-76.8
		H122.311V179.2z"/>
	<path style="fill:#3F4448;" d="M263.111,227.556c-1.422,0-4.267,0-5.689-1.422c-2.844-2.844-2.844-7.111,0-11.378l52.622-56.889
		c1.422-1.422,2.844-1.422,4.267-2.844l51.2-12.8c4.267-1.422,8.533,1.422,8.533,5.689c1.422,4.267-1.422,8.533-5.689,8.533
		l-49.778,11.378L268.8,223.289C265.956,226.133,264.533,227.556,263.111,227.556z"/>
	<path style="fill:#3F4448;" d="M116.622,231.822c-19.911,0-35.556,15.644-35.556,35.556s15.644,35.556,35.556,35.556
		s35.556-15.644,35.556-35.556S136.533,231.822,116.622,231.822z M116.622,285.867c-9.956,0-18.489-8.533-18.489-18.489
		c0-9.956,8.533-18.489,18.489-18.489s18.489,8.533,18.489,18.489S126.578,285.867,116.622,285.867z"/>
	<path style="fill:#3F4448;" d="M268.8,221.867c-25.6,0-45.511,19.911-45.511,45.511c0,25.6,19.911,45.511,45.511,45.511
		s45.511-19.911,45.511-45.511S294.4,221.867,268.8,221.867z M268.8,294.4c-14.222,0-27.022-12.8-27.022-27.022
		c0-15.644,12.8-27.022,27.022-27.022c15.644,0,27.022,12.8,27.022,27.022C295.822,281.6,284.444,294.4,268.8,294.4z"/>
</g>
<polygon style="fill:#E24C4B;" points="392.533,362.667 362.667,392.533 62.578,92.444 92.444,62.578 "/>
<g>
</g>
<g>
</g>
<g>
</g>
<g>
</g>
<g>
</g>
<g>
</g>
<g>
</g>
<g>
</g>
<g>
</g>
<g>
</g>
<g>
</g>
<g>
</g>
<g>
</g>
<g>
</g>
<g>
</g>
</svg>
