<?xml version="1.0" encoding="iso-8859-1"?>
<!-- Generator: Adobe Illustrator 19.0.0, SVG Export Plug-In . SVG Version: 6.00 Build 0)  -->
<svg version="1.1" id="Capa_1" xmlns="http://www.w3.org/2000/svg" xmlns:xlink="http://www.w3.org/1999/xlink" x="0px" y="0px"
	 viewBox="0 0 455.111 455.111" style="enable-background:new 0 0 455.111 455.111;" xml:space="preserve">
<path style="fill:#E24C4B;" d="M227.556,0C102.4,0,0,102.4,0,227.556s102.4,227.556,227.556,227.556s227.556-102.4,227.556-227.556
	S352.711,0,227.556,0z"/>
<path style="fill:#FFFFFF;" d="M227.556,412.444c-102.4,0-184.889-82.489-184.889-184.889S125.156,42.667,227.556,42.667
	s184.889,82.489,184.889,184.889S329.956,412.444,227.556,412.444z"/>
<g>
	<path style="fill:#3F4448;" d="M186.311,254.578v-81.067c0-4.267-4.267-7.111-8.533-7.111l-68.267,7.111
		c-2.844,0-5.689,2.844-7.111,5.689l-5.689,48.356v45.511c0,4.267,2.844,7.111,7.111,7.111h7.111
		c0-18.489,15.644-34.133,34.133-34.133s34.133,15.644,34.133,34.133h73.956c0-9.956,4.267-19.911,12.8-25.6L186.311,254.578
		L186.311,254.578z M164.978,228.978h-55.467l7.111-44.089l48.356-5.689V228.978z"/>
	<path style="fill:#3F4448;" d="M358.4,261.689v11.378c0,4.267-2.844,7.111-7.111,7.111h-29.867c0-9.956-4.267-19.911-12.8-25.6
		h41.244C355.556,254.578,358.4,257.422,358.4,261.689z"/>
	<path style="fill:#3F4448;" d="M354.133,150.756H204.8c-2.844,0-4.267,1.422-4.267,4.267v91.022H358.4v-91.022
		C358.4,153.6,356.978,150.756,354.133,150.756z"/>
	<path style="fill:#3F4448;" d="M145.067,258.844c-12.8,0-22.756,9.956-22.756,22.756c0,12.8,9.956,22.756,22.756,22.756
		c12.8,0,22.756-9.956,22.756-22.756S157.867,258.844,145.067,258.844z M145.067,291.556c-5.689,0-11.378-5.689-11.378-11.378
		s5.689-11.378,11.378-11.378c5.689,0,11.378,4.267,11.378,11.378S152.178,291.556,145.067,291.556z"/>
	<path style="fill:#3F4448;" d="M287.289,258.844c-12.8,0-22.756,9.956-22.756,22.756c0,12.8,9.956,22.756,22.756,22.756
		s22.756-9.956,22.756-22.756C310.044,268.8,300.089,258.844,287.289,258.844z M287.289,291.556
		c-5.689,0-11.378-5.689-11.378-11.378S281.6,268.8,287.289,268.8c5.689,0,11.378,4.267,11.378,11.378
		S294.4,291.556,287.289,291.556z"/>
</g>
<polygon style="fill:#E24C4B;" points="392.533,362.667 362.667,392.533 62.578,92.444 92.444,62.578 "/>
<g>
</g>
<g>
</g>
<g>
</g>
<g>
</g>
<g>
</g>
<g>
</g>
<g>
</g>
<g>
</g>
<g>
</g>
<g>
</g>
<g>
</g>
<g>
</g>
<g>
</g>
<g>
</g>
<g>
</g>
</svg>
