<?xml version="1.0" encoding="iso-8859-1"?>
<!-- Generator: Adobe Illustrator 19.0.0, SVG Export Plug-In . SVG Version: 6.00 Build 0)  -->
<svg version="1.1" id="Capa_1" xmlns="http://www.w3.org/2000/svg" xmlns:xlink="http://www.w3.org/1999/xlink" x="0px" y="0px"
	 viewBox="0 0 455.111 455.111" style="enable-background:new 0 0 455.111 455.111;" xml:space="preserve">
<path style="fill:#E24C4B;" d="M227.556,0C102.4,0,0,102.4,0,227.556s102.4,227.556,227.556,227.556s227.556-102.4,227.556-227.556
	S352.711,0,227.556,0z"/>
<path style="fill:#FFFFFF;" d="M227.556,412.444c-102.4,0-184.889-82.489-184.889-184.889S125.156,42.667,227.556,42.667
	s184.889,82.489,184.889,184.889S329.956,412.444,227.556,412.444z"/>
<path style="fill:#3F4448;" d="M324.267,206.222c-8.533,0-17.067,2.844-25.6,5.689l-27.022-38.4v-15.644h17.067
	c4.267,0,7.111-2.844,7.111-7.111c0-4.267-2.844-7.111-7.111-7.111H243.2c-4.267,0-7.111,2.844-7.111,7.111
	c0,4.267,2.844,7.111,7.111,7.111h14.222v9.956H166.4l7.111-22.756h22.756c4.267,0,7.111-2.844,7.111-7.111
	c0-4.267-2.844-7.111-7.111-7.111h-28.444c-2.844,0-7.111,2.844-7.111,5.689L140.8,206.222
	c-35.556-4.267-62.578,22.756-62.578,54.044c0,29.867,24.178,55.467,55.467,55.467s55.467-24.178,55.467-55.467
	c0-22.756-14.222-42.667-32.711-51.2l5.689-19.911c69.689,79.644,66.844,75.378,66.844,75.378c1.422,1.422,2.844,2.844,5.689,2.844
	h36.978c4.267,27.022,27.022,48.356,54.044,48.356c29.867,0,55.467-24.178,55.467-55.467S354.133,206.222,324.267,206.222z
	 M172.089,261.689c0,22.756-18.489,39.822-39.822,39.822s-41.244-17.067-41.244-39.822c0-22.756,18.489-41.244,44.089-39.822
	l-11.378,36.978c-1.422,4.267,1.422,8.533,5.689,9.956c4.267,1.422,8.533-1.422,9.956-5.689l11.378-36.978
	C162.133,233.244,172.089,246.044,172.089,261.689z M308.622,254.578h-24.178c1.422-7.111,5.689-14.222,9.956-19.911
	L308.622,254.578z M268.8,254.578h-25.6l24.178-61.156l19.911,28.444C277.333,230.4,270.222,241.778,268.8,254.578z
	 M253.156,184.889l-24.178,62.578l-55.467-62.578H253.156z M324.267,302.933c-19.911,0-35.556-14.222-39.822-32.711h39.822
	c5.689,0,9.956-7.111,5.689-11.378L307.2,226.133c4.267-2.844,9.956-2.844,15.644-2.844c22.756,0,39.822,18.489,39.822,39.822
	S345.6,302.933,324.267,302.933z"/>
<polygon style="fill:#E24C4B;" points="392.533,362.667 362.667,392.533 62.578,92.444 92.444,62.578 "/>
<g>
</g>
<g>
</g>
<g>
</g>
<g>
</g>
<g>
</g>
<g>
</g>
<g>
</g>
<g>
</g>
<g>
</g>
<g>
</g>
<g>
</g>
<g>
</g>
<g>
</g>
<g>
</g>
<g>
</g>
</svg>
