<?xml version="1.0" encoding="iso-8859-1"?>
<!-- Generator: Adobe Illustrator 19.0.0, SVG Export Plug-In . SVG Version: 6.00 Build 0)  -->
<svg version="1.1" id="Capa_1" xmlns="http://www.w3.org/2000/svg" xmlns:xlink="http://www.w3.org/1999/xlink" x="0px" y="0px"
	 viewBox="0 0 455.111 455.111" style="enable-background:new 0 0 455.111 455.111;" xml:space="preserve">
<path style="fill:#E24C4B;" d="M227.556,0C102.4,0,0,102.4,0,227.556s102.4,227.556,227.556,227.556s227.556-102.4,227.556-227.556
	S352.711,0,227.556,0z"/>
<path style="fill:#FFFFFF;" d="M227.556,412.444c-102.4,0-184.889-82.489-184.889-184.889S125.156,42.667,227.556,42.667
	s184.889,82.489,184.889,184.889S329.956,412.444,227.556,412.444z"/>
<g>
	<path style="fill:#3F4448;" d="M366.933,157.867v18.489H88.178v-18.489c0-14.222,11.378-25.6,25.6-25.6h227.556
		C355.556,130.844,366.933,143.644,366.933,157.867z"/>
	<path style="fill:#3F4448;" d="M88.178,211.911v85.333c0,14.222,11.378,25.6,25.6,25.6h227.556c14.222,0,25.6-11.378,25.6-25.6
		v-85.333H88.178z M265.956,290.133H128c-4.267,0-7.111-2.844-7.111-7.111s2.844-7.111,7.111-7.111h137.956
		c4.267,0,7.111,2.844,7.111,7.111C273.067,287.289,268.8,290.133,265.956,290.133z M199.111,258.844h-72.533
		c-4.267,0-7.111-2.844-7.111-7.111c0-4.267,2.844-7.111,7.111-7.111h72.533c4.267,0,7.111,2.844,7.111,7.111
		C206.222,256,203.378,258.844,199.111,258.844z"/>
</g>
<polygon style="fill:#E24C4B;" points="392.533,362.667 362.667,392.533 62.578,92.444 92.444,62.578 "/>
<g>
</g>
<g>
</g>
<g>
</g>
<g>
</g>
<g>
</g>
<g>
</g>
<g>
</g>
<g>
</g>
<g>
</g>
<g>
</g>
<g>
</g>
<g>
</g>
<g>
</g>
<g>
</g>
<g>
</g>
</svg>
