<?xml version="1.0" encoding="iso-8859-1"?>
<!-- Generator: Adobe Illustrator 19.0.0, SVG Export Plug-In . SVG Version: 6.00 Build 0)  -->
<svg version="1.1" id="Capa_1" xmlns="http://www.w3.org/2000/svg" xmlns:xlink="http://www.w3.org/1999/xlink" x="0px" y="0px"
	 viewBox="0 0 456.533 456.533" style="enable-background:new 0 0 456.533 456.533;" xml:space="preserve">
<path style="fill:#E24C4B;" d="M455.822,41.244v374.044c0,22.756-18.489,41.244-41.244,41.244H41.956
	C19.2,455.111,0.711,436.622,0.711,413.867V41.244C0.711,18.489,19.2,0,41.956,0H416C437.333,0,455.822,18.489,455.822,41.244z"/>
<rect x="43.378" y="42.667" style="fill:#FFFFFF;" width="369.778" height="369.778"/>
<g>
	<polygon style="fill:#3F4448;" points="278.044,349.867 278.044,412.444 310.756,412.444 310.756,349.867 374.756,349.867 
		332.089,285.867 374.756,285.867 332.089,221.867 374.756,221.867 295.111,103.822 215.467,221.867 256.711,221.867 
		215.467,285.867 256.711,285.867 215.467,349.867 	"/>
	<polygon style="fill:#3F4448;" points="128.711,375.467 130.133,385.422 130.133,412.444 150.044,412.444 150.044,386.844 
		148.622,372.622 184.178,368.356 154.311,335.644 178.489,331.378 150.044,298.667 174.222,295.822 118.756,233.244 
		81.778,308.622 107.378,304.356 87.467,344.178 111.644,341.333 93.156,381.156 	"/>
</g>
<g>
</g>
<g>
</g>
<g>
</g>
<g>
</g>
<g>
</g>
<g>
</g>
<g>
</g>
<g>
</g>
<g>
</g>
<g>
</g>
<g>
</g>
<g>
</g>
<g>
</g>
<g>
</g>
<g>
</g>
</svg>
