<?xml version="1.0" encoding="iso-8859-1"?>
<!-- Generator: Adobe Illustrator 19.0.0, SVG Export Plug-In . SVG Version: 6.00 Build 0)  -->
<svg version="1.1" id="Capa_1" xmlns="http://www.w3.org/2000/svg" xmlns:xlink="http://www.w3.org/1999/xlink" x="0px" y="0px"
	 viewBox="0 0 455.111 455.111" style="enable-background:new 0 0 455.111 455.111;" xml:space="preserve">
<path id="SVGCleanerId_0" style="fill:#E24C4B;" d="M455.111,227.556c0,62.578-25.6,119.467-66.844,160.711
	s-98.133,66.844-160.711,66.844C102.4,455.111,0,352.711,0,227.556c0-62.578,25.6-119.467,66.844-160.711S164.978,0,227.556,0
	s119.467,25.6,160.711,66.844S455.111,164.978,455.111,227.556z"/>
<g>
	<path id="SVGCleanerId_0_1_" style="fill:#E24C4B;" d="M455.111,227.556c0,62.578-25.6,119.467-66.844,160.711
		s-98.133,66.844-160.711,66.844C102.4,455.111,0,352.711,0,227.556c0-62.578,25.6-119.467,66.844-160.711S164.978,0,227.556,0
		s119.467,25.6,160.711,66.844S455.111,164.978,455.111,227.556z"/>
</g>
<path style="fill:#FFFFFF;" d="M227.556,412.444c-102.4,0-184.889-82.489-184.889-184.889c0-49.778,19.911-95.289,54.044-130.844
	c35.556-34.133,81.067-54.044,130.844-54.044S322.844,62.578,358.4,96.711c34.133,35.556,54.044,81.067,54.044,130.844
	S392.533,322.844,358.4,358.4C322.844,392.533,277.333,412.444,227.556,412.444z"/>
<g>
	<path style="fill:#3F4448;" d="M228.978,123.733c-4.267,0-8.533,1.422-8.533,1.422s-4.267-11.378-9.956-17.067
		c-5.689-5.689-8.533-5.689-8.533-5.689s-4.267,12.8-2.844,25.6c0,0-2.844-8.533-8.533-12.8c-5.689-4.267-7.111-4.267-7.111-4.267
		s1.422,7.111,0,11.378S179.2,128,179.2,140.8c0,0-2.844,17.067-12.8,36.978S137.956,256,137.956,256s-2.844,5.689-7.111,14.222
		c11.378,5.689,42.667,19.911,76.8,9.956l0,0c4.267-5.689,35.556-44.089,38.4-85.333C248.889,153.6,233.244,129.422,228.978,123.733
		z M196.267,219.022c-4.267,5.689-12.8,5.689-12.8,5.689s0-8.533,4.267-14.222c5.689-5.689,12.8-5.689,12.8-5.689
		S201.956,213.333,196.267,219.022z"/>
	<path style="fill:#3F4448;" d="M236.089,123.733c5.689,9.956,18.489,32.711,17.067,68.267c2.844,4.267,19.911,27.022,21.333,52.622
		c5.689,1.422,15.644,4.267,22.756,11.378c1.422,1.422,2.844,4.267,5.689,9.956c-15.644,18.489-36.978,29.867-56.889,36.978
		c-17.067,0-31.289-1.422-41.244-2.844c4.267-4.267,8.533-7.111,11.378-9.956c-4.267-1.422-7.111-4.267-8.533-5.689
		C172.089,294.4,140.8,280.178,128,273.067c-5.689,12.8-11.378,28.444-12.8,41.244c0,22.756,15.644,32.711,28.444,32.711
		c0,0-1.422,9.956,15.644,2.844c15.644-5.689,11.378-14.222,21.333-25.6c15.644-1.422,41.244-4.267,66.844-14.222
		c21.333,0,46.933,0,75.378-4.267c7.111,14.222,18.489,38.4,28.444,61.156c2.844-2.844,5.689-4.267,8.533-7.111
		c35.556-35.556,54.044-81.067,54.044-130.844c0-29.867-7.111-58.311-19.911-83.911c-12.8-2.844-31.289-5.689-52.622-12.8
		C300.089,119.467,257.422,120.889,236.089,123.733z M187.733,317.156c4.267-4.267,7.111-7.111,11.378-11.378
		c1.422,0,4.267,0,8.533,1.422c5.689,1.422,12.8,1.422,21.333,1.422C213.333,312.889,199.111,315.733,187.733,317.156z
		 M261.689,302.933c15.644-7.111,31.289-18.489,44.089-31.289c4.267,7.111,8.533,17.067,14.222,28.444
		C298.667,302.933,278.756,302.933,261.689,302.933z"/>
	<path style="fill:#3F4448;" d="M234.667,281.6c14.222-1.422,28.444-22.756,32.711-32.711l0,0c0-18.489-9.956-38.4-17.067-46.933
		c-5.689,38.4-29.867,69.689-36.978,79.644c1.422,1.422,5.689,2.844,8.533,5.689C227.556,284.444,230.4,283.022,234.667,281.6z"/>
</g>
<g>
</g>
<g>
</g>
<g>
</g>
<g>
</g>
<g>
</g>
<g>
</g>
<g>
</g>
<g>
</g>
<g>
</g>
<g>
</g>
<g>
</g>
<g>
</g>
<g>
</g>
<g>
</g>
<g>
</g>
</svg>
