<?xml version="1.0" encoding="iso-8859-1"?>
<!-- Generator: Adobe Illustrator 19.0.0, SVG Export Plug-In . SVG Version: 6.00 Build 0)  -->
<svg version="1.1" id="Capa_1" xmlns="http://www.w3.org/2000/svg" xmlns:xlink="http://www.w3.org/1999/xlink" x="0px" y="0px"
	 viewBox="0 0 455.111 455.111" style="enable-background:new 0 0 455.111 455.111;" xml:space="preserve">
<circle style="fill:#E24C4B;" cx="227.556" cy="227.556" r="227.556"/>
<path style="fill:#FFFFFF;" d="M412.444,227.556c0,102.4-82.489,184.889-184.889,184.889S42.667,329.956,42.667,227.556
	S125.156,42.667,227.556,42.667S412.444,125.156,412.444,227.556z"/>
<g>
	<path style="fill:#3F4448;" d="M398.222,298.667c2.844-5.689,4.267-12.8,7.111-18.489H51.2c1.422,7.111,4.267,12.8,5.689,18.489
		H398.222z"/>
	<path style="fill:#3F4448;" d="M194.844,233.244v-76.8c0-4.267-4.267-7.111-7.111-7.111l-66.844,7.111
		c-2.844,0-5.689,2.844-5.689,5.689l-7.111,45.511v44.089c0,4.267,2.844,7.111,7.111,7.111h5.689
		c0-18.489,14.222-32.711,32.711-32.711s32.711,14.222,32.711,32.711h58.311c0-9.956,4.267-19.911,11.378-25.6L194.844,233.244
		L194.844,233.244z M173.511,209.067h-54.044l7.111-42.667l46.933-5.689V209.067z"/>
	<path style="fill:#3F4448;" d="M347.022,240.356v11.378c0,4.267-2.844,7.111-7.111,7.111h-28.444c0-9.956-4.267-19.911-11.378-25.6
		h39.822C344.178,233.244,347.022,236.089,347.022,240.356z"/>
	<path style="fill:#3F4448;" d="M342.756,133.689H211.911c-2.844,0-4.267,1.422-4.267,4.267v86.756h139.378v-86.756
		C347.022,136.533,345.6,133.689,342.756,133.689z"/>
	<path style="fill:#3F4448;" d="M155.022,237.511c-11.378,0-21.333,9.956-21.333,21.333c0,11.378,9.956,21.333,21.333,21.333
		s21.333-9.956,21.333-21.333C176.356,246.044,166.4,237.511,155.022,237.511z M155.022,268.8c-5.689,0-11.378-4.267-11.378-11.378
		c0-5.689,4.267-11.378,11.378-11.378c5.689,0,11.378,4.267,11.378,11.378C164.978,264.533,160.711,268.8,155.022,268.8z"/>
	<path style="fill:#3F4448;" d="M278.756,237.511c-11.378,0-21.333,9.956-21.333,21.333c0,11.378,9.956,21.333,21.333,21.333
		c11.378,0,21.333-9.956,21.333-21.333C301.511,246.044,291.556,237.511,278.756,237.511z M278.756,268.8
		c-5.689,0-11.378-4.267-11.378-11.378c0-5.689,4.267-11.378,11.378-11.378c5.689,0,11.378,4.267,11.378,11.378
		C290.133,264.533,284.444,268.8,278.756,268.8z"/>
	<path style="fill:#3F4448;" d="M211.911,388.267v-15.644h-31.289v-12.8l32.711-48.356h12.8v48.356h9.956v12.8h-9.956v15.644
		H211.911z M211.911,361.244v-25.6l-17.067,25.6H211.911z"/>
	<path style="fill:#3F4448;" d="M253.156,388.267v-34.133h-12.8v-7.111h32.711v7.111h-12.8v34.133H253.156z"/>
</g>
<g>
</g>
<g>
</g>
<g>
</g>
<g>
</g>
<g>
</g>
<g>
</g>
<g>
</g>
<g>
</g>
<g>
</g>
<g>
</g>
<g>
</g>
<g>
</g>
<g>
</g>
<g>
</g>
<g>
</g>
</svg>
