<?xml version="1.0" encoding="iso-8859-1"?>
<!-- Generator: Adobe Illustrator 19.0.0, SVG Export Plug-In . SVG Version: 6.00 Build 0)  -->
<svg version="1.1" id="Capa_1" xmlns="http://www.w3.org/2000/svg" xmlns:xlink="http://www.w3.org/1999/xlink" x="0px" y="0px"
	 viewBox="0 0 455.111 455.111" style="enable-background:new 0 0 455.111 455.111;" xml:space="preserve">
<ellipse style="fill:#E24C4B;" cx="227.556" cy="227.556" rx="227.556" ry="227.556"/>
<path style="fill:#FFFFFF;" d="M227.523,412.441c-102.4,0-184.889-82.489-184.889-184.889S125.123,42.663,227.523,42.663
	s184.889,82.489,184.889,184.889S329.923,412.441,227.523,412.441z"/>
<g>
	<path style="fill:#3F4448;" d="M273.035,217.596v-71.111h21.333l12.8,48.356l12.8-48.356h21.333v71.111h-12.8v-56.889
		l-14.222,56.889h-14.222l-14.222-56.889v56.889H273.035z"/>
	<path style="fill:#3F4448;" d="M349.835,227.552l59.733,35.556c2.844-11.378,2.844-22.756,2.844-35.556
		c0-11.378-1.422-24.178-2.844-35.556L349.835,227.552z"/>
	<path style="fill:#3F4448;" d="M42.635,227.552c0,12.8,1.422,24.178,2.844,35.556l59.733-35.556l-59.733-35.556
		C44.057,203.374,42.635,214.752,42.635,227.552z"/>
	<path style="fill:#3F4448;" d="M255.968,287.285v4.267c0,12.8-1.422,24.178-18.489,29.867l-4.267-8.533
		c7.111-2.844,11.378-5.689,11.378-12.8c-7.111,1.422-15.644-4.267-15.644-12.8c0-7.111,5.689-12.8,12.8-12.8
		C251.701,274.485,255.968,281.596,255.968,287.285z"/>
	<path style="fill:#3F4448;" d="M315.701,317.152h-14.222v-55.467c-5.689,5.689-11.378,8.533-18.489,11.378v-12.8
		c4.267-1.422,8.533-4.267,12.8-7.111c4.267-2.844,7.111-7.111,8.533-12.8h11.378V317.152z"/>
	<path style="fill:#3F4448;" d="M217.568,277.33v27.022h-102.4c1.422-9.956,4.267-19.911,9.956-28.444
		c5.689-8.533,17.067-21.333,32.711-36.978c12.8-12.8,21.333-19.911,24.178-24.178c4.267-5.689,5.689-11.378,5.689-17.067
		c0-7.111-1.422-11.378-5.689-14.222c-2.844-2.844-8.533-5.689-14.222-5.689s-11.378,1.422-14.222,5.689
		c-4.267,4.267-5.689,9.956-5.689,18.489l-28.444-2.844c1.422-15.644,7.111-27.022,15.644-34.133
		c8.533-7.111,19.911-9.956,34.133-9.956c15.644,0,27.022,4.267,35.556,11.378c8.533,8.533,12.8,18.489,12.8,29.867
		c0,7.111-1.422,12.8-4.267,19.911c-2.844,5.689-5.689,12.8-11.378,19.911c-2.844,4.267-9.956,11.378-18.489,19.911
		c-8.533,8.533-15.644,14.222-17.067,17.067c-2.844,2.844-4.267,5.689-5.689,8.533h56.889V277.33z"/>
</g>
<g>
</g>
<g>
</g>
<g>
</g>
<g>
</g>
<g>
</g>
<g>
</g>
<g>
</g>
<g>
</g>
<g>
</g>
<g>
</g>
<g>
</g>
<g>
</g>
<g>
</g>
<g>
</g>
<g>
</g>
</svg>
