<?xml version="1.0" encoding="iso-8859-1"?>
<!-- Generator: Adobe Illustrator 19.0.0, SVG Export Plug-In . SVG Version: 6.00 Build 0)  -->
<svg version="1.1" id="Capa_1" xmlns="http://www.w3.org/2000/svg" xmlns:xlink="http://www.w3.org/1999/xlink" x="0px" y="0px"
	 viewBox="0 0 455.111 455.111" style="enable-background:new 0 0 455.111 455.111;" xml:space="preserve">
<circle style="fill:#E24C4B;" cx="227.556" cy="227.556" r="227.556"/>
<path style="fill:#FFFFFF;" d="M412.444,227.556c0,102.4-82.489,184.889-184.889,184.889S42.667,329.956,42.667,227.556
	S125.156,42.667,227.556,42.667S412.444,125.156,412.444,227.556z"/>
<g>
	<path style="fill:#3F4448;" d="M112.356,263.111l29.867-4.267c1.422,7.111,2.844,12.8,7.111,17.067
		c4.267,4.267,8.533,5.689,15.644,5.689c5.689,0,11.378-2.844,15.644-7.111c4.267-4.267,7.111-11.378,7.111-19.911
		c0-7.111-1.422-14.222-5.689-18.489c-4.267-4.267-8.533-7.111-15.644-7.111c-4.267,0-8.533,1.422-14.222,2.844l2.844-25.6
		c8.533,0,14.222-1.422,18.489-5.689c4.267-4.267,7.111-8.533,7.111-15.644c0-11.378-7.111-17.067-17.067-17.067
		s-18.489,7.111-19.911,21.333l-28.444-4.267c5.689-25.6,19.911-41.244,49.778-41.244s46.933,21.333,46.933,41.244
		c0,14.222-7.111,25.6-22.756,34.133c8.533,1.422,17.067,5.689,21.333,12.8c5.689,7.111,8.533,15.644,8.533,24.178
		c0,14.222-5.689,25.6-15.644,35.556c-9.956,9.956-22.756,14.222-38.4,14.222c-14.222,0-27.022-4.267-35.556-12.8
		C119.467,288.711,113.778,277.333,112.356,263.111z"/>
	<path style="fill:#3F4448;" d="M273.067,217.6v-71.111H294.4l12.8,48.356l12.8-48.356h21.333V217.6h-12.8v-56.889L314.311,217.6
		h-14.222l-14.222-56.889V217.6H273.067z"/>
	<path style="fill:#3F4448;" d="M284.444,290.133l14.222-1.422c0,2.844,1.422,5.689,2.844,7.111
		c1.422,1.422,4.267,2.844,7.111,2.844c2.844,0,5.689-1.422,7.111-2.844c1.422-2.844,2.844-5.689,2.844-9.956
		c0-4.267-1.422-7.111-2.844-9.956c-1.422-2.844-4.267-2.844-7.111-2.844c-4.267,0-7.111,1.422-9.956,5.689l-11.378-1.422
		l7.111-36.978h35.556v12.8h-25.6l-2.844,12.8c2.844-1.422,5.689-2.844,9.956-2.844c5.689,0,11.378,2.844,15.644,7.111
		c4.267,4.267,5.689,9.956,5.689,17.067c0,5.689-1.422,11.378-5.689,15.644c-4.267,5.689-11.378,9.956-19.911,9.956
		c-7.111,0-11.378-1.422-15.644-5.689C287.289,301.511,284.444,295.822,284.444,290.133z"/>
	<path style="fill:#3F4448;" d="M227.556,105.244l35.556-59.733c-11.378-1.422-22.756-2.844-35.556-2.844S203.378,44.089,192,45.511
		L227.556,105.244z"/>
	<path style="fill:#3F4448;" d="M227.556,412.444c12.8,0,24.178-1.422,35.556-2.844l-35.556-59.733L192,409.6
		C203.378,411.022,216.178,412.444,227.556,412.444z"/>
	<path style="fill:#3F4448;" d="M256,287.289v4.267c0,12.8-1.422,24.178-18.489,29.867l-4.267-8.533
		c7.111-2.844,11.378-5.689,11.378-12.8c-7.111,1.422-15.644-4.267-15.644-12.8c0-7.111,5.689-12.8,12.8-12.8
		C250.311,274.489,256,281.6,256,287.289z"/>
</g>
<g>
</g>
<g>
</g>
<g>
</g>
<g>
</g>
<g>
</g>
<g>
</g>
<g>
</g>
<g>
</g>
<g>
</g>
<g>
</g>
<g>
</g>
<g>
</g>
<g>
</g>
<g>
</g>
<g>
</g>
</svg>
