<?xml version="1.0" encoding="iso-8859-1"?>
<!-- Generator: Adobe Illustrator 19.0.0, SVG Export Plug-In . SVG Version: 6.00 Build 0)  -->
<svg version="1.1" id="Capa_1" xmlns="http://www.w3.org/2000/svg" xmlns:xlink="http://www.w3.org/1999/xlink" x="0px" y="0px"
	 viewBox="0 0 455.111 455.111" style="enable-background:new 0 0 455.111 455.111;" xml:space="preserve">
<circle style="fill:#E24C4B;" cx="227.556" cy="227.556" r="227.556"/>
<path style="fill:#FFFFFF;" d="M412.444,227.556c0,102.4-82.489,184.889-184.889,184.889S42.667,329.956,42.667,227.556
	S125.156,42.667,227.556,42.667S412.444,125.156,412.444,227.556z"/>
<g>
	<path style="fill:#DFE4E9;" d="M85.333,345.6l64-93.867h-15.644l-62.578,75.378C76.8,334.222,81.067,339.911,85.333,345.6z"/>
	<path style="fill:#DFE4E9;" d="M108.089,368.356c7.111,7.111,15.644,12.8,24.178,17.067l51.2-133.689h-15.644L108.089,368.356z"/>
	<path style="fill:#DFE4E9;" d="M169.244,402.489c11.378,4.267,22.756,7.111,35.556,8.533l12.8-157.867h-15.644L169.244,402.489z"/>
	<path style="fill:#DFE4E9;" d="M251.733,253.156h-15.644l12.8,157.867c12.8-1.422,24.178-4.267,35.556-8.533L251.733,253.156z"/>
	<path style="fill:#DFE4E9;" d="M285.867,253.156h-15.644l51.2,133.689c8.533-5.689,17.067-11.378,24.178-17.067L285.867,253.156z"
		/>
	<path style="fill:#DFE4E9;" d="M382.578,328.533L320,253.156h-15.644l64,93.867C374.044,339.911,378.311,334.222,382.578,328.533z"
		/>
</g>
<g>
	<path style="fill:#3F4448;" d="M298.667,224.711c-2.844,5.689-8.533,7.111-12.8,4.267l-35.556-15.644l-15.644-27.022V243.2
		l22.756,19.911c1.422,1.422,2.844,2.844,2.844,4.267l18.489,58.311c1.422,5.689-1.422,9.956-5.689,11.378
		c-4.267,1.422-9.956-1.422-11.378-5.689l-17.067-55.467c-15.644-14.222-7.111-5.689-44.089-38.4
		c-1.422-1.422-2.844-2.844-2.844-4.267v-61.156l-11.378,11.378l-9.956,49.778c-1.422,4.267-5.689,8.533-11.378,7.111
		c-5.689-1.422-8.533-5.689-7.111-11.378l11.378-55.467c1.422-1.422,35.556-36.978,36.978-38.4
		c2.844-1.422,7.111-2.844,11.378-2.844c8.533,0,15.644,5.689,18.489,12.8l0,0l0,0l29.867,51.2l29.867,14.222
		C298.667,213.333,300.089,219.022,298.667,224.711z"/>
	<path style="fill:#3F4448;" d="M192,244.622l14.222,12.8l-32.711,73.956c-1.422,4.267-7.111,7.111-12.8,4.267
		c-4.267-1.422-7.111-7.111-4.267-12.8L192,244.622L192,244.622z"/>
	<circle style="fill:#3F4448;" cx="227.556" cy="100.978" r="24.178"/>
</g>
<g>
</g>
<g>
</g>
<g>
</g>
<g>
</g>
<g>
</g>
<g>
</g>
<g>
</g>
<g>
</g>
<g>
</g>
<g>
</g>
<g>
</g>
<g>
</g>
<g>
</g>
<g>
</g>
<g>
</g>
</svg>
