<?xml version="1.0" encoding="iso-8859-1"?>
<!-- Generator: Adobe Illustrator 19.0.0, SVG Export Plug-In . SVG Version: 6.00 Build 0)  -->
<svg version="1.1" id="Capa_1" xmlns="http://www.w3.org/2000/svg" xmlns:xlink="http://www.w3.org/1999/xlink" x="0px" y="0px"
	 viewBox="0 0 455.111 455.111" style="enable-background:new 0 0 455.111 455.111;" xml:space="preserve">
<g>
	<path style="fill:#3F4448;" d="M295.822,95.289c-5.689,0-18.489,1.422-29.867,4.267v19.911c11.378,2.844,24.178,4.267,29.867,4.267
		c9.956,0,14.222-5.689,14.222-14.222C310.044,102.4,307.2,95.289,295.822,95.289z"/>
	<path style="fill:#3F4448;" d="M197.689,95.289c5.689,0,18.489,1.422,29.867,4.267v19.911c-11.378,2.844-24.178,4.267-29.867,4.267
		c-9.956,0-14.222-5.689-14.222-14.222C183.467,102.4,187.733,95.289,197.689,95.289z"/>
	<rect x="237.511" y="112.356" style="fill:#3F4448;" width="19.911" height="62.578"/>
	<path style="fill:#3F4448;" d="M273.067,172.089h-51.2c-1.422,0-2.844-1.422-2.844-2.844v-5.689c0-1.422,1.422-2.844,2.844-2.844
		h51.2c1.422,0,2.844,1.422,2.844,2.844v5.689C275.911,170.667,274.489,172.089,273.067,172.089z"/>
	<path style="fill:#3F4448;" d="M331.378,221.867v55.467c-18.489,2.844-36.978,8.533-55.467,15.644
		c-7.111,2.844-17.067,4.267-25.6,4.267c-11.378,0-21.333-2.844-31.289-7.111c-15.644-8.533-31.289-12.8-48.356-15.644
		c-7.111-1.422-14.222,5.689-15.644,12.8l-1.422,21.333h-49.778v-32.711c0-28.444,22.756-52.622,52.622-52.622
		c14.222,0,28.444-2.844,42.667-7.111c9.956-2.844,15.644-12.8,15.644-22.756V179.2h64v9.956c0,11.378,7.111,19.911,17.067,24.178
		C307.2,217.6,318.578,220.444,331.378,221.867z"/>
	<path style="fill:#3F4448;" d="M153.6,331.378h-48.356c-4.267,0-7.111-2.844-7.111-7.111v-14.222c0-4.267,2.844-7.111,7.111-7.111
		h46.933c4.267,0,7.111,2.844,7.111,7.111v14.222C160.711,328.533,156.444,331.378,153.6,331.378z"/>
	<path style="fill:#3F4448;" d="M327.111,278.756v-58.311c0-4.267,2.844-7.111,7.111-7.111h15.644c4.267,0,7.111,2.844,7.111,7.111
		v58.311c0,4.267-2.844,7.111-7.111,7.111h-15.644C329.956,285.867,327.111,283.022,327.111,278.756z"/>
	<path style="fill:#3F4448;" d="M281.6,182.044h-69.689c-1.422,0-2.844-1.422-2.844-2.844v-5.689c0-1.422,1.422-2.844,2.844-2.844
		H281.6c1.422,0,2.844,1.422,2.844,2.844v5.689C284.444,180.622,283.022,182.044,281.6,182.044z"/>
	<path style="fill:#3F4448;" d="M264.533,123.733H230.4c-2.844,0-4.267-2.844-4.267-4.267V99.556c0-2.844,2.844-4.267,4.267-4.267
		h34.133c2.844,0,4.267,2.844,4.267,4.267v18.489C268.8,120.889,267.378,123.733,264.533,123.733z"/>
</g>
<path style="fill:#D1403F;" d="M227.556,455.111C102.4,455.111,0,352.711,0,227.556S102.4,0,227.556,0
	s227.556,102.4,227.556,227.556S352.711,455.111,227.556,455.111z M39.822,227.556c0,103.822,83.911,187.733,187.733,187.733
	c59.733,0,96.711-27.022,119.467-41.244L81.067,108.089C68.267,126.578,39.822,164.978,39.822,227.556z M227.556,39.822
	c-59.733,0-96.711,27.022-119.467,41.244l265.956,265.956c12.8-19.911,41.244-56.889,41.244-119.467
	C415.289,123.733,331.378,39.822,227.556,39.822z"/>
<g>
</g>
<g>
</g>
<g>
</g>
<g>
</g>
<g>
</g>
<g>
</g>
<g>
</g>
<g>
</g>
<g>
</g>
<g>
</g>
<g>
</g>
<g>
</g>
<g>
</g>
<g>
</g>
<g>
</g>
</svg>
