<?xml version="1.0" encoding="iso-8859-1"?>
<!-- Generator: Adobe Illustrator 19.0.0, SVG Export Plug-In . SVG Version: 6.00 Build 0)  -->
<svg version="1.1" id="Capa_1" xmlns="http://www.w3.org/2000/svg" xmlns:xlink="http://www.w3.org/1999/xlink" x="0px" y="0px"
	 viewBox="0 0 455.111 455.111" style="enable-background:new 0 0 455.111 455.111;" xml:space="preserve">
<circle style="fill:#E24C4B;" cx="227.556" cy="227.556" r="227.556"/>
<path style="fill:#FFFFFF;" d="M42.667,227.556c0,102.4,82.489,184.889,184.889,184.889s184.889-82.489,184.889-184.889
	S329.956,42.667,227.556,42.667S42.667,125.156,42.667,227.556z"/>
<g>
	<path style="fill:#3F4448;" d="M106.667,345.6h79.644V320h79.644v-25.6H345.6v-25.6h61.156c-2.844,12.8-7.111,25.6-12.8,36.978
		h-34.133v25.6h-79.644v25.6h-79.644v25.6h-75.378c-7.111-4.267-12.8-9.956-19.911-14.222V345.6H106.667z"/>
	<path style="fill:#3F4448;" d="M122.311,258.844c7.111,0,9.956-2.844,9.956-7.111l9.956-46.933l9.956-11.378v58.311
		c0,4.267,1.422,7.111,5.689,9.956l49.778,24.178l19.911,46.933c1.422,4.267,5.689,7.111,11.378,4.267
		c4.267-1.422,7.111-7.111,4.267-11.378l-21.333-49.778c-1.422-1.422-2.844-4.267-4.267-4.267L187.733,256v-49.778l14.222,25.6
		l32.711,15.644c4.267,1.422,9.956,0,11.378-4.267c1.422-4.267,0-9.956-4.267-11.378l-27.022-12.8l-27.022-48.356l0,0l0,0
		c-2.844-7.111-8.533-12.8-17.067-12.8c-4.267,0-7.111,1.422-9.956,2.844c-1.422,1.422-32.711,34.133-35.556,35.556l-11.378,52.622
		C115.2,253.156,118.044,257.422,122.311,258.844z"/>
	<path style="fill:#3F4448;" d="M204.8,128c0-12.8-9.956-22.756-22.756-22.756c-12.8,0-22.756,9.956-22.756,22.756
		s9.956,22.756,22.756,22.756S204.8,140.8,204.8,128z"/>
	<path style="fill:#3F4448;" d="M132.267,352.711c5.689,1.422,9.956-1.422,11.378-5.689l24.178-65.422l-15.644-7.111h-1.422
		l-24.178,66.844C125.156,347.022,128,351.289,132.267,352.711z"/>
</g>
<g>
</g>
<g>
</g>
<g>
</g>
<g>
</g>
<g>
</g>
<g>
</g>
<g>
</g>
<g>
</g>
<g>
</g>
<g>
</g>
<g>
</g>
<g>
</g>
<g>
</g>
<g>
</g>
<g>
</g>
</svg>
