<?xml version="1.0" encoding="iso-8859-1"?>
<!-- Generator: Adobe Illustrator 19.0.0, SVG Export Plug-In . SVG Version: 6.00 Build 0)  -->
<svg version="1.1" id="Capa_1" xmlns="http://www.w3.org/2000/svg" xmlns:xlink="http://www.w3.org/1999/xlink" x="0px" y="0px"
	 viewBox="0 0 455.2 455.2" style="enable-background:new 0 0 455.2 455.2;" xml:space="preserve">
<g>
	<polygon style="fill:#E9EFF4;" points="150.8,234.7 130.9,258.9 150.8,284.5 169.3,258.9 	"/>
	<polygon style="fill:#E9EFF4;" points="85.4,288.8 85.4,320 116.7,330 116.7,298.7 	"/>
	<polygon style="fill:#E9EFF4;" points="169.3,311.5 140.8,325.7 146.5,357 175,342.8 	"/>
</g>
<g>
	<path style="fill:#3F4448;" d="M291.6,133.7c18.5,0,32.7,12.8,32.7,31.3v88.2c0,5.7-4.3,11.4-11.4,11.4s-11.4-4.3-11.4-11.4V165
		c0-2.8-2.8-4.3-4.3-4.3l0,0c-2.8,0-4.3,1.4-4.3,4.3v214.8c0,7.1-5.7,14.2-14.2,14.2l0,0c-7.1,0-14.2-5.7-14.2-14.2v-93.9h-21.3
		v93.9c0,7.1-5.7,14.2-14.2,14.2l0,0c-7.1,0-14.2-5.7-14.2-14.2V169.3l-21.3,25.6c-1.4,1.4-4.3,2.8-5.7,4.3l-44.1,10
		c-5.7,1.4-11.4-1.4-12.8-8.5c-1.4-5.7,2.8-11.4,8.5-12.8l39.8-8.5l25.6-32.7c5.7-8.5,15.6-12.8,25.6-12.8h61.2V133.7z"/>
	<circle style="fill:#3F4448;" cx="258.9" cy="91.1" r="28.4"/>
</g>
<path style="fill:#D1403F;" d="M227.6,455.2C102.4,455.2,0,352.8,0,227.6S102.4,0,227.6,0s227.6,102.4,227.6,227.6
	S352.8,455.2,227.6,455.2z M39.9,227.6c0,103.8,83.9,187.7,187.7,187.7c59.7,0,96.7-27,119.5-41.2l-266-266
	C68.3,126.6,39.9,165,39.9,227.6z M227.6,39.9c-59.7,0-96.7,27-119.5,41.2l266,266c12.8-19.9,41.2-56.9,41.2-119.5
	C415.3,123.8,331.4,39.9,227.6,39.9z"/>
<g>
</g>
<g>
</g>
<g>
</g>
<g>
</g>
<g>
</g>
<g>
</g>
<g>
</g>
<g>
</g>
<g>
</g>
<g>
</g>
<g>
</g>
<g>
</g>
<g>
</g>
<g>
</g>
<g>
</g>
</svg>
