<?xml version="1.0" encoding="iso-8859-1"?>
<!-- Generator: Adobe Illustrator 19.0.0, SVG Export Plug-In . SVG Version: 6.00 Build 0)  -->
<svg version="1.1" id="Capa_1" xmlns="http://www.w3.org/2000/svg" xmlns:xlink="http://www.w3.org/1999/xlink" x="0px" y="0px"
	 viewBox="0 0 455.111 455.111" style="enable-background:new 0 0 455.111 455.111;" xml:space="preserve">
<path style="fill:#E24C4B;" d="M227.556,0C102.4,0,0,102.4,0,227.556s102.4,227.556,227.556,227.556s227.556-102.4,227.556-227.556
	S352.711,0,227.556,0z"/>
<path style="fill:#FFFFFF;" d="M42.667,227.556c0-102.4,82.489-184.889,184.889-184.889s184.889,82.489,184.889,184.889
	s-82.489,184.889-184.889,184.889S42.667,329.956,42.667,227.556z"/>
<g>
	<path style="fill:#3F4448;" d="M115.2,278.756l36.978-4.267c2.844,18.489,14.222,27.022,27.022,27.022
		c14.222,0,28.444-11.378,28.444-38.4c0-24.178-12.8-35.556-28.444-35.556c-11.378,0-19.911,4.267-28.444,14.222l-29.867-4.267
		l19.911-102.4h99.556v35.556h-71.111l-5.689,32.711c8.533-4.267,17.067-5.689,25.6-5.689c31.289,0,59.733,24.178,59.733,65.422
		c0,35.556-25.6,69.689-66.844,69.689C142.222,332.8,119.467,310.044,115.2,278.756z"/>
	<path style="fill:#3F4448;" d="M290.133,231.822v-81.067h-28.444v-17.067h78.222v17.067h-28.444v81.067H290.133z"/>
</g>
<g>
</g>
<g>
</g>
<g>
</g>
<g>
</g>
<g>
</g>
<g>
</g>
<g>
</g>
<g>
</g>
<g>
</g>
<g>
</g>
<g>
</g>
<g>
</g>
<g>
</g>
<g>
</g>
<g>
</g>
</svg>
