<?xml version="1.0" encoding="iso-8859-1"?>
<!-- Generator: Adobe Illustrator 19.0.0, SVG Export Plug-In . SVG Version: 6.00 Build 0)  -->
<svg version="1.1" id="Capa_1" xmlns="http://www.w3.org/2000/svg" xmlns:xlink="http://www.w3.org/1999/xlink" x="0px" y="0px"
	 viewBox="0 0 455.111 455.111" style="enable-background:new 0 0 455.111 455.111;" xml:space="preserve">
<path style="fill:#E24C4B;" d="M227.556,0C102.4,0,0,102.4,0,227.556s102.4,227.556,227.556,227.556s227.556-102.4,227.556-227.556
	S352.711,0,227.556,0z"/>
<path style="fill:#FFFFFF;" d="M42.667,227.556c0-102.4,82.489-184.889,184.889-184.889s184.889,82.489,184.889,184.889
	s-82.489,184.889-184.889,184.889S42.667,329.956,42.667,227.556z"/>
<path style="fill:#3F4448;" d="M317.156,162.133V371.2h-42.667V162.133c0-25.6-19.911-45.511-45.511-45.511
	c-25.6,0-45.511,19.911-45.511,45.511v95.289h25.6c4.267,0,7.111,5.689,5.689,8.533l-46.933,85.333
	c-2.844,4.267-8.533,4.267-9.956,0l-46.933-85.333c-2.844-4.267,1.422-8.533,5.689-8.533h25.6v-95.289
	c0-48.356,39.822-88.178,88.178-88.178C277.333,73.956,317.156,113.778,317.156,162.133z"/>
<rect x="206.72" y="22.549" transform="matrix(-0.7071 0.7071 -0.7071 -0.7071 550.5719 228.0624)" style="fill:#E24C4B;" width="42.666" height="411.018"/>
<g>
</g>
<g>
</g>
<g>
</g>
<g>
</g>
<g>
</g>
<g>
</g>
<g>
</g>
<g>
</g>
<g>
</g>
<g>
</g>
<g>
</g>
<g>
</g>
<g>
</g>
<g>
</g>
<g>
</g>
</svg>
