<?xml version="1.0" encoding="iso-8859-1"?>
<!-- Generator: Adobe Illustrator 19.0.0, SVG Export Plug-In . SVG Version: 6.00 Build 0)  -->
<svg version="1.1" id="Capa_1" xmlns="http://www.w3.org/2000/svg" xmlns:xlink="http://www.w3.org/1999/xlink" x="0px" y="0px"
	 viewBox="0 0 455.111 455.111" style="enable-background:new 0 0 455.111 455.111;" xml:space="preserve">
<path style="fill:#E24C4B;" d="M227.556,0C102.4,0,0,102.4,0,227.556s102.4,227.556,227.556,227.556s227.556-102.4,227.556-227.556
	S352.711,0,227.556,0z"/>
<path style="fill:#FFFFFF;" d="M42.667,227.556c0-102.4,82.489-184.889,184.889-184.889s184.889,82.489,184.889,184.889
	s-82.489,184.889-184.889,184.889S42.667,329.956,42.667,227.556z"/>
<g>
	<path style="fill:#3F4448;" d="M132.267,292.978c-17.067,0-31.289,14.222-31.289,31.289s14.222,31.289,31.289,31.289
		c17.067,0,31.289-14.222,31.289-31.289C162.133,307.2,149.333,292.978,132.267,292.978z M132.267,337.067
		c-7.111,0-12.8-5.689-12.8-12.8s5.689-12.8,12.8-12.8c7.111,0,12.8,5.689,12.8,12.8
		C145.067,331.378,139.378,337.067,132.267,337.067z"/>
	<path style="fill:#3F4448;" d="M201.956,261.689h-15.644l-55.467-52.622c-1.422-1.422-4.267-2.844-7.111-2.844H44.089
		c0,5.689-1.422,9.956-1.422,15.644h12.8v39.822h-9.956c4.267,22.756,12.8,44.089,24.178,62.578h18.489
		c0-24.178,19.911-42.667,42.667-42.667c24.178,0,42.667,18.489,42.667,42.667h11.378c8.533,0,17.067-7.111,17.067-15.644
		l2.844-42.667C206.222,263.111,204.8,261.689,201.956,261.689z M147.911,261.689h-76.8v-39.822h51.2l25.6,24.178L147.911,261.689
		L147.911,261.689z"/>
	<path style="fill:#3F4448;" d="M287.289,324.267c0,15.644,12.8,28.444,28.444,28.444c15.644,0,28.444-12.8,28.444-28.444
		s-12.8-28.444-28.444-28.444C300.089,295.822,287.289,308.622,287.289,324.267z M304.356,324.267c0-5.689,4.267-9.956,9.956-9.956
		c5.689,0,11.378,4.267,11.378,9.956c0,5.689-4.267,9.956-11.378,9.956C308.622,335.644,304.356,329.956,304.356,324.267z"/>
	<path style="fill:#3F4448;" d="M412.444,221.867c0-5.689,0-9.956-1.422-15.644h-41.244c-2.844,0-5.689,1.422-7.111,2.844
		l-54.044,44.089l-64,15.644c-11.378,2.844-18.489,14.222-15.644,25.6l2.844,17.067c1.422,8.533,8.533,14.222,17.067,14.222h21.333
		c0-24.178,18.489-42.667,42.667-42.667s42.667,18.489,42.667,42.667h27.022c11.378-18.489,19.911-39.822,24.178-61.156h-88.178
		l51.2-41.244h42.667V221.867z"/>
	<path style="fill:#3F4448;" d="M139.378,120.889v-15.644h56.889v12.8c-4.267,4.267-9.956,11.378-14.222,19.911
		c-4.267,8.533-8.533,18.489-11.378,27.022c-2.844,9.956-4.267,18.489-4.267,25.6h-15.644c0-11.378,2.844-24.178,7.111-36.978
		c4.267-12.8,11.378-24.178,18.489-34.133h-36.978V120.889z"/>
	<path style="fill:#3F4448;" d="M236.089,103.822c22.756,0,28.444,21.333,28.444,44.089c0,17.067-2.844,28.444-8.533,35.556
		c-4.267,5.689-11.378,8.533-19.911,8.533s-15.644-2.844-19.911-9.956c-5.689-7.111-7.111-18.489-7.111-35.556
		C207.644,125.156,213.333,103.822,236.089,103.822z M236.089,116.622c-5.689,0-7.111,4.267-8.533,8.533
		c-1.422,4.267-1.422,11.378-1.422,21.333s0,17.067,1.422,21.333c1.422,4.267,2.844,5.689,4.267,7.111
		c1.422,1.422,2.844,1.422,5.689,1.422c1.422,0,4.267,0,5.689-1.422s2.844-4.267,4.267-7.111c1.422-4.267,1.422-11.378,1.422-21.333
		s0-17.067-1.422-21.333C244.622,120.889,241.778,116.622,236.089,116.622z"/>
	<path style="fill:#3F4448;" d="M278.756,190.578v-48.356h14.222l8.533,32.711l8.533-32.711h14.222v48.356h-8.533v-38.4l-9.956,38.4
		h-9.956l-9.956-38.4v38.4H278.756z"/>
</g>
<g>
</g>
<g>
</g>
<g>
</g>
<g>
</g>
<g>
</g>
<g>
</g>
<g>
</g>
<g>
</g>
<g>
</g>
<g>
</g>
<g>
</g>
<g>
</g>
<g>
</g>
<g>
</g>
<g>
</g>
</svg>
