<?xml version="1.0" encoding="iso-8859-1"?>
<!-- Generator: Adobe Illustrator 19.0.0, SVG Export Plug-In . SVG Version: 6.00 Build 0)  -->
<svg version="1.1" id="Capa_1" xmlns="http://www.w3.org/2000/svg" xmlns:xlink="http://www.w3.org/1999/xlink" x="0px" y="0px"
	 viewBox="0 0 455.111 455.111" style="enable-background:new 0 0 455.111 455.111;" xml:space="preserve">
<path style="fill:#E24C4B;" d="M227.556,0C102.4,0,0,102.4,0,227.556s102.4,227.556,227.556,227.556s227.556-102.4,227.556-227.556
	S352.711,0,227.556,0z"/>
<path style="fill:#FFFFFF;" d="M42.667,227.556c0-102.4,82.489-184.889,184.889-184.889s184.889,82.489,184.889,184.889
	s-82.489,184.889-184.889,184.889S42.667,329.956,42.667,227.556z"/>
<g>
	<path style="fill:#3F4448;" d="M207.644,378.311v-35.556h12.8l8.533,22.756l7.111-22.756h12.8v35.556h-7.111v-27.022l-8.533,27.022
		h-8.533l-8.533-27.022v27.022H207.644z"/>
	<polygon style="fill:#3F4448;" points="116.622,325.689 156.444,359.822 156.444,291.556 	"/>
	<polygon style="fill:#3F4448;" points="339.911,325.689 300.089,291.556 300.089,359.822 	"/>
	<path style="fill:#3F4448;" d="M211.911,329.956h-14.222v-54.044c-5.689,4.267-11.378,8.533-18.489,11.378v-12.8
		c4.267-1.422,7.111-2.844,12.8-7.111c4.267-2.844,7.111-7.111,8.533-11.378h11.378L211.911,329.956L211.911,329.956z"/>
	<path style="fill:#3F4448;" d="M253.156,256c7.111,0,12.8,2.844,17.067,7.111c4.267,5.689,7.111,15.644,7.111,29.867
		s-2.844,24.178-7.111,29.867c-4.267,5.689-9.956,7.111-17.067,7.111s-12.8-2.844-17.067-8.533
		c-4.267-5.689-7.111-15.644-7.111-29.867c0-14.222,2.844-24.178,7.111-29.867C240.356,258.844,246.044,256,253.156,256z
		 M253.156,267.378c-1.422,0-2.844,0-4.267,1.422c-1.422,1.422-2.844,2.844-2.844,5.689c-1.422,4.267-1.422,9.956-1.422,18.489
		c0,8.533,0,14.222,1.422,18.489c1.422,2.844,1.422,5.689,2.844,7.111c1.422,1.422,2.844,1.422,4.267,1.422
		c1.422,0,2.844,0,4.267-1.422c1.422-1.422,2.844-2.844,2.844-5.689c1.422-4.267,1.422-9.956,1.422-18.489
		c0-8.533,0-14.222-1.422-18.489c-1.422-2.844-1.422-5.689-2.844-7.111C257.422,268.8,256,267.378,253.156,267.378z"/>
	<path style="fill:#3F4448;" d="M187.733,200.533V128c0-4.267-2.844-7.111-7.111-5.689L119.467,128
		c-2.844,0-5.689,2.844-5.689,5.689l-7.111,42.667V217.6c0,4.267,2.844,7.111,7.111,7.111h5.689
		c0-17.067,14.222-29.867,29.867-29.867s29.867,14.222,29.867,29.867h65.422c0-9.956,4.267-18.489,11.378-22.756h-68.267V200.533z
		 M167.822,177.778h-49.778l5.689-39.822l44.089-4.267V177.778L167.822,177.778z"/>
	<path style="fill:#3F4448;" d="M339.911,206.222v9.956c0,2.844-2.844,5.689-5.689,5.689h-25.6c0-9.956-4.267-18.489-11.378-22.756
		h36.978C337.067,200.533,339.911,203.378,339.911,206.222z"/>
	<path style="fill:#3F4448;" d="M335.644,108.089H203.378c-2.844,0-4.267,1.422-4.267,4.267v81.067h139.378v-81.067
		C339.911,110.933,337.067,108.089,335.644,108.089z"/>
	<path style="fill:#3F4448;" d="M149.333,203.378c-11.378,0-19.911,8.533-19.911,19.911c0,11.378,8.533,19.911,19.911,19.911
		c11.378,0,19.911-8.533,19.911-19.911C170.667,213.333,160.711,203.378,149.333,203.378z M149.333,233.244
		c-5.689,0-9.956-4.267-9.956-9.956c0-5.689,4.267-9.956,9.956-9.956c5.689,0,9.956,4.267,9.956,9.956
		C159.289,228.978,155.022,233.244,149.333,233.244z"/>
	<path style="fill:#3F4448;" d="M277.333,203.378c-11.378,0-19.911,8.533-19.911,19.911c0,11.378,8.533,19.911,19.911,19.911
		c11.378,0,19.911-8.533,19.911-19.911C297.244,213.333,287.289,203.378,277.333,203.378z M277.333,233.244
		c-5.689,0-9.956-4.267-9.956-9.956c0-5.689,4.267-9.956,9.956-9.956s9.956,4.267,9.956,9.956
		C285.867,228.978,281.6,233.244,277.333,233.244z"/>
</g>
<g>
</g>
<g>
</g>
<g>
</g>
<g>
</g>
<g>
</g>
<g>
</g>
<g>
</g>
<g>
</g>
<g>
</g>
<g>
</g>
<g>
</g>
<g>
</g>
<g>
</g>
<g>
</g>
<g>
</g>
</svg>
