<?xml version="1.0" encoding="iso-8859-1"?>
<!-- Generator: Adobe Illustrator 19.0.0, SVG Export Plug-In . SVG Version: 6.00 Build 0)  -->
<svg version="1.1" id="Capa_1" xmlns="http://www.w3.org/2000/svg" xmlns:xlink="http://www.w3.org/1999/xlink" x="0px" y="0px"
	 viewBox="0 0 455.111 455.111" style="enable-background:new 0 0 455.111 455.111;" xml:space="preserve">
<path style="fill:#E24C4B;" d="M227.556,0C102.4,0,0,102.4,0,227.556s102.4,227.556,227.556,227.556s227.556-102.4,227.556-227.556
	S352.711,0,227.556,0z"/>
<path style="fill:#FFFFFF;" d="M42.667,227.556c0-102.4,82.489-184.889,184.889-184.889s184.889,82.489,184.889,184.889
	s-82.489,184.889-184.889,184.889S42.667,329.956,42.667,227.556z"/>
<g>
	<path style="fill:#3F4448;" d="M284.444,51.2c-17.067-5.689-36.978-8.533-56.889-8.533s-39.822,2.844-56.889,8.533L217.6,99.556
		c5.689,5.689,14.222,5.689,19.911,0L284.444,51.2z"/>
	<path style="fill:#3F4448;" d="M227.556,412.444c19.911,0,39.822-2.844,56.889-8.533l-46.933-48.356
		c-5.689-5.689-14.222-5.689-19.911,0l-46.933,48.356C187.733,409.6,207.644,412.444,227.556,412.444z"/>
	<path style="fill:#3F4448;" d="M192,337.067v-62.578h21.333l14.222,38.4l12.8-38.4h22.756v62.578h-14.222v-46.933l-14.222,46.933
		h-14.222l-14.222-46.933v46.933H192z"/>
	<path style="fill:#3F4448;" d="M129.422,199.111l21.333-2.844c2.844,18.489,19.911,21.333,28.444,11.378
		c9.956-9.956,4.267-32.711-11.378-32.711c-2.844,0-5.689,0-9.956,1.422l2.844-18.489c12.8,0,18.489-5.689,18.489-14.222
		c0-17.067-24.178-18.489-27.022,2.844l-19.911-2.844c4.267-18.489,14.222-29.867,35.556-29.867
		c32.711,0,48.356,36.978,17.067,54.044c24.178,5.689,28.444,35.556,11.378,54.044C174.933,241.778,133.689,234.667,129.422,199.111
		z"/>
	<path style="fill:#3F4448;" d="M214.756,207.644h22.756v15.644c0,7.111,0,11.378-1.422,15.644s-2.844,7.111-5.689,9.956
		c-2.844,2.844-7.111,5.689-11.378,7.111l-5.689-8.533c4.267-1.422,7.111-2.844,9.956-5.689c1.422-2.844,2.844-5.689,2.844-9.956
		h-11.378L214.756,207.644L214.756,207.644z"/>
	<path style="fill:#3F4448;" d="M247.467,200.533l22.756-2.844c1.422,15.644,18.489,21.333,28.444,9.956
		c5.689-7.111,7.111-25.6,0-32.711c-5.689-7.111-19.911-8.533-29.867,2.844l-18.489-2.844l11.378-59.733H320v21.333h-41.244
		l-4.267,19.911c35.556-17.067,66.844,27.022,42.667,59.733C298.667,241.778,251.733,237.511,247.467,200.533z"/>
</g>
<g>
</g>
<g>
</g>
<g>
</g>
<g>
</g>
<g>
</g>
<g>
</g>
<g>
</g>
<g>
</g>
<g>
</g>
<g>
</g>
<g>
</g>
<g>
</g>
<g>
</g>
<g>
</g>
<g>
</g>
</svg>
