<?xml version="1.0" encoding="iso-8859-1"?>
<!-- Generator: Adobe Illustrator 19.0.0, SVG Export Plug-In . SVG Version: 6.00 Build 0)  -->
<svg version="1.1" id="Capa_1" xmlns="http://www.w3.org/2000/svg" xmlns:xlink="http://www.w3.org/1999/xlink" x="0px" y="0px"
	 viewBox="0 0 455.111 455.111" style="enable-background:new 0 0 455.111 455.111;" xml:space="preserve">
<path style="fill:#E24C4B;" d="M227.556,0C102.4,0,0,102.4,0,227.556s102.4,227.556,227.556,227.556s227.556-102.4,227.556-227.556
	S352.711,0,227.556,0z"/>
<path style="fill:#FFFFFF;" d="M227.556,412.444c-102.4,0-184.889-82.489-184.889-184.889S125.156,42.667,227.556,42.667
	s184.889,82.489,184.889,184.889S329.956,412.444,227.556,412.444z"/>
<g>
	<path style="fill:#3F4448;" d="M219.022,273.067v24.178h-93.867c4.267-39.822,45.511-61.156,61.156-82.489
		c9.956-15.644,7.111-34.133-12.8-34.133c-12.8,0-18.489,8.533-18.489,21.333l-25.6-2.844c2.844-28.444,19.911-41.244,45.511-41.244
		c39.822,0,59.733,36.978,29.867,73.956c-9.956,11.378-32.711,28.444-38.4,39.822h52.622V273.067z"/>
	<path style="fill:#3F4448;" d="M237.511,184.889v-24.178h91.022v19.911c-24.178,24.178-46.933,76.8-46.933,118.044H256
		c1.422-38.4,17.067-81.067,41.244-112.356h-59.733V184.889z"/>
	<path style="fill:#3F4448;" d="M51.2,170.667c-5.689,17.067-8.533,36.978-8.533,56.889s2.844,39.822,8.533,56.889l48.356-46.933
		c5.689-5.689,5.689-14.222,0-19.911L51.2,170.667z"/>
	<path style="fill:#3F4448;" d="M412.444,227.556c0-19.911-2.844-39.822-8.533-56.889L355.556,217.6
		c-5.689,5.689-5.689,14.222,0,19.911l46.933,46.933C409.6,267.378,412.444,247.467,412.444,227.556z"/>
	<path style="fill:#3F4448;" d="M192,384v-62.578h21.333l14.222,38.4l12.8-38.4h22.756V384h-14.222v-46.933L234.667,384h-14.222
		l-14.222-46.933V384H192z"/>
</g>
<g>
</g>
<g>
</g>
<g>
</g>
<g>
</g>
<g>
</g>
<g>
</g>
<g>
</g>
<g>
</g>
<g>
</g>
<g>
</g>
<g>
</g>
<g>
</g>
<g>
</g>
<g>
</g>
<g>
</g>
</svg>
