<?xml version="1.0" encoding="iso-8859-1"?>
<!-- Generator: Adobe Illustrator 19.0.0, SVG Export Plug-In . SVG Version: 6.00 Build 0)  -->
<svg version="1.1" id="Capa_1" xmlns="http://www.w3.org/2000/svg" xmlns:xlink="http://www.w3.org/1999/xlink" x="0px" y="0px"
	 viewBox="0 0 455.111 455.111" style="enable-background:new 0 0 455.111 455.111;" xml:space="preserve">
<path style="fill:#E24C4B;" d="M227.556,0C102.4,0,0,102.4,0,227.556s102.4,227.556,227.556,227.556s227.556-102.4,227.556-227.556
	S352.711,0,227.556,0z"/>
<path style="fill:#FFFFFF;" d="M227.556,412.444c-102.4,0-184.889-82.489-184.889-184.889S125.156,42.667,227.556,42.667
	s184.889,82.489,184.889,184.889S329.956,412.444,227.556,412.444z"/>
<g>
	<path style="fill:#3F4448;" d="M322.844,244.622c-14.222,0-24.178,11.378-24.178,25.6v17.067h-45.511
		c-2.844-8.533-11.378-14.222-19.911-14.222c-9.956,0-17.067,5.689-19.911,14.222h-45.511v-17.067
		c0-12.8-11.378-24.178-24.178-24.178c-12.8,0-24.178,11.378-24.178,24.178v48.356c0,12.8,11.378,24.178,24.178,24.178
		c12.8,0,24.178-11.378,24.178-24.178v-17.067h45.511c2.844,8.533,11.378,14.222,19.911,14.222c9.956,0,17.067-5.689,19.911-14.222
		h45.511v17.067c0,12.8,11.378,24.178,24.178,24.178c12.8,0,24.178-11.378,24.178-24.178v-48.356
		C347.022,256,335.644,244.622,322.844,244.622z"/>
	<path style="fill:#3F4448;" d="M166.4,192l-22.756,2.844c5.689,45.511,78.222,41.244,78.222-8.533
		c0-31.289-27.022-46.933-49.778-35.556l2.844-19.911h41.244v-21.333h-58.311l-11.378,61.156l18.489,2.844
		c12.8-14.222,34.133-11.378,34.133,12.8C199.111,214.756,169.244,214.756,166.4,192z"/>
	<polygon style="fill:#3F4448;" points="248.889,224.711 261.689,224.711 261.689,172.089 280.178,172.089 280.178,160.711 
		228.978,160.711 228.978,172.089 248.889,172.089 	"/>
</g>
<g>
</g>
<g>
</g>
<g>
</g>
<g>
</g>
<g>
</g>
<g>
</g>
<g>
</g>
<g>
</g>
<g>
</g>
<g>
</g>
<g>
</g>
<g>
</g>
<g>
</g>
<g>
</g>
<g>
</g>
</svg>
