<?xml version="1.0" encoding="iso-8859-1"?>
<!-- Generator: Adobe Illustrator 19.0.0, SVG Export Plug-In . SVG Version: 6.00 Build 0)  -->
<svg version="1.1" id="Capa_1" xmlns="http://www.w3.org/2000/svg" xmlns:xlink="http://www.w3.org/1999/xlink" x="0px" y="0px"
	 viewBox="0 0 455.111 455.111" style="enable-background:new 0 0 455.111 455.111;" xml:space="preserve">
<path style="fill:#E24C4B;" d="M227.556,0C102.4,0,0,102.4,0,227.556s102.4,227.556,227.556,227.556s227.556-102.4,227.556-227.556
	S352.711,0,227.556,0z"/>
<path style="fill:#FFFFFF;" d="M227.556,412.444c-102.4,0-184.889-82.489-184.889-184.889S125.156,42.667,227.556,42.667
	s184.889,82.489,184.889,184.889S329.956,412.444,227.556,412.444z"/>
<g>
	<path style="fill:#3F4448;" d="M106.667,267.378l32.711-2.844c4.267,32.711,48.356,34.133,48.356-9.956
		c0-35.556-31.289-39.822-51.2-18.489l-27.022-4.267l17.067-88.178h86.756v29.867h-61.156l-5.689,28.444
		c32.711-15.644,73.956,4.267,73.956,51.2c0,31.289-21.333,59.733-58.311,59.733C129.422,314.311,109.511,295.822,106.667,267.378z"
		/>
	<path style="fill:#3F4448;" d="M292.978,140.8c44.089,0,55.467,42.667,55.467,86.756s-9.956,86.756-55.467,86.756
		c-46.933,0-55.467-42.667-55.467-86.756C237.511,182.044,248.889,140.8,292.978,140.8z M292.978,167.822
		c-21.333,0-21.333,36.978-21.333,59.733c0,19.911,1.422,34.133,2.844,41.244c7.111,25.6,29.867,24.178,35.556,1.422
		c2.844-8.533,2.844-22.756,2.844-42.667C314.311,201.956,314.311,167.822,292.978,167.822z"/>
</g>
<g>
</g>
<g>
</g>
<g>
</g>
<g>
</g>
<g>
</g>
<g>
</g>
<g>
</g>
<g>
</g>
<g>
</g>
<g>
</g>
<g>
</g>
<g>
</g>
<g>
</g>
<g>
</g>
<g>
</g>
</svg>
