<?xml version="1.0" encoding="iso-8859-1"?>
<!-- Generator: Adobe Illustrator 19.0.0, SVG Export Plug-In . SVG Version: 6.00 Build 0)  -->
<svg version="1.1" id="Capa_1" xmlns="http://www.w3.org/2000/svg" xmlns:xlink="http://www.w3.org/1999/xlink" x="0px" y="0px"
	 viewBox="0 0 455.111 455.111" style="enable-background:new 0 0 455.111 455.111;" xml:space="preserve">
<path style="fill:#E24C4B;" d="M227.556,0C102.4,0,0,102.4,0,227.556s102.4,227.556,227.556,227.556s227.556-102.4,227.556-227.556
	S352.711,0,227.556,0z"/>
<path style="fill:#FFFFFF;" d="M227.556,412.444c-102.4,0-184.889-82.489-184.889-184.889S125.156,42.667,227.556,42.667
	s184.889,82.489,184.889,184.889S329.956,412.444,227.556,412.444z"/>
<g>
	<path style="fill:#3F4448;" d="M233.244,155.022H56.889c-9.956,22.756-14.222,46.933-14.222,72.533
		c0,19.911,2.844,38.4,8.533,56.889h25.6c0-8.533,4.267-17.067,15.644-17.067s15.644,8.533,15.644,17.067h46.933
		c-1.422-8.533,4.267-18.489,15.644-18.489c11.378,0,17.067,9.956,15.644,18.489h93.867v-14.222h-46.933L233.244,155.022
		L233.244,155.022z"/>
	<path style="fill:#3F4448;" d="M92.444,254.578c-15.644,0-29.867,12.8-29.867,29.867s12.8,29.867,29.867,29.867
		c15.644,0,29.867-12.8,29.867-29.867S109.511,254.578,92.444,254.578z M92.444,297.244c-7.111,0-12.8-5.689-12.8-12.8
		s5.689-12.8,12.8-12.8c7.111,0,12.8,5.689,12.8,12.8C106.667,291.556,100.978,297.244,92.444,297.244z"/>
	<path style="fill:#3F4448;" d="M170.667,254.578c-15.644,0-29.867,12.8-29.867,29.867s12.8,29.867,29.867,29.867
		c15.644,0,29.867-12.8,29.867-29.867S186.311,254.578,170.667,254.578z M170.667,297.244c-7.111,0-12.8-5.689-12.8-12.8
		s5.689-12.8,12.8-12.8s12.8,5.689,12.8,12.8S177.778,297.244,170.667,297.244z"/>
	<path style="fill:#3F4448;" d="M295.822,270.222h-58.311v14.222h102.4c-1.422-8.533,4.267-18.489,15.644-18.489
		c11.378,0,17.067,9.956,15.644,18.489h32.711c5.689-18.489,8.533-36.978,8.533-56.889c0-25.6-5.689-49.778-14.222-72.533h-102.4
		V270.222z"/>
	<path style="fill:#3F4448;" d="M325.689,284.444c0,15.644,12.8,29.867,29.867,29.867c15.644,0,29.867-12.8,29.867-29.867
		s-12.8-29.867-29.867-29.867C339.911,254.578,325.689,268.8,325.689,284.444z M342.756,284.444c0-7.111,5.689-12.8,12.8-12.8
		c7.111,0,12.8,5.689,12.8,12.8s-5.689,12.8-12.8,12.8C348.444,297.244,342.756,291.556,342.756,284.444z"/>
</g>
<polygon style="fill:#E24C4B;" points="392.533,362.667 362.667,392.533 62.578,92.444 92.444,62.578 "/>
<g>
</g>
<g>
</g>
<g>
</g>
<g>
</g>
<g>
</g>
<g>
</g>
<g>
</g>
<g>
</g>
<g>
</g>
<g>
</g>
<g>
</g>
<g>
</g>
<g>
</g>
<g>
</g>
<g>
</g>
</svg>
