<?xml version="1.0" encoding="iso-8859-1"?>
<!-- Generator: Adobe Illustrator 19.0.0, SVG Export Plug-In . SVG Version: 6.00 Build 0)  -->
<svg version="1.1" id="Capa_1" xmlns="http://www.w3.org/2000/svg" xmlns:xlink="http://www.w3.org/1999/xlink" x="0px" y="0px"
	 viewBox="0 0 455.111 455.111" style="enable-background:new 0 0 455.111 455.111;" xml:space="preserve">
<path style="fill:#E24C4B;" d="M227.556,0C102.4,0,0,102.4,0,227.556s102.4,227.556,227.556,227.556s227.556-102.4,227.556-227.556
	S352.711,0,227.556,0z"/>
<path style="fill:#FFFFFF;" d="M227.556,412.444c-102.4,0-184.889-82.489-184.889-184.889S125.156,42.667,227.556,42.667
	s184.889,82.489,184.889,184.889S329.956,412.444,227.556,412.444z"/>
<path style="fill:#3F4448;" d="M347.022,221.867c-14.222,0-25.6,8.533-28.444,21.333h-22.756v-7.111
	c0-14.222-9.956-24.178-24.178-25.6c-42.667-1.422-145.067-8.533-189.156-39.822l-2.844-2.844v99.556l2.844-2.844
	c41.244-29.867,146.489-32.711,180.622-34.133c2.844,0,5.689,0,7.111,0c4.267,0,7.111,2.844,7.111,7.111v5.689h-99.556
	c-9.956,0-18.489,5.689-21.333,14.222c-2.844,7.111-1.422,14.222,2.844,19.911c4.267,5.689,11.378,9.956,18.489,9.956h93.867
	c12.8,0,22.756-9.956,22.756-22.756v-5.689h24.178c4.267,11.378,15.644,18.489,28.444,18.489c17.067,0,29.867-12.8,29.867-28.444
	C376.889,234.667,362.667,221.867,347.022,221.867z M172.089,264.533c0-2.844,2.844-5.689,5.689-5.689h99.556v5.689
	c0,2.844-2.844,5.689-5.689,5.689h-95.289C174.933,270.222,172.089,267.378,172.089,264.533z"/>
<polygon style="fill:#E24C4B;" points="392.533,362.667 362.667,392.533 62.578,92.444 92.444,62.578 "/>
<g>
</g>
<g>
</g>
<g>
</g>
<g>
</g>
<g>
</g>
<g>
</g>
<g>
</g>
<g>
</g>
<g>
</g>
<g>
</g>
<g>
</g>
<g>
</g>
<g>
</g>
<g>
</g>
<g>
</g>
</svg>
