<?xml version="1.0" encoding="iso-8859-1"?>
<!-- Generator: Adobe Illustrator 19.0.0, SVG Export Plug-In . SVG Version: 6.00 Build 0)  -->
<svg version="1.1" id="Capa_1" xmlns="http://www.w3.org/2000/svg" xmlns:xlink="http://www.w3.org/1999/xlink" x="0px" y="0px"
	 viewBox="0 0 455.111 455.111" style="enable-background:new 0 0 455.111 455.111;" xml:space="preserve">
<path style="fill:#E24C4B;" d="M227.556,0C102.4,0,0,102.4,0,227.556s102.4,227.556,227.556,227.556s227.556-102.4,227.556-227.556
	S352.711,0,227.556,0z"/>
<path style="fill:#FFFFFF;" d="M412.444,227.556c0-102.4-82.489-184.889-184.889-184.889S42.667,125.156,42.667,227.556
	s82.489,184.889,184.889,184.889S412.444,329.956,412.444,227.556z"/>
<g>
	<path style="fill:#3F4448;" d="M253.156,193.422c9.956-12.8,15.644-29.867,15.644-46.933V99.556h34.133v46.933
		c0,17.067,5.689,32.711,15.644,46.933c9.956,14.222,15.644,29.867,15.644,46.933v100.978c0,8.533-7.111,14.222-14.222,14.222h-64
		c-8.533,0-14.222-7.111-14.222-14.222V240.356C238.933,223.289,243.2,206.222,253.156,193.422L253.156,193.422z"/>
	<path style="fill:#3F4448;" d="M203.378,207.644c7.111,11.378,12.8,25.6,12.8,41.244c0,32.711-21.333,59.733-46.933,59.733
		s-46.933-27.022-46.933-59.733c0-15.644,4.267-29.867,12.8-41.244H203.378z"/>
	<rect x="162.133" y="285.867" style="fill:#3F4448;" width="14.222" height="64"/>
	<path style="fill:#3F4448;" d="M136.533,355.556h65.422c-2.844-8.533-17.067-14.222-32.711-14.222S140.8,347.022,136.533,355.556z"
		/>
</g>
<polygon style="fill:#E24C4B;" points="392.533,362.667 362.667,392.533 62.578,92.444 92.444,62.578 "/>
<g>
</g>
<g>
</g>
<g>
</g>
<g>
</g>
<g>
</g>
<g>
</g>
<g>
</g>
<g>
</g>
<g>
</g>
<g>
</g>
<g>
</g>
<g>
</g>
<g>
</g>
<g>
</g>
<g>
</g>
</svg>
