<?xml version="1.0" encoding="iso-8859-1"?>
<!-- Generator: Adobe Illustrator 19.0.0, SVG Export Plug-In . SVG Version: 6.00 Build 0)  -->
<svg version="1.1" id="Capa_1" xmlns="http://www.w3.org/2000/svg" xmlns:xlink="http://www.w3.org/1999/xlink" x="0px" y="0px"
	 viewBox="0 0 455.1 455.1" style="enable-background:new 0 0 455.1 455.1;" xml:space="preserve">
<path style="fill:#E24C4B;" d="M33.002,418.305h389.689c25.6,0,41.244-28.444,27.022-49.778L254.869,52.794
	c-12.8-21.333-42.667-21.333-55.467,0L4.558,368.528C-8.242,389.861,7.402,418.305,33.002,418.305z"/>
<polygon style="fill:#FFFFFF;" points="407.047,375.639 227.847,86.928 48.647,375.639 "/>
<path style="fill:#3F4448;" d="M279.047,229.15c-28.444-28.444-75.378-28.444-103.822,0s-28.444,75.378,0,103.822
	c14.222,14.222,32.711,21.333,51.2,21.333s36.978-7.111,51.2-21.333C308.913,303.105,308.913,257.594,279.047,229.15z
	 M263.402,244.794c17.067,17.067,18.489,42.667,7.111,61.156l-68.267-68.267c8.533-4.267,17.067-7.111,25.6-7.111
	C240.647,230.572,253.447,234.839,263.402,244.794z M192.291,315.905c-17.067-17.067-18.489-42.667-7.111-61.156l68.267,68.267
	C234.958,334.394,209.358,332.972,192.291,315.905z"/>
<g>
</g>
<g>
</g>
<g>
</g>
<g>
</g>
<g>
</g>
<g>
</g>
<g>
</g>
<g>
</g>
<g>
</g>
<g>
</g>
<g>
</g>
<g>
</g>
<g>
</g>
<g>
</g>
<g>
</g>
</svg>
