<?xml version="1.0" encoding="iso-8859-1"?>
<!-- Generator: Adobe Illustrator 19.0.0, SVG Export Plug-In . SVG Version: 6.00 Build 0)  -->
<svg version="1.1" id="Capa_1" xmlns="http://www.w3.org/2000/svg" xmlns:xlink="http://www.w3.org/1999/xlink" x="0px" y="0px"
	 viewBox="0 0 456.533 456.533" style="enable-background:new 0 0 456.533 456.533;" xml:space="preserve">
<path style="fill:#E24C4B;" d="M455.822,41.244v374.044c0,22.756-18.489,41.244-41.244,41.244H41.956
	C19.2,455.111,0.711,436.622,0.711,413.867V41.244C0.711,18.489,19.2,0,41.956,0H416C437.333,0,455.822,18.489,455.822,41.244z"/>
<rect x="43.378" y="42.667" style="fill:#FFFFFF;" width="369.778" height="369.778"/>
<g>
	<path style="fill:#3F4448;" d="M241.067,86.756v69.689c0,27.022-17.067,48.356-41.244,56.889l5.689,139.378
		c0,12.8-9.956,24.178-22.756,24.178l0,0c-12.8,0-24.178-11.378-22.756-24.178l5.689-139.378
		c-24.178-7.111-41.244-29.867-41.244-56.889V86.756c0-4.267,4.267-8.533,8.533-8.533c4.267,0,8.533,4.267,8.533,8.533v69.689
		h32.711V86.756c0-4.267,4.267-8.533,8.533-8.533c4.267,0,8.533,4.267,8.533,8.533v69.689H224V86.756
		c0-4.267,4.267-8.533,8.533-8.533C238.222,78.222,241.067,82.489,241.067,86.756z"/>
	<path style="fill:#3F4448;" d="M333.511,356.978c0,11.378-9.956,21.333-21.333,19.911c-9.956-1.422-17.067-11.378-17.067-21.333
		l4.267-108.089h-1.422c-7.111-1.422-12.8-8.533-12.8-17.067V192c0-58.311,34.133-112.356,34.133-112.356
		c1.422-4.267,8.533-2.844,8.533,1.422v166.4L333.511,356.978z"/>
</g>
<g>
</g>
<g>
</g>
<g>
</g>
<g>
</g>
<g>
</g>
<g>
</g>
<g>
</g>
<g>
</g>
<g>
</g>
<g>
</g>
<g>
</g>
<g>
</g>
<g>
</g>
<g>
</g>
<g>
</g>
</svg>
