<?xml version="1.0" encoding="iso-8859-1"?>
<!-- Generator: Adobe Illustrator 19.0.0, SVG Export Plug-In . SVG Version: 6.00 Build 0)  -->
<svg version="1.1" id="Capa_1" xmlns="http://www.w3.org/2000/svg" xmlns:xlink="http://www.w3.org/1999/xlink" x="0px" y="0px"
	 viewBox="0 0 456.533 456.533" style="enable-background:new 0 0 456.533 456.533;" xml:space="preserve">
<path style="fill:#E24C4B;" d="M0,41.956V416c0,21.333,18.489,39.822,41.244,39.822h374.044c22.756,0,41.244-18.489,41.244-41.244
	V41.956C455.111,19.2,436.622,0.711,413.867,0.711H41.244C18.489,0.711,0,19.2,0,41.956z"/>
<rect id="SVGCleanerId_0" x="42.667" y="43.378" style="fill:#FFFFFF;" width="369.778" height="369.778"/>
<g>
	<rect id="SVGCleanerId_0_1_" x="42.667" y="43.378" style="fill:#FFFFFF;" width="369.778" height="369.778"/>
</g>
<g>
	<rect x="42.667" y="377.6" style="fill:#3F4448;" width="369.778" height="35.556"/>
	<polygon style="fill:#3F4448;" points="388.267,266.667 349.867,266.667 349.867,377.6 297.244,377.6 297.244,329.244 
		257.422,329.244 257.422,377.6 204.8,377.6 204.8,266.667 166.4,266.667 277.333,154.311 	"/>
	<polygon style="fill:#3F4448;" points="110.933,352 110.933,380.444 126.578,380.444 126.578,352 153.6,352 135.111,323.556 
		153.6,323.556 135.111,295.111 153.6,295.111 118.044,242.489 82.489,295.111 100.978,295.111 82.489,323.556 100.978,323.556 
		82.489,352 	"/>
</g>
<g>
</g>
<g>
</g>
<g>
</g>
<g>
</g>
<g>
</g>
<g>
</g>
<g>
</g>
<g>
</g>
<g>
</g>
<g>
</g>
<g>
</g>
<g>
</g>
<g>
</g>
<g>
</g>
<g>
</g>
</svg>
