<?xml version="1.0" encoding="iso-8859-1"?>
<!-- Generator: Adobe Illustrator 19.0.0, SVG Export Plug-In . SVG Version: 6.00 Build 0)  -->
<svg version="1.1" id="Capa_1" xmlns="http://www.w3.org/2000/svg" xmlns:xlink="http://www.w3.org/1999/xlink" x="0px" y="0px"
	 viewBox="0 0 456.533 456.533" style="enable-background:new 0 0 456.533 456.533;" xml:space="preserve">
<path style="fill:#E24C4B;" d="M0,41.956V416c0,21.333,18.489,39.822,41.244,39.822h374.044c22.756,0,41.244-18.489,41.244-41.244
	V41.956C455.111,19.2,436.622,0.711,413.867,0.711H41.244C18.489,0.711,0,19.2,0,41.956z"/>
<rect id="SVGCleanerId_0" x="42.667" y="43.378" style="fill:#FFFFFF;" width="369.778" height="369.778"/>
<g>
	<rect id="SVGCleanerId_0_1_" x="42.667" y="43.378" style="fill:#FFFFFF;" width="369.778" height="369.778"/>
</g>
<g>
	<path style="fill:#3F4448;" d="M91.022,158.578h29.867v216.178h42.667V158.578h29.867c5.689,0,8.533-5.689,4.267-9.956
		l-51.2-65.422c-2.844-2.844-7.111-2.844-9.956,0l-51.2,65.422C82.489,152.889,85.333,158.578,91.022,158.578z"/>
	<path style="fill:#3F4448;" d="M371.2,359.111l-38.4,17.067l-64-145.067v-72.533h-29.867c-5.689,0-8.533-5.689-5.689-9.956
		l51.2-65.422c2.844-2.844,7.111-2.844,9.956,0l51.2,65.422c2.844,4.267,0,9.956-4.267,9.956h-29.867v62.578L371.2,359.111z"/>
</g>
<g>
</g>
<g>
</g>
<g>
</g>
<g>
</g>
<g>
</g>
<g>
</g>
<g>
</g>
<g>
</g>
<g>
</g>
<g>
</g>
<g>
</g>
<g>
</g>
<g>
</g>
<g>
</g>
<g>
</g>
</svg>
