<?xml version="1.0" encoding="iso-8859-1"?>
<!-- Generator: Adobe Illustrator 19.0.0, SVG Export Plug-In . SVG Version: 6.00 Build 0)  -->
<svg version="1.1" id="Capa_1" xmlns="http://www.w3.org/2000/svg" xmlns:xlink="http://www.w3.org/1999/xlink" x="0px" y="0px"
	 viewBox="0 0 456.533 456.533" style="enable-background:new 0 0 456.533 456.533;" xml:space="preserve">
<path style="fill:#E24C4B;" d="M0,41.956V416c0,21.333,18.489,39.822,41.244,39.822h374.044c22.756,0,41.244-18.489,41.244-41.244
	V41.956C455.111,19.2,436.622,0.711,413.867,0.711H41.244C18.489,0.711,0,19.2,0,41.956z"/>
<rect id="SVGCleanerId_0" x="42.667" y="43.378" style="fill:#FFFFFF;" width="369.778" height="369.778"/>
<g>
	<rect id="SVGCleanerId_0_1_" x="42.667" y="43.378" style="fill:#FFFFFF;" width="369.778" height="369.778"/>
</g>
<g>
	<path style="fill:#3F4448;" d="M261.689,158.578h29.867v216.178h42.667V158.578h29.867c5.689,0,8.533-5.689,4.267-9.956
		l-51.2-65.422c-2.844-2.844-7.111-2.844-9.956,0L256,148.622C253.156,152.889,256,158.578,261.689,158.578z"/>
	<path style="fill:#3F4448;" d="M91.022,158.578h29.867v61.156l180.622,123.733l24.178-35.556L163.556,195.556v-38.4h29.867
		c5.689,0,8.533-5.689,4.267-9.956l-51.2-65.422c-2.844-2.844-7.111-2.844-9.956,0l-51.2,66.844
		C82.489,152.889,85.333,158.578,91.022,158.578z"/>
	<rect x="220.444" y="171.378" style="fill:#3F4448;" width="15.644" height="31.289"/>
	<rect x="220.444" y="123.022" style="fill:#3F4448;" width="15.644" height="31.289"/>
	<rect x="220.444" y="76.089" style="fill:#3F4448;" width="15.644" height="31.289"/>
</g>
<g>
</g>
<g>
</g>
<g>
</g>
<g>
</g>
<g>
</g>
<g>
</g>
<g>
</g>
<g>
</g>
<g>
</g>
<g>
</g>
<g>
</g>
<g>
</g>
<g>
</g>
<g>
</g>
<g>
</g>
</svg>
