<?xml version="1.0" encoding="iso-8859-1"?>
<!-- Generator: Adobe Illustrator 19.0.0, SVG Export Plug-In . SVG Version: 6.00 Build 0)  -->
<svg version="1.1" id="Capa_1" xmlns="http://www.w3.org/2000/svg" xmlns:xlink="http://www.w3.org/1999/xlink" x="0px" y="0px"
	 viewBox="0 0 456.533 456.533" style="enable-background:new 0 0 456.533 456.533;" xml:space="preserve">
<path style="fill:#E24C4B;" d="M455.822,41.244v374.044c0,22.756-18.489,41.244-41.244,41.244H41.956
	C19.2,455.111,0.711,436.622,0.711,413.867V41.244C0.711,18.489,19.2,0,41.956,0H416C437.333,0,455.822,18.489,455.822,41.244z"/>
<rect id="SVGCleanerId_0" x="43.378" y="42.667" style="fill:#FFFFFF;" width="369.778" height="369.778"/>
<g>
	<rect id="SVGCleanerId_0_1_" x="43.378" y="42.667" style="fill:#FFFFFF;" width="369.778" height="369.778"/>
</g>
<g>
	<path style="fill:#3F4448;" d="M370.489,147.911l-51.2-65.422c-2.844-2.844-7.111-2.844-9.956,0l-52.622,65.422
		c-2.844,4.267,0,9.956,4.267,9.956h29.867v52.622l-128,88.178v-32.711c15.644-8.533,27.022-24.178,27.022-42.667
		s-11.378-35.556-27.022-42.667v-19.911h29.867c5.689,0,8.533-5.689,4.267-9.956l-51.2-65.422c-2.844-2.844-7.111-2.844-9.956,0
		l-49.778,62.578c-2.844,4.267,0,9.956,4.267,9.956h29.867v19.911c-15.644,8.533-27.022,24.178-27.022,42.667
		c0,18.489,11.378,35.556,27.022,42.667v109.511h42.667v-24.178L333.511,230.4v-73.956h29.867
		C370.489,157.867,373.333,152.178,370.489,147.911z M108.8,221.867c0-18.489,15.644-34.133,34.133-34.133
		s34.133,15.644,34.133,34.133S161.422,256,142.933,256S108.8,240.356,108.8,221.867z"/>
	<rect x="221.156" y="170.667" style="fill:#3F4448;" width="15.644" height="31.289"/>
	<rect x="221.156" y="122.311" style="fill:#3F4448;" width="15.644" height="31.289"/>
	<rect x="221.156" y="75.378" style="fill:#3F4448;" width="15.644" height="31.289"/>
	<path style="fill:#3F4448;" d="M138.667,204.8h-5.689l-14.222,21.333v5.689h12.8v7.111h5.689v-7.111h5.689v-5.689h-4.267V204.8z
		 M132.978,226.133h-7.111l7.111-11.378V226.133z"/>
	<path style="fill:#3F4448;" d="M155.733,238.933c8.533,0,11.378-8.533,11.378-17.067c0-8.533-1.422-17.067-11.378-17.067
		c-8.533,0-11.378,8.533-11.378,17.067C145.778,230.4,147.2,238.933,155.733,238.933z M155.733,210.489
		c4.267,0,4.267,7.111,4.267,11.378c0,4.267,0,11.378-4.267,11.378c-4.267,0-4.267-7.111-4.267-11.378
		C151.467,217.6,151.467,210.489,155.733,210.489z"/>
</g>
<g>
</g>
<g>
</g>
<g>
</g>
<g>
</g>
<g>
</g>
<g>
</g>
<g>
</g>
<g>
</g>
<g>
</g>
<g>
</g>
<g>
</g>
<g>
</g>
<g>
</g>
<g>
</g>
<g>
</g>
</svg>
