<?xml version="1.0" encoding="iso-8859-1"?>
<!-- Generator: Adobe Illustrator 19.0.0, SVG Export Plug-In . SVG Version: 6.00 Build 0)  -->
<svg version="1.1" id="Capa_1" xmlns="http://www.w3.org/2000/svg" xmlns:xlink="http://www.w3.org/1999/xlink" x="0px" y="0px"
	 viewBox="0 0 456.533 456.533" style="enable-background:new 0 0 456.533 456.533;" xml:space="preserve">
<path style="fill:#E24C4B;" d="M455.822,41.244v374.044c0,22.756-18.489,41.244-41.244,41.244H41.956
	C19.2,455.111,0.711,436.622,0.711,413.867V41.244C0.711,18.489,19.2,0,41.956,0H416C437.333,0,455.822,18.489,455.822,41.244z"/>
<rect id="SVGCleanerId_0" x="43.378" y="42.667" style="fill:#FFFFFF;" width="369.778" height="369.778"/>
<g>
	<rect id="SVGCleanerId_0_1_" x="43.378" y="42.667" style="fill:#FFFFFF;" width="369.778" height="369.778"/>
</g>
<g>
	<path style="fill:#3F4448;" d="M194.133,157.867h-29.867v216.178H121.6V157.867H91.733c-4.267,0-8.533-5.689-4.267-9.956
		l51.2-65.422c2.844-2.844,7.111-2.844,9.956,0l51.2,65.422C202.667,152.178,199.822,157.867,194.133,157.867z"/>
	<path style="fill:#3F4448;" d="M364.8,157.867h-29.867v73.956L154.311,355.556L130.133,320l162.133-110.933v-52.622H262.4
		c-5.689,0-8.533-5.689-4.267-9.956l51.2-65.422c2.844-2.844,7.111-2.844,9.956,0l51.2,65.422
		C373.333,152.178,370.489,157.867,364.8,157.867z"/>
	<rect x="221.156" y="170.667" style="fill:#3F4448;" width="15.644" height="31.289"/>
	<rect x="221.156" y="122.311" style="fill:#3F4448;" width="15.644" height="31.289"/>
	<rect x="221.156" y="75.378" style="fill:#3F4448;" width="15.644" height="31.289"/>
</g>
<g>
</g>
<g>
</g>
<g>
</g>
<g>
</g>
<g>
</g>
<g>
</g>
<g>
</g>
<g>
</g>
<g>
</g>
<g>
</g>
<g>
</g>
<g>
</g>
<g>
</g>
<g>
</g>
<g>
</g>
</svg>
