<?xml version="1.0" encoding="iso-8859-1"?>
<!-- Generator: Adobe Illustrator 19.0.0, SVG Export Plug-In . SVG Version: 6.00 Build 0)  -->
<svg version="1.1" id="Capa_1" xmlns="http://www.w3.org/2000/svg" xmlns:xlink="http://www.w3.org/1999/xlink" x="0px" y="0px"
	 viewBox="0 0 456.533 456.533" style="enable-background:new 0 0 456.533 456.533;" xml:space="preserve">
<path style="fill:#E24C4B;" d="M455.822,41.244v374.044c0,22.756-18.489,41.244-41.244,41.244H41.956
	C19.2,455.111,0.711,436.622,0.711,413.867V41.244C0.711,18.489,19.2,0,41.956,0H416C437.333,0,455.822,18.489,455.822,41.244z"/>
<rect id="SVGCleanerId_0" x="43.378" y="42.667" style="fill:#FFFFFF;" width="369.778" height="369.778"/>
<g>
	<rect id="SVGCleanerId_0_1_" x="43.378" y="42.667" style="fill:#FFFFFF;" width="369.778" height="369.778"/>
</g>
<path style="fill:#3F4448;" d="M199.822,365.511h56.889V209.067h32.711c7.111,0,9.956-7.111,7.111-12.8l-61.156-102.4
	c-2.844-5.689-11.378-5.689-14.222,0L160,196.267c-2.844,5.689,0,12.8,7.111,12.8h32.711V365.511z"/>
<path style="fill:#E24C4B;" d="M444.444,443.733c-9.956,9.956-24.178,9.956-34.133,0L12.089,45.511
	c-9.956-9.956-9.956-24.178,0-34.133c5.689-4.267,11.378-7.111,17.067-7.111s12.8,2.844,17.067,7.111L444.444,409.6
	C452.978,418.133,452.978,433.778,444.444,443.733z"/>
<g>
</g>
<g>
</g>
<g>
</g>
<g>
</g>
<g>
</g>
<g>
</g>
<g>
</g>
<g>
</g>
<g>
</g>
<g>
</g>
<g>
</g>
<g>
</g>
<g>
</g>
<g>
</g>
<g>
</g>
</svg>
