<?xml version="1.0" encoding="iso-8859-1"?>
<!-- Generator: Adobe Illustrator 19.0.0, SVG Export Plug-In . SVG Version: 6.00 Build 0)  -->
<svg version="1.1" id="Capa_1" xmlns="http://www.w3.org/2000/svg" xmlns:xlink="http://www.w3.org/1999/xlink" x="0px" y="0px"
	 viewBox="0 0 456.533 456.533" style="enable-background:new 0 0 456.533 456.533;" xml:space="preserve">
<path style="fill:#E24C4B;" d="M455.822,41.244v374.044c0,22.756-18.489,41.244-41.244,41.244H41.956
	C19.2,455.111,0.711,436.622,0.711,413.867V41.244C0.711,18.489,19.2,0,41.956,0H416C437.333,0,455.822,18.489,455.822,41.244z"/>
<rect id="SVGCleanerId_0" x="43.378" y="42.667" style="fill:#FFFFFF;" width="369.778" height="369.778"/>
<g>
	<rect id="SVGCleanerId_0_1_" x="43.378" y="42.667" style="fill:#FFFFFF;" width="369.778" height="369.778"/>
</g>
<rect x="77.511" y="217.6" style="fill:#E24C4B;" width="301.511" height="21.333"/>
<g>
	<path style="fill:#3F4448;" d="M174.222,275.911c-1.422-2.844-4.267-5.689-7.111-5.689H43.378V281.6h12.8v52.622h-12.8v55.467
		h66.844c0-18.489,14.222-32.711,32.711-32.711s32.711,14.222,32.711,32.711h15.644v-51.2c0-1.422,0-1.422,0-2.844L174.222,275.911z
		 M111.644,334.222H66.133V281.6h45.511V334.222z M123.022,334.222V281.6h42.667l14.222,52.622H123.022z"/>
	<path style="fill:#3F4448;" d="M142.933,366.933c-11.378,0-21.333,9.956-21.333,21.333s9.956,21.333,21.333,21.333
		c11.378,0,21.333-9.956,21.333-21.333S154.311,366.933,142.933,366.933z M142.933,399.644c-5.689,0-9.956-4.267-9.956-9.956
		c0-5.689,4.267-9.956,9.956-9.956c5.689,0,9.956,4.267,9.956,9.956S148.622,399.644,142.933,399.644z"/>
	<path style="fill:#3F4448;" d="M376.178,108.089v42.667H165.689v17.067c0,5.689-5.689,9.956-11.378,5.689l-62.578-38.4
		c-4.267-2.844-4.267-9.956,0-12.8l62.578-36.978c4.267-2.844,11.378,0,11.378,5.689v17.067L376.178,108.089L376.178,108.089z"/>
	<path style="fill:#3F4448;" d="M364.8,318.578c4.267,2.844,4.267,9.956,0,12.8l-62.578,38.4c-5.689,2.844-11.378,0-11.378-5.689
		v-17.067h-59.733v-42.667h59.733v-17.067c0-5.689,5.689-9.956,11.378-5.689L364.8,318.578z"/>
</g>
<g>
</g>
<g>
</g>
<g>
</g>
<g>
</g>
<g>
</g>
<g>
</g>
<g>
</g>
<g>
</g>
<g>
</g>
<g>
</g>
<g>
</g>
<g>
</g>
<g>
</g>
<g>
</g>
<g>
</g>
</svg>
