<?xml version="1.0" encoding="iso-8859-1"?>
<!-- Generator: Adobe Illustrator 19.0.0, SVG Export Plug-In . SVG Version: 6.00 Build 0)  -->
<svg version="1.1" id="Capa_1" xmlns="http://www.w3.org/2000/svg" xmlns:xlink="http://www.w3.org/1999/xlink" x="0px" y="0px"
	 viewBox="0 0 455.1 455.1" style="enable-background:new 0 0 455.1 455.1;" xml:space="preserve">
<path style="fill:#E24C4B;" d="M422.098,418.305H32.409c-25.6,0-41.244-28.444-27.022-49.778L200.231,52.794
	c12.8-21.333,42.667-21.333,55.467,0l194.844,315.733C463.342,389.861,447.697,418.305,422.098,418.305z"/>
<polygon style="fill:#FFFFFF;" points="406.453,375.639 227.253,86.928 48.053,375.639 "/>
<path style="fill:#3F4448;" d="M134.809,375.639v-92.444c0-27.022,22.756-49.778,49.778-49.778s49.778,22.756,49.778,49.778v11.378
	c0,7.111,5.689,14.222,14.222,14.222c7.111,0,12.8-5.689,12.8-14.222v-79.644h35.556v79.644c0,27.022-22.756,49.778-49.778,49.778
	s-49.778-21.333-49.778-49.778v-11.378c0-7.111-5.689-12.8-14.222-12.8c-7.111,0-12.8,5.689-12.8,12.8v92.444H134.809z"/>
<g>
</g>
<g>
</g>
<g>
</g>
<g>
</g>
<g>
</g>
<g>
</g>
<g>
</g>
<g>
</g>
<g>
</g>
<g>
</g>
<g>
</g>
<g>
</g>
<g>
</g>
<g>
</g>
<g>
</g>
</svg>
