<?xml version="1.0" encoding="iso-8859-1"?>
<!-- Generator: Adobe Illustrator 19.0.0, SVG Export Plug-In . SVG Version: 6.00 Build 0)  -->
<svg version="1.1" id="Capa_1" xmlns="http://www.w3.org/2000/svg" xmlns:xlink="http://www.w3.org/1999/xlink" x="0px" y="0px"
	 viewBox="0 0 455.111 455.111" style="enable-background:new 0 0 455.111 455.111;" xml:space="preserve">
<path style="fill:#E24C4B;" d="M0,227.556c0,125.156,102.4,227.556,227.556,227.556s227.556-102.4,227.556-227.556
	S352.711,0,227.556,0S0,102.4,0,227.556z"/>
<path style="fill:#FFFFFF;" d="M42.667,227.556c0-102.4,82.489-184.889,184.889-184.889s184.889,82.489,184.889,184.889
	s-82.489,184.889-184.889,184.889S42.667,329.956,42.667,227.556z"/>
<path style="fill:#3F4448;" d="M75.378,157.867l88.178-58.311c7.111-4.267,15.644,0,15.644,8.533v36.978h115.2
	c11.378,0,21.333,9.956,21.333,21.333v224.711c-12.8,7.111-27.022,12.8-42.667,15.644V187.733H179.2v36.978
	c0,8.533-8.533,12.8-15.644,8.533l-88.178-58.311C69.689,170.667,69.689,162.133,75.378,157.867z"/>
<rect x="206.683" y="28.717" transform="matrix(0.7071 0.7071 -0.7071 0.7071 227.379 -94.7109)" style="fill:#E24C4B;" width="42.666" height="396.796"/>
<g>
</g>
<g>
</g>
<g>
</g>
<g>
</g>
<g>
</g>
<g>
</g>
<g>
</g>
<g>
</g>
<g>
</g>
<g>
</g>
<g>
</g>
<g>
</g>
<g>
</g>
<g>
</g>
<g>
</g>
</svg>
