<?xml version="1.0" encoding="iso-8859-1"?>
<!-- Generator: Adobe Illustrator 19.0.0, SVG Export Plug-In . SVG Version: 6.00 Build 0)  -->
<svg version="1.1" id="Capa_1" xmlns="http://www.w3.org/2000/svg" xmlns:xlink="http://www.w3.org/1999/xlink" x="0px" y="0px"
	 viewBox="0 0 455.111 455.111" style="enable-background:new 0 0 455.111 455.111;" xml:space="preserve">
<path style="fill:#E24C4B;" d="M227.556,0C102.4,0,0,102.4,0,227.556s102.4,227.556,227.556,227.556s227.556-102.4,227.556-227.556
	S352.711,0,227.556,0z"/>
<path style="fill:#FFFFFF;" d="M227.556,412.444c-102.4,0-184.889-82.489-184.889-184.889S125.156,42.667,227.556,42.667
	s184.889,82.489,184.889,184.889S329.956,412.444,227.556,412.444z"/>
<path style="fill:#3F4448;" d="M379.733,157.867l-88.178-58.311c-7.111-4.267-15.644,0-15.644,8.533v36.978h-115.2
	c-11.378,0-21.333,9.956-21.333,21.333v224.711c12.8,7.111,27.022,12.8,42.667,15.644V187.733h93.867v36.978
	c0,8.533,8.533,12.8,15.644,8.533l88.178-58.311C385.422,170.667,385.422,162.133,379.733,157.867z"/>
<rect x="206.72" y="29.66" transform="matrix(-0.7071 0.7071 -0.7071 -0.7071 550.5719 228.0624)" style="fill:#E24C4B;" width="42.666" height="396.796"/>
<g>
</g>
<g>
</g>
<g>
</g>
<g>
</g>
<g>
</g>
<g>
</g>
<g>
</g>
<g>
</g>
<g>
</g>
<g>
</g>
<g>
</g>
<g>
</g>
<g>
</g>
<g>
</g>
<g>
</g>
</svg>
