<?xml version="1.0" encoding="iso-8859-1"?>
<!-- Generator: Adobe Illustrator 19.0.0, SVG Export Plug-In . SVG Version: 6.00 Build 0)  -->
<svg version="1.1" id="Capa_1" xmlns="http://www.w3.org/2000/svg" xmlns:xlink="http://www.w3.org/1999/xlink" x="0px" y="0px"
	 viewBox="0 0 455.111 455.111" style="enable-background:new 0 0 455.111 455.111;" xml:space="preserve">
<path style="fill:#E24C4B;" d="M227.556,0C102.4,0,0,102.4,0,227.556s102.4,227.556,227.556,227.556s227.556-102.4,227.556-227.556
	S352.711,0,227.556,0z"/>
<path style="fill:#FFFFFF;" d="M227.556,412.444c-102.4,0-184.889-82.489-184.889-184.889S125.156,42.667,227.556,42.667
	s184.889,82.489,184.889,184.889S329.956,412.444,227.556,412.444z"/>
<g>
	<path style="fill:#3F4448;" d="M190.578,283.022l-19.911,72.533c-1.422,7.111,2.844,14.222,9.956,15.644
		c7.111,1.422,14.222-2.844,15.644-9.956l15.644-59.733C203.378,295.822,196.267,292.978,190.578,283.022z"/>
	<circle style="fill:#3F4448;" cx="231.822" cy="113.778" r="29.867"/>
	<path style="fill:#3F4448;" d="M297.244,210.489l-21.333-5.689c-31.289-39.822-35.556-52.622-52.622-54.044
		c-15.644,0-18.489,7.111-62.578,46.933c-1.422,1.422-2.844,4.267-4.267,7.111l-7.111,44.089
		c-2.844,17.067,22.756,21.333,25.6,4.267l7.111-39.822l14.222-12.8v49.778c0,27.022,21.333,35.556,48.356,51.2l17.067,59.733
		c1.422,7.111,9.956,11.378,15.644,8.533c7.111-1.422,11.378-8.533,8.533-15.644l-18.489-62.578
		c-1.422-2.844-2.844-5.689-4.267-7.111L243.2,270.222l2.844-59.733l11.378,14.222c1.422,2.844,4.267,4.267,7.111,4.267
		c2.844,0,27.022,7.111,29.867,7.111c5.689,0,11.378-4.267,12.8-9.956C308.622,219.022,304.356,211.911,297.244,210.489z"/>
</g>
<g>
</g>
<g>
</g>
<g>
</g>
<g>
</g>
<g>
</g>
<g>
</g>
<g>
</g>
<g>
</g>
<g>
</g>
<g>
</g>
<g>
</g>
<g>
</g>
<g>
</g>
<g>
</g>
<g>
</g>
</svg>
