<?xml version="1.0" encoding="iso-8859-1"?>
<!-- Generator: Adobe Illustrator 19.0.0, SVG Export Plug-In . SVG Version: 6.00 Build 0)  -->
<svg version="1.1" id="Capa_1" xmlns="http://www.w3.org/2000/svg" xmlns:xlink="http://www.w3.org/1999/xlink" x="0px" y="0px"
	 viewBox="0 0 455.111 455.111" style="enable-background:new 0 0 455.111 455.111;" xml:space="preserve">
<path style="fill:#E24C4B;" d="M227.556,0C102.4,0,0,102.4,0,227.556s102.4,227.556,227.556,227.556s227.556-102.4,227.556-227.556
	S352.711,0,227.556,0z"/>
<path style="fill:#FFFFFF;" d="M227.556,412.444c-102.4,0-184.889-82.489-184.889-184.889S125.156,42.667,227.556,42.667
	s184.889,82.489,184.889,184.889S329.956,412.444,227.556,412.444z"/>
<path style="fill:#3F4448;" d="M317.156,206.222c-8.533,0-15.644,2.844-22.756,5.689l-24.178-35.556v-14.222h14.222
	c4.267,0,7.111-2.844,7.111-7.111c0-4.267-2.844-7.111-7.111-7.111h-42.667c-4.267,0-7.111,2.844-7.111,7.111
	c0,4.267,2.844,7.111,7.111,7.111h12.8v9.956h-85.333l5.689-21.333h21.333c4.267,0,7.111-2.844,7.111-7.111
	c0-4.267-2.844-7.111-7.111-7.111h-25.6c-2.844,0-5.689,1.422-7.111,5.689l-18.489,65.422c-32.711-4.267-58.311,21.333-58.311,51.2
	c0,28.444,22.756,51.2,51.2,51.2s51.2-22.756,51.2-51.2c0-21.333-12.8-38.4-31.289-46.933l5.689-18.489
	c65.422,73.956,62.578,71.111,62.578,71.111c1.422,1.422,2.844,2.844,5.689,2.844h34.133c2.844,25.6,24.178,44.089,51.2,44.089
	c28.444,0,51.2-22.756,51.2-51.2C368.356,230.4,345.6,206.222,317.156,206.222z M174.933,258.844
	c0,19.911-17.067,36.978-36.978,36.978s-36.978-17.067-36.978-36.978c0-21.333,17.067-38.4,39.822-36.978L130.844,256
	c-1.422,4.267,1.422,7.111,4.267,8.533c4.267,1.422,7.111-1.422,8.533-4.267l9.956-35.556
	C166.4,231.822,174.933,243.2,174.933,258.844z M302.933,251.733h-22.756c1.422-7.111,4.267-14.222,9.956-18.489L302.933,251.733z
	 M265.956,251.733h-24.178l21.333-56.889l18.489,25.6C273.067,228.978,267.378,238.933,265.956,251.733z M251.733,186.311
	l-22.756,58.311l-51.2-58.311H251.733z M317.156,295.822c-18.489,0-32.711-12.8-36.978-29.867h36.978
	c5.689,0,8.533-7.111,5.689-11.378l-21.333-29.867c4.267-1.422,9.956-2.844,15.644-2.844c19.911,0,36.978,17.067,36.978,36.978
	C354.133,278.756,337.067,295.822,317.156,295.822z"/>
<g>
</g>
<g>
</g>
<g>
</g>
<g>
</g>
<g>
</g>
<g>
</g>
<g>
</g>
<g>
</g>
<g>
</g>
<g>
</g>
<g>
</g>
<g>
</g>
<g>
</g>
<g>
</g>
<g>
</g>
</svg>
