<?xml version="1.0" encoding="iso-8859-1"?>
<!-- Generator: Adobe Illustrator 19.0.0, SVG Export Plug-In . SVG Version: 6.00 Build 0)  -->
<svg version="1.1" id="Capa_1" xmlns="http://www.w3.org/2000/svg" xmlns:xlink="http://www.w3.org/1999/xlink" x="0px" y="0px"
	 viewBox="0 0 455.111 455.111" style="enable-background:new 0 0 455.111 455.111;" xml:space="preserve">
<path style="fill:#E24C4B;" d="M227.556,0C102.4,0,0,102.4,0,227.556s102.4,227.556,227.556,227.556s227.556-102.4,227.556-227.556
	S352.711,0,227.556,0z"/>
<path style="fill:#FFFFFF;" d="M227.556,412.444c-102.4,0-184.889-82.489-184.889-184.889S125.156,42.667,227.556,42.667
	s184.889,82.489,184.889,184.889S329.956,412.444,227.556,412.444z"/>
<path style="fill:#3F4448;" d="M322.844,210.489c-7.111,0-14.222,1.422-19.911,4.267l-14.222-18.489
	c1.422-1.422,2.844-2.844,4.267-4.267l22.756,8.533c2.844,1.422,5.689-1.422,7.111-4.267l4.267-27.022
	c0-2.844-1.422-5.689-5.689-5.689h-17.067v-7.111c0-4.267-2.844-7.111-7.111-7.111h-46.933c-4.267,0-7.111,2.844-7.111,7.111
	c0,4.267,2.844,7.111,7.111,7.111h38.4v9.956c-24.178,21.333-39.822,42.667-41.244,75.378h-24.178
	c-2.844-24.178-14.222-41.244-28.444-54.044h9.956c4.267,0,8.533-4.267,8.533-8.533c0-4.267-4.267-8.533-8.533-8.533
	c0-15.644-91.022-15.644-91.022,0c-4.267,0-8.533,4.267-8.533,8.533c0,4.267,4.267,8.533,8.533,8.533h15.644
	c31.289,0,55.467,24.178,58.311,54.044h-12.8c-4.267-22.756-22.756-39.822-46.933-39.822c-25.6,0-46.933,21.333-46.933,46.933
	S102.4,302.933,128,302.933c22.756,0,42.667-17.067,46.933-39.822h12.8l0,0c15.644,0,24.178,0,28.444,0h38.4
	c2.844,0,4.267-1.422,5.689-2.844c1.422-1.422,2.844-4.267,1.422-5.689c-1.422-18.489,2.844-34.133,14.222-49.778l11.378,15.644
	c-8.533,8.533-14.222,19.911-14.222,34.133c0,25.6,21.333,46.933,46.933,46.933s46.933-21.333,46.933-46.933
	C369.778,231.822,348.444,210.489,322.844,210.489z M132.267,290.133c-17.067,0-31.289-14.222-31.289-31.289
	s14.222-31.289,31.289-31.289c14.222,0,27.022,9.956,29.867,24.178h-17.067c-2.844-4.267-7.111-7.111-12.8-7.111
	c-8.533,0-15.644,7.111-15.644,15.644c0,8.533,7.111,15.644,15.644,15.644c5.689,0,9.956-2.844,12.8-7.111h17.067
	C159.289,280.178,146.489,290.133,132.267,290.133z M322.844,290.133c-17.067,0-31.289-14.222-31.289-31.289
	c0-8.533,2.844-15.644,8.533-21.333l9.956,14.222c-1.422,2.844-1.422,4.267-1.422,7.111c0,8.533,7.111,15.644,15.644,15.644
	c8.533,0,15.644-7.111,15.644-15.644c0-8.533-7.111-15.644-15.644-15.644l-9.956-14.222c2.844-1.422,7.111-1.422,9.956-1.422
	c17.067,0,31.289,14.222,31.289,31.289C354.133,275.911,339.911,290.133,322.844,290.133z"/>
<g>
</g>
<g>
</g>
<g>
</g>
<g>
</g>
<g>
</g>
<g>
</g>
<g>
</g>
<g>
</g>
<g>
</g>
<g>
</g>
<g>
</g>
<g>
</g>
<g>
</g>
<g>
</g>
<g>
</g>
</svg>
