<?xml version="1.0" encoding="iso-8859-1"?>
<!-- Generator: Adobe Illustrator 19.0.0, SVG Export Plug-In . SVG Version: 6.00 Build 0)  -->
<svg version="1.1" id="Capa_1" xmlns="http://www.w3.org/2000/svg" xmlns:xlink="http://www.w3.org/1999/xlink" x="0px" y="0px"
	 viewBox="0 0 455.111 455.111" style="enable-background:new 0 0 455.111 455.111;" xml:space="preserve">
<path style="fill:#E24C4B;" d="M227.556,0C102.4,0,0,102.4,0,227.556s102.4,227.556,227.556,227.556s227.556-102.4,227.556-227.556
	S352.711,0,227.556,0z"/>
<path style="fill:#FFFFFF;" d="M227.556,412.444c-102.4,0-184.889-82.489-184.889-184.889S125.156,42.667,227.556,42.667
	s184.889,82.489,184.889,184.889S329.956,412.444,227.556,412.444z"/>
<path style="fill:#3F4448;" d="M322.844,211.911c-4.267,0-8.533,1.422-12.8,1.422L300.089,192c4.267,1.422,8.533,2.844,12.8,1.422
	l-8.533-38.4c-7.111,1.422-12.8,7.111-14.222,14.222l-7.111-17.067c-1.422-2.844-4.267-4.267-7.111-4.267l-34.133,4.267
	c-4.267,0-7.111,4.267-7.111,8.533c0,4.267,4.267,7.111,8.533,7.111l28.444-2.844l8.533,19.911
	c-38.4-21.333-79.644,9.956-79.644,11.378c-24.178,1.422-39.822-9.956-65.422-8.533c-32.711,2.844-25.6,9.956-2.844,9.956
	c19.911,0,36.978,8.533,48.356,22.756l-12.8,7.111c-8.533-9.956-21.333-15.644-35.556-15.644c-25.6,0-46.933,21.333-46.933,46.933
	c0,25.6,21.333,46.933,46.933,46.933s46.933-21.333,46.933-46.933c0-7.111-1.422-12.8-4.267-18.489l12.8-8.533
	c4.267,8.533,5.689,17.067,5.689,27.022c0,4.267,0,8.533-1.422,11.378c0,2.844,1.422,7.111,5.689,7.111H256
	c2.844,0,5.689-2.844,5.689-7.111c-1.422-4.267-1.422-7.111-1.422-11.378c0-22.756,12.8-42.667,29.867-52.622l5.689,14.222
	c-12.8,8.533-21.333,22.756-21.333,39.822c0,25.6,21.333,46.933,46.933,46.933c25.6,0,46.933-21.333,46.933-46.933
	C369.778,233.244,348.444,211.911,322.844,211.911z M164.978,258.844c0,17.067-14.222,32.711-32.711,32.711
	c-17.067,0-32.711-14.222-32.711-32.711c0-17.067,14.222-32.711,32.711-32.711c8.533,0,17.067,2.844,22.756,8.533L140.8,243.2
	c-2.844-1.422-5.689-2.844-8.533-2.844c-9.956,0-17.067,7.111-17.067,17.067c0,9.956,7.111,17.067,17.067,17.067
	s17.067-7.111,17.067-17.067V256l14.222-8.533C163.556,251.733,164.978,256,164.978,258.844z M322.844,291.556
	c-17.067,0-32.711-14.222-32.711-32.711c0-9.956,4.267-19.911,12.8-25.6l7.111,15.644c-2.844,2.844-4.267,5.689-4.267,9.956
	c0,9.956,7.111,17.067,17.067,17.067s17.067-7.111,17.067-17.067c0-8.533-7.111-15.644-15.644-17.067l-7.111-14.222
	c1.422,0,4.267,0,5.689,0c17.067,0,32.711,14.222,32.711,32.711C354.133,277.333,339.911,291.556,322.844,291.556z"/>
<g>
</g>
<g>
</g>
<g>
</g>
<g>
</g>
<g>
</g>
<g>
</g>
<g>
</g>
<g>
</g>
<g>
</g>
<g>
</g>
<g>
</g>
<g>
</g>
<g>
</g>
<g>
</g>
<g>
</g>
</svg>
