<?xml version="1.0" encoding="iso-8859-1"?>
<!-- Generator: Adobe Illustrator 19.0.0, SVG Export Plug-In . SVG Version: 6.00 Build 0)  -->
<svg version="1.1" id="Capa_1" xmlns="http://www.w3.org/2000/svg" xmlns:xlink="http://www.w3.org/1999/xlink" x="0px" y="0px"
	 viewBox="0 0 455.111 455.111" style="enable-background:new 0 0 455.111 455.111;" xml:space="preserve">
<path style="fill:#E24C4B;" d="M227.556,0C102.4,0,0,102.4,0,227.556s102.4,227.556,227.556,227.556s227.556-102.4,227.556-227.556
	S352.711,0,227.556,0z"/>
<path style="fill:#FFFFFF;" d="M227.556,412.444c-102.4,0-184.889-82.489-184.889-184.889S125.156,42.667,227.556,42.667
	s184.889,82.489,184.889,184.889S329.956,412.444,227.556,412.444z"/>
<g>
	<path style="fill:#3F4448;" d="M297.244,217.6c9.956,0,18.489,2.844,27.022,5.689v-17.067c0-7.111-5.689-12.8-12.8-12.8h-2.844
		v-56.889h4.267c4.267,0,7.111-2.844,7.111-7.111c0-4.267-2.844-7.111-7.111-7.111H217.6c-4.267,0-7.111,2.844-7.111,7.111
		c0,4.267,2.844,7.111,7.111,7.111h2.844l-14.222,59.733l-27.022,7.111v-18.489c0-2.844-1.422-4.267-4.267-4.267V166.4
		c0-2.844-2.844-5.689-5.689-5.689c-2.844,0-5.689,2.844-5.689,5.689v14.222c-2.844,0-4.267,2.844-4.267,4.267v25.6l-17.067,5.689
		c-5.689,1.422-9.956,7.111-9.956,12.8v15.644c2.844,0,7.111-1.422,9.956-1.422c25.6,0,46.933,19.911,49.778,44.089h41.244
		c0-2.844,0-4.267,0-7.111C234.667,246.044,263.111,217.6,297.244,217.6z M294.4,137.956v56.889h-27.022
		c-5.689,0-12.8,2.844-17.067,7.111c-9.956,11.378-11.378,25.6-11.378,25.6h-22.756l19.911-89.6H294.4z"/>
	<path style="fill:#3F4448;" d="M297.244,231.822c-27.022,0-48.356,21.333-48.356,48.356s21.333,48.356,48.356,48.356
		S345.6,307.2,345.6,280.178S322.844,231.822,297.244,231.822z M297.244,300.089c-11.378,0-19.911-8.533-19.911-19.911
		s8.533-19.911,19.911-19.911s19.911,8.533,19.911,19.911C315.733,291.556,307.2,300.089,297.244,300.089z"/>
	<path style="fill:#3F4448;" d="M143.644,256c-19.911,0-35.556,15.644-35.556,35.556c0,19.911,15.644,35.556,35.556,35.556
		s35.556-15.644,35.556-35.556C179.2,271.644,163.556,256,143.644,256z M143.644,304.356c-7.111,0-12.8-5.689-12.8-12.8
		c0-7.111,5.689-12.8,12.8-12.8s12.8,5.689,12.8,12.8C156.444,298.667,150.756,304.356,143.644,304.356z"/>
</g>
<g>
</g>
<g>
</g>
<g>
</g>
<g>
</g>
<g>
</g>
<g>
</g>
<g>
</g>
<g>
</g>
<g>
</g>
<g>
</g>
<g>
</g>
<g>
</g>
<g>
</g>
<g>
</g>
<g>
</g>
</svg>
