<?xml version="1.0" encoding="iso-8859-1"?>
<!-- Generator: Adobe Illustrator 19.0.0, SVG Export Plug-In . SVG Version: 6.00 Build 0)  -->
<svg version="1.1" id="Capa_1" xmlns="http://www.w3.org/2000/svg" xmlns:xlink="http://www.w3.org/1999/xlink" x="0px" y="0px"
	 viewBox="0 0 455.111 455.111" style="enable-background:new 0 0 455.111 455.111;" xml:space="preserve">
<path style="fill:#E24C4B;" d="M227.556,0C102.4,0,0,102.4,0,227.556s102.4,227.556,227.556,227.556s227.556-102.4,227.556-227.556
	S352.711,0,227.556,0z"/>
<path style="fill:#FFFFFF;" d="M227.556,412.444c-102.4,0-184.889-82.489-184.889-184.889S125.156,42.667,227.556,42.667
	s184.889,82.489,184.889,184.889S329.956,412.444,227.556,412.444z"/>
<g>
	<path style="fill:#3F4448;" d="M186.311,264.533v-88.178c0-4.267-4.267-8.533-8.533-7.111l-73.956,8.533
		c-4.267,0-7.111,2.844-7.111,7.111l-8.533,51.2v48.356c0,4.267,4.267,8.533,8.533,8.533h7.111
		c0-19.911,17.067-36.978,36.978-36.978s36.978,17.067,36.978,36.978h66.844c0-11.378,5.689-21.333,12.8-28.444H186.311z
		 M162.133,237.511h-61.156l7.111-48.356l52.622-5.689v54.044H162.133z"/>
	<path style="fill:#3F4448;" d="M358.4,271.644v12.8c0,4.267-2.844,7.111-7.111,7.111H320c0-11.378-5.689-21.333-12.8-28.444h45.511
		C354.133,264.533,358.4,267.378,358.4,271.644z"/>
	<path style="fill:#3F4448;" d="M354.133,152.178H204.8c-2.844,0-4.267,1.422-4.267,4.267V256h156.444v-99.556
		C358.4,153.6,356.978,152.178,354.133,152.178z"/>
	<path style="fill:#3F4448;" d="M140.8,268.8c-14.222,0-24.178,11.378-24.178,24.178c0,14.222,11.378,24.178,24.178,24.178
		c14.222,0,24.178-11.378,24.178-24.178C164.978,278.756,153.6,268.8,140.8,268.8z M140.8,305.778c-7.111,0-12.8-5.689-12.8-12.8
		s5.689-12.8,12.8-12.8c7.111,0,12.8,5.689,12.8,12.8C152.178,300.089,147.911,305.778,140.8,305.778z"/>
	<path style="fill:#3F4448;" d="M281.6,268.8c-14.222,0-24.178,11.378-24.178,24.178c0,14.222,11.378,24.178,24.178,24.178
		c14.222,0,24.178-11.378,24.178-24.178C305.778,278.756,294.4,268.8,281.6,268.8z M281.6,305.778c-7.111,0-12.8-5.689-12.8-12.8
		s5.689-12.8,12.8-12.8c7.111,0,12.8,5.689,12.8,12.8C292.978,300.089,288.711,305.778,281.6,305.778z"/>
</g>
<g>
</g>
<g>
</g>
<g>
</g>
<g>
</g>
<g>
</g>
<g>
</g>
<g>
</g>
<g>
</g>
<g>
</g>
<g>
</g>
<g>
</g>
<g>
</g>
<g>
</g>
<g>
</g>
<g>
</g>
</svg>
