<?xml version="1.0" encoding="iso-8859-1"?>
<!-- Generator: Adobe Illustrator 19.0.0, SVG Export Plug-In . SVG Version: 6.00 Build 0)  -->
<svg version="1.1" id="Capa_1" xmlns="http://www.w3.org/2000/svg" xmlns:xlink="http://www.w3.org/1999/xlink" x="0px" y="0px"
	 viewBox="0 0 455.111 455.111" style="enable-background:new 0 0 455.111 455.111;" xml:space="preserve">
<path style="fill:#E24C4B;" d="M227.556,0C102.4,0,0,102.4,0,227.556s102.4,227.556,227.556,227.556s227.556-102.4,227.556-227.556
	S352.711,0,227.556,0z"/>
<path style="fill:#FFFFFF;" d="M227.556,412.444c-102.4,0-184.889-82.489-184.889-184.889S125.156,42.667,227.556,42.667
	s184.889,82.489,184.889,184.889S329.956,412.444,227.556,412.444z"/>
<g>
	<path style="fill:#3F4448;" d="M348.444,219.022c-1.422-4.267-2.844-8.533-7.111-12.8c-2.844-2.844-5.689-7.111-8.533-12.8
		c-4.267-9.956-14.222-34.133-25.6-48.356c-5.689-7.111-14.222-12.8-24.178-12.8c-36.978-2.844-73.956-2.844-110.933,0
		c-9.956,0-18.489,5.689-24.178,12.8c-11.378,15.644-21.333,38.4-25.6,48.356c-2.844,5.689-7.111,9.956-8.533,12.8
		c-2.844,2.844-5.689,8.533-7.111,12.8c-4.267,22.756-7.111,44.089-7.111,65.422c0,2.844,2.844,5.689,5.689,5.689
		c82.489,5.689,164.978,7.111,246.044,0c2.844,0,5.689-2.844,5.689-5.689C355.556,263.111,352.711,241.778,348.444,219.022z
		 M135.111,184.889c5.689-11.378,12.8-27.022,19.911-36.978c0-1.422,1.422-1.422,2.844-2.844c2.844-2.844,7.111-4.267,11.378-4.267
		c38.4-2.844,78.222-2.844,119.467,0c4.267,0,9.956,2.844,12.8,5.689c0,0,0,0,1.422,1.422c7.111,11.378,15.644,27.022,19.911,36.978
		c0,1.422,1.422,1.422,1.422,2.844c0,8.533-187.733,8.533-187.733,0C133.689,187.733,133.689,186.311,135.111,184.889z
		 M119.467,246.044c-1.422,0-2.844-1.422-2.844-4.267c0-5.689,0-9.956,2.844-14.222c1.422-2.844,2.844-2.844,5.689-2.844
		c11.378,4.267,22.756,9.956,34.133,15.644c1.422,0,1.422,1.422,1.422,1.422C180.622,261.689,133.689,250.311,119.467,246.044z
		 M274.489,265.956c-1.422,1.422-2.844,2.844-4.267,2.844c-27.022,1.422-52.622,1.422-79.644,0c-1.422,0-4.267-1.422-4.267-2.844
		c-4.267-7.111-7.111-12.8-7.111-19.911c0-2.844,2.844-5.689,5.689-5.689c31.289-1.422,61.156-1.422,91.022,0
		c2.844,0,5.689,2.844,5.689,5.689C281.6,251.733,278.756,258.844,274.489,265.956z M338.489,241.778
		c0,1.422-1.422,2.844-2.844,4.267c-12.8,4.267-61.156,15.644-41.244-4.267l1.422-1.422c11.378-5.689,22.756-11.378,34.133-15.644
		c2.844-1.422,4.267,0,5.689,2.844C338.489,231.822,338.489,237.511,338.489,241.778z"/>
	<path style="fill:#3F4448;" d="M155.022,280.178v24.178c0,2.844-2.844,5.689-5.689,5.689h-28.444c-2.844,0-5.689-2.844-5.689-5.689
		v-24.178H155.022z"/>
	<path style="fill:#3F4448;" d="M339.911,280.178v24.178c0,2.844-2.844,5.689-5.689,5.689h-28.444c-2.844,0-5.689-2.844-5.689-5.689
		v-24.178H339.911z"/>
	<path style="fill:#3F4448;" d="M291.556,153.6c-1.422-1.422-4.267-2.844-5.689-2.844c-18.489-1.422-38.4-1.422-56.889-1.422
		l-35.556,35.556c41.244,1.422,91.022,0,112.356-2.844C302.933,172.089,297.244,162.133,291.556,153.6z"/>
	<path style="fill:#3F4448;" d="M209.067,149.333l-34.133,34.133c1.422,0,4.267,0,5.689,0l34.133-34.133
		C213.333,149.333,210.489,149.333,209.067,149.333z"/>
	<path style="fill:#3F4448;" d="M200.533,149.333c-11.378,0-21.333,1.422-32.711,1.422c-1.422,0-2.844,0-4.267,1.422l-1.422,1.422
		c-5.689,7.111-11.378,18.489-15.644,28.444c5.689,0,11.378,1.422,19.911,1.422L200.533,149.333z"/>
</g>
<g>
</g>
<g>
</g>
<g>
</g>
<g>
</g>
<g>
</g>
<g>
</g>
<g>
</g>
<g>
</g>
<g>
</g>
<g>
</g>
<g>
</g>
<g>
</g>
<g>
</g>
<g>
</g>
<g>
</g>
</svg>
