<?xml version="1.0" encoding="iso-8859-1"?>
<!-- Generator: Adobe Illustrator 19.0.0, SVG Export Plug-In . SVG Version: 6.00 Build 0)  -->
<svg version="1.1" id="Capa_1" xmlns="http://www.w3.org/2000/svg" xmlns:xlink="http://www.w3.org/1999/xlink" x="0px" y="0px"
	 viewBox="0 0 455.111 455.111" style="enable-background:new 0 0 455.111 455.111;" xml:space="preserve">
<ellipse style="fill:#E24C4B;" cx="227.556" cy="227.556" rx="227.556" ry="227.556"/>
<path style="fill:#FFFFFF;" d="M227.523,412.441c-102.4,0-184.889-82.489-184.889-184.889S125.123,42.663,227.523,42.663
	s184.889,82.489,184.889,184.889S329.923,412.441,227.523,412.441z"/>
<path style="fill:#3F4448;" d="M308.59,294.396c-8.533,35.556-41.244,62.578-79.644,62.578c-66.844,0-98.133-76.8-78.222-140.8
	c2.844,9.956,7.111,19.911,9.956,29.867c-2.844-22.756,14.222-36.978,9.956-69.689c9.956,4.267,14.222,28.444,21.333,28.444
	c-4.267-7.111-1.422-18.489,4.267-25.6c5.689-7.111,14.222-11.378,19.911-18.489c17.067-17.067,14.222-52.622,2.844-73.956
	c25.6,12.8,41.244,44.089,35.556,72.533c-2.844,14.222-8.533,32.711,5.689,38.4c-7.111-15.644,24.178-31.289,11.378-46.933
	c21.333,22.756,0,55.467,7.111,83.911l14.222-17.067C290.101,257.419,312.857,260.263,308.59,294.396z"/>
<path style="fill:#FFFFFF;" d="M193.39,335.641c-8.533-14.222-9.956-31.289-7.111-48.356c0,8.533,7.111,15.644,15.644,15.644
	c-8.533-17.067-8.533-38.4,0-56.889c5.689,5.689,9.956,15.644,9.956,24.178c9.956-12.8-12.8-45.511,18.489-73.956
	c-5.689,17.067-2.844,35.556,7.111,51.2c4.267,5.689,8.533,9.956,11.378,17.067c2.844,5.689,2.844,14.222-2.844,18.489
	c4.267-4.267,8.533-8.533,12.8-12.8c1.422,8.533,1.422,18.489,1.422,27.022c0,8.533,1.422,17.067-4.267,24.178
	c4.267-5.689,8.533-9.956,12.8-15.644C273.035,342.752,220.412,383.996,193.39,335.641z"/>
<polygon style="fill:#E24C4B;" points="392.501,362.663 362.635,392.53 62.546,92.441 92.412,62.574 "/>
<g>
</g>
<g>
</g>
<g>
</g>
<g>
</g>
<g>
</g>
<g>
</g>
<g>
</g>
<g>
</g>
<g>
</g>
<g>
</g>
<g>
</g>
<g>
</g>
<g>
</g>
<g>
</g>
<g>
</g>
</svg>
