<?xml version="1.0" encoding="iso-8859-1"?>
<!-- Generator: Adobe Illustrator 19.0.0, SVG Export Plug-In . SVG Version: 6.00 Build 0)  -->
<svg version="1.1" id="Capa_1" xmlns="http://www.w3.org/2000/svg" xmlns:xlink="http://www.w3.org/1999/xlink" x="0px" y="0px"
	 viewBox="0 0 455.111 455.111" style="enable-background:new 0 0 455.111 455.111;" xml:space="preserve">
<ellipse style="fill:#E24C4B;" cx="227.556" cy="227.556" rx="227.556" ry="227.556"/>
<path style="fill:#FFFFFF;" d="M227.523,412.441c-102.4,0-184.889-82.489-184.889-184.889S125.123,42.663,227.523,42.663
	s184.889,82.489,184.889,184.889S329.923,412.441,227.523,412.441z"/>
<g>
	<path style="fill:#3F4448;" d="M304.323,246.041c-2.844,5.689-8.533,7.111-14.222,5.689l-38.4-18.489l-17.067-29.867v62.578
		l25.6,21.333c1.422,1.422,2.844,2.844,2.844,4.267l19.911,64c1.422,5.689-1.422,11.378-7.111,12.8
		c-4.267,1.422-11.378-1.422-12.8-7.111l-19.911-61.156c-17.067-15.644-7.111-7.111-48.356-41.244
		c-1.422-1.422-2.844-2.844-2.844-4.267V187.73l-12.8,12.8l-9.956,55.467c-1.422,5.689-5.689,8.533-12.8,8.533
		c-5.689-1.422-9.956-7.111-8.533-12.8l12.8-61.156c1.422-2.844,38.4-39.822,41.244-41.244c2.844-2.844,7.111-4.267,11.378-4.267
		c9.956,0,17.067,5.689,19.911,14.222l0,0l0,0l32.711,56.889l32.711,15.644C305.746,234.663,307.168,240.352,304.323,246.041z"/>
	<path style="fill:#3F4448;" d="M189.123,268.796l15.644,14.222l-35.556,81.067c-2.844,5.689-8.533,7.111-14.222,5.689
		c-5.689-2.844-7.111-8.533-5.689-14.222L189.123,268.796L189.123,268.796z"/>
	<circle style="fill:#3F4448;" cx="227.523" cy="110.93" r="27.022"/>
</g>
<polygon style="fill:#E24C4B;" points="392.501,362.663 362.635,392.53 62.546,92.441 92.412,62.574 "/>
<g>
</g>
<g>
</g>
<g>
</g>
<g>
</g>
<g>
</g>
<g>
</g>
<g>
</g>
<g>
</g>
<g>
</g>
<g>
</g>
<g>
</g>
<g>
</g>
<g>
</g>
<g>
</g>
<g>
</g>
</svg>
