<?xml version="1.0" encoding="iso-8859-1"?>
<!-- Generator: Adobe Illustrator 19.0.0, SVG Export Plug-In . SVG Version: 6.00 Build 0)  -->
<svg version="1.1" id="Capa_1" xmlns="http://www.w3.org/2000/svg" xmlns:xlink="http://www.w3.org/1999/xlink" x="0px" y="0px"
	 viewBox="0 0 456.533 456.533" style="enable-background:new 0 0 456.533 456.533;" xml:space="preserve">
<path style="fill:#E24C4B;" d="M455.822,41.244v374.044c0,22.756-18.489,41.244-41.244,41.244H41.956
	C19.2,455.111,0.711,436.622,0.711,413.867V41.244C0.711,18.489,19.2,0,41.956,0H416C437.333,0,455.822,18.489,455.822,41.244z"/>
<rect id="SVGCleanerId_0" x="43.378" y="42.667" style="fill:#FFFFFF;" width="369.778" height="369.778"/>
<g>
	<rect id="SVGCleanerId_0_1_" x="43.378" y="42.667" style="fill:#FFFFFF;" width="369.778" height="369.778"/>
</g>
<g>
	<path style="fill:#3F4448;" d="M285.156,204.8c-2.844,14.222,5.689,21.333,15.644,21.333h55.467
		c11.378,0,15.644-11.378,19.911-21.333H285.156z"/>
	<path style="fill:#3F4448;" d="M168.533,190.578c-5.689-29.867,29.867-41.244,59.733-41.244c27.022,0,65.422,9.956,59.733,41.244
		h91.022c1.422-38.4-58.311-75.378-150.756-75.378S77.511,150.756,77.511,190.578H168.533z"/>
	<path style="fill:#3F4448;" d="M171.378,204.8H80.356c9.956,27.022,11.378,21.333,75.378,21.333
		C165.689,226.133,174.222,219.022,171.378,204.8z"/>
	<path style="fill:#3F4448;" d="M108.8,315.733l19.911-2.844c1.422,4.267,2.844,7.111,5.689,8.533
		c14.222,9.956,38.4-5.689,17.067-11.378c-15.644-2.844-25.6-7.111-29.867-9.956c-15.644-9.956-12.8-39.822,22.756-39.822
		c9.956,0,18.489,1.422,22.756,5.689c5.689,2.844,8.533,8.533,9.956,14.222l-19.911,4.267c-1.422-2.844-2.844-5.689-4.267-7.111
		c-8.533-5.689-31.289,0-21.333,7.111c1.422,1.422,8.533,2.844,18.489,5.689c9.956,2.844,18.489,5.689,22.756,8.533
		c8.533,7.111,9.956,22.756-2.844,32.711c-5.689,4.267-14.222,7.111-25.6,7.111c-9.956,0-18.489-1.422-24.178-5.689
		C114.489,328.533,110.222,322.844,108.8,315.733z"/>
	<path style="fill:#3F4448;" d="M191.289,298.667c0-19.911,14.222-38.4,38.4-38.4c22.756,0,38.4,17.067,38.4,38.4
		c0,22.756-15.644,39.822-38.4,39.822C209.778,338.489,191.289,325.689,191.289,298.667z M212.622,300.089
		c0,15.644,8.533,22.756,18.489,22.756c9.956,0,18.489-7.111,18.489-22.756s-8.533-22.756-18.489-22.756
		C221.156,275.911,212.622,284.444,212.622,300.089z"/>
	<path style="fill:#3F4448;" d="M278.044,315.733l19.911-2.844c5.689,25.6,48.356,4.267,22.756-2.844
		c-21.333-4.267-39.822-8.533-39.822-27.022c0-27.022,42.667-27.022,54.044-18.489c5.689,2.844,8.533,8.533,9.956,14.222
		l-18.489,5.689c-1.422-2.844-2.844-5.689-4.267-7.111c-2.844-1.422-5.689-2.844-9.956-2.844c-14.222,0-15.644,7.111-11.378,9.956
		c1.422,1.422,8.533,2.844,18.489,5.689c9.956,2.844,18.489,5.689,22.756,8.533c4.267,2.844,5.689,8.533,5.689,14.222
		c0,27.022-41.244,29.867-58.311,18.489C283.733,328.533,279.467,322.844,278.044,315.733z"/>
</g>
<g>
</g>
<g>
</g>
<g>
</g>
<g>
</g>
<g>
</g>
<g>
</g>
<g>
</g>
<g>
</g>
<g>
</g>
<g>
</g>
<g>
</g>
<g>
</g>
<g>
</g>
<g>
</g>
<g>
</g>
</svg>
