<?xml version="1.0" encoding="iso-8859-1"?>
<!-- Generator: Adobe Illustrator 19.0.0, SVG Export Plug-In . SVG Version: 6.00 Build 0)  -->
<svg version="1.1" id="Capa_1" xmlns="http://www.w3.org/2000/svg" xmlns:xlink="http://www.w3.org/1999/xlink" x="0px" y="0px"
	 viewBox="0 0 456.533 456.533" style="enable-background:new 0 0 456.533 456.533;" xml:space="preserve">
<path style="fill:#E24C4B;" d="M455.822,41.244v374.044c0,22.756-18.489,41.244-41.244,41.244H41.956
	C19.2,455.111,0.711,436.622,0.711,413.867V41.244C0.711,18.489,19.2,0,41.956,0H416C437.333,0,455.822,18.489,455.822,41.244z"/>
<rect id="SVGCleanerId_0" x="43.378" y="42.667" style="fill:#FFFFFF;" width="369.778" height="369.778"/>
<g>
	<rect id="SVGCleanerId_0_1_" x="43.378" y="42.667" style="fill:#FFFFFF;" width="369.778" height="369.778"/>
</g>
<g>
	<path style="fill:#3F4448;" d="M413.156,327.111c-2.844,0-4.267,0-5.689,1.422c-32.711,4.267-32.711-5.689-64-5.689
		c-31.289-1.422-42.667,15.644-72.533,15.644s-25.6-7.111-61.156-18.489c-35.556-12.8-35.556-2.844-72.533,7.111
		c-22.756,5.689-64,1.422-93.867-4.267v89.6h369.778V327.111z"/>
	<path style="fill:#3F4448;" d="M329.244,301.511c-34.133,2.844-52.622,25.6-83.911,9.956
		c-69.689-36.978-79.644-14.222-119.467-4.267l1.422-27.022c1.422-14.222,12.8-25.6,28.444-25.6h46.933v-17.067h-19.911
		c-4.267,0-8.533-4.267-8.533-8.533v-17.067h-5.689c-2.844,0-5.689-2.844-4.267-5.689l9.956-29.867
		c2.844-28.444,24.178-54.044,54.044-55.467c54.044-4.267,83.911,61.156,45.511,99.556c-5.689,5.689-11.378,9.956-17.067,12.8V256
		h46.933c14.222,0,27.022,11.378,28.444,25.6L329.244,301.511z"/>
</g>
<g>
</g>
<g>
</g>
<g>
</g>
<g>
</g>
<g>
</g>
<g>
</g>
<g>
</g>
<g>
</g>
<g>
</g>
<g>
</g>
<g>
</g>
<g>
</g>
<g>
</g>
<g>
</g>
<g>
</g>
</svg>
