<?xml version="1.0" encoding="iso-8859-1"?>
<!-- Generator: Adobe Illustrator 19.0.0, SVG Export Plug-In . SVG Version: 6.00 Build 0)  -->
<svg version="1.1" id="Capa_1" xmlns="http://www.w3.org/2000/svg" xmlns:xlink="http://www.w3.org/1999/xlink" x="0px" y="0px"
	 viewBox="0 0 456.533 456.533" style="enable-background:new 0 0 456.533 456.533;" xml:space="preserve">
<path style="fill:#E24C4B;" d="M455.822,41.244v374.044c0,22.756-18.489,41.244-41.244,41.244H41.956
	C19.2,455.111,0.711,436.622,0.711,413.867V41.244C0.711,18.489,19.2,0,41.956,0H416C437.333,0,455.822,18.489,455.822,41.244z"/>
<rect x="43.378" y="42.667" style="fill:#FFFFFF;" width="369.778" height="369.778"/>
<path style="fill:#3F4448;" d="M276.622,322.844l-44.089,55.467c-1.422,2.844-5.689,2.844-8.533,0l-44.089-55.467
	c-2.844-2.844,0-8.533,4.267-8.533h19.911V140.8h-19.911c-4.267,0-7.111-5.689-4.267-8.533L224,76.8
	c2.844-2.844,5.689-2.844,8.533,0l44.089,55.467c2.844,2.844,0,8.533-4.267,8.533h-19.911v174.933h19.911
	C276.622,314.311,278.044,320,276.622,322.844z"/>
<path style="fill:#E24C4B;" d="M444.444,443.733c-9.956,9.956-24.178,9.956-34.133,0L12.089,45.511
	c-9.956-9.956-9.956-24.178,0-34.133c5.689-4.267,11.378-7.111,17.067-7.111s12.8,2.844,17.067,7.111L444.444,409.6
	C452.978,418.133,452.978,433.778,444.444,443.733z"/>
<g>
</g>
<g>
</g>
<g>
</g>
<g>
</g>
<g>
</g>
<g>
</g>
<g>
</g>
<g>
</g>
<g>
</g>
<g>
</g>
<g>
</g>
<g>
</g>
<g>
</g>
<g>
</g>
<g>
</g>
</svg>
