<?xml version="1.0" encoding="iso-8859-1"?>
<!-- Generator: Adobe Illustrator 19.0.0, SVG Export Plug-In . SVG Version: 6.00 Build 0)  -->
<svg version="1.1" id="Capa_1" xmlns="http://www.w3.org/2000/svg" xmlns:xlink="http://www.w3.org/1999/xlink" x="0px" y="0px"
	 viewBox="0 0 456.533 456.533" style="enable-background:new 0 0 456.533 456.533;" xml:space="preserve">
<path style="fill:#E24C4B;" d="M455.822,41.244v374.044c0,22.756-18.489,41.244-41.244,41.244H41.956
	C19.2,455.111,0.711,436.622,0.711,413.867V41.244C0.711,18.489,19.2,0,41.956,0H416C437.333,0,455.822,18.489,455.822,41.244z"/>
<rect x="43.378" y="42.667" style="fill:#FFFFFF;" width="369.778" height="369.778"/>
<g>
	<path style="fill:#3F4448;" d="M313.6,207.644c-56.889-5.689-113.778-5.689-170.667,0c-5.689,0-9.956,5.689-9.956,11.378v169.244
		c0,5.689,4.267,11.378,11.378,11.378h7.111v9.956c0,2.844,1.422,4.267,4.267,4.267h24.178c2.844,0,4.267-1.422,4.267-4.267v-9.956
		H275.2v9.956c0,2.844,1.422,4.267,4.267,4.267h24.178c2.844,0,4.267-1.422,4.267-4.267v-9.956h7.111
		c5.689,0,11.378-4.267,11.378-11.378V219.022C323.556,213.333,319.289,209.067,313.6,207.644z M196.978,219.022h62.578
		c4.267,0,7.111,2.844,7.111,7.111c0,4.267-2.844,7.111-7.111,7.111h-62.578c-4.267,0-7.111-2.844-7.111-7.111
		C189.867,221.867,192.711,219.022,196.978,219.022z M216.889,247.467l-55.467,55.467c-1.422,0-4.267-1.422-5.689-1.422
		l54.044-54.044H216.889z M147.2,247.467h56.889l-52.622,52.622c-1.422,0-2.844,0-4.267-1.422L147.2,247.467L147.2,247.467z
		 M174.222,375.467c-8.533,0-15.644-7.111-15.644-15.644c0-8.533,7.111-15.644,15.644-15.644s15.644,7.111,15.644,15.644
		C189.867,368.356,184.178,375.467,174.222,375.467z M248.178,378.311h-38.4c-1.422,0-2.844-1.422-2.844-2.844
		c0-1.422,1.422-2.844,2.844-2.844h38.4c1.422,0,2.844,1.422,2.844,2.844C251.022,376.889,249.6,378.311,248.178,378.311z
		 M248.178,364.089h-38.4c-1.422,0-2.844-1.422-2.844-2.844c0-1.422,1.422-2.844,2.844-2.844h38.4c1.422,0,2.844,1.422,2.844,2.844
		C251.022,362.667,249.6,364.089,248.178,364.089z M248.178,349.867h-38.4c-1.422,0-2.844-1.422-2.844-2.844
		c0-1.422,1.422-2.844,2.844-2.844h38.4c1.422,0,2.844,1.422,2.844,2.844C251.022,347.022,249.6,349.867,248.178,349.867z
		 M265.244,359.822c0-8.533,7.111-15.644,15.644-15.644c8.533,0,15.644,7.111,15.644,15.644c0,8.533-7.111,15.644-15.644,15.644
		C272.356,375.467,265.244,368.356,265.244,359.822z M309.333,300.089c-45.511,14.222-91.022,17.067-136.533,7.111l59.733-59.733
		h76.8L309.333,300.089L309.333,300.089z"/>
	<path style="fill:#3F4448;" d="M206.933,183.467h41.244v-48.356h18.489c4.267,0,5.689-4.267,4.267-7.111l-39.822-49.778
		c-1.422-2.844-5.689-2.844-7.111,0l-38.4,48.356c-2.844,2.844,0,7.111,4.267,7.111h18.489v49.778H206.933z"/>
</g>
<g>
</g>
<g>
</g>
<g>
</g>
<g>
</g>
<g>
</g>
<g>
</g>
<g>
</g>
<g>
</g>
<g>
</g>
<g>
</g>
<g>
</g>
<g>
</g>
<g>
</g>
<g>
</g>
<g>
</g>
</svg>
