<?xml version="1.0" encoding="iso-8859-1"?>
<!-- Generator: Adobe Illustrator 19.0.0, SVG Export Plug-In . SVG Version: 6.00 Build 0)  -->
<svg version="1.1" id="Capa_1" xmlns="http://www.w3.org/2000/svg" xmlns:xlink="http://www.w3.org/1999/xlink" x="0px" y="0px"
	 viewBox="0 0 455.111 455.111" style="enable-background:new 0 0 455.111 455.111;" xml:space="preserve">
<path style="fill:#E24C4B;" d="M227.556,455.111c125.156,0,227.556-102.4,227.556-227.556S352.711,0,227.556,0S0,102.4,0,227.556
	S102.4,455.111,227.556,455.111z"/>
<path style="fill:#FFFFFF;" d="M227.556,412.444c102.4,0,184.889-82.489,184.889-184.889S329.956,42.667,227.556,42.667
	S42.667,125.156,42.667,227.556S125.156,412.444,227.556,412.444z"/>
<path style="fill:#3F4448;" d="M361.244,146.489H128c-7.111,0-7.111,12.8,0,12.8h11.378c-12.8,24.178-18.489,52.622-18.489,78.222
	c-4.267,0-8.533,0-14.222,1.422c-2.844,0-4.267,2.844-4.267,5.689c0,2.844,2.844,4.267,5.689,4.267c12.8-2.844,25.6,0,34.133,7.111
	l-7.111,7.111c-5.689-4.267-11.378-5.689-18.489-5.689c-17.067,0-31.289,14.222-31.289,31.289S99.556,320,116.622,320
	s31.289-14.222,31.289-31.289c0-7.111-2.844-12.8-5.689-18.489l7.111-7.111c5.689,7.111,8.533,15.644,8.533,25.6
	c0,2.844,2.844,5.689,5.689,5.689c0,0,0,0,1.422,0h102.4l0,0h9.956c2.844,15.644,15.644,27.022,31.289,27.022
	c15.644,0,28.444-11.378,31.289-27.022h4.267c4.267,0,7.111-2.844,7.111-7.111V160.711h9.956
	C369.778,157.867,369.778,146.489,361.244,146.489z M217.6,157.867v69.689h-18.489c-11.378,0-21.333,9.956-21.333,21.333v24.178
	h-8.533c-1.422-17.067-8.533-31.289-21.333-41.244l15.644-21.333l5.689,5.689c1.422,1.422,2.844,1.422,4.267,1.422
	s2.844,0,4.267-1.422c1.422-1.422,1.422-5.689,0-7.111l-18.489-18.489c-1.422-1.422-5.689-1.422-7.111,0s-1.422,5.689,0,7.111
	l5.689,5.689l-18.489,24.178c-1.422-1.422-2.844-1.422-5.689-2.844c1.422-21.333,7.111-44.089,19.911-66.844L217.6,157.867
	L217.6,157.867z M130.844,287.289c0,7.111-5.689,12.8-12.8,12.8c-7.111,0-12.8-5.689-12.8-12.8s5.689-12.8,12.8-12.8
	c1.422,0,2.844,0,5.689,1.422l-9.956,8.533c-1.422,1.422-1.422,5.689,0,7.111c1.422,1.422,2.844,1.422,4.267,1.422
	s2.844,0,4.267-1.422l8.533-8.533C130.844,284.444,130.844,285.867,130.844,287.289z M308.622,301.511
	c-7.111,0-12.8-5.689-12.8-12.8s5.689-12.8,12.8-12.8c7.111,0,12.8,5.689,12.8,12.8
	C321.422,295.822,315.733,301.511,308.622,301.511z M312.889,228.978h-24.178c-11.378,0-21.333,9.956-21.333,21.333v24.178h-35.556
	V157.867h81.067V228.978z"/>
<polygon style="fill:#E24C4B;" points="362.667,392.533 392.533,362.667 92.444,62.578 62.578,92.444 "/>
<g>
</g>
<g>
</g>
<g>
</g>
<g>
</g>
<g>
</g>
<g>
</g>
<g>
</g>
<g>
</g>
<g>
</g>
<g>
</g>
<g>
</g>
<g>
</g>
<g>
</g>
<g>
</g>
<g>
</g>
</svg>
