<?xml version="1.0" encoding="iso-8859-1"?>
<!-- Generator: Adobe Illustrator 19.0.0, SVG Export Plug-In . SVG Version: 6.00 Build 0)  -->
<svg version="1.1" id="Capa_1" xmlns="http://www.w3.org/2000/svg" xmlns:xlink="http://www.w3.org/1999/xlink" x="0px" y="0px"
	 viewBox="0 0 455.111 455.111" style="enable-background:new 0 0 455.111 455.111;" xml:space="preserve">
<path style="fill:#E24C4B;" d="M227.556,0C102.4,0,0,102.4,0,227.556s102.4,227.556,227.556,227.556s227.556-102.4,227.556-227.556
	S352.711,0,227.556,0z"/>
<path style="fill:#FFFFFF;" d="M42.667,227.556c0-102.4,82.489-184.889,184.889-184.889s184.889,82.489,184.889,184.889
	s-82.489,184.889-184.889,184.889S42.667,329.956,42.667,227.556z"/>
<g>
	<path style="fill:#3F4448;" d="M368.356,288.711c15.644,45.511-49.778,68.267-62.578,34.133c-12.8,8.533-29.867,7.111-35.556,1.422
		c-5.689,14.222-24.178,15.644-32.711,5.689l0,0c-5.689,2.844-42.667,1.422-49.778,1.422c8.533-1.422,25.6-7.111,31.289-12.8
		c-4.267-7.111,17.067-22.756,25.6-12.8c2.844-17.067,17.067-24.178,24.178-19.911c-1.422-15.644,14.222-28.444,35.556-27.022
		c-4.267-31.289,32.711-45.511,51.2-25.6c8.533-4.267,19.911-2.844,28.444,2.844C399.644,253.156,393.956,281.6,368.356,288.711z"/>
	<path style="fill:#3F4448;" d="M132.267,292.978c-17.067,0-31.289,14.222-31.289,31.289s14.222,31.289,31.289,31.289
		c17.067,0,31.289-14.222,31.289-31.289S149.333,292.978,132.267,292.978z M132.267,337.067c-7.111,0-12.8-5.689-12.8-12.8
		s5.689-12.8,12.8-12.8c7.111,0,12.8,5.689,12.8,12.8C145.067,331.378,139.378,337.067,132.267,337.067z"/>
	<path style="fill:#3F4448;" d="M201.956,261.689h-15.644l-55.467-52.622c-1.422-1.422-4.267-2.844-7.111-2.844H44.089
		c0,5.689-1.422,9.956-1.422,15.644h12.8v39.822h-9.956c4.267,22.756,12.8,44.089,24.178,62.578h18.489
		c0-24.178,19.911-42.667,42.667-42.667c24.178,0,42.667,18.489,42.667,42.667h11.378c8.533,0,17.067-7.111,17.067-15.644
		l2.844-42.667C206.222,263.111,204.8,261.689,201.956,261.689z M147.911,261.689h-76.8v-39.822h51.2l25.6,24.178L147.911,261.689
		L147.911,261.689z"/>
</g>
<polygon style="fill:#E24C4B;" points="392.533,362.667 362.667,392.533 62.578,92.444 92.444,62.578 "/>
<g>
</g>
<g>
</g>
<g>
</g>
<g>
</g>
<g>
</g>
<g>
</g>
<g>
</g>
<g>
</g>
<g>
</g>
<g>
</g>
<g>
</g>
<g>
</g>
<g>
</g>
<g>
</g>
<g>
</g>
</svg>
