<?xml version="1.0" encoding="iso-8859-1"?>
<!-- Generator: Adobe Illustrator 19.0.0, SVG Export Plug-In . SVG Version: 6.00 Build 0)  -->
<svg version="1.1" id="Capa_1" xmlns="http://www.w3.org/2000/svg" xmlns:xlink="http://www.w3.org/1999/xlink" x="0px" y="0px"
	 viewBox="0 0 455.1 455.1" style="enable-background:new 0 0 455.1 455.1;" xml:space="preserve">
<path style="fill:#E24C4B;" d="M33.002,418.305h389.689c25.6,0,41.244-28.444,27.022-49.778L254.869,52.794
	c-12.8-21.333-42.667-21.333-55.467,0L4.558,368.528C-8.242,389.861,7.402,418.305,33.002,418.305z"/>
<polygon style="fill:#FFFFFF;" points="407.047,375.639 227.847,86.928 48.647,375.639 "/>
<path style="fill:#3F4448;" d="M303.224,287.461c2.844,1.422,2.844,5.689,1.422,8.533c-1.422,2.844-5.689,2.844-8.533,1.422
	l-25.6-19.911h-31.289l15.644,15.644l25.6,4.267c2.844,0,4.267,2.844,4.267,4.267c0,2.844-2.844,4.267-4.267,4.267l-14.222-2.844
	l7.111,7.111c1.422,1.422,1.422,4.267,0,5.689c-1.422,1.422-4.267,1.422-5.689,0l-7.111-7.111l2.844,14.222
	c0,2.844-1.422,4.267-4.267,4.267c-1.422,0-4.267,0-4.267-2.844l-4.267-25.6l-17.067-14.222v31.289l18.489,25.6
	c1.422,2.844,1.422,5.689-1.422,8.533c-2.844,1.422-5.689,1.422-8.533-1.422l-9.956-12.8v9.956c0,2.844-2.844,5.689-5.689,5.689
	c-2.844,0-5.689-2.844-5.689-5.689v-9.956l-9.956,12.8c-1.422,2.844-5.689,2.844-8.533,1.422c-2.844-1.422-2.844-5.689-1.422-8.533
	l18.489-27.022v-29.867l-15.644,15.644l-4.267,25.6c0,1.422-1.422,4.267-4.267,4.267s-4.267-2.844-4.267-5.689l2.844-14.222
	l-7.111,7.111c-1.422,1.422-4.267,1.422-5.689,0c-1.422-1.422-1.422-4.267,0-5.689l7.111-7.111l-14.222,2.844
	c-2.844,0-4.267-1.422-4.267-2.844c0-2.844,1.422-4.267,4.267-5.689l25.6-4.267l15.644-15.644H185.18l-25.6,18.489
	c-2.844,1.422-5.689,1.422-8.533-1.422c-1.422-2.844-1.422-5.689,1.422-8.533l12.8-9.956h-9.956c-2.844,0-5.689-2.844-5.689-5.689
	c0-2.844,2.844-5.689,5.689-5.689h9.956l-12.8-9.956c-2.844-1.422-2.844-5.689-1.422-8.533c1.422-2.844,5.689-2.844,8.533-1.422
	l25.6,18.489h31.289l-17.067-14.222l-25.6-4.267c-2.844,0-4.267-2.844-4.267-4.267c0-2.844,2.844-4.267,4.267-4.267l14.222,2.844
	l-7.111-7.111c-1.422-1.422-1.422-4.267,0-5.689s4.267-1.422,5.689,0l7.111,7.111l-2.844-14.222c0-2.844,1.422-4.267,4.267-4.267
	c2.844,0,4.267,1.422,4.267,4.267l4.267,25.6l15.644,15.644v-31.289l-18.489-25.6c-1.422-2.844-1.422-5.689,1.422-8.533
	c2.844-1.422,5.689-1.422,8.533,1.422l9.956,12.8v-9.956c0-2.844,2.844-5.689,5.689-5.689c2.844,0,5.689,2.844,5.689,5.689v9.956
	l9.956-12.8c1.422-2.844,5.689-2.844,8.533-1.422c2.844,1.422,2.844,5.689,1.422,8.533l-18.489,25.6v31.289l15.644-15.644
	l4.267-25.6c0-2.844,2.844-4.267,4.267-4.267c2.844,0,4.267,2.844,4.267,4.267l-2.844,14.222l7.111-7.111
	c1.422-1.422,4.267-1.422,5.689,0s1.422,4.267,0,5.689l-7.111,7.111l14.222-2.844c2.844,0,4.267,1.422,4.267,4.267
	c0,2.844-1.422,4.267-4.267,4.267l-25.6,4.267l-15.644,15.644h32.711l25.6-18.489c2.844-1.422,5.689-1.422,8.533,1.422
	c1.422,2.844,1.422,5.689-1.422,8.533l-12.8,9.956h9.956c2.844,0,5.689,2.844,5.689,5.689c0,2.844-2.844,5.689-5.689,5.689h-9.956
	L303.224,287.461z"/>
<g>
</g>
<g>
</g>
<g>
</g>
<g>
</g>
<g>
</g>
<g>
</g>
<g>
</g>
<g>
</g>
<g>
</g>
<g>
</g>
<g>
</g>
<g>
</g>
<g>
</g>
<g>
</g>
<g>
</g>
</svg>
