<?xml version="1.0" encoding="iso-8859-1"?>
<!-- Generator: Adobe Illustrator 19.0.0, SVG Export Plug-In . SVG Version: 6.00 Build 0)  -->
<svg version="1.1" id="Capa_1" xmlns="http://www.w3.org/2000/svg" xmlns:xlink="http://www.w3.org/1999/xlink" x="0px" y="0px"
	 viewBox="0 0 456.533 456.533" style="enable-background:new 0 0 456.533 456.533;" xml:space="preserve">
<path style="fill:#E24C4B;" d="M0,41.956V416c0,21.333,18.489,39.822,41.244,39.822h374.044c22.756,0,41.244-18.489,41.244-41.244
	V40.533C455.111,19.2,436.622,0.711,413.867,0.711H41.244C18.489,0.711,0,19.2,0,41.956z"/>
<rect x="42.667" y="43.378" style="fill:#FFFFFF;" width="369.778" height="369.778"/>
<g>
	<path style="fill:#3F4448;" d="M241.778,91.733l12.8,82.489c1.422,5.689,8.533,8.533,11.378,4.267l19.911-19.911l0,0l44.089,44.089
		v167.822h44.089V199.822c0-9.956-4.267-18.489-9.956-25.6l-46.933-45.511l19.911-19.911c4.267-4.267,1.422-11.378-4.267-11.378
		l-82.489-12.8C246.044,83.2,241.778,87.467,241.778,91.733z"/>
	<path style="fill:#3F4448;" d="M86.756,165.689h27.022v206.222h44.089V165.689h27.022c5.689,0,8.533-7.111,5.689-11.378
		l-48.356-66.844c-2.844-4.267-8.533-4.267-11.378,0l-49.778,66.844C78.222,158.578,81.067,165.689,86.756,165.689z"/>
	<rect x="220.444" y="342.044" style="fill:#3F4448;" width="12.8" height="31.289"/>
	<rect x="220.444" y="292.267" style="fill:#3F4448;" width="12.8" height="31.289"/>
	<rect x="220.444" y="242.489" style="fill:#3F4448;" width="12.8" height="31.289"/>
	<rect x="220.444" y="194.133" style="fill:#3F4448;" width="12.8" height="31.289"/>
</g>
<g>
</g>
<g>
</g>
<g>
</g>
<g>
</g>
<g>
</g>
<g>
</g>
<g>
</g>
<g>
</g>
<g>
</g>
<g>
</g>
<g>
</g>
<g>
</g>
<g>
</g>
<g>
</g>
<g>
</g>
</svg>
