<?xml version="1.0" encoding="iso-8859-1"?>
<!-- Generator: Adobe Illustrator 19.0.0, SVG Export Plug-In . SVG Version: 6.00 Build 0)  -->
<svg version="1.1" id="Capa_1" xmlns="http://www.w3.org/2000/svg" xmlns:xlink="http://www.w3.org/1999/xlink" x="0px" y="0px"
	 viewBox="0 0 456.533 456.533" style="enable-background:new 0 0 456.533 456.533;" xml:space="preserve">
<path style="fill:#E24C4B;" d="M455.822,41.244v374.044c0,22.756-18.489,41.244-41.244,41.244l-372.622-1.422
	c-22.756,0-41.244-18.489-41.244-41.244V41.244C0.711,18.489,19.2,0,41.956,0H416C437.333,0,455.822,18.489,455.822,41.244z"/>
<rect x="43.378" y="42.667" style="fill:#FFFFFF;" width="369.778" height="369.778"/>
<g>
	<path style="fill:#3F4448;" d="M214.044,91.022l-12.8,82.489c-1.422,5.689-8.533,8.533-11.378,4.267l-19.911-19.911l0,0
		l-44.089,44.089v167.822H80.356V199.111c0-9.956,4.267-18.489,9.956-25.6l46.933-46.933l-19.911-19.911
		c-4.267-4.267-1.422-11.378,4.267-11.378l82.489-12.8C209.778,82.489,214.044,86.756,214.044,91.022z"/>
	<path style="fill:#3F4448;" d="M369.067,164.978h-27.022V371.2h-44.089V164.978h-27.022c-5.689,0-8.533-7.111-5.689-11.378
		L313.6,86.756c2.844-4.267,8.533-4.267,11.378,0l49.778,66.844C377.6,157.867,374.756,164.978,369.067,164.978z"/>
	<rect x="221.156" y="341.333" style="fill:#3F4448;" width="12.8" height="31.289"/>
	<rect x="221.156" y="291.556" style="fill:#3F4448;" width="12.8" height="31.289"/>
	<rect x="221.156" y="241.778" style="fill:#3F4448;" width="12.8" height="31.289"/>
	<rect x="221.156" y="193.422" style="fill:#3F4448;" width="12.8" height="31.289"/>
</g>
<g>
</g>
<g>
</g>
<g>
</g>
<g>
</g>
<g>
</g>
<g>
</g>
<g>
</g>
<g>
</g>
<g>
</g>
<g>
</g>
<g>
</g>
<g>
</g>
<g>
</g>
<g>
</g>
<g>
</g>
</svg>
