<?xml version="1.0" encoding="iso-8859-1"?>
<!-- Generator: Adobe Illustrator 19.0.0, SVG Export Plug-In . SVG Version: 6.00 Build 0)  -->
<svg version="1.1" id="Capa_1" xmlns="http://www.w3.org/2000/svg" xmlns:xlink="http://www.w3.org/1999/xlink" x="0px" y="0px"
	 viewBox="0 0 456.533 456.533" style="enable-background:new 0 0 456.533 456.533;" xml:space="preserve">
<path style="fill:#E24C4B;" d="M455.822,41.244v374.044c0,22.756-18.489,41.244-41.244,41.244H41.956
	C19.2,455.111,0.711,436.622,0.711,413.867V41.244C0.711,18.489,19.2,0,41.956,0H416C437.333,0,455.822,18.489,455.822,41.244z"/>
<rect x="43.378" y="42.667" style="fill:#FFFFFF;" width="369.778" height="369.778"/>
<g>
	<path style="fill:#3F4448;" d="M101.689,162.133h27.022v213.333H172.8V162.133h27.022c5.689,0,8.533-7.111,5.689-11.378
		l-49.778-66.844c-2.844-4.267-8.533-4.267-11.378,0l-49.778,66.844C91.733,155.022,96,162.133,101.689,162.133z"/>
	<path style="fill:#3F4448;" d="M256.711,162.133h27.022v213.333h44.089V162.133h27.022c5.689,0,8.533-7.111,5.689-11.378
		l-49.778-66.844c-2.844-4.267-8.533-4.267-11.378,0L249.6,150.756C246.756,155.022,251.022,162.133,256.711,162.133z"/>
</g>
<g>
</g>
<g>
</g>
<g>
</g>
<g>
</g>
<g>
</g>
<g>
</g>
<g>
</g>
<g>
</g>
<g>
</g>
<g>
</g>
<g>
</g>
<g>
</g>
<g>
</g>
<g>
</g>
<g>
</g>
</svg>
