<?xml version="1.0" encoding="iso-8859-1"?>
<!-- Generator: Adobe Illustrator 19.0.0, SVG Export Plug-In . SVG Version: 6.00 Build 0)  -->
<svg version="1.1" id="Capa_1" xmlns="http://www.w3.org/2000/svg" xmlns:xlink="http://www.w3.org/1999/xlink" x="0px" y="0px"
	 viewBox="0 0 455.111 455.111" style="enable-background:new 0 0 455.111 455.111;" xml:space="preserve">
<path style="fill:#E24C4B;" d="M227.556,455.111c125.156,0,227.556-102.4,227.556-227.556S352.711,0,227.556,0S0,102.4,0,227.556
	S102.4,455.111,227.556,455.111z"/>
<path style="fill:#FFFFFF;" d="M227.556,412.444c102.4,0,184.889-82.489,184.889-184.889S329.956,42.667,227.556,42.667
	S42.667,125.156,42.667,227.556S125.156,412.444,227.556,412.444z"/>
<g>
	<path style="fill:#3F4448;" d="M314.311,163.556l-15.644,176.356c-1.422,8.533-8.533,15.644-17.067,15.644H173.511
		c-8.533,0-15.644-7.111-17.067-15.644L140.8,163.556H314.311z"/>
	<path style="fill:#3F4448;" d="M317.156,126.578h-179.2c-7.111,0-12.8,5.689-12.8,12.8l0,0c0,7.111,5.689,12.8,12.8,12.8h177.778
		c7.111,0,12.8-5.689,12.8-12.8l0,0C329.956,133.689,324.267,126.578,317.156,126.578z"/>
	<path style="fill:#3F4448;" d="M314.311,129.422l-7.111-22.756c-2.844-4.267-5.689-7.111-9.956-7.111H157.867
		c-4.267,0-7.111,2.844-8.533,5.689L142.222,128c-1.422,2.844,1.422,5.689,4.267,5.689h163.556
		C312.889,135.111,314.311,132.267,314.311,129.422z"/>
</g>
<path style="fill:#FFFFFF;" d="M307.2,236.089h-36.978c-5.689-18.489-22.756-32.711-44.089-32.711
	c-19.911,0-38.4,12.8-44.089,32.711h-36.978l2.844,27.022h34.133c5.689,18.489,22.756,32.711,44.089,32.711s38.4-12.8,44.089-32.711
	h34.133L307.2,236.089z"/>
<g>
	<path style="fill:#3F4448;" d="M203.378,264.533c4.267-11.378,12.8-17.067,24.178-17.067c8.533,0,14.222-4.267,18.489-12.8
		c1.422-2.844,2.844-5.689,4.267-7.111c-8.533-7.111-24.178-4.267-36.978,8.533c-11.378,11.378-14.222,24.178-9.956,34.133
		C201.956,267.378,203.378,265.956,203.378,264.533z"/>
	<path style="fill:#3F4448;" d="M251.733,236.089c-1.422,4.267-4.267,7.111-5.689,9.956c-4.267,4.267-9.956,7.111-17.067,7.111
		c-8.533,0-14.222,4.267-18.489,12.8c-1.422,2.844-2.844,5.689-4.267,7.111c8.533,7.111,24.178,4.267,36.978-8.533
		c11.378-11.378,14.222-24.178,9.956-34.133C253.156,233.244,251.733,234.667,251.733,236.089z"/>
</g>
<polygon style="fill:#E24C4B;" points="362.667,392.533 392.533,362.667 92.444,62.578 62.578,92.444 "/>
<g>
</g>
<g>
</g>
<g>
</g>
<g>
</g>
<g>
</g>
<g>
</g>
<g>
</g>
<g>
</g>
<g>
</g>
<g>
</g>
<g>
</g>
<g>
</g>
<g>
</g>
<g>
</g>
<g>
</g>
</svg>
