<?xml version="1.0" encoding="iso-8859-1"?>
<!-- Generator: Adobe Illustrator 19.0.0, SVG Export Plug-In . SVG Version: 6.00 Build 0)  -->
<svg version="1.1" id="Capa_1" xmlns="http://www.w3.org/2000/svg" xmlns:xlink="http://www.w3.org/1999/xlink" x="0px" y="0px"
	 viewBox="0 0 455.111 455.111" style="enable-background:new 0 0 455.111 455.111;" xml:space="preserve">
<g>
	<path style="fill:#ADBAC1;" d="M119.467,287.289c-11.378-12.8-14.222-28.444-12.8-45.511c1.422-8.533,2.844-18.489,8.533-27.022
		c4.267-7.111,7.111-14.222,8.533-22.756c1.422-14.222,2.844-29.867-4.267-44.089c11.378,12.8,14.222,28.444,12.8,45.511
		c-1.422,9.956-2.844,18.489-8.533,27.022c-4.267,7.111-7.111,14.222-8.533,22.756C113.778,258.844,113.778,273.067,119.467,287.289
		z"/>
	<path style="fill:#ADBAC1;" d="M85.333,287.289c-11.378-12.8-14.222-28.444-12.8-45.511c1.422-8.533,2.844-18.489,8.533-27.022
		c4.267-7.111,7.111-14.222,8.533-22.756c1.422-14.222,2.844-29.867-4.267-44.089c11.378,12.8,14.222,28.444,12.8,45.511
		c-1.422,9.956-2.844,18.489-8.533,27.022c-4.267,7.111-7.111,14.222-8.533,22.756C79.644,258.844,79.644,274.489,85.333,287.289z"
		/>
</g>
<rect x="126.435" y="257.774" transform="matrix(-0.919 0.3942 -0.3942 -0.919 537.1594 449.2922)" style="fill:#E9EFF4;" width="191.996" height="44.088"/>
<path style="fill:#728389;" d="M143.644,338.489c-1.422,1.422-2.844,1.422-5.689,2.844c-1.422,0-4.267,2.844-5.689,2.844
	c-2.844,0-1.422-4.267-4.267-4.267c0-1.422-2.844-2.844-1.422-4.267c-1.422,0-2.844,0-1.422-1.422c0,0-1.422-1.422-2.844-1.422
	h-2.844c-1.422,0,0-1.422-1.422-2.844c2.844-4.267-1.422-2.844,0-7.111c1.422-5.689-2.844-2.844,0-7.111
	c-1.422-1.422-1.422-2.844-2.844-4.267c1.422,0,2.844,0,4.267-1.422c-1.422-1.422-2.844-4.267-2.844-5.689
	c-2.844-5.689,8.533-8.533,8.533-8.533C126.578,297.244,143.644,338.489,143.644,338.489z"/>
<rect x="308.337" y="203.199" transform="matrix(-0.919 0.3942 -0.3942 -0.919 759.645 294.4391)" style="fill:#FED93D;" width="82.487" height="44.088"/>
<path style="fill:#D1403F;" d="M227.556,455.111C102.4,455.111,0,352.711,0,227.556S102.4,0,227.556,0
	s227.556,102.4,227.556,227.556S352.711,455.111,227.556,455.111z M39.822,227.556c0,103.822,83.911,187.733,187.733,187.733
	c59.733,0,96.711-27.022,119.467-41.244L81.067,108.089C68.267,126.578,39.822,164.978,39.822,227.556z M227.556,39.822
	c-59.733,0-96.711,27.022-119.467,41.244l265.956,265.956c12.8-19.911,41.244-56.889,41.244-119.467
	C415.289,123.733,331.378,39.822,227.556,39.822z"/>
<g>
</g>
<g>
</g>
<g>
</g>
<g>
</g>
<g>
</g>
<g>
</g>
<g>
</g>
<g>
</g>
<g>
</g>
<g>
</g>
<g>
</g>
<g>
</g>
<g>
</g>
<g>
</g>
<g>
</g>
</svg>
