<?xml version="1.0" encoding="iso-8859-1"?>
<!-- Generator: Adobe Illustrator 19.0.0, SVG Export Plug-In . SVG Version: 6.00 Build 0)  -->
<svg version="1.1" id="Capa_1" xmlns="http://www.w3.org/2000/svg" xmlns:xlink="http://www.w3.org/1999/xlink" x="0px" y="0px"
	 viewBox="0 0 455.111 455.111" style="enable-background:new 0 0 455.111 455.111;" xml:space="preserve">
<g>
	<path style="fill:#3F4448;" d="M132.267,315.733c-34.133,0-61.156-27.022-61.156-61.156s27.022-61.156,61.156-61.156
		s61.156,27.022,61.156,61.156C193.422,288.711,166.4,315.733,132.267,315.733z M132.267,206.222
		c-27.022,0-48.356,21.333-48.356,48.356s21.333,48.356,48.356,48.356s48.356-21.333,48.356-48.356
		C180.622,227.556,159.289,206.222,132.267,206.222z"/>
	<path style="fill:#3F4448;" d="M322.844,315.733c-34.133,0-61.156-27.022-61.156-61.156s27.022-61.156,61.156-61.156
		S384,220.444,384,254.578C385.422,288.711,356.978,315.733,322.844,315.733z M322.844,206.222
		c-27.022,0-48.356,21.333-48.356,48.356s21.333,48.356,48.356,48.356S371.2,281.6,371.2,254.578S349.867,206.222,322.844,206.222z"
		/>
	<path style="fill:#3F4448;" d="M322.844,261.689L322.844,261.689h-95.289c-2.844,0-4.267-1.422-5.689-2.844l-65.422-98.133
		c-1.422-1.422-1.422-4.267,0-7.111s2.844-2.844,5.689-2.844h95.289c2.844,0,4.267,1.422,5.689,2.844l65.422,96.711
		c1.422,1.422,1.422,2.844,1.422,4.267C329.956,258.844,327.111,261.689,322.844,261.689z M230.4,247.467h79.644l-56.889-83.911
		h-78.222L230.4,247.467z"/>
	<path style="fill:#3F4448;" d="M132.267,261.689h-1.422c-2.844-1.422-5.689-4.267-4.267-8.533l29.867-96.711v-22.756
		c0,0,0,0,0-1.422s1.422-9.956,9.956-14.222c7.111-2.844,15.644-1.422,25.6,5.689c2.844,1.422,4.267,5.689,1.422,9.956
		c-1.422,2.844-5.689,4.267-9.956,1.422c-8.533-5.689-12.8-4.267-12.8-4.267c-1.422,0-1.422,2.844-1.422,2.844v22.756v1.422
		L137.956,256C137.956,258.844,135.111,261.689,132.267,261.689z"/>
	<circle style="fill:#3F4448;" cx="132.267" cy="254.578" r="17.067"/>
	<circle style="fill:#3F4448;" cx="322.844" cy="254.578" r="17.067"/>
	<circle style="fill:#3F4448;" cx="228.978" cy="254.578" r="17.067"/>
	<path style="fill:#3F4448;" d="M228.978,256h-1.422c-2.844-1.422-5.689-4.267-4.267-8.533l27.022-91.022v-17.067
		c0-4.267,2.844-7.111,7.111-7.111c4.267,0,7.111,2.844,7.111,7.111v17.067v1.422l-27.022,92.444
		C234.667,254.578,231.822,256,228.978,256z"/>
	<path style="fill:#3F4448;" d="M271.644,140.8h-35.556c-2.844,0-4.267-1.422-4.267-4.267v-1.422c0-5.689,4.267-9.956,9.956-9.956
		h29.867c1.422,0,4.267,1.422,4.267,4.267v8.533C275.911,139.378,274.489,140.8,271.644,140.8z"/>
</g>
<path style="fill:#D1403F;" d="M227.556,455.111C102.4,455.111,0,352.711,0,227.556S102.4,0,227.556,0
	s227.556,102.4,227.556,227.556S352.711,455.111,227.556,455.111z M39.822,227.556c0,103.822,83.911,187.733,187.733,187.733
	c59.733,0,96.711-27.022,119.467-41.244L81.067,108.089C68.267,126.578,39.822,164.978,39.822,227.556z M227.556,39.822
	c-59.733,0-96.711,27.022-119.467,41.244l265.956,265.956c12.8-19.911,41.244-56.889,41.244-119.467
	C415.289,123.733,331.378,39.822,227.556,39.822z"/>
<g>
</g>
<g>
</g>
<g>
</g>
<g>
</g>
<g>
</g>
<g>
</g>
<g>
</g>
<g>
</g>
<g>
</g>
<g>
</g>
<g>
</g>
<g>
</g>
<g>
</g>
<g>
</g>
<g>
</g>
</svg>
