<?xml version="1.0" encoding="iso-8859-1"?>
<!-- Generator: Adobe Illustrator 19.0.0, SVG Export Plug-In . SVG Version: 6.00 Build 0)  -->
<svg version="1.1" id="Capa_1" xmlns="http://www.w3.org/2000/svg" xmlns:xlink="http://www.w3.org/1999/xlink" x="0px" y="0px"
	 viewBox="0 0 455.431 455.431" style="enable-background:new 0 0 455.431 455.431;" xml:space="preserve">
<path style="fill:#5CA4DA;" d="M405.493,412.764c-69.689,56.889-287.289,56.889-355.556,0c-69.689-56.889-62.578-300.089,0-364.089
	s292.978-64,355.556,0S475.182,355.876,405.493,412.764z"/>
<path style="fill:#6DAFE0;" d="M229.138,313.209c-62.578,49.778-132.267,75.378-197.689,76.8
	c-48.356-82.489-38.4-283.022,18.489-341.333c51.2-52.622,211.911-62.578,304.356-29.867
	C377.049,112.676,330.116,232.142,229.138,313.209z"/>
<g>
	<path style="fill:#FFFFFF;" d="M227.716,57.209c-93.867,0-170.667,76.8-170.667,170.667s76.8,170.667,170.667,170.667
		s170.667-76.8,170.667-170.667S321.582,57.209,227.716,57.209z M227.716,362.987c-73.956,0-135.111-61.156-135.111-135.111
		S153.76,92.764,227.716,92.764s135.111,61.156,135.111,135.111S301.671,362.987,227.716,362.987z"/>
	<path style="fill:#FFFFFF;" d="M300.249,287.609c0,1.422,0,2.844,0,2.844c-18.489,21.333-45.511,34.133-75.378,34.133
		c-54.044,0-98.133-44.089-98.133-98.133s44.089-98.133,98.133-98.133c28.444,0,55.467,12.8,75.378,34.133
		c1.422,1.422,1.422,2.844,0,2.844c0,1.422-1.422,1.422-2.844,1.422h-34.133h-1.422c-11.378-7.111-24.178-11.378-36.978-11.378
		c-38.4,0-68.267,31.289-68.267,69.689s31.289,69.689,68.267,69.689c12.8,0,25.6-4.267,36.978-11.378h1.422h34.133
		C298.827,286.187,298.827,286.187,300.249,287.609z"/>
</g>
<g>
</g>
<g>
</g>
<g>
</g>
<g>
</g>
<g>
</g>
<g>
</g>
<g>
</g>
<g>
</g>
<g>
</g>
<g>
</g>
<g>
</g>
<g>
</g>
<g>
</g>
<g>
</g>
<g>
</g>
</svg>
