<?xml version="1.0" encoding="iso-8859-1"?>
<!-- Generator: Adobe Illustrator 19.0.0, SVG Export Plug-In . SVG Version: 6.00 Build 0)  -->
<svg version="1.1" id="Capa_1" xmlns="http://www.w3.org/2000/svg" xmlns:xlink="http://www.w3.org/1999/xlink" x="0px" y="0px"
	 viewBox="0 0 455.431 455.431" style="enable-background:new 0 0 455.431 455.431;" xml:space="preserve">
<path style="fill:#5CA4DA;" d="M405.39,412.764c-69.689,56.889-287.289,56.889-355.556,0s-62.578-300.089,0-364.089
	s292.978-64,355.556,0S475.079,355.876,405.39,412.764z"/>
<path style="fill:#6DAFE0;" d="M229.034,313.209c-62.578,49.778-132.267,75.378-197.689,76.8
	C-17.01,307.52-7.055,106.987,49.834,48.676c51.2-52.622,211.911-62.578,304.356-29.867
	C376.945,112.676,330.012,232.142,229.034,313.209z"/>
<g>
	<path style="fill:#FFFFFF;" d="M85.39,124.053h45.511v206.222H85.39V124.053z"/>
	<path style="fill:#FFFFFF;" d="M339.967,151.076c19.911,18.489,29.867,42.667,29.867,75.378s-9.956,56.889-28.444,76.8
		c-19.911,18.489-48.356,28.444-88.178,28.444h-71.111V124.053h73.956C291.612,124.053,320.056,134.009,339.967,151.076z
		 M305.834,274.809c11.378-9.956,17.067-25.6,17.067-46.933c0-19.911-5.689-35.556-17.067-46.933
		c-11.378-11.378-28.444-17.067-52.622-17.067h-25.6v125.156h29.867C278.812,290.453,294.456,284.764,305.834,274.809z"/>
</g>
<g>
</g>
<g>
</g>
<g>
</g>
<g>
</g>
<g>
</g>
<g>
</g>
<g>
</g>
<g>
</g>
<g>
</g>
<g>
</g>
<g>
</g>
<g>
</g>
<g>
</g>
<g>
</g>
<g>
</g>
</svg>
