<?xml version="1.0" encoding="iso-8859-1"?>
<!-- Generator: Adobe Illustrator 19.0.0, SVG Export Plug-In . SVG Version: 6.00 Build 0)  -->
<svg version="1.1" id="Capa_1" xmlns="http://www.w3.org/2000/svg" xmlns:xlink="http://www.w3.org/1999/xlink" x="0px" y="0px"
	 viewBox="0 0 455.431 455.431" style="enable-background:new 0 0 455.431 455.431;" xml:space="preserve">
<path style="fill:#5CA4DA;" d="M405.493,412.764c-69.689,56.889-287.289,56.889-355.556,0c-69.689-56.889-62.578-300.089,0-364.089
	s292.978-64,355.556,0S475.182,355.876,405.493,412.764z"/>
<path style="fill:#6DAFE0;" d="M229.138,313.209c-62.578,49.778-132.267,75.378-197.689,76.8
	c-48.356-82.489-38.4-283.022,18.489-341.333c51.2-52.622,211.911-62.578,304.356-29.867
	C377.049,112.676,330.116,232.142,229.138,313.209z"/>
<g>
	<path style="fill:#FFFFFF;" d="M131.004,183.787v17.067H91.182v18.489h38.4v17.067h-38.4v34.133H71.271v-86.756H131.004z"/>
	<path style="fill:#FFFFFF;" d="M217.76,213.653c0,14.222-5.689,22.756-17.067,27.022l22.756,31.289h-24.178L179.36,243.52h-12.8
		v28.444h-19.911v-86.756h32.711c14.222,0,22.756,2.844,28.444,7.111C214.916,195.164,217.76,203.698,217.76,213.653z
		 M195.004,223.609c2.844-2.844,4.267-5.689,4.267-9.956c0-4.267-1.422-8.533-4.267-9.956c-2.844-1.422-7.111-2.844-12.8-2.844
		h-14.222v25.6h14.222C187.893,226.453,192.16,225.031,195.004,223.609z"/>
	<path style="fill:#FFFFFF;" d="M301.671,183.787v17.067h-44.089v18.489h38.4v17.067h-38.4v18.489h44.089v17.067h-64v-86.756h64
		V183.787z"/>
	<path style="fill:#FFFFFF;" d="M382.738,183.787v17.067h-44.089v18.489h38.4v17.067h-38.4v18.489h45.511v17.067h-64v-86.756h62.578
		V183.787z"/>
</g>
<g>
</g>
<g>
</g>
<g>
</g>
<g>
</g>
<g>
</g>
<g>
</g>
<g>
</g>
<g>
</g>
<g>
</g>
<g>
</g>
<g>
</g>
<g>
</g>
<g>
</g>
<g>
</g>
<g>
</g>
</svg>
