<?xml version="1.0" encoding="iso-8859-1"?>
<!-- Generator: Adobe Illustrator 19.0.0, SVG Export Plug-In . SVG Version: 6.00 Build 0)  -->
<svg version="1.1" id="Capa_1" xmlns="http://www.w3.org/2000/svg" xmlns:xlink="http://www.w3.org/1999/xlink" x="0px" y="0px"
	 viewBox="0 0 455.431 455.431" style="enable-background:new 0 0 455.431 455.431;" xml:space="preserve">
<path style="fill:#5CA4DA;" d="M405.493,412.764c-69.689,56.889-287.289,56.889-355.556,0c-69.689-56.889-62.578-300.089,0-364.089
	s292.978-64,355.556,0S475.182,355.876,405.493,412.764z"/>
<path style="fill:#6DAFE0;" d="M229.138,313.209c-62.578,49.778-132.267,75.378-197.689,76.8
	c-48.356-82.489-38.4-283.022,18.489-341.333c51.2-52.622,211.911-62.578,304.356-29.867
	C377.049,112.676,330.116,232.142,229.138,313.209z"/>
<g>
	<path style="fill:#FFFFFF;" d="M82.649,115.52h48.356v119.467h-25.6v-96.711H82.649V115.52z"/>
	<path style="fill:#FFFFFF;" d="M204.96,236.409c-17.067,0-28.444-5.689-36.978-17.067c-8.533-11.378-12.8-25.6-12.8-45.511
		c0-18.489,4.267-34.133,12.8-45.511c8.533-11.378,19.911-17.067,36.978-17.067s28.444,5.689,36.978,17.067s12.8,25.6,12.8,45.511
		c0,18.489-4.267,34.133-12.8,45.511C234.827,230.72,222.027,236.409,204.96,236.409z M187.893,145.387
		c-4.267,7.111-5.689,17.067-5.689,28.444c0,11.378,1.422,21.333,5.689,28.444c4.267,7.111,9.956,11.378,17.067,11.378
		c8.533,0,14.222-4.267,17.067-11.378c4.267-7.111,5.689-17.067,5.689-28.444c0-11.378-1.422-21.333-5.689-28.444
		c-4.267-7.111-9.956-11.378-17.067-11.378C197.849,135.431,192.16,138.276,187.893,145.387z"/>
	<path style="fill:#FFFFFF;" d="M323.004,236.409c-17.067,0-28.444-5.689-36.978-17.067c-8.533-11.378-12.8-25.6-12.8-45.511
		c0-18.489,4.267-34.133,12.8-45.511c8.533-11.378,19.911-17.067,36.978-17.067s28.444,5.689,36.978,17.067
		c8.533,11.378,12.8,25.6,12.8,45.511c0,18.489-4.267,34.133-12.8,45.511C351.449,230.72,340.071,236.409,323.004,236.409z
		 M305.938,145.387c-4.267,7.111-5.689,17.067-5.689,28.444c0,11.378,1.422,21.333,5.689,28.444
		c4.267,7.111,9.956,11.378,17.067,11.378c8.533,0,14.222-4.267,17.067-11.378c4.267-7.111,5.689-17.067,5.689-28.444
		c0-11.378-1.422-21.333-5.689-28.444c-4.267-7.111-9.956-11.378-17.067-11.378C314.471,135.431,308.782,138.276,305.938,145.387z"
		/>
	<rect x="82.649" y="267.698" style="fill:#FFFFFF;" width="290.133" height="25.6"/>
	<rect x="106.827" y="317.476" style="fill:#FFFFFF;" width="241.778" height="25.6"/>
</g>
<g>
</g>
<g>
</g>
<g>
</g>
<g>
</g>
<g>
</g>
<g>
</g>
<g>
</g>
<g>
</g>
<g>
</g>
<g>
</g>
<g>
</g>
<g>
</g>
<g>
</g>
<g>
</g>
<g>
</g>
</svg>
