<?xml version="1.0" encoding="iso-8859-1"?>
<!-- Generator: Adobe Illustrator 19.0.0, SVG Export Plug-In . SVG Version: 6.00 Build 0)  -->
<svg version="1.1" id="Capa_1" xmlns="http://www.w3.org/2000/svg" xmlns:xlink="http://www.w3.org/1999/xlink" x="0px" y="0px"
	 viewBox="0 0 455.431 455.431" style="enable-background:new 0 0 455.431 455.431;" xml:space="preserve">
<path style="fill:#5CA4DA;" d="M405.493,412.764c-69.689,56.889-287.289,56.889-355.556,0c-69.689-56.889-62.578-300.089,0-364.089
	s292.978-64,355.556,0S475.182,355.876,405.493,412.764z"/>
<path style="fill:#6DAFE0;" d="M229.138,313.209c-62.578,49.778-132.267,75.378-197.689,76.8
	c-48.356-82.489-38.4-283.022,18.489-341.333c51.2-52.622,211.911-62.578,304.356-29.867
	C377.049,112.676,330.116,232.142,229.138,313.209z"/>
<g>
	<path style="fill:#FFFFFF;" d="M203.538,281.92c-15.644,14.222-32.711,21.333-55.467,21.333c-21.333,0-39.822-7.111-55.467-21.333
		c-14.222-14.222-21.333-32.711-21.333-54.044s7.111-39.822,22.756-54.044c15.644-14.222,32.711-21.333,55.467-21.333
		c21.333,0,39.822,7.111,55.467,21.333c15.644,14.222,22.756,32.711,22.756,54.044C226.293,249.209,219.182,267.698,203.538,281.92z
		 M193.582,227.876c0-12.8-4.267-24.178-12.8-34.133c-8.533-9.956-18.489-14.222-31.289-14.222c-12.8,0-22.756,4.267-31.289,14.222
		c-8.533,9.956-12.8,19.911-12.8,34.133c0,12.8,4.267,24.178,12.8,34.133c8.533,8.533,18.489,14.222,31.289,14.222
		c12.8,0,22.756-4.267,31.289-14.222C189.316,252.053,193.582,240.676,193.582,227.876z"/>
	<path style="fill:#FFFFFF;" d="M254.738,155.342h32.711v61.156l55.467-61.156h41.244l-58.311,65.422
		c5.689,7.111,14.222,19.911,28.444,39.822c14.222,19.911,24.178,34.133,31.289,42.667h-38.4l-42.667-58.311l-14.222,17.067v41.244
		h-32.711V155.342H254.738z"/>
</g>
<g>
</g>
<g>
</g>
<g>
</g>
<g>
</g>
<g>
</g>
<g>
</g>
<g>
</g>
<g>
</g>
<g>
</g>
<g>
</g>
<g>
</g>
<g>
</g>
<g>
</g>
<g>
</g>
<g>
</g>
</svg>
