<?xml version="1.0" encoding="iso-8859-1"?>
<!-- Generator: Adobe Illustrator 19.0.0, SVG Export Plug-In . SVG Version: 6.00 Build 0)  -->
<svg version="1.1" id="Capa_1" xmlns="http://www.w3.org/2000/svg" xmlns:xlink="http://www.w3.org/1999/xlink" x="0px" y="0px"
	 viewBox="0 0 455.431 455.431" style="enable-background:new 0 0 455.431 455.431;" xml:space="preserve">
<path style="fill:#6DAFE0;" d="M405.493,412.764c-69.689,56.889-287.289,56.889-355.556,0c-69.689-56.889-62.578-300.089,0-364.089
	s292.978-64,355.556,0S475.182,355.876,405.493,412.764z"/>
<g style="opacity:0.2;">
	<path style="fill:#FFFFFF;" d="M229.138,313.209c-62.578,49.778-132.267,75.378-197.689,76.8
		c-48.356-82.489-38.4-283.022,18.489-341.333c51.2-52.622,211.911-62.578,304.356-29.867
		C377.049,112.676,330.116,232.142,229.138,313.209z"/>
</g>
<path style="fill:#FFFFFF;" d="M348.604,91.342l-12.8,48.356v76.8c0,44.089-28.444,82.489-68.267,95.289v17.067
	c0,5.689-4.267,9.956-9.956,9.956h-12.8v56.889h-32.711v-56.889h-12.8c-5.689,0-9.956-4.267-9.956-9.956v-17.067
	c-39.822-12.8-68.267-51.2-68.267-95.289v-76.8l-14.222-48.356l56.889,62.578l-18.489-2.844v61.156
	c0,38.4,28.444,71.111,65.422,75.378v-48.356l-22.756-48.356l22.756,18.489V153.92l-12.8-28.444l29.867-65.422l29.867,64
	l-12.8,28.444v55.467l22.756-18.489l-22.756,48.356v48.356c36.978-5.689,65.422-36.978,65.422-75.378v-61.156l-18.489,2.844
	L348.604,91.342z"/>
<g>
</g>
<g>
</g>
<g>
</g>
<g>
</g>
<g>
</g>
<g>
</g>
<g>
</g>
<g>
</g>
<g>
</g>
<g>
</g>
<g>
</g>
<g>
</g>
<g>
</g>
<g>
</g>
<g>
</g>
</svg>
