<?xml version="1.0" encoding="iso-8859-1"?>
<!-- Generator: Adobe Illustrator 19.0.0, SVG Export Plug-In . SVG Version: 6.00 Build 0)  -->
<svg version="1.1" id="Capa_1" xmlns="http://www.w3.org/2000/svg" xmlns:xlink="http://www.w3.org/1999/xlink" x="0px" y="0px"
	 viewBox="0 0 455.431 455.431" style="enable-background:new 0 0 455.431 455.431;" xml:space="preserve">
<path style="fill:#6DAFE0;" d="M405.39,412.764c-69.689,56.889-287.289,56.889-355.556,0s-62.578-300.089,0-364.089
	s292.978-64,355.556,0S475.079,355.876,405.39,412.764z"/>
<g style="opacity:0.2;">
	<path style="fill:#FFFFFF;" d="M229.034,313.209c-62.578,49.778-132.267,75.378-197.689,76.8
		C-17.01,307.52-7.055,106.987,49.834,48.676c51.2-52.622,211.911-62.578,304.356-29.867
		C376.945,112.676,330.012,232.142,229.034,313.209z"/>
</g>
<g>
	<polygon style="fill:#FFFFFF;" points="211.967,183.787 153.656,155.342 190.634,88.498 263.167,88.498 298.723,155.342 
		315.79,146.809 298.723,225.031 223.345,193.742 243.256,183.787 226.19,153.92 	"/>
	<polygon style="fill:#FFFFFF;" points="180.678,250.631 162.19,283.342 187.79,283.342 187.79,348.764 128.056,348.764 
		128.056,348.764 128.056,348.764 91.078,283.342 125.212,217.92 106.723,207.964 176.412,189.476 196.323,259.164 	"/>
	<polygon style="fill:#FFFFFF;" points="364.145,280.498 364.145,280.498 328.59,344.498 253.212,345.92 253.212,367.253 
		200.59,314.631 253.212,263.431 253.212,281.92 290.19,281.92 277.39,260.587 334.279,227.876 	"/>
</g>
<g>
</g>
<g>
</g>
<g>
</g>
<g>
</g>
<g>
</g>
<g>
</g>
<g>
</g>
<g>
</g>
<g>
</g>
<g>
</g>
<g>
</g>
<g>
</g>
<g>
</g>
<g>
</g>
<g>
</g>
</svg>
