<?xml version="1.0" encoding="iso-8859-1"?>
<!-- Generator: Adobe Illustrator 19.0.0, SVG Export Plug-In . SVG Version: 6.00 Build 0)  -->
<svg version="1.1" id="Capa_1" xmlns="http://www.w3.org/2000/svg" xmlns:xlink="http://www.w3.org/1999/xlink" x="0px" y="0px"
	 viewBox="0 0 455.431 455.431" style="enable-background:new 0 0 455.431 455.431;" xml:space="preserve">
<path style="fill:#5CA4DA;" d="M405.493,412.764c-69.689,56.889-287.289,56.889-355.556,0c-69.689-56.889-62.578-300.089,0-364.089
	s292.978-64,355.556,0S475.182,355.876,405.493,412.764z"/>
<path style="fill:#6DAFE0;" d="M229.138,313.209c-62.578,49.778-132.267,75.378-197.689,76.8
	c-48.356-82.489-38.4-283.022,18.489-341.333c51.2-52.622,211.911-62.578,304.356-29.867
	C377.049,112.676,330.116,232.142,229.138,313.209z"/>
<g>
	<path style="fill:#FFFFFF;" d="M103.982,195.164c-2.844,1.422-2.844,4.267-2.844,7.111c0,2.844,1.422,5.689,4.267,7.111
		c2.844,1.422,9.956,4.267,19.911,7.111s18.489,5.689,24.178,11.378c5.689,5.689,8.533,12.8,8.533,22.756
		c0,9.956-4.267,17.067-11.378,24.178c-7.111,5.689-17.067,8.533-28.444,8.533c-17.067,1.422-32.711-5.689-46.933-18.489
		l14.222-17.067c11.378,9.956,22.756,15.644,32.711,15.644c4.267,0,8.533-1.422,9.956-2.844c2.844-1.422,4.267-4.267,4.267-7.111
		c0-2.844-1.422-5.689-4.267-7.111c-2.844-1.422-8.533-4.267-15.644-5.689c-12.8-2.844-21.333-7.111-28.444-11.378
		c-5.689-4.267-8.533-12.8-8.533-22.756c0-9.956,4.267-18.489,11.378-24.178c7.111-5.689,17.067-8.533,28.444-8.533
		c7.111,0,14.222,1.422,21.333,4.267c7.111,2.844,14.222,5.689,18.489,9.956l-12.8,17.067c-9.956-7.111-18.489-11.378-29.867-11.378
		C109.671,192.32,106.827,193.742,103.982,195.164z"/>
	<path style="fill:#FFFFFF;" d="M268.96,267.698c-11.378,11.378-24.178,15.644-41.244,15.644c-15.644,0-29.867-5.689-41.244-15.644
		c-11.378-11.378-17.067-24.178-17.067-39.822c0-15.644,5.689-29.867,17.067-39.822c12.8-11.378,27.022-17.067,42.667-17.067
		s29.867,5.689,41.244,15.644c11.378,11.378,17.067,24.178,17.067,39.822C286.027,243.52,280.338,257.742,268.96,267.698z
		 M261.849,227.876c0-9.956-2.844-18.489-9.956-24.178c-5.689-7.111-14.222-9.956-22.756-9.956c-8.533,0-17.067,2.844-22.756,9.956
		s-9.956,15.644-9.956,24.178c0,9.956,2.844,18.489,9.956,24.178c5.689,7.111,14.222,9.956,22.756,9.956
		c8.533,0,17.067-2.844,22.756-9.956C257.582,246.364,261.849,237.831,261.849,227.876z"/>
	<path style="fill:#FFFFFF;" d="M331.538,195.164c-2.844,1.422-2.844,4.267-2.844,7.111c0,2.844,1.422,5.689,4.267,7.111
		c2.844,1.422,9.956,4.267,19.911,7.111c9.956,2.844,18.489,5.689,24.178,11.378c5.689,5.689,8.533,12.8,8.533,22.756
		c0,9.956-4.267,17.067-11.378,24.178c-7.111,5.689-17.067,8.533-28.444,8.533c-17.067,0-32.711-5.689-46.933-18.489l14.222-17.067
		c11.378,9.956,22.756,15.644,32.711,15.644c4.267,0,8.533-1.422,9.956-2.844c2.844-1.422,4.267-4.267,4.267-7.111
		c0-2.844-1.422-5.689-4.267-7.111c-2.844-1.422-8.533-4.267-15.644-5.689c-12.8-2.844-21.333-7.111-28.444-11.378
		c-5.689-4.267-8.533-12.8-8.533-22.756c0-9.956,4.267-18.489,11.378-24.178c7.111-5.689,17.067-8.533,28.444-8.533
		c7.111,0,14.222,1.422,21.333,4.267s14.222,5.689,18.489,9.956l-12.8,15.644c-9.956-7.111-18.489-11.378-29.867-11.378
		C337.227,192.32,332.96,193.742,331.538,195.164z"/>
</g>
<g>
</g>
<g>
</g>
<g>
</g>
<g>
</g>
<g>
</g>
<g>
</g>
<g>
</g>
<g>
</g>
<g>
</g>
<g>
</g>
<g>
</g>
<g>
</g>
<g>
</g>
<g>
</g>
<g>
</g>
</svg>
