<?xml version="1.0" encoding="iso-8859-1"?>
<!-- Generator: Adobe Illustrator 19.0.0, SVG Export Plug-In . SVG Version: 6.00 Build 0)  -->
<svg version="1.1" id="Capa_1" xmlns="http://www.w3.org/2000/svg" xmlns:xlink="http://www.w3.org/1999/xlink" x="0px" y="0px"
	 viewBox="0 0 455.431 455.431" style="enable-background:new 0 0 455.431 455.431;" xml:space="preserve">
<path style="fill:#6DAFE0;" d="M405.39,412.764c-69.689,56.889-287.289,56.889-355.556,0s-62.578-300.089,0-364.089
	s292.978-64,355.556,0S475.079,355.876,405.39,412.764z"/>
<g style="opacity:0.2;">
	<path style="fill:#FFFFFF;" d="M229.034,313.209c-62.578,49.778-132.267,75.378-197.689,76.8
		C-17.01,307.52-7.055,106.987,49.834,48.676c51.2-52.622,211.911-62.578,304.356-29.867
		C376.945,112.676,330.012,232.142,229.034,313.209z"/>
</g>
<g>
	<path style="fill:#FFFFFF;" d="M182.101,257.742v52.622c0,9.956-7.111,17.067-17.067,17.067s-17.067-7.111-17.067-17.067v-52.622
		c0-9.956,7.111-17.067,17.067-17.067S182.101,247.787,182.101,257.742z"/>
	<path style="fill:#FFFFFF;" d="M244.679,220.764v91.022c0,9.956-7.111,17.067-17.067,17.067s-17.067-7.111-17.067-17.067v-91.022
		c0-9.956,7.111-17.067,17.067-17.067S244.679,210.809,244.679,220.764z"/>
	<path style="fill:#FFFFFF;" d="M307.256,182.364v129.422c0,9.956-7.111,17.067-17.067,17.067s-17.067-7.111-17.067-17.067V182.364
		c0-8.533,7.111-17.067,17.067-17.067C300.145,165.298,307.256,172.409,307.256,182.364z"/>
	<path style="fill:#FFFFFF;" d="M369.834,143.964v166.4c0,9.956-7.111,17.067-17.067,17.067c-8.533,0-17.067-7.111-17.067-17.067
		v-166.4c0-9.956,7.111-17.067,17.067-17.067C362.723,128.32,369.834,135.431,369.834,143.964z"/>
	<path style="fill:#FFFFFF;" d="M119.523,296.142v15.644c0,9.956-7.111,17.067-17.067,17.067
		c-9.956-1.422-17.067-8.533-17.067-18.489V294.72c0-9.956,7.111-17.067,17.067-17.067
		C110.99,279.076,119.523,286.187,119.523,296.142z"/>
</g>
<g>
</g>
<g>
</g>
<g>
</g>
<g>
</g>
<g>
</g>
<g>
</g>
<g>
</g>
<g>
</g>
<g>
</g>
<g>
</g>
<g>
</g>
<g>
</g>
<g>
</g>
<g>
</g>
<g>
</g>
</svg>
