<?xml version="1.0" encoding="iso-8859-1"?>
<!-- Generator: Adobe Illustrator 19.0.0, SVG Export Plug-In . SVG Version: 6.00 Build 0)  -->
<svg version="1.1" id="Capa_1" xmlns="http://www.w3.org/2000/svg" xmlns:xlink="http://www.w3.org/1999/xlink" x="0px" y="0px"
	 viewBox="0 0 455.431 455.431" style="enable-background:new 0 0 455.431 455.431;" xml:space="preserve">
<path style="fill:#5CA4DA;" d="M405.493,412.764c-69.689,56.889-287.289,56.889-355.556,0c-69.689-56.889-62.578-300.089,0-364.089
	s292.978-64,355.556,0S475.182,355.876,405.493,412.764z"/>
<path style="fill:#6DAFE0;" d="M229.138,313.209c-62.578,49.778-132.267,75.378-197.689,76.8
	c-48.356-82.489-38.4-283.022,18.489-341.333c51.2-52.622,211.911-62.578,304.356-29.867
	C377.049,112.676,330.116,232.142,229.138,313.209z"/>
<g>
	<path style="fill:#FFFFFF;" d="M112.516,250.631c8.533,0,15.644-2.844,19.911-9.956l11.378,11.378
		c-8.533,9.956-18.489,14.222-29.867,14.222c-11.378,0-21.333-4.267-28.444-11.378c-7.111-7.111-11.378-17.067-11.378-28.444
		c0-11.378,4.267-19.911,11.378-28.444c7.111-7.111,17.067-11.378,28.444-11.378c12.8,0,22.756,4.267,31.289,14.222l-9.956,11.378
		c-5.689-7.111-11.378-9.956-19.911-9.956c-5.689,0-11.378,1.422-15.644,5.689c-4.267,4.267-7.111,9.956-7.111,17.067
		c0,7.111,1.422,12.8,5.689,17.067C101.138,249.209,106.827,250.631,112.516,250.631z"/>
	<path style="fill:#FFFFFF;" d="M219.182,254.898c-7.111,7.111-17.067,11.378-28.444,11.378s-19.911-4.267-28.444-11.378
		c-7.111-7.111-11.378-17.067-11.378-28.444c0-11.378,4.267-19.911,11.378-28.444c7.111-7.111,17.067-11.378,28.444-11.378
		s19.911,4.267,28.444,11.378c7.111,7.111,11.378,17.067,11.378,28.444C230.56,237.831,226.293,247.787,219.182,254.898z
		 M212.071,227.876c0-7.111-2.844-12.8-7.111-17.067c-4.267-4.267-9.956-7.111-15.644-7.111c-5.689,0-11.378,2.844-15.644,7.111
		c-4.267,4.267-7.111,9.956-7.111,17.067c0,7.111,2.844,12.8,7.111,17.067c4.267,4.267,9.956,7.111,15.644,7.111
		c5.689,0,11.378-2.844,15.644-7.111C210.649,240.676,212.071,234.987,212.071,227.876z"/>
	<path style="fill:#FFFFFF;" d="M307.36,254.898c-7.111,7.111-17.067,11.378-28.444,11.378s-19.911-4.267-28.444-11.378
		c-7.111-7.111-11.378-17.067-11.378-28.444c0-11.378,4.267-19.911,11.378-28.444c7.111-7.111,17.067-11.378,28.444-11.378
		s19.911,4.267,28.444,11.378c7.111,7.111,11.378,17.067,11.378,28.444C318.738,237.831,315.893,247.787,307.36,254.898z
		 M301.671,227.876c0-7.111-2.844-12.8-7.111-17.067c-4.267-4.267-9.956-7.111-15.644-7.111s-11.378,2.844-15.644,7.111
		c-4.267,4.267-7.111,9.956-7.111,17.067c0,7.111,2.844,12.8,7.111,17.067c4.267,4.267,9.956,7.111,15.644,7.111
		s11.378-2.844,15.644-7.111C300.249,240.676,301.671,234.987,301.671,227.876z"/>
	<path style="fill:#FFFFFF;" d="M332.96,266.276v-75.378h17.067v59.733h32.711v15.644H332.96z"/>
</g>
<g>
</g>
<g>
</g>
<g>
</g>
<g>
</g>
<g>
</g>
<g>
</g>
<g>
</g>
<g>
</g>
<g>
</g>
<g>
</g>
<g>
</g>
<g>
</g>
<g>
</g>
<g>
</g>
<g>
</g>
</svg>
