<?xml version="1.0" encoding="iso-8859-1"?>
<!-- Generator: Adobe Illustrator 19.0.0, SVG Export Plug-In . SVG Version: 6.00 Build 0)  -->
<svg version="1.1" id="Capa_1" xmlns="http://www.w3.org/2000/svg" xmlns:xlink="http://www.w3.org/1999/xlink" x="0px" y="0px"
	 viewBox="0 0 455.431 455.431" style="enable-background:new 0 0 455.431 455.431;" xml:space="preserve">
<path style="fill:#5CA4DA;" d="M405.493,412.764c-69.689,56.889-287.289,56.889-355.556,0c-69.689-56.889-62.578-300.089,0-364.089
	s292.978-64,355.556,0S475.182,355.876,405.493,412.764z"/>
<path style="fill:#6DAFE0;" d="M229.138,313.209c-62.578,49.778-132.267,75.378-197.689,76.8
	c-48.356-82.489-38.4-283.022,18.489-341.333c51.2-52.622,211.911-62.578,304.356-29.867
	C377.049,112.676,330.116,232.142,229.138,313.209z"/>
<path style="fill:#FFFFFF;" d="M325.849,324.587c-27.022,25.6-58.311,38.4-98.133,38.4c-38.4,0-71.111-12.8-98.133-38.4
	c-25.6-25.6-39.822-58.311-39.822-96.711s12.8-71.111,39.822-96.711s59.733-38.4,98.133-38.4s71.111,12.8,98.133,38.4
	s39.822,58.311,39.822,96.711C365.671,266.276,351.449,298.987,325.849,324.587z M308.782,227.876
	c0-24.178-7.111-44.089-22.756-61.156c-15.644-17.067-34.133-25.6-56.889-25.6s-41.244,8.533-56.889,25.6
	s-22.756,36.978-22.756,61.156s7.111,44.089,22.756,61.156c15.644,17.067,34.133,25.6,56.889,25.6s41.244-8.533,56.889-25.6
	C300.249,271.964,308.782,252.053,308.782,227.876z"/>
<g>
</g>
<g>
</g>
<g>
</g>
<g>
</g>
<g>
</g>
<g>
</g>
<g>
</g>
<g>
</g>
<g>
</g>
<g>
</g>
<g>
</g>
<g>
</g>
<g>
</g>
<g>
</g>
<g>
</g>
</svg>
