<?xml version="1.0" encoding="iso-8859-1"?>
<!-- Generator: Adobe Illustrator 19.0.0, SVG Export Plug-In . SVG Version: 6.00 Build 0)  -->
<svg version="1.1" id="Capa_1" xmlns="http://www.w3.org/2000/svg" xmlns:xlink="http://www.w3.org/1999/xlink" x="0px" y="0px"
	 viewBox="0 0 455.431 455.431" style="enable-background:new 0 0 455.431 455.431;" xml:space="preserve">
<path style="fill:#5CA4DA;" d="M405.493,412.764c-69.689,56.889-287.289,56.889-355.556,0c-69.689-56.889-62.578-300.089,0-364.089
	s292.978-64,355.556,0S475.182,355.876,405.493,412.764z"/>
<path style="fill:#6DAFE0;" d="M229.138,313.209c-62.578,49.778-132.267,75.378-197.689,76.8
	c-48.356-82.489-38.4-283.022,18.489-341.333c51.2-52.622,211.911-62.578,304.356-29.867
	C377.049,112.676,330.116,232.142,229.138,313.209z"/>
<g>
	<path style="fill:#FFFFFF;" d="M182.204,159.609h31.289v139.378h-31.289l-66.844-86.756v86.756H85.493V159.609h28.444l68.267,89.6
		V159.609z"/>
	<path style="fill:#FFFFFF;" d="M338.649,227.876h31.289v49.778c-14.222,15.644-32.711,22.756-56.889,22.756
		c-19.911,0-36.978-7.111-51.2-19.911c-14.222-14.222-21.333-31.289-21.333-51.2c0-21.333,7.111-38.4,21.333-51.2
		c14.222-14.222,31.289-21.333,51.2-21.333s36.978,7.111,52.622,19.911l-17.067,22.756c-5.689-5.689-11.378-8.533-17.067-11.378
		c-5.689-2.844-11.378-2.844-17.067-2.844c-11.378,0-21.333,4.267-29.867,11.378c-8.533,8.533-12.8,18.489-12.8,31.289
		c0,12.8,4.267,24.178,11.378,31.289c7.111,8.533,17.067,11.378,28.444,11.378c11.378,0,19.911-1.422,27.022-5.689V227.876z"/>
</g>
<g>
</g>
<g>
</g>
<g>
</g>
<g>
</g>
<g>
</g>
<g>
</g>
<g>
</g>
<g>
</g>
<g>
</g>
<g>
</g>
<g>
</g>
<g>
</g>
<g>
</g>
<g>
</g>
<g>
</g>
</svg>
