<?xml version="1.0" encoding="iso-8859-1"?>
<!-- Generator: Adobe Illustrator 19.0.0, SVG Export Plug-In . SVG Version: 6.00 Build 0)  -->
<svg version="1.1" id="Capa_1" xmlns="http://www.w3.org/2000/svg" xmlns:xlink="http://www.w3.org/1999/xlink" x="0px" y="0px"
	 viewBox="0 0 455.431 455.431" style="enable-background:new 0 0 455.431 455.431;" xml:space="preserve">
<path style="fill:#5CA4DA;" d="M405.39,412.764c-69.689,56.889-287.289,56.889-355.556,0s-62.578-300.089,0-364.089
	s292.978-64,355.556,0S475.079,355.876,405.39,412.764z"/>
<path style="fill:#6DAFE0;" d="M229.034,313.209c-62.578,49.778-132.267,75.378-197.689,76.8
	C-17.01,307.52-7.055,106.987,49.834,48.676c51.2-52.622,211.911-62.578,304.356-29.867
	C376.945,112.676,330.012,232.142,229.034,313.209z"/>
<path style="fill:#FFFFFF;" d="M192.056,85.653h71.111v49.778l-12.8,145.067h-46.933l-11.378-145.067L192.056,85.653L192.056,85.653
	z M192.056,334.542c0-19.911,15.644-35.556,35.556-35.556s35.556,15.644,35.556,35.556s-15.644,35.556-35.556,35.556
	S192.056,354.453,192.056,334.542z"/>
<g>
</g>
<g>
</g>
<g>
</g>
<g>
</g>
<g>
</g>
<g>
</g>
<g>
</g>
<g>
</g>
<g>
</g>
<g>
</g>
<g>
</g>
<g>
</g>
<g>
</g>
<g>
</g>
<g>
</g>
</svg>
