<?xml version="1.0" encoding="iso-8859-1"?>
<!-- Generator: Adobe Illustrator 19.0.0, SVG Export Plug-In . SVG Version: 6.00 Build 0)  -->
<svg version="1.1" id="Capa_1" xmlns="http://www.w3.org/2000/svg" xmlns:xlink="http://www.w3.org/1999/xlink" x="0px" y="0px"
	 viewBox="0 0 455.431 455.431" style="enable-background:new 0 0 455.431 455.431;" xml:space="preserve">
<path style="fill:#5CA4DA;" d="M405.493,412.764c-69.689,56.889-287.289,56.889-355.556,0c-69.689-56.889-62.578-300.089,0-364.089
	s292.978-64,355.556,0S475.182,355.876,405.493,412.764z"/>
<path style="fill:#6DAFE0;" d="M229.138,313.209c-62.578,49.778-132.267,75.378-197.689,76.8
	c-48.356-82.489-38.4-283.022,18.489-341.333c51.2-52.622,211.911-62.578,304.356-29.867
	C377.049,112.676,330.116,232.142,229.138,313.209z"/>
<path style="fill:#FFFFFF;" d="M348.604,199.431l9.956-46.933h-45.511l12.8-66.844h-48.356l-11.378,66.844h-52.622l11.378-66.844
	h-48.356l-11.378,66.844h-44.089l-8.533,46.933h44.089l-9.956,61.156h-39.822l-9.956,46.933h39.822l-9.956,62.578h48.356
	l11.378-62.578h52.622l-9.956,62.578h48.356l11.378-62.578h46.933l9.956-46.933h-48.356l9.956-61.156H348.604z M259.004,199.431
	l-11.378,61.156h-52.622l11.378-61.156H259.004L259.004,199.431z"/>
<g>
</g>
<g>
</g>
<g>
</g>
<g>
</g>
<g>
</g>
<g>
</g>
<g>
</g>
<g>
</g>
<g>
</g>
<g>
</g>
<g>
</g>
<g>
</g>
<g>
</g>
<g>
</g>
<g>
</g>
</svg>
