<?xml version="1.0" encoding="iso-8859-1"?>
<!-- Generator: Adobe Illustrator 19.0.0, SVG Export Plug-In . SVG Version: 6.00 Build 0)  -->
<svg version="1.1" id="Capa_1" xmlns="http://www.w3.org/2000/svg" xmlns:xlink="http://www.w3.org/1999/xlink" x="0px" y="0px"
	 viewBox="0 0 455.431 455.431" style="enable-background:new 0 0 455.431 455.431;" xml:space="preserve">
<path style="fill:#6DAFE0;" d="M405.493,412.764c-69.689,56.889-287.289,56.889-355.556,0c-69.689-56.889-62.578-300.089,0-364.089
	s292.978-64,355.556,0S475.182,355.876,405.493,412.764z"/>
<g style="opacity:0.2;">
	<path style="fill:#FFFFFF;" d="M229.138,313.209c-62.578,49.778-132.267,75.378-197.689,76.8
		c-48.356-82.489-38.4-283.022,18.489-341.333c51.2-52.622,211.911-62.578,304.356-29.867
		C377.049,112.676,330.116,232.142,229.138,313.209z"/>
</g>
<path style="fill:#FFFFFF;" d="M320.16,236.409c0,22.756-19.911,42.667-42.667,42.667h-22.756
	c-7.111-51.2-59.733-85.333-108.089-72.533l0,0c4.267-19.911,21.333-35.556,42.667-35.556h81.067v28.444
	c0,9.956,11.378,15.644,18.489,9.956l75.378-55.467c5.689-4.267,5.689-14.222,0-18.489l-75.378-55.467
	c-7.111-5.689-18.489,0-18.489,9.956v28.444h-82.489c-55.467,0-99.556,44.089-99.556,99.556v38.4l0,0
	c-5.689,11.378-8.533,24.178-8.533,36.978c0,48.356,39.822,86.756,86.756,86.756c32.711,0,61.156-18.489,75.378-44.089h34.133
	c54.044,0,99.556-44.089,99.556-99.556v-41.244L320.16,236.409z M177.938,252.053c0,28.444,0,49.778,0,81.067h-17.067
	c0-36.978,0-48.356,0-65.422c-7.111,0-12.8,0-21.333,0v-15.644C152.338,252.053,165.138,252.053,177.938,252.053z"/>
<g>
</g>
<g>
</g>
<g>
</g>
<g>
</g>
<g>
</g>
<g>
</g>
<g>
</g>
<g>
</g>
<g>
</g>
<g>
</g>
<g>
</g>
<g>
</g>
<g>
</g>
<g>
</g>
<g>
</g>
</svg>
