<?xml version="1.0" encoding="iso-8859-1"?>
<!-- Generator: Adobe Illustrator 19.0.0, SVG Export Plug-In . SVG Version: 6.00 Build 0)  -->
<svg version="1.1" id="Capa_1" xmlns="http://www.w3.org/2000/svg" xmlns:xlink="http://www.w3.org/1999/xlink" x="0px" y="0px"
	 viewBox="0 0 455.431 455.431" style="enable-background:new 0 0 455.431 455.431;" xml:space="preserve">
<path style="fill:#6DAFE0;" d="M405.493,412.764c-69.689,56.889-287.289,56.889-355.556,0c-69.689-56.889-62.578-300.089,0-364.089
	s292.978-64,355.556,0S475.182,355.876,405.493,412.764z"/>
<g style="opacity:0.2;">
	<path style="fill:#FFFFFF;" d="M229.138,313.209c-62.578,49.778-132.267,75.378-197.689,76.8
		c-48.356-82.489-38.4-283.022,18.489-341.333c51.2-52.622,211.911-62.578,304.356-29.867
		C377.049,112.676,330.116,232.142,229.138,313.209z"/>
</g>
<path style="fill:#FFFFFF;" d="M327.271,254.898c-7.111-5.689-17.067,0-17.067,8.533v14.222
	c-29.867-5.689-58.311-22.756-75.378-48.356c17.067-25.6,44.089-44.089,75.378-48.356v15.644c0,8.533,9.956,14.222,17.067,8.533
	l39.822-32.711c5.689-4.267,5.689-11.378,0-15.644l-39.822-35.556c-7.111-5.689-17.067,0-17.067,8.533v14.222
	c-36.978,4.267-71.111,24.178-95.289,52.622c-27.022-34.133-69.689-54.044-113.778-54.044c-8.533,0-15.644,7.111-15.644,17.067
	c0,8.533,7.111,17.067,17.067,17.067c36.978,0,72.533,19.911,93.867,51.2c-19.911,31.289-55.467,51.2-93.867,51.2
	c-9.956-1.422-17.067,5.689-17.067,15.644c0,8.533,7.111,17.067,17.067,17.067c44.089,0,85.333-19.911,113.778-54.044
	c22.756,28.444,56.889,48.356,95.289,52.622v17.067c0,8.533,9.956,14.222,17.067,8.533l39.822-32.711
	c5.689-4.267,5.689-11.378,0-15.644L327.271,254.898z"/>
<g>
</g>
<g>
</g>
<g>
</g>
<g>
</g>
<g>
</g>
<g>
</g>
<g>
</g>
<g>
</g>
<g>
</g>
<g>
</g>
<g>
</g>
<g>
</g>
<g>
</g>
<g>
</g>
<g>
</g>
</svg>
