<?xml version="1.0" encoding="iso-8859-1"?>
<!-- Generator: Adobe Illustrator 19.0.0, SVG Export Plug-In . SVG Version: 6.00 Build 0)  -->
<svg version="1.1" id="Capa_1" xmlns="http://www.w3.org/2000/svg" xmlns:xlink="http://www.w3.org/1999/xlink" x="0px" y="0px"
	 viewBox="0 0 455.431 455.431" style="enable-background:new 0 0 455.431 455.431;" xml:space="preserve">
<path style="fill:#6DAFE0;" d="M405.493,412.764c-69.689,56.889-287.289,56.889-355.556,0c-69.689-56.889-62.578-300.089,0-364.089
	s292.978-64,355.556,0S475.182,355.876,405.493,412.764z"/>
<g style="opacity:0.2;">
	<path style="fill:#FFFFFF;" d="M229.138,313.209c-62.578,49.778-132.267,75.378-197.689,76.8
		c-48.356-82.489-38.4-283.022,18.489-341.333c51.2-52.622,211.911-62.578,304.356-29.867
		C377.049,112.676,330.116,232.142,229.138,313.209z"/>
</g>
<path style="fill:#FFFFFF;" d="M89.76,240.676l115.2,73.956c11.378,7.111,28.444,0,28.444-12.8v-51.2l98.133,62.578
	c11.378,7.111,28.444,0,28.444-12.8V153.92c0-12.8-17.067-19.911-28.444-12.8l-98.133,62.578v-51.2
	c0-12.8-17.067-19.911-28.444-12.8l-115.2,73.956C79.804,222.187,79.804,233.564,89.76,240.676z"/>
<g>
</g>
<g>
</g>
<g>
</g>
<g>
</g>
<g>
</g>
<g>
</g>
<g>
</g>
<g>
</g>
<g>
</g>
<g>
</g>
<g>
</g>
<g>
</g>
<g>
</g>
<g>
</g>
<g>
</g>
</svg>
